<?xml version="1.0" encoding="UTF-8" ?>
<!DOCTYPE svg PUBLIC "-//W3C//DTD SVG 1.1//EN" "http://www.w3.org/Graphics/SVG/1.1/DTD/svg11.dtd">
<svg width="90pt" height="90pt" viewBox="0 0 90 90" version="1.1" xmlns="http://www.w3.org/2000/svg">
<g id="#888888ff">
<path fill="#888888" opacity="1.00" d=" M 39.71 0.21 C 43.19 0.17 46.67 0.20 50.16 0.15 C 50.16 12.13 50.20 24.11 50.13 36.09 C 53.57 36.12 57.01 36.12 60.45 36.07 C 55.32 41.97 50.17 47.87 44.94 53.70 C 39.88 47.78 34.74 41.94 29.55 36.14 C 32.95 36.09 36.34 36.11 39.74 36.10 C 39.67 24.14 39.74 12.17 39.71 0.21 Z" />
<path fill="#888888" opacity="1.00" d=" M 0.00 55.64 C 6.89 38.65 14.07 21.78 21.02 4.82 C 26.11 4.79 31.19 4.81 36.28 4.81 C 36.28 6.34 36.27 7.87 36.27 9.40 C 32.76 9.39 29.24 9.39 25.73 9.42 C 19.25 24.78 12.82 40.16 6.17 55.44 C 13.97 55.42 21.78 55.44 29.58 55.43 C 31.55 58.21 33.49 61.00 35.43 63.80 C 41.64 63.84 47.86 63.74 54.07 63.86 C 56.18 61.11 58.06 58.19 60.11 55.39 C 67.87 55.47 75.63 55.43 83.39 55.42 C 77.02 40.17 70.79 24.84 64.30 9.64 C 60.86 9.01 57.29 9.59 53.81 9.38 C 53.80 7.86 53.80 6.34 53.80 4.82 C 58.82 4.79 63.84 4.84 68.86 4.78 C 76.12 21.50 82.80 38.46 90.00 55.20 L 90.00 90.00 L 0.00 90.00 L 0.00 55.64 Z" />
</g>
</svg>
