<?xml version="1.0" encoding="UTF-8" ?>
<!DOCTYPE svg PUBLIC "-//W3C//DTD SVG 1.1//EN" "http://www.w3.org/Graphics/SVG/1.1/DTD/svg11.dtd">
<svg width="90pt" height="90pt" viewBox="0 0 90 90" version="1.1" xmlns="http://www.w3.org/2000/svg">
<g id="#ffffffff">
<path fill="#ffffff" opacity="1.00" d=" M 39.70 0.21 C 43.19 0.17 46.67 0.21 50.16 0.14 C 50.16 12.13 50.21 24.11 50.13 36.10 C 53.57 36.12 57.02 36.13 60.46 36.06 C 55.32 41.97 50.18 47.89 44.92 53.70 C 39.89 47.77 34.73 41.94 29.54 36.14 C 32.94 36.09 36.34 36.11 39.74 36.10 C 39.67 24.13 39.74 12.17 39.70 0.21 Z" />
<path fill="#ffffff" opacity="1.00" d=" M 0.00 55.61 C 6.90 38.64 14.08 21.78 21.01 4.82 C 26.10 4.80 31.19 4.82 36.28 4.80 C 36.28 6.34 36.28 7.87 36.28 9.41 C 32.76 9.40 29.25 9.39 25.73 9.42 C 19.25 24.78 12.83 40.16 6.17 55.44 C 13.97 55.42 21.78 55.44 29.58 55.43 C 31.54 58.21 33.49 61.00 35.42 63.80 C 41.57 63.74 47.73 63.92 53.88 63.74 C 56.41 61.41 57.91 58.06 60.12 55.39 C 67.88 55.48 75.64 55.43 83.40 55.42 C 77.37 40.86 71.26 26.34 65.29 11.76 C 64.77 10.87 64.60 9.07 63.12 9.40 C 60.02 9.33 56.91 9.44 53.80 9.39 C 53.80 7.86 53.80 6.34 53.80 4.82 C 58.82 4.79 63.84 4.84 68.86 4.78 C 76.12 21.48 82.79 38.46 90.00 55.19 L 90.00 90.00 L 0.00 90.00 L 0.00 55.61 Z" />
</g>
</svg>
