<?xml version="1.0" encoding="UTF-8" ?>
<!DOCTYPE svg PUBLIC "-//W3C//DTD SVG 1.1//EN" "http://www.w3.org/Graphics/SVG/1.1/DTD/svg11.dtd">
<svg width="90pt" height="90pt" viewBox="0 0 90 90" version="1.1" xmlns="http://www.w3.org/2000/svg">
<g id="#888888ff">
<path fill="#888888" opacity="1.00" d=" M 29.19 0.00 L 61.08 0.00 C 63.25 3.24 65.40 6.49 67.57 9.73 C 75.05 9.76 82.52 9.73 90.00 9.74 L 90.00 77.25 C 83.58 77.50 77.04 76.80 70.70 77.57 C 64.65 84.18 56.60 89.37 47.45 90.00 L 43.56 90.00 C 34.14 89.63 25.45 84.45 19.49 77.34 C 12.99 77.17 6.50 77.30 0.00 77.26 L 0.00 9.75 C 7.55 9.72 15.09 9.78 22.64 9.71 C 24.87 6.50 26.90 3.16 29.19 0.00 M 69.39 20.48 C 67.62 21.95 66.66 24.64 68.25 26.62 C 70.04 30.02 75.69 29.61 76.92 25.95 C 79.01 21.68 72.80 17.07 69.39 20.48 M 38.56 29.80 C 32.64 31.22 27.36 34.76 23.60 39.52 C 15.84 48.99 15.85 63.81 23.67 73.25 C 30.16 81.67 41.84 85.71 52.09 82.75 C 65.28 79.55 74.66 65.36 72.08 51.97 C 70.83 43.54 65.18 36.08 57.73 32.10 C 51.90 29.00 44.96 28.36 38.56 29.80 Z" />
<path fill="#888888" opacity="1.00" d=" M 38.46 35.72 C 44.75 33.66 51.98 34.69 57.42 38.50 C 63.40 42.59 67.15 49.83 66.71 57.10 C 66.70 68.05 56.96 77.93 45.98 77.93 C 36.27 78.65 26.89 71.77 24.29 62.47 C 20.83 51.61 27.52 38.93 38.46 35.72 Z" />
</g>
</svg>
