<?xml version="1.0" encoding="UTF-8" ?>
<!DOCTYPE svg PUBLIC "-//W3C//DTD SVG 1.1//EN" "http://www.w3.org/Graphics/SVG/1.1/DTD/svg11.dtd">
<svg width="90pt" height="90pt" viewBox="0 0 90 90" version="1.1" xmlns="http://www.w3.org/2000/svg">
<g id="#ffffffff">
<path fill="#ffffff" opacity="1.00" d=" M 29.19 0.00 L 61.07 0.00 C 63.26 3.24 65.40 6.50 67.59 9.74 C 75.06 9.74 82.53 9.73 90.00 9.74 L 90.00 77.25 C 83.56 77.31 77.12 77.17 70.69 77.34 C 64.71 84.51 55.93 89.71 46.45 90.00 L 43.85 90.00 C 34.30 89.76 25.48 84.48 19.44 77.30 C 12.96 77.21 6.48 77.29 0.00 77.26 L 0.00 9.75 C 7.54 9.71 15.07 9.77 22.61 9.71 C 24.88 6.53 26.89 3.16 29.19 0.00 M 69.43 20.44 C 67.64 21.93 66.65 24.61 68.25 26.62 C 70.06 30.03 75.70 29.59 76.94 25.93 C 78.96 21.69 72.87 17.12 69.43 20.44 M 38.54 29.80 C 25.37 32.84 15.78 46.70 18.06 60.11 C 19.63 74.33 33.97 85.46 48.14 83.53 C 58.19 82.48 67.21 75.36 70.72 65.91 C 74.57 56.06 71.90 44.11 64.17 36.88 C 57.68 30.14 47.55 27.67 38.54 29.80 Z" />
<path fill="#ffffff" opacity="1.00" d=" M 38.40 35.74 C 50.80 31.19 65.61 40.69 66.60 53.85 C 68.42 65.86 58.19 77.95 46.01 77.93 C 34.37 78.90 23.41 68.66 23.49 57.03 C 22.89 47.63 29.45 38.49 38.40 35.74 Z" />
</g>
</svg>
