<?xml version="1.0" encoding="UTF-8" ?>
<!DOCTYPE svg PUBLIC "-//W3C//DTD SVG 1.1//EN" "http://www.w3.org/Graphics/SVG/1.1/DTD/svg11.dtd">
<svg width="90pt" height="90pt" viewBox="0 0 90 90" version="1.1" xmlns="http://www.w3.org/2000/svg">
<g id="#ffffffff">
<path fill="#ffffff" opacity="1.00" d=" M 9.40 7.33 C 11.45 3.87 14.92 0.92 19.07 0.59 C 27.34 -0.54 35.71 0.27 43.99 0.82 C 51.69 1.19 59.11 3.50 66.76 4.28 C 66.78 16.51 66.75 28.74 66.77 40.97 C 64.87 41.44 62.74 41.71 61.33 43.23 C 56.15 48.19 53.54 55.05 50.71 61.48 C 48.89 65.92 43.71 67.57 41.64 71.84 C 38.64 77.40 38.83 83.94 37.63 90.00 L 34.57 90.00 C 28.18 88.88 25.10 81.91 25.79 75.99 C 26.08 68.10 33.19 62.21 32.63 54.19 C 25.40 54.10 18.15 54.54 10.94 53.90 C 6.18 53.77 3.33 49.04 2.03 44.99 C 2.19 42.64 4.48 41.08 5.10 38.85 C 4.35 36.43 2.60 34.45 1.96 32.00 C 3.08 29.89 5.37 28.40 5.89 26.02 C 5.41 23.53 4.36 21.19 3.75 18.72 C 5.33 16.96 7.12 15.36 8.52 13.45 C 9.37 11.55 8.74 9.30 9.40 7.33 Z" />
<path fill="#ffffff" opacity="1.00" d=" M 69.95 5.97 C 69.59 3.96 71.44 3.03 72.74 1.96 C 76.79 2.08 80.85 1.80 84.89 2.09 C 86.47 2.70 88.12 3.94 87.80 5.86 C 87.82 17.25 87.88 28.64 87.77 40.02 C 87.78 42.84 84.30 43.50 82.07 43.27 C 78.03 42.85 73.04 44.60 69.96 41.15 C 69.86 29.42 69.85 17.69 69.95 5.97 Z" />
</g>
</svg>
