<?xml version="1.0" encoding="UTF-8" ?>
<!DOCTYPE svg PUBLIC "-//W3C//DTD SVG 1.1//EN" "http://www.w3.org/Graphics/SVG/1.1/DTD/svg11.dtd">
<svg width="90pt" height="90pt" viewBox="0 0 90 90" version="1.1" xmlns="http://www.w3.org/2000/svg">
<g id="#888888ff">
<path fill="#888888" opacity="1.00" d=" M 24.60 0.00 L 29.52 0.00 C 34.69 0.15 39.85 0.50 45.00 0.89 C 52.35 1.37 59.44 3.55 66.76 4.27 C 66.77 16.51 66.76 28.74 66.77 40.97 C 61.56 41.35 58.52 46.02 56.11 50.08 C 53.88 53.75 52.41 57.79 50.62 61.67 C 48.76 65.92 43.82 67.59 41.72 71.67 C 38.63 77.27 38.87 83.89 37.59 90.00 L 34.42 90.00 C 28.12 88.73 25.10 81.88 25.80 75.98 C 26.10 68.09 33.16 62.21 32.65 54.18 C 25.40 54.12 18.13 54.53 10.89 53.90 C 6.65 53.83 4.00 49.88 2.49 46.38 C 0.93 43.51 4.45 41.46 5.05 38.87 C 4.38 36.44 2.65 34.45 1.95 32.03 C 3.08 30.21 4.63 28.69 5.72 26.85 C 6.30 23.98 3.52 21.41 4.20 18.53 C 5.51 16.49 7.57 15.03 8.77 12.92 C 9.17 10.17 8.68 6.95 11.09 4.97 C 14.28 0.78 19.74 0.25 24.60 0.00 Z" />
<path fill="#888888" opacity="1.00" d=" M 69.96 5.93 C 69.69 2.76 73.40 1.52 75.97 1.96 C 79.71 2.44 84.40 0.64 87.33 3.74 C 88.04 5.04 87.73 6.61 87.84 8.03 C 87.74 18.68 87.92 29.33 87.76 39.98 C 87.82 42.88 84.24 43.48 81.98 43.27 C 77.96 42.89 73.01 44.55 69.95 41.14 C 69.88 29.41 69.83 17.66 69.96 5.93 Z" />
</g>
</svg>
