<?xml version="1.0" encoding="UTF-8" ?>
<!DOCTYPE svg PUBLIC "-//W3C//DTD SVG 1.1//EN" "http://www.w3.org/Graphics/SVG/1.1/DTD/svg11.dtd">
<svg width="512pt" height="512pt" viewBox="0 0 512 512" version="1.1" xmlns="http://www.w3.org/2000/svg">
<g id="#ffffffff">
<path fill="#ffffff" opacity="1.00" d=" M 254.25 0.00 L 258.55 0.00 C 273.13 0.55 287.72 1.67 302.07 4.41 C 339.05 11.10 374.45 26.20 404.95 48.14 C 447.15 78.36 479.86 121.66 497.11 170.64 C 506.65 197.17 511.21 225.28 512.00 253.40 L 512.00 258.54 C 511.17 292.33 504.45 326.10 490.91 357.14 C 477.48 388.30 457.75 416.72 433.27 440.22 C 404.32 468.19 368.64 489.17 330.09 500.80 C 306.93 507.94 282.76 511.27 258.58 512.00 L 253.54 512.00 C 218.79 511.17 184.08 504.08 152.32 489.80 C 95.37 464.68 48.34 417.96 22.86 361.17 C 8.05 328.77 0.68 293.24 0.00 257.69 L 0.00 254.29 C 0.51 235.83 2.40 217.39 6.56 199.38 C 17.33 151.45 42.41 106.88 77.72 72.73 C 113.24 37.94 159.18 13.95 208.05 4.76 C 223.27 1.76 238.76 0.49 254.25 0.00 M 252.41 71.45 C 237.54 108.50 222.67 145.56 207.78 182.60 C 206.41 186.33 203.37 189.28 199.72 190.78 C 195.40 192.83 190.49 191.63 185.92 192.50 C 180.94 193.34 175.86 192.76 170.87 193.52 C 165.32 194.40 159.65 193.73 154.12 194.79 C 143.06 195.36 132.03 196.13 121.00 197.02 C 114.97 196.79 109.06 198.26 103.03 198.08 C 93.19 198.94 83.33 199.38 73.49 200.29 C 69.77 200.94 70.76 205.22 73.36 206.66 C 103.89 232.52 134.77 257.99 165.40 283.74 C 169.77 287.30 171.73 293.60 170.02 298.98 C 160.40 337.31 150.74 375.64 141.10 413.96 C 140.52 415.91 140.57 417.92 141.25 419.85 C 142.93 419.96 144.80 420.33 146.23 419.17 C 180.23 397.88 214.19 376.51 248.18 355.19 C 252.57 352.22 258.69 352.04 263.21 354.83 C 296.45 375.64 329.63 396.56 362.88 417.35 C 365.21 418.60 367.85 421.09 370.62 419.60 C 371.94 417.33 370.92 414.70 370.44 412.36 C 360.95 374.25 351.27 336.19 341.75 298.09 C 340.22 292.69 342.76 286.56 347.18 283.22 C 377.50 257.87 407.86 232.54 438.14 207.14 C 439.67 205.79 441.60 204.19 440.99 201.88 C 438.65 199.05 434.66 200.41 431.52 199.78 C 425.78 198.71 419.90 199.41 414.16 198.44 C 410.28 197.88 406.35 198.19 402.46 197.84 C 395.70 196.71 388.83 197.31 382.07 196.20 C 375.01 196.29 368.06 194.94 361.01 195.01 C 347.39 193.75 333.73 193.24 320.10 192.06 C 313.56 192.67 306.55 189.02 304.24 182.68 C 289.34 145.62 274.46 108.55 259.58 71.47 C 258.85 70.01 258.08 67.65 256.00 67.97 C 253.91 67.62 253.13 70.00 252.41 71.45 Z" />
</g>
</svg>
