<?xml version="1.0" encoding="UTF-8" ?>
<!DOCTYPE svg PUBLIC "-//W3C//DTD SVG 1.1//EN" "http://www.w3.org/Graphics/SVG/1.1/DTD/svg11.dtd">
<svg width="90pt" height="90pt" viewBox="0 0 90 90" version="1.1" xmlns="http://www.w3.org/2000/svg">
<g id="#ffffffff">
<path fill="#ffffff" opacity="1.00" d=" M 8.79 25.72 C 11.15 20.58 14.14 14.56 20.00 12.85 C 25.93 11.35 30.87 15.89 36.50 16.72 C 44.70 18.11 53.49 17.83 61.11 14.21 C 64.75 12.44 69.34 11.89 72.88 14.19 C 76.69 16.77 79.00 20.96 80.88 25.05 C 86.12 37.64 88.89 51.21 90.00 64.77 L 90.00 66.07 C 89.93 70.30 88.87 75.08 85.00 77.45 C 81.80 78.41 78.80 76.49 76.15 74.94 C 70.04 71.20 66.20 64.75 60.21 60.86 C 54.83 58.56 48.72 59.04 42.98 58.88 C 37.98 59.29 32.30 58.72 28.10 61.99 C 22.36 66.68 18.08 73.24 11.18 76.43 C 8.89 77.71 5.52 78.59 3.56 76.28 C 0.69 73.79 0.19 69.74 0.00 66.17 L 0.00 65.05 C 1.00 51.64 3.80 38.23 8.79 25.72 M 22.56 24.67 C 16.18 26.70 12.45 34.24 14.70 40.55 C 16.59 46.78 23.82 50.77 30.07 48.80 C 36.90 47.13 41.26 39.04 38.67 32.45 C 36.62 26.01 28.89 22.25 22.56 24.67 M 62.17 24.01 C 59.52 24.46 57.91 28.05 59.95 30.05 C 61.51 32.30 65.20 31.91 66.40 29.50 C 68.21 26.89 65.00 23.14 62.17 24.01 M 53.49 32.51 C 51.33 33.08 49.80 35.73 50.91 37.82 C 51.87 40.21 55.31 41.17 57.04 39.03 C 60.01 36.67 56.96 31.41 53.49 32.51 M 69.32 33.13 C 67.11 34.61 67.19 38.06 69.38 39.50 C 71.49 41.33 74.81 39.46 75.26 37.00 C 76.10 33.90 71.85 30.91 69.32 33.13 M 61.37 41.42 C 59.17 42.22 58.24 45.29 59.88 47.06 C 61.60 49.74 65.92 48.75 66.75 45.83 C 67.77 42.82 64.07 40.09 61.37 41.42 Z" />
<path fill="#ffffff" opacity="1.00" d=" M 24.14 28.05 C 30.34 25.82 37.24 32.27 35.43 38.61 C 34.21 44.94 25.57 47.86 20.88 43.31 C 15.48 39.14 17.63 29.75 24.14 28.05 Z" />
</g>
</svg>
