<?xml version="1.0" encoding="UTF-8" ?>
<!DOCTYPE svg PUBLIC "-//W3C//DTD SVG 1.1//EN" "http://www.w3.org/Graphics/SVG/1.1/DTD/svg11.dtd">
<svg width="90pt" height="90pt" viewBox="0 0 90 90" version="1.1" xmlns="http://www.w3.org/2000/svg">
<g id="#888888ff">
<path fill="#888888" opacity="1.00" d=" M 8.82 25.67 C 11.18 20.54 14.17 14.53 20.03 12.85 C 25.75 11.39 30.54 15.63 35.92 16.60 C 42.20 17.82 48.80 17.83 55.05 16.39 C 59.76 15.37 63.99 11.91 69.04 12.78 C 73.62 13.38 76.68 17.35 78.86 21.07 C 83.09 28.71 85.31 37.26 87.20 45.73 C 88.49 52.18 89.79 58.66 90.00 65.25 L 90.00 65.75 C 89.93 70.04 89.03 74.94 85.09 77.38 C 82.11 78.46 79.17 76.70 76.66 75.25 C 70.23 71.54 66.33 64.79 60.13 60.81 C 54.74 58.63 48.72 59.01 43.01 58.88 C 37.75 59.28 31.67 58.71 27.46 62.51 C 21.31 67.88 16.31 75.35 8.04 77.61 C 2.47 78.48 0.20 71.70 0.00 67.27 L 0.00 64.43 C 1.15 51.22 3.85 38.00 8.82 25.67 M 22.45 24.70 C 16.14 26.78 12.48 34.23 14.68 40.50 C 16.56 46.77 23.83 50.79 30.11 48.79 C 36.89 47.11 41.22 39.09 38.70 32.52 C 36.66 26.00 28.82 22.20 22.45 24.70 M 61.36 24.34 C 59.18 25.09 58.21 28.23 59.86 29.95 C 61.39 32.27 65.16 31.98 66.38 29.53 C 68.43 26.61 64.28 22.45 61.36 24.34 M 52.33 33.05 C 50.26 34.31 49.89 37.57 51.86 39.09 C 53.33 40.90 56.27 40.43 57.45 38.54 C 60.17 35.56 55.53 30.43 52.33 33.05 M 69.32 33.12 C 67.09 34.62 67.19 38.11 69.43 39.54 C 71.55 41.32 74.78 39.44 75.28 37.00 C 76.07 33.89 71.87 30.92 69.32 33.12 M 61.39 41.41 C 58.83 42.30 58.25 45.95 60.36 47.63 C 62.58 49.91 66.72 48.07 66.89 45.03 C 67.14 42.28 63.81 40.27 61.39 41.41 Z" />
<path fill="#888888" opacity="1.00" d=" M 24.16 28.05 C 30.34 25.85 37.21 32.26 35.43 38.58 C 34.23 44.94 25.53 47.88 20.85 43.28 C 15.48 39.09 17.65 29.72 24.16 28.05 Z" />
</g>
</svg>
