<?xml version="1.0" encoding="UTF-8" ?>
<!DOCTYPE svg PUBLIC "-//W3C//DTD SVG 1.1//EN" "http://www.w3.org/Graphics/SVG/1.1/DTD/svg11.dtd">
<svg width="204pt" height="204pt" viewBox="0 0 204 204" version="1.1" xmlns="http://www.w3.org/2000/svg">
<g id="#ffffffff">
<path fill="#ffffff" opacity="1.00" d=" M 20.79 48.23 C 47.79 32.15 74.92 16.28 102.00 0.33 C 129.08 16.28 156.22 32.14 183.22 48.23 C 156.17 64.36 129.08 80.41 102.00 96.47 C 74.92 80.41 47.82 64.37 20.79 48.23 Z" />
<path fill="#ffffff" opacity="1.00" d=" M 14.52 61.22 C 41.86 76.47 69.21 91.69 96.51 107.01 C 96.45 139.15 96.56 171.29 96.46 203.43 C 69.09 188.30 41.83 172.96 14.51 157.76 C 14.51 125.58 14.48 93.40 14.52 61.22 Z" />
<path fill="#ffffff" opacity="1.00" d=" M 107.49 107.01 C 134.79 91.69 162.14 76.47 189.48 61.22 C 189.51 93.40 189.51 125.59 189.48 157.77 C 162.15 172.95 134.91 188.31 107.54 203.43 C 107.44 171.29 107.55 139.15 107.49 107.01 Z" />
</g>
</svg>
