<?xml version="1.0" encoding="UTF-8" ?>
<!DOCTYPE svg PUBLIC "-//W3C//DTD SVG 1.1//EN" "http://www.w3.org/Graphics/SVG/1.1/DTD/svg11.dtd">
<svg width="204pt" height="204pt" viewBox="0 0 204 204" version="1.1" xmlns="http://www.w3.org/2000/svg">
<g id="#888888ff">
<path fill="#888888" opacity="1.00" d=" M 20.77 48.22 C 47.80 32.17 74.91 16.27 102.00 0.33 C 129.09 16.27 156.20 32.17 183.23 48.22 C 156.19 64.36 129.08 80.40 102.00 96.47 C 74.92 80.40 47.81 64.36 20.77 48.22 Z" />
<path fill="#888888" opacity="1.00" d=" M 14.52 61.22 C 41.86 76.46 69.19 91.70 96.50 106.99 C 96.46 139.14 96.55 171.29 96.46 203.44 C 69.10 188.29 41.84 172.96 14.51 157.76 C 14.51 125.58 14.49 93.40 14.52 61.22 Z" />
<path fill="#888888" opacity="1.00" d=" M 107.50 106.99 C 134.81 91.70 162.14 76.46 189.48 61.22 C 189.51 93.40 189.49 125.58 189.49 157.76 C 162.16 172.96 134.90 188.29 107.54 203.44 C 107.45 171.29 107.54 139.14 107.50 106.99 Z" />
</g>
</svg>
