<?xml version="1.0" encoding="UTF-8" ?>
<!DOCTYPE svg PUBLIC "-//W3C//DTD SVG 1.1//EN" "http://www.w3.org/Graphics/SVG/1.1/DTD/svg11.dtd">
<svg width="512pt" height="512pt" viewBox="0 0 512 512" version="1.1" xmlns="http://www.w3.org/2000/svg">
<g id="#888888ff">
<path fill="#888888" opacity="1.00" d=" M 0.00 1.07 C 48.64 16.84 97.56 31.77 146.24 47.46 C 146.43 173.68 146.30 299.90 146.30 426.12 C 119.69 415.87 93.41 404.78 66.91 394.23 C 44.64 385.05 22.16 376.38 0.00 366.95 L 0.00 1.07 Z" />
<path fill="#888888" opacity="1.00" d=" M 363.90 3.19 C 395.65 9.20 427.29 15.83 459.00 22.05 C 476.64 25.77 494.44 28.83 512.00 32.89 L 512.00 426.38 C 491.63 420.39 471.30 414.23 450.97 408.10 C 454.25 400.91 458.90 394.45 462.38 387.37 C 469.07 371.89 472.07 354.87 471.11 338.05 C 470.08 299.41 446.32 262.59 411.90 245.17 C 397.13 237.37 380.51 233.81 363.91 233.15 C 363.87 156.50 363.89 79.84 363.90 3.19 Z" />
<path fill="#888888" opacity="1.00" d=" M 305.34 12.34 C 317.24 9.40 328.99 5.81 340.98 3.28 C 341.04 77.53 340.98 151.79 341.01 226.04 C 341.04 229.18 341.11 232.34 340.58 235.45 C 314.24 240.93 290.28 256.65 274.69 278.55 C 251.83 309.80 247.48 353.31 263.49 388.52 C 265.75 392.53 268.32 396.37 270.39 400.49 C 237.70 409.21 204.93 417.62 172.26 426.41 C 171.86 423.59 171.83 420.76 171.90 417.93 C 171.87 294.39 171.93 170.86 171.87 47.33 C 216.40 35.81 260.85 24.00 305.34 12.34 Z" />
<path fill="#888888" opacity="1.00" d=" M 306.26 280.29 C 322.21 265.44 344.10 256.97 365.93 257.91 C 396.79 258.53 425.95 278.21 439.03 306.02 C 450.04 328.63 450.40 356.08 440.02 378.98 C 418.25 416.22 396.62 453.55 374.86 490.80 C 370.99 497.23 367.53 503.91 363.36 510.15 C 337.61 466.91 312.38 423.36 286.83 380.00 C 280.02 366.49 277.88 350.99 278.96 336.00 C 280.71 314.90 290.68 294.61 306.26 280.29 M 353.43 291.55 C 345.47 293.11 337.86 296.61 331.54 301.67 C 314.93 314.34 307.65 337.92 314.42 357.72 C 320.77 379.47 343.26 395.36 365.96 393.35 C 389.90 392.33 411.09 371.72 413.12 347.91 C 415.82 327.29 404.34 305.61 385.65 296.41 C 375.98 290.79 364.28 290.05 353.43 291.55 Z" />
<path fill="#888888" opacity="1.00" d=" M 358.38 321.56 C 369.59 318.78 382.02 327.48 383.20 338.99 C 384.11 345.51 381.79 352.38 376.88 356.81 C 370.69 362.84 360.51 364.19 352.95 360.01 C 346.02 356.47 341.55 348.70 341.93 340.94 C 342.20 331.75 349.45 323.46 358.38 321.56 Z" />
</g>
</svg>
