<?xml version="1.0" encoding="UTF-8" ?>
<!DOCTYPE svg PUBLIC "-//W3C//DTD SVG 1.1//EN" "http://www.w3.org/Graphics/SVG/1.1/DTD/svg11.dtd">
<svg width="90pt" height="90pt" viewBox="0 0 90 90" version="1.1" xmlns="http://www.w3.org/2000/svg">
<g id="#888888ff">
<path fill="#888888" opacity="1.00" d=" M 31.06 11.37 C 49.20 8.41 66.85 2.97 85.00 0.03 C 84.88 19.38 84.98 38.73 84.95 58.08 C 85.14 61.98 82.87 65.60 79.81 67.85 C 72.81 73.02 62.63 73.30 55.28 68.68 C 51.68 66.41 48.78 62.42 49.05 57.99 C 49.25 53.39 52.69 49.59 56.60 47.53 C 62.57 44.34 69.85 44.42 76.08 46.83 C 76.02 37.82 76.07 28.81 76.06 19.80 C 64.01 22.49 51.99 25.29 39.94 27.97 C 40.09 42.99 39.88 58.01 40.02 73.04 C 40.13 76.14 40.09 79.51 38.25 82.17 C 35.06 87.14 29.06 89.38 23.42 90.00 L 20.69 90.00 C 14.56 89.46 7.90 86.79 5.06 80.97 C 2.82 76.59 4.44 71.11 8.07 68.02 C 14.23 62.44 23.59 61.89 31.10 64.83 C 30.95 47.01 31.00 29.19 31.06 11.37 Z" />
</g>
</svg>
