<?xml version="1.0" encoding="UTF-8" ?>
<!DOCTYPE svg PUBLIC "-//W3C//DTD SVG 1.1//EN" "http://www.w3.org/Graphics/SVG/1.1/DTD/svg11.dtd">
<svg width="90pt" height="90pt" viewBox="0 0 90 90" version="1.1" xmlns="http://www.w3.org/2000/svg">
<g id="#ffffffff">
<path fill="#ffffff" opacity="1.00" d=" M 84.56 0.00 L 84.94 0.00 C 84.96 19.34 84.94 38.68 84.95 58.02 C 85.13 61.45 83.42 64.70 80.92 66.95 C 72.95 73.88 59.38 73.71 52.05 65.93 C 48.31 62.12 48.02 55.59 51.61 51.59 C 57.45 44.60 67.99 43.62 76.09 46.83 C 76.06 37.81 75.87 28.80 76.07 19.79 C 64.02 22.49 51.98 25.30 39.93 27.97 C 40.05 44.33 40.04 60.71 39.95 77.07 C 39.25 85.16 30.61 89.42 23.36 90.00 L 20.82 90.00 C 14.40 89.51 7.31 86.56 4.74 80.22 C 2.82 75.68 4.93 70.41 8.67 67.49 C 14.87 62.41 23.81 61.98 31.09 64.83 C 31.00 47.03 30.90 29.23 31.00 11.44 C 49.00 8.31 66.58 3.22 84.56 0.00 Z" />
</g>
</svg>
