<?xml version="1.0" encoding="UTF-8" ?>
<!DOCTYPE svg PUBLIC "-//W3C//DTD SVG 1.1//EN" "http://www.w3.org/Graphics/SVG/1.1/DTD/svg11.dtd">
<svg width="494pt" height="494pt" viewBox="0 0 494 494" version="1.1" xmlns="http://www.w3.org/2000/svg">
<g id="#888888ff">
<path fill="#888888" opacity="1.00" d=" M 245.64 0.00 L 248.24 0.00 C 257.55 0.70 266.76 3.28 274.70 8.28 C 288.11 16.65 298.37 29.31 306.04 42.98 C 313.89 55.74 319.26 69.80 324.49 83.78 C 320.62 85.55 316.44 86.42 312.39 87.61 C 304.31 89.78 296.46 92.70 288.48 95.19 C 282.61 79.46 276.27 63.53 265.73 50.28 C 260.95 44.54 254.91 38.57 247.00 38.18 C 237.85 38.80 231.24 46.19 226.08 53.05 C 211.88 73.32 204.24 97.30 198.05 121.03 C 192.85 141.68 189.53 162.75 187.16 183.89 C 186.70 193.29 184.78 202.58 185.02 212.00 C 185.04 218.01 183.94 223.95 184.12 229.96 C 184.19 245.95 183.43 261.99 184.89 277.93 C 185.17 292.90 187.01 307.79 188.59 322.67 C 176.65 327.13 164.52 331.05 152.22 334.38 C 149.19 314.07 147.27 293.58 146.66 273.06 C 145.60 260.40 146.11 247.69 146.00 235.01 C 147.40 187.01 152.63 138.71 166.70 92.63 C 175.05 66.25 186.10 39.79 205.39 19.45 C 215.94 8.44 230.23 0.74 245.64 0.00 Z" />
<path fill="#888888" opacity="1.00" d=" M 49.02 107.01 C 61.60 98.39 76.97 95.20 91.93 94.02 C 100.59 94.02 109.32 93.40 117.92 94.67 C 126.88 95.36 135.71 97.16 144.57 98.60 C 142.59 107.22 140.09 115.71 138.51 124.42 C 137.57 128.05 137.32 131.89 135.86 135.38 C 126.58 134.18 117.38 132.15 107.98 132.07 C 99.84 131.99 91.55 131.43 83.57 133.40 C 78.44 134.30 73.21 135.81 69.09 139.14 C 65.26 142.15 63.92 147.38 64.17 152.06 C 64.98 160.46 68.33 168.34 72.32 175.69 C 78.48 186.81 86.30 196.90 94.51 206.57 C 89.01 211.74 83.11 216.47 77.70 221.73 C 73.97 225.18 70.60 229.03 66.55 232.11 C 57.11 220.50 47.53 208.83 40.47 195.56 C 31.87 180.88 25.56 164.05 26.44 146.81 C 27.16 130.95 35.74 115.72 49.02 107.01 Z" />
<path fill="#888888" opacity="1.00" d=" M 367.89 95.44 C 384.19 93.49 400.86 92.87 417.06 95.99 C 431.90 98.84 446.81 105.39 456.41 117.48 C 464.55 127.36 468.22 140.42 467.63 153.11 C 466.22 174.37 455.76 193.72 443.94 210.97 C 427.96 233.59 408.11 253.14 387.33 271.32 C 353.94 299.70 317.31 324.20 278.62 344.75 C 235.62 367.64 189.97 386.41 142.05 395.97 C 131.72 397.51 121.41 399.37 110.98 400.02 C 101.06 400.07 91.03 400.59 81.23 398.70 C 66.19 396.55 51.03 390.83 40.32 379.68 C 29.38 368.24 24.71 351.60 26.90 336.06 C 28.89 319.77 36.22 304.67 44.78 290.86 C 55.80 273.64 69.23 258.09 83.85 243.84 C 97.46 230.11 112.23 217.60 127.50 205.77 C 127.05 222.25 125.80 238.75 126.49 255.24 C 115.75 265.57 104.72 275.65 94.92 286.90 C 86.18 297.67 77.25 308.47 71.07 320.98 C 67.25 327.74 64.60 335.27 64.08 343.05 C 63.80 349.02 67.23 354.81 72.74 357.24 C 85.00 362.94 98.88 362.17 112.07 361.93 C 146.06 358.64 178.94 348.23 210.40 335.28 C 248.56 319.41 284.96 299.40 319.10 276.12 C 351.68 253.38 382.98 227.95 407.68 196.59 C 416.34 185.12 424.75 172.95 428.64 158.94 C 430.20 152.87 430.74 145.60 426.38 140.53 C 420.58 134.55 411.87 133.73 404.13 132.26 C 373.70 130.06 343.68 137.71 314.96 146.99 C 300.78 138.32 285.95 130.80 271.31 122.97 C 302.23 110.00 334.63 100.07 367.89 95.44 Z" />
<path fill="#888888" opacity="1.00" d=" M 218.69 121.38 C 245.03 131.40 270.34 144.33 294.93 158.15 C 321.15 173.15 346.25 190.05 370.14 208.53 C 361.60 217.98 351.67 226.09 341.93 234.28 C 307.82 208.74 271.25 186.41 232.57 168.48 C 225.79 165.09 218.67 162.46 211.86 159.17 C 210.15 158.48 211.22 156.41 211.31 155.11 C 213.39 143.80 215.57 132.47 218.69 121.38 Z" />
<path fill="#888888" opacity="1.00" d=" M 241.16 209.22 C 252.64 207.69 264.72 211.88 272.84 220.14 C 279.04 226.18 282.86 234.45 283.89 243.01 C 285.00 253.57 281.45 264.55 274.25 272.37 C 267.87 279.61 258.64 284.12 249.05 284.97 C 237.67 285.89 225.93 281.32 218.23 272.87 C 212.35 266.72 208.85 258.48 208.06 250.05 C 207.12 238.41 211.88 226.45 220.66 218.74 C 226.26 213.48 233.62 210.39 241.16 209.22 Z" />
<path fill="#888888" opacity="1.00" d=" M 413.20 275.24 C 418.03 270.90 422.31 265.94 427.41 261.90 C 441.86 279.14 455.53 297.66 463.13 319.05 C 468.13 333.37 469.77 349.63 463.82 363.93 C 458.73 376.79 447.97 386.92 435.35 392.31 C 417.89 400.21 398.24 400.83 379.41 399.77 C 369.31 398.77 359.21 397.58 349.28 395.39 C 351.31 386.54 353.93 377.83 355.53 368.88 C 356.50 365.48 356.40 361.70 358.24 358.61 C 373.93 361.37 389.95 363.12 405.87 361.50 C 413.26 360.05 421.65 358.96 426.86 352.90 C 431.33 346.83 429.92 338.74 427.75 332.07 C 421.94 315.21 410.81 300.91 399.48 287.41 C 403.98 283.28 408.62 279.30 413.20 275.24 Z" />
<path fill="#888888" opacity="1.00" d=" M 300.13 355.60 C 314.39 347.67 328.22 339.00 341.92 330.14 C 342.15 335.11 341.01 339.97 340.30 344.86 C 334.49 379.22 325.96 413.62 309.78 444.70 C 300.89 461.21 289.40 477.29 272.83 486.79 C 265.28 491.24 256.66 493.09 248.05 494.00 L 245.24 494.00 C 237.83 493.18 230.39 491.68 223.73 488.18 C 208.51 480.45 197.06 466.90 188.70 452.29 C 180.50 439.08 174.71 424.57 169.50 409.97 C 181.55 406.42 193.62 402.94 205.51 398.83 C 211.42 414.55 217.70 430.52 228.29 443.77 C 233.28 449.72 239.72 456.01 248.06 455.83 C 255.49 454.83 261.12 449.13 265.71 443.65 C 279.15 426.06 286.81 404.92 292.93 383.87 C 295.95 374.61 297.30 364.91 300.13 355.60 Z" />
</g>
</svg>
