<?xml version="1.0" encoding="UTF-8" ?>
<!DOCTYPE svg PUBLIC "-//W3C//DTD SVG 1.1//EN" "http://www.w3.org/Graphics/SVG/1.1/DTD/svg11.dtd">
<svg width="494pt" height="494pt" viewBox="0 0 494 494" version="1.1" xmlns="http://www.w3.org/2000/svg">
<g id="#ffffffff">
<path fill="#ffffff" opacity="1.00" d=" M 245.57 0.00 L 248.29 0.00 C 259.51 0.75 270.47 4.64 279.43 11.47 C 293.65 21.95 303.39 37.13 311.42 52.58 C 316.20 62.50 320.70 72.60 323.99 83.11 C 323.87 83.42 323.65 84.05 323.54 84.36 C 311.78 87.74 300.07 91.26 288.47 95.17 C 282.69 79.67 276.44 64.00 266.19 50.84 C 261.31 44.86 255.16 38.66 247.00 38.13 C 238.36 38.78 231.95 45.47 226.93 51.90 C 214.86 68.35 207.79 87.76 201.83 107.09 C 193.08 137.03 188.30 168.01 185.81 199.05 C 184.42 206.97 185.51 215.06 184.31 223.00 C 183.93 239.02 183.84 255.07 184.31 271.09 C 185.33 278.69 184.62 286.40 185.86 293.98 C 186.22 303.58 187.68 313.10 188.60 322.67 C 176.66 327.13 164.53 331.05 152.22 334.38 C 149.60 318.07 148.35 301.59 147.04 285.14 C 147.10 275.07 145.77 265.05 145.99 254.98 C 146.11 243.66 145.63 232.32 146.63 221.03 C 147.10 215.41 146.73 209.75 147.45 204.15 C 150.38 162.41 156.82 120.57 170.57 80.91 C 177.78 60.88 186.82 41.06 200.72 24.73 C 211.65 11.05 227.76 0.85 245.57 0.00 Z" />
<path fill="#ffffff" opacity="1.00" d=" M 50.22 106.23 C 62.58 98.14 77.47 95.17 91.99 94.02 C 100.62 94.05 109.33 93.36 117.90 94.68 C 126.87 95.35 135.71 97.16 144.58 98.61 C 142.54 107.39 140.02 116.05 138.40 124.93 C 137.44 128.38 137.44 132.15 135.75 135.37 C 126.21 134.11 116.75 132.05 107.08 132.04 C 99.25 131.97 91.28 131.49 83.60 133.39 C 77.45 134.51 70.73 136.45 66.74 141.62 C 62.90 147.37 64.10 154.64 65.91 160.89 C 70.13 174.32 78.28 186.04 86.74 197.13 C 89.19 200.43 92.28 203.28 94.31 206.87 C 90.30 210.31 86.41 213.90 82.41 217.35 C 76.96 222.07 72.20 227.57 66.60 232.12 C 59.53 223.52 52.49 214.91 46.41 205.57 C 38.25 192.71 30.83 178.99 27.80 163.91 C 25.14 151.54 25.92 138.11 31.71 126.71 C 35.79 118.32 42.33 111.19 50.22 106.23 Z" />
<path fill="#ffffff" opacity="1.00" d=" M 334.02 101.96 C 357.53 96.19 381.78 92.39 406.03 94.33 C 415.96 95.53 425.95 97.34 435.09 101.58 C 447.82 106.94 458.72 117.11 463.82 130.07 C 469.52 143.93 468.38 159.73 463.50 173.65 C 455.20 197.89 439.45 218.71 422.42 237.51 C 402.37 259.25 379.81 278.56 356.06 296.14 C 305.91 332.76 250.58 362.51 191.83 382.75 C 182.91 385.44 174.04 388.34 165.04 390.76 C 154.67 393.01 144.45 396.03 133.88 397.20 C 115.13 400.49 95.73 401.57 76.93 397.99 C 61.86 395.14 46.76 388.36 37.16 375.99 C 27.28 363.42 24.39 346.37 27.69 330.95 C 30.55 316.31 37.30 302.76 45.20 290.22 C 56.49 272.65 70.36 256.88 85.33 242.37 C 98.51 229.19 112.81 217.18 127.51 205.74 C 127.03 222.23 125.81 238.75 126.49 255.26 C 115.73 265.60 104.67 275.69 94.87 286.97 C 86.13 297.73 77.20 308.54 71.04 321.05 C 67.38 327.48 64.90 334.60 64.12 341.97 C 63.83 346.67 65.24 351.88 69.12 354.86 C 74.93 359.67 82.72 360.36 89.84 361.77 C 99.86 362.11 110.00 362.58 119.94 361.03 C 148.11 357.44 175.43 349.06 201.81 338.75 C 236.88 324.91 270.45 307.40 302.28 287.23 C 328.14 270.70 352.82 252.24 375.41 231.42 C 392.67 215.13 408.99 197.46 421.04 176.88 C 425.36 168.84 429.42 160.25 429.80 150.99 C 430.02 145.39 427.23 139.66 422.04 137.21 C 413.11 132.72 402.82 131.84 392.96 131.93 C 366.28 131.91 340.20 138.87 314.97 146.99 C 300.78 138.33 285.96 130.77 271.28 122.98 C 291.58 114.30 312.63 107.40 334.02 101.96 Z" />
<path fill="#ffffff" opacity="1.00" d=" M 210.72 158.48 C 213.09 145.96 215.06 133.25 218.97 121.12 C 273.00 143.29 324.10 172.65 370.16 208.60 C 361.52 217.95 351.69 226.13 341.93 234.28 C 307.64 208.60 270.85 186.18 231.94 168.18 C 225.00 164.66 217.57 162.18 210.72 158.48 Z" />
<path fill="#ffffff" opacity="1.00" d=" M 241.10 209.23 C 259.17 206.57 277.90 218.94 282.55 236.60 C 286.27 248.62 283.07 262.39 274.76 271.78 C 269.66 277.75 262.67 282.12 255.02 283.93 C 242.18 287.36 227.76 282.95 218.68 273.36 C 211.40 265.94 207.47 255.40 207.98 245.03 C 208.57 236.48 211.85 228.02 217.71 221.70 C 223.65 214.83 232.17 210.54 241.10 209.23 Z" />
<path fill="#ffffff" opacity="1.00" d=" M 399.48 287.36 C 409.00 279.18 418.15 270.60 427.16 261.86 C 434.73 270.41 441.64 279.50 447.95 289.01 C 457.33 303.92 465.82 320.21 467.31 338.05 C 469.06 352.51 464.49 367.71 454.70 378.56 C 445.29 389.13 431.73 394.95 418.13 397.86 C 395.33 402.16 371.85 400.00 349.28 395.39 C 351.62 385.56 354.36 375.83 356.14 365.88 C 356.85 363.47 356.66 360.68 358.29 358.63 C 368.15 360.03 377.99 362.01 388.00 361.99 C 399.66 362.28 412.02 362.11 422.58 356.51 C 427.85 353.79 430.18 347.64 429.83 341.97 C 428.89 332.10 424.44 323.02 419.51 314.57 C 413.77 304.85 406.69 296.02 399.48 287.36 Z" />
<path fill="#ffffff" opacity="1.00" d=" M 300.13 355.61 C 314.54 347.66 328.38 338.74 342.32 330.00 C 338.59 360.62 331.68 390.96 320.98 419.92 C 314.84 435.57 307.47 450.89 297.38 464.41 C 287.97 476.63 275.83 487.74 260.61 491.82 C 256.57 493.20 252.25 493.08 248.11 494.00 L 245.47 494.00 C 236.27 493.21 227.18 490.70 219.32 485.75 C 202.53 475.50 191.48 458.51 182.57 441.43 C 177.62 431.24 173.06 420.81 169.70 409.99 C 173.52 408.38 177.63 407.65 181.58 406.42 C 189.67 404.26 197.52 401.32 205.50 398.83 C 211.41 414.51 217.67 430.46 228.22 443.68 C 233.22 449.68 239.67 455.97 248.04 455.84 C 255.49 454.82 261.14 449.12 265.74 443.61 C 280.46 424.34 288.15 400.92 294.68 377.87 C 296.61 370.47 297.89 362.91 300.13 355.61 Z" />
</g>
</svg>
