<?xml version="1.0" encoding="UTF-8" ?>
<!DOCTYPE svg PUBLIC "-//W3C//DTD SVG 1.1//EN" "http://www.w3.org/Graphics/SVG/1.1/DTD/svg11.dtd">
<svg width="90pt" height="90pt" viewBox="0 0 90 90" version="1.1" xmlns="http://www.w3.org/2000/svg">
<g id="#ffffffff">
<path fill="#ffffff" opacity="1.00" d=" M 0.00 0.00 L 11.11 0.00 C 11.10 1.91 11.09 3.83 11.09 5.74 C 7.39 5.71 3.70 5.71 0.00 5.72 L 0.00 0.00 Z" />
<path fill="#ffffff" opacity="1.00" d=" M 22.48 0.00 L 39.29 0.00 C 39.28 1.91 39.28 3.82 39.28 5.73 C 33.69 5.71 28.11 5.71 22.52 5.73 C 22.51 3.82 22.50 1.91 22.48 0.00 Z" />
<path fill="#ffffff" opacity="1.00" d=" M 50.72 0.00 L 67.50 0.00 C 67.50 1.91 67.50 3.81 67.50 5.72 C 61.90 5.72 56.31 5.71 50.71 5.72 C 50.72 3.82 50.72 1.91 50.72 0.00 Z" />
<path fill="#ffffff" opacity="1.00" d=" M 78.89 0.00 L 90.00 0.00 L 90.00 5.72 C 86.30 5.71 82.60 5.71 78.91 5.74 C 78.90 3.83 78.90 1.91 78.89 0.00 Z" />
<path fill="#ffffff" opacity="1.00" d=" M 0.00 11.10 C 30.00 11.10 60.00 11.10 90.00 11.10 L 90.00 78.90 C 60.00 78.90 30.00 78.90 0.00 78.90 L 0.00 11.10 M 40.19 19.25 C 25.93 21.43 15.79 36.96 19.49 50.90 C 22.22 64.72 37.52 74.15 51.11 70.46 C 64.79 67.63 74.09 52.49 70.49 38.99 C 67.79 25.69 53.45 16.40 40.19 19.25 Z" />
<path fill="#ffffff" opacity="1.00" d=" M 37.46 58.68 C 37.38 49.54 37.43 40.41 37.43 31.27 C 45.20 35.76 52.90 40.35 60.69 44.79 C 60.65 44.89 60.58 45.10 60.54 45.20 C 52.86 49.72 45.15 54.19 37.46 58.68 Z" />
<path fill="#ffffff" opacity="1.00" d=" M 0.00 84.28 C 3.70 84.29 7.40 84.29 11.10 84.26 C 11.10 86.17 11.10 88.08 11.11 90.00 L 0.00 90.00 L 0.00 84.28 Z" />
<path fill="#ffffff" opacity="1.00" d=" M 22.52 84.26 C 28.11 84.30 33.69 84.29 39.27 84.27 C 39.28 86.18 39.28 88.09 39.29 90.00 L 22.49 90.00 C 22.50 88.09 22.51 86.17 22.52 84.26 Z" />
<path fill="#ffffff" opacity="1.00" d=" M 50.71 84.28 C 56.32 84.31 61.93 84.23 67.54 84.33 C 67.52 86.22 67.51 88.11 67.50 90.00 L 50.72 90.00 C 50.72 88.09 50.71 86.18 50.71 84.28 Z" />
<path fill="#ffffff" opacity="1.00" d=" M 78.91 84.26 C 82.60 84.29 86.30 84.29 90.00 84.28 L 90.00 90.00 L 78.89 90.00 C 78.90 88.08 78.90 86.17 78.91 84.26 Z" />
</g>
</svg>
