<?xml version="1.0" encoding="UTF-8" ?>
<!DOCTYPE svg PUBLIC "-//W3C//DTD SVG 1.1//EN" "http://www.w3.org/Graphics/SVG/1.1/DTD/svg11.dtd">
<svg width="90pt" height="90pt" viewBox="0 0 90 90" version="1.1" xmlns="http://www.w3.org/2000/svg">
<g id="#888888ff">
<path fill="#888888" opacity="1.00" d=" M 0.00 0.00 L 11.11 0.00 C 11.10 1.91 11.09 3.82 11.09 5.74 C 7.39 5.71 3.70 5.71 0.00 5.72 L 0.00 0.00 Z" />
<path fill="#888888" opacity="1.00" d=" M 22.50 0.00 L 39.29 0.00 C 39.28 1.91 39.27 3.82 39.27 5.73 C 33.68 5.70 28.08 5.74 22.49 5.70 C 22.50 3.80 22.50 1.90 22.50 0.00 Z" />
<path fill="#888888" opacity="1.00" d=" M 50.71 0.00 L 67.50 0.00 C 67.50 1.90 67.50 3.80 67.51 5.70 C 61.91 5.74 56.32 5.70 50.73 5.73 C 50.73 3.82 50.72 1.91 50.71 0.00 Z" />
<path fill="#888888" opacity="1.00" d=" M 78.90 0.00 L 90.00 0.00 L 90.00 5.72 C 86.30 5.71 82.61 5.71 78.91 5.74 C 78.91 3.82 78.90 1.91 78.90 0.00 Z" />
<path fill="#888888" opacity="1.00" d=" M 0.00 11.10 C 30.00 11.10 60.00 11.10 90.00 11.10 L 90.00 78.90 C 60.00 78.90 30.00 78.90 0.00 78.90 L 0.00 11.10 M 40.21 19.24 C 25.94 21.41 15.80 36.94 19.48 50.89 C 22.21 64.71 37.51 74.15 51.11 70.46 C 64.48 67.68 73.75 53.13 70.67 39.82 C 68.36 26.13 53.77 16.33 40.21 19.24 Z" />
<path fill="#888888" opacity="1.00" d=" M 37.46 58.69 C 37.38 49.55 37.42 40.40 37.44 31.26 C 45.30 35.83 53.11 40.48 61.00 44.98 C 53.13 49.50 45.31 54.12 37.46 58.69 Z" />
<path fill="#888888" opacity="1.00" d=" M 0.00 84.28 C 3.70 84.29 7.39 84.29 11.09 84.26 C 11.09 86.17 11.10 88.09 11.10 90.00 L 0.00 90.00 L 0.00 84.28 Z" />
<path fill="#888888" opacity="1.00" d=" M 22.49 84.30 C 28.08 84.26 33.66 84.31 39.24 84.26 C 39.26 86.17 39.28 88.09 39.30 90.00 L 22.50 90.00 C 22.50 88.10 22.50 86.20 22.49 84.30 Z" />
<path fill="#888888" opacity="1.00" d=" M 50.73 84.28 C 56.31 84.29 61.90 84.28 67.49 84.28 C 67.49 86.19 67.50 88.09 67.51 90.00 L 50.71 90.00 C 50.72 88.09 50.72 86.18 50.73 84.28 Z" />
<path fill="#888888" opacity="1.00" d=" M 78.91 84.26 C 82.61 84.29 86.30 84.29 90.00 84.28 L 90.00 90.00 L 78.89 90.00 C 78.90 88.09 78.91 86.17 78.91 84.26 Z" />
</g>
</svg>
