<?xml version="1.0" encoding="UTF-8" ?>
<!DOCTYPE svg PUBLIC "-//W3C//DTD SVG 1.1//EN" "http://www.w3.org/Graphics/SVG/1.1/DTD/svg11.dtd">
<svg width="90pt" height="90pt" viewBox="0 0 90 90" version="1.1" xmlns="http://www.w3.org/2000/svg">
<g id="#888888ff">
<path fill="#888888" opacity="1.00" d=" M 55.36 0.00 L 55.82 0.00 C 60.56 5.04 65.49 10.08 68.57 16.36 C 76.06 30.14 77.81 46.91 73.36 61.94 C 70.39 72.76 63.92 82.33 55.82 90.00 L 55.70 90.00 C 50.70 85.07 45.78 80.07 40.83 75.08 C 49.01 67.71 54.56 57.10 54.49 45.95 C 54.97 36.30 51.32 26.74 45.14 19.40 C 43.27 21.28 41.40 23.15 39.53 25.04 C 43.67 30.47 46.48 37.04 46.65 43.93 C 47.02 53.60 42.53 63.19 35.10 69.34 C 31.44 65.74 27.80 62.12 24.17 58.49 C 18.12 60.15 10.93 59.27 6.77 54.15 C -0.06 46.92 2.71 33.46 12.10 29.86 C 19.93 26.02 30.44 30.56 32.91 38.94 C 35.13 44.44 33.06 50.59 29.47 54.99 C 31.34 56.86 33.21 58.74 35.10 60.59 C 39.11 55.31 40.97 48.58 40.11 41.99 C 39.64 35.28 35.73 29.35 30.76 25.02 C 35.54 20.18 40.40 15.41 45.17 10.56 C 54.62 19.00 60.51 31.28 60.88 43.97 C 61.07 55.27 56.90 66.50 49.56 75.07 C 51.64 77.12 53.71 79.18 55.80 81.23 C 65.86 69.83 71.00 54.23 69.15 39.09 C 68.01 25.80 61.16 13.37 51.38 4.45 C 52.78 3.04 54.17 1.61 55.36 0.00 Z" />
</g>
</svg>
