<?xml version="1.0" encoding="UTF-8" ?>
<!DOCTYPE svg PUBLIC "-//W3C//DTD SVG 1.1//EN" "http://www.w3.org/Graphics/SVG/1.1/DTD/svg11.dtd">
<svg width="90pt" height="90pt" viewBox="0 0 90 90" version="1.1" xmlns="http://www.w3.org/2000/svg">
<g id="#ffffffff">
<path fill="#ffffff" opacity="1.00" d=" M 55.45 0.00 L 56.44 0.00 C 57.47 2.35 59.59 3.89 61.26 5.75 C 77.75 24.33 80.45 53.45 67.91 74.87 C 64.79 80.55 60.45 85.42 55.86 89.95 L 56.98 90.00 L 55.68 90.00 C 50.72 85.02 45.72 80.08 40.82 75.04 C 49.02 67.76 54.50 57.15 54.49 46.07 C 54.98 36.40 51.40 26.74 45.12 19.43 C 43.24 21.30 41.37 23.18 39.51 25.06 C 43.94 30.70 46.72 37.74 46.67 44.96 C 46.70 54.27 42.29 63.37 35.15 69.31 C 31.39 65.78 27.78 62.08 24.13 58.43 C 17.90 60.38 10.41 59.05 6.33 53.63 C 0.04 46.33 2.92 33.48 11.98 29.91 C 19.81 25.99 30.41 30.51 32.90 38.91 C 35.08 44.38 33.17 50.64 29.42 54.94 C 31.29 56.81 33.16 58.69 35.05 60.55 C 43.56 50.10 41.42 33.22 30.74 25.05 C 35.50 20.19 40.40 15.45 45.14 10.57 C 54.66 18.96 60.47 31.31 60.88 43.98 C 61.06 55.27 56.92 66.52 49.54 75.07 C 51.62 77.05 53.63 79.08 55.60 81.17 C 66.04 70.06 70.90 54.15 69.13 39.08 C 68.03 25.75 61.09 13.32 51.32 4.37 C 52.80 3.02 54.26 1.62 55.45 0.00 Z" />
</g>
</svg>
