<?xml version="1.0" encoding="UTF-8" ?>
<!DOCTYPE svg PUBLIC "-//W3C//DTD SVG 1.1//EN" "http://www.w3.org/Graphics/SVG/1.1/DTD/svg11.dtd">
<svg width="300pt" height="300pt" viewBox="0 0 300 300" version="1.1" xmlns="http://www.w3.org/2000/svg">
<g>
<path fill="#777" opacity="1.00" d=" M 41.02 98.03 C 52.32 90.95 66.93 89.35 79.51 93.77 C 87.53 96.64 93.49 103.54 96.36 111.43 C 103.64 101.34 114.54 93.51 127.05 91.79 C 137.18 90.51 148.44 91.80 156.48 98.62 C 164.71 105.47 167.86 116.67 167.85 127.03 C 167.94 153.41 167.82 179.79 167.91 206.17 C 157.83 206.18 147.76 206.19 137.68 206.16 C 137.23 182.07 138.29 157.98 137.76 133.89 C 137.61 128.83 136.01 123.48 132.04 120.10 C 127.95 116.61 122.16 116.13 117.04 116.87 C 109.67 118.32 103.67 123.51 99.08 129.20 C 98.60 131.44 98.83 133.75 98.80 136.02 C 98.83 159.40 98.77 182.78 98.84 206.17 C 88.83 206.19 78.82 206.18 68.82 206.17 C 68.80 182.76 68.85 159.34 68.80 135.92 C 68.81 130.23 67.59 123.89 63.07 120.00 C 58.35 116.20 51.69 115.89 46.04 117.39 C 39.50 119.26 34.48 124.14 30.13 129.14 C 30.17 154.81 30.18 180.49 30.19 206.17 C 20.13 206.19 10.06 206.18 0.00 206.17 L 0.00 94.57 C 10.05 94.65 20.10 94.55 30.14 94.62 C 30.18 98.79 30.16 102.96 30.05 107.13 C 33.47 103.83 36.92 100.49 41.02 98.03 Z" />
<path fill="#777" opacity="1.00" d=" M 226.91 93.17 C 243.03 89.13 261.03 91.66 274.81 101.20 C 288.00 110.01 296.60 124.84 298.81 140.44 C 299.96 146.94 299.38 153.55 299.52 160.11 C 270.87 159.70 242.21 160.02 213.56 159.94 C 215.06 166.79 218.67 173.28 224.18 177.68 C 231.49 183.87 241.65 186.11 251.01 184.69 C 260.47 183.77 269.55 179.84 276.71 173.59 C 281.42 179.60 286.71 185.14 291.60 191.00 C 279.44 203.24 262.01 208.80 245.05 209.16 C 232.40 209.44 219.46 206.19 208.91 199.08 C 196.05 190.97 187.29 177.03 184.60 162.15 C 181.76 147.03 184.43 130.76 192.75 117.72 C 200.41 105.55 212.92 96.53 226.91 93.17 M 223.57 120.45 C 217.74 125.63 214.20 133.10 213.13 140.76 C 232.75 140.82 252.37 140.82 271.98 140.76 C 271.29 134.19 268.55 127.79 264.12 122.87 C 254.13 111.54 234.89 110.62 223.57 120.45 Z" />
</g>
</svg>
