<?xml version="1.0" encoding="UTF-8" ?>
<!DOCTYPE svg PUBLIC "-//W3C//DTD SVG 1.1//EN" "http://www.w3.org/Graphics/SVG/1.1/DTD/svg11.dtd">
<svg width="573pt" height="573pt" viewBox="0 0 573 573" version="1.1" xmlns="http://www.w3.org/2000/svg">
<g>
<path fill="#777" opacity="1.00" d=" M 165.04 27.05 C 213.90 4.01 269.37 -4.47 322.92 2.39 C 385.58 10.14 445.18 39.67 489.57 84.52 C 514.05 109.11 534.03 138.18 548.17 169.88 C 564.56 206.37 572.82 246.34 573.00 286.31 L 573.00 287.53 C 572.70 328.73 563.79 369.92 546.29 407.26 C 520.57 462.78 476.49 509.53 422.64 538.56 C 387.67 557.51 348.70 569.00 309.05 572.04 C 266.22 575.40 222.62 569.13 182.60 553.48 C 152.11 541.63 123.71 524.45 99.00 503.02 C 58.40 467.93 27.92 421.23 12.40 369.84 C 4.25 343.20 0.30 315.37 0.00 287.53 L 0.00 285.52 C 0.28 239.32 11.58 193.17 33.37 152.38 C 62.19 97.84 109.14 53.14 165.04 27.05 M 280.46 110.68 C 279.37 111.16 278.36 111.78 277.37 112.42 C 223.77 148.15 170.16 183.88 116.57 219.62 C 112.09 222.44 109.25 227.63 109.41 232.94 C 109.41 268.63 109.42 304.32 109.40 340.01 C 109.22 345.34 112.07 350.54 116.55 353.38 C 170.39 389.27 224.21 425.16 278.04 461.03 C 283.04 464.44 290.04 464.44 295.02 460.99 C 348.41 425.41 401.78 389.80 455.18 354.24 C 459.96 351.53 463.53 346.50 463.58 340.89 C 463.60 304.91 463.58 268.93 463.59 232.95 C 463.75 227.64 460.92 222.44 456.44 219.62 C 402.81 183.87 349.18 148.12 295.55 112.37 C 291.23 109.27 285.34 108.44 280.46 110.68 Z" />
<path fill="#777" opacity="1.00" d=" M 152.04 232.55 C 191.80 206.07 231.53 179.55 271.29 153.07 C 271.29 176.72 271.30 200.38 271.29 224.03 C 249.29 238.76 227.30 253.52 205.26 268.18 C 187.53 256.28 169.75 244.46 152.04 232.55 Z" />
<path fill="#777" opacity="1.00" d=" M 301.71 153.07 C 341.47 179.55 381.22 206.06 420.97 232.56 C 403.22 244.44 385.47 256.31 367.72 268.18 C 345.70 253.49 323.70 238.76 301.71 224.03 C 301.70 200.38 301.71 176.72 301.71 153.07 Z" />
<path fill="#777" opacity="1.00" d=" M 232.68 286.52 C 250.66 274.51 268.56 262.37 286.63 250.51 C 304.46 262.62 322.45 274.47 340.32 286.51 C 322.43 298.52 304.46 310.40 286.62 322.49 C 268.55 310.64 250.68 298.48 232.68 286.52 Z" />
<path fill="#777" opacity="1.00" d=" M 139.83 261.04 C 152.54 269.51 165.21 278.02 177.92 286.49 C 165.23 295.00 152.53 303.48 139.83 311.96 C 139.82 294.99 139.82 278.02 139.83 261.04 Z" />
<path fill="#777" opacity="1.00" d=" M 395.09 286.50 C 407.79 278.02 420.47 269.51 433.17 261.04 C 433.17 278.01 433.18 294.99 433.17 311.97 C 420.47 303.48 407.78 295.00 395.09 286.50 Z" />
<path fill="#777" opacity="1.00" d=" M 152.04 340.46 C 169.76 328.55 187.53 316.72 205.27 304.83 C 227.30 319.51 249.29 334.25 271.29 348.97 C 271.30 372.63 271.30 396.28 271.29 419.94 C 231.53 393.46 191.80 366.94 152.04 340.46 Z" />
<path fill="#777" opacity="1.00" d=" M 301.71 348.98 C 323.71 334.25 345.70 319.51 367.74 304.83 C 385.48 316.71 403.22 328.57 420.97 340.44 C 381.22 366.95 341.47 393.45 301.71 419.94 C 301.70 396.28 301.70 372.63 301.71 348.98 Z" />
</g>
</svg>
