<?xml version="1.0" encoding="UTF-8" ?>
<!DOCTYPE svg PUBLIC "-//W3C//DTD SVG 1.1//EN" "http://www.w3.org/Graphics/SVG/1.1/DTD/svg11.dtd">
<svg width="139pt" height="139pt" viewBox="0 0 139 139" version="1.1" xmlns="http://www.w3.org/2000/svg">
<g>
<path fill="#777" opacity="1.00" d=" M 41.41 9.42 C 54.99 2.32 71.07 0.23 86.03 3.45 C 101.37 6.68 115.38 15.62 124.92 28.04 C 133.31 38.78 138.11 52.12 139.00 65.69 L 139.00 73.20 C 138.07 88.48 132.03 103.44 121.72 114.80 C 109.52 128.54 91.44 136.87 73.04 137.01 C 56.94 137.37 40.92 131.46 28.70 121.03 C 19.13 122.31 9.57 123.64 0.00 124.94 L 0.00 124.77 C 3.69 115.70 7.36 106.63 11.04 97.55 C 4.19 82.27 3.12 64.47 8.33 48.53 C 13.67 31.83 25.82 17.44 41.41 9.42 M 45.63 35.82 C 45.62 58.29 45.62 80.77 45.63 103.24 C 55.08 103.18 64.54 103.42 73.99 103.09 C 85.44 102.64 97.36 97.63 103.56 87.58 C 111.36 74.80 110.24 56.35 99.28 45.69 C 92.10 38.67 81.79 35.90 71.97 35.82 C 63.19 35.80 54.41 35.81 45.63 35.82 Z" />
<path fill="#777" opacity="1.00" d=" M 63.95 52.32 C 69.80 52.41 76.07 51.63 81.45 54.52 C 92.66 60.05 92.67 79.02 81.43 84.52 C 76.05 87.38 69.80 86.59 63.95 86.68 C 63.93 75.23 63.93 63.77 63.95 52.32 Z" />
</g>
</svg>
