<?xml version="1.0" encoding="UTF-8" ?>
<!DOCTYPE svg PUBLIC "-//W3C//DTD SVG 1.1//EN" "http://www.w3.org/Graphics/SVG/1.1/DTD/svg11.dtd">
<svg width="300pt" height="300pt" viewBox="0 0 300 300" version="1.1" xmlns="http://www.w3.org/2000/svg">
<g>
<path fill="#777" opacity="1.00" d=" M 103.08 7.81 C 132.32 -1.90 164.61 -2.16 194.03 6.98 C 225.65 16.66 253.73 37.30 272.62 64.42 C 290.13 89.27 299.70 119.60 299.63 149.99 C 299.74 180.40 290.21 210.76 272.72 235.63 C 254.91 261.28 228.88 281.13 199.41 291.46 C 169.42 302.02 136.02 302.69 105.66 293.21 C 74.50 283.70 46.81 263.50 27.91 237.01 C 10.32 212.55 0.56 182.69 0.00 152.59 L 0.00 147.44 C 0.58 119.74 8.84 92.24 23.95 69.00 C 42.37 40.43 70.73 18.34 103.08 7.81 M 119.97 25.83 C 137.22 49.91 153.40 74.79 167.60 100.80 C 193.11 91.06 217.71 76.42 234.67 54.62 C 222.93 44.20 209.27 35.92 194.57 30.42 C 170.88 21.51 144.57 20.00 119.97 25.83 M 68.01 52.02 C 46.01 70.26 30.43 96.08 24.60 124.07 C 64.47 123.93 104.32 118.55 142.88 108.49 C 128.39 83.00 112.59 58.24 95.38 34.50 C 85.64 39.28 76.34 45.03 68.01 52.02 M 177.45 119.83 C 181.43 128.10 185.22 136.47 188.70 144.97 C 218.36 141.45 248.50 143.52 277.78 149.07 C 277.58 120.24 267.21 91.66 248.89 69.41 C 230.32 92.42 204.49 108.54 177.45 119.83 M 21.96 146.40 C 20.81 178.99 32.90 211.70 54.79 235.84 C 60.84 225.84 68.00 216.54 75.73 207.77 C 99.21 181.13 129.46 159.74 163.83 149.88 C 160.50 142.59 157.14 135.30 153.46 128.17 C 110.83 140.65 66.33 146.42 21.96 146.40 M 196.48 165.13 C 207.17 194.81 215.74 225.29 221.34 256.35 C 250.34 236.89 270.75 205.15 276.17 170.61 C 250.42 163.17 223.01 161.07 196.48 165.13 M 96.15 218.07 C 86.51 228.00 77.70 238.91 71.31 251.24 C 88.01 264.24 107.94 273.10 128.84 276.50 C 152.67 280.49 177.59 277.53 199.82 268.08 C 193.89 234.96 184.51 202.48 172.54 171.05 C 144.03 180.81 117.37 196.55 96.15 218.07 Z" />
</g>
</svg>
