<?xml version="1.0" encoding="UTF-8" ?>
<!DOCTYPE svg PUBLIC "-//W3C//DTD SVG 1.1//EN" "http://www.w3.org/Graphics/SVG/1.1/DTD/svg11.dtd">
<svg width="300pt" height="300pt" viewBox="0 0 300 300" version="1.1" xmlns="http://www.w3.org/2000/svg">
<g>
<path fill="#777" opacity="1.00" d=" M 143.52 0.00 L 158.14 0.00 C 180.34 1.56 202.36 7.34 221.92 18.09 C 252.92 34.82 277.68 62.78 290.39 95.65 C 295.54 108.70 298.57 122.52 300.00 136.46 L 300.00 163.41 C 297.43 189.16 288.45 214.31 273.45 235.45 C 255.40 261.28 229.03 281.20 199.20 291.37 C 169.66 301.57 136.96 302.22 107.04 293.20 C 74.75 283.67 46.03 262.77 26.82 235.14 C 9.94 211.14 0.56 182.04 0.00 152.72 L 0.00 147.27 C 0.34 129.27 3.82 111.32 10.52 94.60 C 23.03 62.98 46.71 35.98 76.34 19.33 C 96.80 7.66 120.05 1.32 143.52 0.00 M 227.01 160.07 C 224.04 160.78 221.50 163.12 220.78 166.12 C 216.92 180.26 209.31 193.54 198.27 203.28 C 184.61 215.49 166.23 222.09 147.95 221.80 C 131.81 221.71 115.63 216.15 103.20 205.79 C 91.55 196.19 83.64 182.52 79.96 167.97 C 79.34 164.49 76.51 161.51 72.98 160.96 C 67.33 159.68 61.67 165.54 63.27 171.17 C 67.61 189.26 77.37 206.20 91.65 218.24 C 106.97 231.27 126.99 238.41 147.04 238.71 C 167.48 239.15 188.06 232.64 204.34 220.23 C 220.71 207.90 232.20 189.66 237.32 169.90 C 238.75 164.14 232.65 158.43 227.01 160.07 Z" />
</g>
</svg>
