<?xml version="1.0" encoding="UTF-8" ?>
<!DOCTYPE svg PUBLIC "-//W3C//DTD SVG 1.1//EN" "http://www.w3.org/Graphics/SVG/1.1/DTD/svg11.dtd">
<svg width="220pt" height="220pt" viewBox="0 0 220 220" version="1.1" xmlns="http://www.w3.org/2000/svg">
<g>
<path fill="#3D0626" opacity="1.00" d=" M 41.51 60.86 C 53.90 58.68 67.09 61.36 77.54 68.39 C 89.10 75.94 97.31 88.45 99.45 102.11 C 101.76 115.52 97.96 129.80 89.54 140.45 C 80.48 152.22 65.96 159.66 51.07 159.81 C 38.12 160.17 25.18 155.07 15.82 146.15 C 6.90 137.81 1.16 126.10 0.29 113.90 C -0.84 100.75 3.64 87.27 12.38 77.38 C 19.83 68.77 30.28 62.80 41.51 60.86 Z" />
<path fill="#3D0626" opacity="1.00" d=" M 161.47 60.82 C 172.42 58.96 183.99 60.81 193.72 66.19 C 206.83 73.28 216.55 86.46 219.09 101.19 C 221.42 113.88 218.55 127.42 211.20 138.02 C 203.39 149.45 190.72 157.50 176.97 159.37 C 164.76 161.17 151.93 158.22 141.78 151.20 C 130.82 143.80 122.98 131.91 120.68 118.87 C 117.91 104.69 122.06 89.42 131.30 78.36 C 138.83 69.16 149.75 62.80 161.47 60.82 Z" />
</g>
</svg>
