<?xml version="1.0" encoding="UTF-8" ?>
<!DOCTYPE svg PUBLIC "-//W3C//DTD SVG 1.1//EN" "http://www.w3.org/Graphics/SVG/1.1/DTD/svg11.dtd">
<svg width="250pt" height="250pt" viewBox="0 0 250 250" version="1.1" xmlns="http://www.w3.org/2000/svg">
<g>
<path fill="#777" opacity="1.00" d=" M 0.00 0.00 L 250.00 0.00 L 250.00 250.00 L 0.00 250.00 L 0.00 0.00 M 50.00 50.00 C 50.00 100.00 50.00 150.00 50.00 200.00 C 66.67 200.00 83.33 200.00 100.00 200.00 C 100.00 183.33 100.01 166.67 100.00 150.00 C 116.67 150.00 133.33 150.01 150.00 150.00 C 150.00 133.33 150.01 116.67 150.00 100.00 C 166.66 100.00 183.33 100.00 200.00 99.99 C 200.00 83.33 200.00 66.67 200.00 50.00 C 166.67 49.99 133.33 50.00 100.00 50.00 C 83.33 50.00 66.67 49.99 50.00 50.00 Z" />
</g>
<g>
<path fill="#080808" opacity="0.20" d=" M 100.00 50.00 C 133.33 50.00 166.67 49.99 200.00 50.00 C 200.00 66.67 200.00 83.33 200.00 99.99 C 183.33 100.00 166.66 100.00 150.00 100.00 C 133.33 99.99 116.67 100.00 100.00 100.00 C 100.00 83.33 100.00 66.67 100.00 50.00 Z" />
</g>
<g>
<path fill="#202020" opacity="0.40" d=" M 100.00 100.00 C 116.67 100.00 133.33 99.99 150.00 100.00 C 150.01 116.67 150.00 133.33 150.00 150.00 C 133.33 150.01 116.67 150.00 100.00 150.00 C 99.99 133.33 100.00 116.67 100.00 100.00 Z" />
</g>
</svg>
