<?xml version="1.0" encoding="UTF-8" ?>
<!DOCTYPE svg PUBLIC "-//W3C//DTD SVG 1.1//EN" "http://www.w3.org/Graphics/SVG/1.1/DTD/svg11.dtd">
<svg width="220pt" height="220pt" viewBox="0 0 220 220" version="1.1" xmlns="http://www.w3.org/2000/svg">
<g>
<path fill="#777" opacity="1.00" d=" M 49.53 20.53 C 68.15 8.11 90.67 1.66 113.04 2.35 C 141.28 2.94 168.98 15.19 188.57 35.51 C 207.89 55.22 219.29 82.44 219.66 110.05 C 220.16 131.60 214.11 153.25 202.47 171.39 C 189.10 192.36 168.45 208.72 144.77 216.44 C 141.59 217.61 137.41 215.57 137.31 211.96 C 137.20 200.99 137.48 190.02 137.33 179.05 C 137.05 172.35 135.01 165.28 129.86 160.68 C 143.39 159.30 157.72 155.53 167.38 145.34 C 177.26 134.93 180.15 119.94 179.94 106.03 C 180.11 95.36 175.95 84.82 168.75 76.98 C 172.12 67.69 171.40 57.16 167.65 48.11 C 163.49 46.71 158.82 48.57 154.75 49.85 C 148.64 52.19 142.93 55.47 137.52 59.14 C 119.57 54.14 100.40 54.40 82.41 59.06 C 73.60 53.33 63.80 47.27 52.92 47.71 C 48.33 56.49 48.05 67.63 51.33 77.00 C 44.12 84.82 39.98 95.37 40.11 106.02 C 39.93 119.70 42.69 134.41 52.20 144.82 C 61.80 155.36 76.36 159.37 90.09 160.74 C 85.66 164.53 84.15 170.25 82.72 175.63 C 76.38 178.45 68.81 179.55 62.27 176.75 C 57.52 174.84 53.89 170.92 51.31 166.60 C 47.99 161.08 42.67 156.32 36.15 155.26 C 33.63 154.89 30.25 154.75 28.92 157.40 C 31.60 161.02 36.02 162.68 38.88 166.09 C 41.99 169.59 44.14 173.79 45.91 178.09 C 49.09 185.70 56.88 190.56 64.86 191.66 C 70.80 192.74 76.88 191.96 82.74 190.74 C 82.62 197.82 82.92 204.90 82.78 211.97 C 82.71 214.47 80.44 216.53 78.01 216.68 C 75.25 216.89 72.73 215.52 70.20 214.65 C 44.51 204.69 22.98 184.61 11.14 159.74 C -0.34 135.96 -2.71 108.00 4.42 82.59 C 11.36 57.37 27.73 34.94 49.53 20.53 Z" />
<path fill="#777" opacity="1.00" d=" M 39.08 158.41 C 40.22 157.55 42.22 158.52 42.20 159.95 C 41.57 162.00 37.65 160.15 39.08 158.41 Z" />
<path fill="#777" opacity="1.00" d=" M 46.84 164.78 C 44.98 166.94 41.46 162.35 44.93 161.59 C 45.67 162.57 46.80 163.43 46.84 164.78 Z" />
<path fill="#777" opacity="1.00" d=" M 47.64 167.61 C 49.42 167.34 50.96 168.39 51.43 170.16 C 50.43 173.77 46.91 169.88 47.64 167.61 Z" />
<path fill="#777" opacity="1.00" d=" M 52.99 174.26 C 54.96 172.89 57.74 175.57 56.79 177.60 C 54.83 178.81 52.05 176.28 52.99 174.26 Z" />
<path fill="#777" opacity="1.00" d=" M 61.52 178.68 C 63.00 178.51 66.08 179.83 64.56 181.58 C 62.70 183.85 57.83 179.75 61.52 178.68 Z" />
<path fill="#777" opacity="1.00" d=" M 76.84 181.00 C 78.09 179.11 81.81 177.90 82.34 180.97 C 80.89 182.84 78.32 182.78 76.84 181.00 Z" />
<path fill="#777" opacity="1.00" d=" M 70.35 180.36 C 71.58 179.70 72.96 180.47 73.97 181.19 C 73.94 183.54 70.76 184.11 69.31 182.66 C 68.58 181.44 68.93 180.67 70.35 180.36 Z" />
</g>
</svg>
