<?xml version="1.0" encoding="UTF-8" ?>
<!DOCTYPE svg PUBLIC "-//W3C//DTD SVG 1.1//EN" "http://www.w3.org/Graphics/SVG/1.1/DTD/svg11.dtd">
<svg width="299pt" height="300pt" viewBox="0 0 299 300" version="1.1" xmlns="http://www.w3.org/2000/svg">
<g>
<path fill="#777" opacity="1.00" d=" M 7.79 2.83 C 11.73 0.34 16.54 0.58 21.01 0.59 C 108.32 0.65 195.63 0.55 282.94 0.64 C 291.34 0.32 298.86 7.58 299.00 15.97 L 299.00 276.09 C 298.81 282.56 299.45 290.34 294.11 295.09 C 288.74 301.04 279.97 299.36 272.84 300.00 L 30.55 300.00 C 26.03 299.86 16.99 299.57 12.46 299.43 C 7.56 298.22 3.38 294.59 1.40 289.98 C -0.32 286.19 0.51 281.88 0.00 277.88 L 0.00 17.83 C -0.32 11.90 2.54 5.79 7.79 2.83 M 80.02 69.90 C 69.82 78.78 65.25 92.70 65.50 105.95 C 65.49 118.93 72.30 131.58 83.01 138.86 C 93.10 146.00 105.94 147.43 117.94 146.19 C 116.59 149.29 115.24 152.51 115.43 155.96 C 115.13 162.72 118.80 168.90 123.31 173.65 C 105.82 175.00 87.47 176.75 72.16 186.12 C 63.13 191.38 55.72 199.92 53.18 210.19 C 50.54 220.13 53.37 231.19 60.25 238.78 C 68.61 248.10 80.99 252.64 93.11 254.42 C 110.53 256.83 128.74 255.56 145.20 249.10 C 157.88 244.01 169.66 235.14 175.60 222.56 C 181.61 210.30 180.74 194.62 172.30 183.69 C 165.43 174.87 156.20 168.37 147.43 161.59 C 143.75 158.78 140.15 154.75 140.73 149.75 C 141.43 143.96 146.05 139.79 150.31 136.29 C 157.13 131.11 163.69 125.04 167.21 117.07 C 171.13 108.07 171.43 97.68 168.79 88.28 C 166.33 79.37 160.35 71.76 152.99 66.32 C 158.10 66.45 163.21 66.35 168.32 66.42 C 174.36 62.45 180.76 59.05 186.59 54.78 C 167.07 54.54 147.55 54.77 128.03 54.67 C 111.10 54.98 93.21 58.61 80.02 69.90 M 209.64 113.35 C 209.81 122.09 209.58 130.83 209.79 139.57 C 201.03 139.50 192.28 139.69 183.53 139.46 C 183.61 143.78 183.63 148.11 183.51 152.43 C 192.26 152.39 201.00 152.45 209.75 152.39 C 209.63 161.12 209.80 169.86 209.66 178.59 C 213.97 178.56 218.28 178.57 222.59 178.58 C 222.45 169.85 222.60 161.12 222.51 152.39 C 231.24 152.47 239.98 152.36 248.72 152.45 C 248.68 148.15 248.65 143.84 248.76 139.54 C 240.00 139.62 231.23 139.49 222.47 139.61 C 222.68 130.86 222.42 122.11 222.63 113.37 C 218.30 113.37 213.97 113.38 209.64 113.35 Z" />
<path fill="#777" opacity="1.00" d=" M 105.52 66.71 C 113.18 64.09 121.96 65.66 128.27 70.71 C 137.35 77.76 142.24 88.83 145.01 99.72 C 146.77 107.45 147.72 115.78 145.26 123.46 C 142.45 131.85 134.31 137.29 126.00 139.24 C 117.32 140.91 108.37 136.90 102.63 130.45 C 95.06 121.93 91.12 110.73 89.60 99.57 C 88.90 92.40 89.04 84.84 92.13 78.19 C 94.65 72.66 99.68 68.36 105.52 66.71 Z" />
<path fill="#777" opacity="1.00" d=" M 111.50 182.69 C 118.04 181.80 124.67 181.00 131.28 181.51 C 132.86 181.66 133.99 182.93 135.30 183.71 C 143.13 189.40 151.50 194.85 157.28 202.78 C 164.26 212.55 161.98 227.25 152.86 234.89 C 144.14 242.40 132.10 244.12 120.97 244.17 C 108.23 243.67 94.61 241.03 84.90 232.15 C 77.91 226.06 74.33 216.16 76.42 207.05 C 77.72 199.82 82.84 193.78 89.01 190.07 C 95.80 185.85 103.67 183.86 111.50 182.69 Z" />
</g>
</svg>
