<?xml version="1.0" encoding="UTF-8" ?>
<!DOCTYPE svg PUBLIC "-//W3C//DTD SVG 1.1//EN" "http://www.w3.org/Graphics/SVG/1.1/DTD/svg11.dtd">
<svg width="256pt" height="256pt" viewBox="0 0 256 256" version="1.1" xmlns="http://www.w3.org/2000/svg">
<g>
<path fill="#777" opacity="1.00" d=" M 49.15 29.21 C 70.03 12.62 96.29 2.99 122.94 2.05 C 143.88 1.32 165.01 5.91 183.76 15.31 C 205.60 26.16 224.14 43.51 236.44 64.56 C 248.70 85.40 254.79 109.82 253.65 133.98 C 252.60 160.23 242.93 186.00 226.63 206.59 C 211.16 226.20 189.83 241.17 166.01 248.74 C 144.23 255.81 120.49 256.62 98.23 251.38 C 73.55 245.57 50.79 232.05 33.80 213.24 C 15.51 193.15 3.93 166.98 1.57 139.90 C 1.18 137.69 2.04 134.92 0.00 133.32 L 0.00 123.37 L 1.12 122.55 C 2.68 86.46 20.65 51.44 49.15 29.21 M 75.83 41.56 C 56.69 53.04 41.58 71.04 33.56 91.85 C 27.92 106.10 26.12 121.66 27.51 136.86 C 27.94 142.29 31.29 147.70 36.59 149.52 C 42.95 151.82 49.93 149.74 55.59 146.53 C 66.72 140.07 75.20 129.44 79.62 117.41 C 86.71 97.42 84.71 75.83 82.13 55.22 C 84.19 55.08 86.13 55.79 88.07 56.38 C 98.29 59.49 108.31 63.59 117.16 69.65 C 141.39 86.11 160.34 108.95 177.23 132.61 C 184.28 142.40 193.22 151.83 205.07 155.49 C 210.25 157.20 216.83 157.03 220.71 152.70 C 226.44 146.77 227.60 137.92 227.71 130.02 C 228.85 99.61 214.79 69.02 191.00 50.05 C 177.02 38.68 159.99 30.92 142.11 28.43 C 119.40 24.99 95.45 29.50 75.83 41.56 Z" />
</g>
</svg>
