<?xml version="1.0" encoding="UTF-8" ?>
<!DOCTYPE svg PUBLIC "-//W3C//DTD SVG 1.1//EN" "http://www.w3.org/Graphics/SVG/1.1/DTD/svg11.dtd">
<svg width="300pt" height="300pt" viewBox="0 0 300 300" version="1.1" xmlns="http://www.w3.org/2000/svg">
<g>
<path fill="#777" opacity="1.00" d=" M 0.55 33.99 C 0.64 16.32 16.34 0.64 34.01 0.55 C 111.01 0.52 188.02 0.56 265.02 0.53 C 275.50 0.41 285.86 5.48 292.26 13.76 C 297.53 20.22 299.67 28.57 300.00 36.77 L 300.00 260.60 C 300.01 269.43 298.32 278.64 292.76 285.74 C 286.04 295.07 274.54 299.90 263.22 300.00 L 39.47 300.00 C 33.88 299.54 28.09 299.57 22.81 297.39 C 9.97 292.65 0.68 279.70 0.55 265.98 C 0.54 188.65 0.53 111.32 0.55 33.99 M 217.20 35.23 C 212.01 35.98 207.68 40.74 207.60 46.02 C 207.55 57.67 207.60 69.33 207.58 80.98 C 207.37 87.10 212.89 92.68 219.01 92.56 C 230.69 92.56 242.38 92.59 254.07 92.55 C 260.08 92.47 265.25 87.00 265.14 81.01 C 265.16 69.67 265.14 58.33 265.15 46.98 C 265.45 40.87 260.19 35.05 254.01 35.12 C 241.74 35.16 229.46 34.94 217.20 35.23 M 141.19 93.25 C 124.51 95.70 109.26 106.09 100.70 120.58 C 93.44 132.53 90.93 147.20 93.59 160.91 C 96.46 176.60 106.38 190.78 119.97 199.08 C 132.07 206.65 147.09 209.28 161.07 206.53 C 176.74 203.61 190.88 193.67 199.14 180.07 C 206.70 167.94 209.30 152.90 206.50 138.91 C 203.50 123.05 193.31 108.79 179.42 100.61 C 168.08 93.75 154.26 91.19 141.19 93.25 M 35.05 127.14 C 35.18 169.45 35.04 211.76 35.12 254.06 C 35.06 260.22 40.87 265.33 46.90 265.13 C 115.61 265.14 184.32 265.13 253.03 265.14 C 259.18 265.44 265.00 260.29 265.12 254.07 C 265.19 211.75 265.13 169.43 265.15 127.11 C 256.46 127.11 247.77 127.10 239.09 127.11 C 247.40 157.49 238.25 191.72 216.15 214.10 C 201.21 229.65 180.61 239.65 159.13 241.65 C 138.96 243.73 118.15 238.82 101.04 227.94 C 84.27 217.42 71.05 201.33 64.06 182.81 C 57.32 165.18 56.16 145.39 61.12 127.16 C 52.43 127.07 43.74 127.10 35.05 127.14 Z" />
</g>
</svg>
