<?xml version="1.0" encoding="UTF-8" ?>
<!DOCTYPE svg PUBLIC "-//W3C//DTD SVG 1.1//EN" "http://www.w3.org/Graphics/SVG/1.1/DTD/svg11.dtd">
<svg width="326pt" height="326pt" viewBox="0 0 326 326" version="1.1" xmlns="http://www.w3.org/2000/svg">
<g>
<path fill="#3D0626" opacity="1.00" d=" M 0.00 0.00 L 168.28 0.00 C 172.56 2.70 178.26 -0.65 182.56 1.89 C 184.52 1.99 186.48 2.01 188.44 2.11 C 190.14 3.50 192.41 2.88 194.42 3.13 C 196.22 4.47 198.66 3.58 200.55 4.75 C 201.91 4.98 203.34 5.05 204.56 5.79 C 205.03 5.90 205.96 6.12 206.43 6.22 C 208.09 6.87 209.88 7.10 211.54 7.78 C 212.02 7.89 212.98 8.11 213.46 8.22 C 214.45 8.63 215.47 8.99 216.50 9.32 C 218.24 9.89 219.95 10.51 221.62 11.27 C 222.86 11.79 224.14 12.22 225.41 12.69 C 226.47 13.22 227.53 13.77 228.60 14.31 C 229.86 14.79 231.14 15.21 232.40 15.69 C 233.46 16.21 234.52 16.75 235.59 17.26 C 238.02 18.40 240.31 19.81 242.54 21.31 C 243.51 21.77 244.48 22.23 245.46 22.68 C 249.92 25.43 254.09 28.63 258.62 31.28 C 259.54 32.09 260.45 32.91 261.38 33.71 C 263.36 34.60 264.81 36.25 266.34 37.72 C 267.38 38.25 268.46 38.79 269.25 39.68 C 275.31 45.99 281.71 51.99 287.72 58.35 C 288.65 60.87 291.33 62.12 292.29 64.62 C 293.09 65.55 293.91 66.46 294.72 67.38 C 297.63 72.62 301.75 77.14 304.26 82.59 C 304.75 83.54 305.26 84.49 305.78 85.43 C 305.99 85.95 306.41 86.97 306.63 87.48 C 307.29 88.51 308.02 89.49 308.77 90.45 C 309.07 91.89 309.61 93.25 310.19 94.60 C 310.96 95.89 311.65 97.23 312.32 98.58 C 312.90 100.29 313.52 101.98 314.30 103.62 C 314.67 104.55 315.01 105.50 315.32 106.47 C 315.67 107.47 316.00 108.47 316.33 109.48 C 316.67 110.47 316.98 111.47 317.28 112.48 C 317.78 113.84 318.23 115.22 318.82 116.54 C 318.92 117.01 319.11 117.96 319.21 118.43 C 319.93 120.09 320.04 121.94 320.83 123.57 C 320.94 124.52 321.05 125.47 321.17 126.43 C 322.47 128.26 321.52 130.76 322.87 132.58 C 322.97 134.19 323.02 135.82 323.12 137.44 C 324.75 139.77 323.73 142.78 324.09 145.42 C 325.45 146.99 324.91 149.12 325.03 151.01 C 324.90 160.48 325.15 169.95 324.90 179.41 C 322.76 182.07 325.22 185.91 323.12 188.59 C 322.91 190.59 323.43 192.82 322.15 194.57 C 322.04 195.85 321.95 197.14 321.85 198.44 C 321.01 200.04 320.88 201.88 320.27 203.57 C 320.02 204.93 319.92 206.34 319.21 207.57 C 319.11 208.04 318.90 208.97 318.80 209.44 C 318.38 210.43 318.00 211.44 317.65 212.45 C 317.32 213.46 317.01 214.46 316.72 215.48 C 316.22 216.81 315.79 218.16 315.29 219.49 C 314.93 220.92 314.35 222.28 313.74 223.62 C 313.20 224.86 312.78 226.15 312.31 227.43 C 311.65 228.77 310.96 230.10 310.25 231.42 C 309.31 233.44 308.32 235.44 307.26 237.41 C 306.30 239.44 305.29 241.44 304.31 243.45 C 303.46 244.83 302.53 246.15 301.74 247.57 C 298.84 252.30 295.94 257.12 292.33 261.36 C 291.42 263.34 289.76 264.79 288.28 266.34 C 287.74 267.37 287.21 268.45 286.33 269.24 C 280.01 275.31 274.02 281.70 267.65 287.72 C 265.64 288.56 264.21 290.24 262.66 291.71 C 256.99 295.64 251.29 299.60 245.45 303.31 C 242.95 304.35 240.69 305.81 238.46 307.32 C 237.11 307.97 235.76 308.61 234.42 309.28 C 232.60 310.36 230.57 310.98 228.59 311.68 C 227.52 312.22 226.47 312.77 225.41 313.31 C 223.71 313.91 222.01 314.52 220.39 315.30 C 219.44 315.68 218.49 316.02 217.52 316.33 C 216.52 316.67 215.51 317.00 214.51 317.32 C 213.51 317.67 212.52 318.02 211.52 318.35 C 209.83 318.85 208.07 319.10 206.43 319.78 C 205.97 319.89 205.03 320.10 204.56 320.21 C 203.34 320.94 201.91 321.02 200.54 321.25 C 198.66 322.39 196.22 321.53 194.43 322.87 C 192.81 322.97 191.19 323.02 189.57 323.12 C 187.21 325.07 183.77 322.91 181.44 324.90 C 176.72 325.62 171.55 323.82 167.16 326.00 L 157.58 326.00 C 153.42 323.69 148.14 325.71 143.55 324.89 C 141.56 323.34 138.89 324.20 136.58 323.90 C 135.16 322.70 133.27 323.04 131.58 322.83 C 129.74 321.53 127.28 322.45 125.43 321.18 C 124.47 321.06 123.51 320.94 122.55 320.83 C 120.95 320.02 119.15 319.85 117.46 319.35 C 116.45 319.02 115.45 318.68 114.46 318.33 C 113.44 317.98 112.44 317.61 111.44 317.20 C 110.97 317.10 110.03 316.90 109.56 316.79 C 108.55 316.37 107.53 316.00 106.50 315.68 C 104.76 315.12 103.04 314.49 101.39 313.73 C 99.73 313.06 98.05 312.46 96.40 311.80 C 94.82 310.90 93.19 310.09 91.59 309.24 C 90.52 308.75 89.47 308.25 88.42 307.75 C 87.11 307.00 85.76 306.35 84.38 305.78 C 82.70 304.80 81.12 303.68 79.43 302.74 C 73.37 298.82 66.88 295.30 61.66 290.28 C 59.16 289.27 57.64 286.96 55.66 285.27 C 52.18 283.64 50.10 280.19 47.25 277.75 C 45.09 275.27 42.09 273.44 40.72 270.35 C 38.80 267.93 35.98 266.25 34.67 263.36 C 33.54 262.14 32.44 260.88 31.70 259.38 C 30.90 258.45 30.09 257.54 29.28 256.62 C 27.94 254.11 26.08 251.92 24.73 249.42 C 23.27 246.78 21.47 244.33 20.24 241.56 C 20.02 241.05 19.59 240.03 19.37 239.52 C 18.72 238.49 17.98 237.50 17.23 236.54 C 16.93 235.10 16.39 233.74 15.81 232.40 C 14.65 230.46 13.71 228.42 12.69 226.42 C 12.08 224.72 11.47 223.02 10.74 221.38 C 10.20 220.11 9.77 218.79 9.29 217.50 C 8.99 216.48 8.68 215.47 8.35 214.47 C 8.00 213.45 7.62 212.44 7.20 211.44 C 7.10 210.97 6.89 210.04 6.79 209.57 C 6.05 208.35 5.98 206.92 5.75 205.57 C 5.08 204.33 4.98 202.93 4.74 201.58 C 3.66 199.66 4.41 197.26 3.14 195.43 C 3.04 194.14 2.96 192.85 2.86 191.57 C 1.40 189.53 2.17 186.91 1.90 184.59 C -0.41 181.20 2.42 176.58 0.00 173.16 L 0.00 0.00 M 133.75 52.90 C 132.37 53.47 130.89 53.70 129.40 53.74 L 129.53 54.52 C 128.73 54.57 127.11 54.67 126.31 54.72 L 126.42 55.48 C 124.86 55.83 123.34 56.33 121.83 56.85 C 116.37 59.22 111.08 61.96 105.84 64.77 C 94.95 71.57 85.09 79.99 76.79 89.81 C 68.74 99.71 62.36 110.91 57.77 122.82 C 57.02 125.72 55.68 128.47 55.27 131.47 L 54.73 131.44 C 54.68 132.94 54.48 134.42 53.85 135.80 C 49.65 155.37 50.14 176.00 55.85 195.23 C 56.35 196.15 56.70 197.14 56.90 198.18 C 57.28 199.22 57.61 200.27 57.89 201.34 C 58.84 202.92 59.58 204.64 59.73 206.50 L 60.50 206.69 C 60.90 208.66 62.00 210.38 62.76 212.22 C 63.76 214.22 64.99 216.11 65.79 218.20 C 68.75 222.54 71.51 227.05 74.72 231.23 C 76.09 232.88 77.64 234.39 78.78 236.22 C 81.93 239.79 85.40 243.03 88.75 246.40 L 89.65 246.40 L 89.61 247.23 C 91.58 248.23 93.11 249.83 94.76 251.26 C 96.19 252.11 97.51 253.13 98.77 254.22 C 100.78 255.56 102.95 256.67 104.78 258.27 C 106.53 259.11 108.38 259.85 109.79 261.23 C 110.32 261.47 111.37 261.95 111.90 262.19 C 113.79 262.90 115.44 264.18 117.46 264.50 L 117.48 265.30 C 119.42 265.36 121.16 266.25 122.80 267.21 C 126.80 268.47 130.82 269.77 134.78 271.16 C 154.93 276.04 176.31 275.99 196.27 270.16 C 199.25 269.10 202.26 268.11 205.26 267.09 C 212.51 264.00 219.49 260.31 226.23 256.24 C 228.57 254.48 230.79 252.44 233.47 251.25 L 233.48 250.77 C 235.62 249.47 237.12 247.34 239.37 246.21 L 239.36 245.33 L 240.23 245.42 C 242.54 242.96 244.95 240.58 247.40 238.25 L 247.35 237.38 L 248.21 237.35 C 249.51 235.03 251.57 233.26 253.23 231.20 C 254.12 229.79 255.03 228.38 256.26 227.24 C 256.73 226.11 257.33 225.05 258.26 224.24 C 258.73 223.10 259.35 222.04 260.27 221.20 C 261.32 218.71 262.78 216.43 264.21 214.15 C 264.79 212.20 266.21 210.58 266.52 208.53 L 267.32 208.50 C 267.37 206.57 268.23 204.82 269.19 203.20 C 269.68 201.68 270.16 200.15 270.52 198.60 L 271.21 198.65 C 271.42 196.09 272.22 193.64 273.14 191.26 C 273.36 189.89 273.56 188.51 274.15 187.24 C 274.36 185.55 274.58 183.86 275.16 182.26 C 277.97 164.50 277.18 146.10 272.13 128.80 C 271.64 127.84 271.31 126.81 271.13 125.74 C 270.50 124.68 270.19 123.53 270.21 122.26 L 269.57 122.49 C 269.17 120.54 268.57 118.64 267.59 116.90 C 266.95 115.13 266.00 113.51 265.22 111.81 C 264.98 111.30 264.50 110.30 264.25 109.80 C 263.53 108.50 262.68 107.25 262.28 105.81 C 261.01 104.25 259.65 102.59 259.37 100.53 L 258.67 100.61 C 258.17 99.68 257.70 98.73 257.27 97.76 C 256.05 96.61 255.04 95.26 254.26 93.78 C 252.84 92.18 251.34 90.62 250.24 88.78 C 244.78 82.54 238.76 76.82 232.22 71.73 C 230.78 70.90 229.48 69.85 228.25 68.76 C 227.12 68.26 226.04 67.68 225.26 66.73 C 224.08 66.35 223.03 65.75 222.22 64.81 C 221.71 64.57 220.69 64.09 220.19 63.86 C 215.73 61.14 210.78 59.20 206.23 56.79 C 202.19 55.66 198.27 54.13 194.28 52.88 C 174.56 47.72 153.45 47.61 133.75 52.90 Z" />
<path fill="#3D0626" opacity="1.00" d=" M 143.56 82.65 C 157.07 79.83 171.41 79.08 184.73 83.21 C 185.44 83.30 186.86 83.48 187.57 83.57 L 187.34 84.36 C 188.17 84.35 189.82 84.34 190.65 84.34 L 190.35 85.24 C 191.66 85.13 192.83 85.44 193.85 86.16 C 196.32 86.79 198.56 88.05 200.85 89.12 C 204.32 90.88 207.68 92.86 210.80 95.19 C 212.06 95.99 213.30 96.85 214.52 97.72 L 214.54 98.22 C 220.08 101.87 224.58 107.08 228.76 112.20 C 232.24 116.48 235.03 121.27 237.53 126.17 L 237.63 127.45 C 237.94 127.52 238.54 127.66 238.85 127.73 L 238.53 129.10 C 239.75 130.54 240.34 132.33 240.81 134.12 C 241.31 135.10 241.68 136.14 241.90 137.24 C 242.35 138.20 242.69 139.21 242.90 140.27 C 247.35 155.73 247.03 172.52 241.89 187.77 C 241.56 188.81 241.21 189.84 240.82 190.86 C 240.10 193.30 238.96 195.59 237.83 197.87 C 237.58 198.37 237.08 199.36 236.83 199.86 C 235.25 203.40 233.06 206.68 230.79 209.81 C 229.93 211.24 228.86 212.52 227.78 213.79 C 224.31 218.22 220.27 222.33 215.82 225.79 C 212.75 228.46 209.47 230.95 205.82 232.77 C 203.33 234.41 200.74 236.20 197.77 236.76 C 197.27 237.03 196.28 237.57 195.79 237.84 C 194.25 238.76 192.57 239.39 190.84 239.83 C 189.83 240.21 188.82 240.56 187.79 240.89 C 186.38 241.44 184.88 241.65 183.38 241.74 L 183.47 242.31 C 171.91 244.62 159.86 245.57 148.28 242.85 C 146.90 242.64 145.40 242.69 144.23 241.82 C 142.88 241.67 141.52 241.49 140.27 240.93 C 139.21 240.69 138.20 240.34 137.23 239.87 C 135.60 239.12 133.40 239.29 132.24 237.76 C 125.28 235.51 118.95 231.28 113.20 226.78 C 107.98 222.77 103.31 217.97 99.24 212.80 C 97.00 209.97 94.83 207.05 93.21 203.81 C 91.93 201.98 90.71 200.04 90.23 197.83 C 90.00 197.27 89.55 196.14 89.33 195.58 C 89.11 195.49 88.66 195.30 88.44 195.21 C 88.03 193.73 87.59 192.26 87.16 190.79 C 86.38 189.84 86.07 188.71 86.25 187.37 L 85.48 187.51 C 85.42 186.82 85.31 185.45 85.26 184.76 C 82.51 178.27 82.44 170.95 81.73 163.99 C 81.69 156.04 82.95 148.14 84.68 140.39 L 85.30 140.64 C 85.32 137.30 86.74 134.15 88.13 131.18 C 90.13 125.86 92.93 120.82 96.19 116.18 C 98.68 112.12 101.99 108.68 105.18 105.16 C 105.64 104.29 106.31 103.64 107.20 103.22 C 112.54 98.07 118.53 93.52 125.15 90.13 C 126.12 89.60 127.10 89.08 128.08 88.57 C 130.13 87.75 132.01 86.47 134.24 86.18 C 137.02 84.53 140.35 83.58 143.58 83.23 L 143.56 82.65 M 151.79 121.84 C 150.74 122.44 149.59 122.77 148.35 122.82 C 148.32 122.99 148.27 123.33 148.24 123.50 C 146.21 123.65 144.67 125.07 142.83 125.73 C 141.86 126.52 140.83 127.23 139.69 127.75 C 138.45 128.82 137.17 129.88 135.82 130.82 C 135.37 131.72 134.68 132.38 133.75 132.79 C 133.50 133.02 132.99 133.50 132.74 133.74 C 130.58 136.97 127.72 139.79 126.36 143.51 L 125.70 143.51 C 125.46 145.17 124.84 146.74 124.34 148.34 L 123.80 148.35 C 122.91 153.20 121.48 158.02 121.71 162.99 C 121.77 167.61 123.00 172.09 123.78 176.61 L 124.43 176.59 C 125.89 182.59 129.92 187.56 133.83 192.17 C 135.82 193.59 137.44 195.47 139.52 196.78 L 139.51 197.30 C 142.03 198.03 144.04 199.84 146.54 200.65 L 146.48 201.35 C 148.44 201.38 150.16 202.39 152.00 202.91 C 159.54 205.05 167.64 205.02 175.23 203.14 C 176.23 202.77 177.24 202.44 178.27 202.14 C 182.14 200.60 185.82 198.63 189.24 196.25 C 192.59 193.59 195.49 190.44 198.29 187.22 C 198.65 186.03 199.42 185.07 200.29 184.21 C 201.03 182.13 202.18 180.23 203.10 178.24 C 203.40 177.21 203.75 176.21 204.17 175.23 C 206.45 167.97 206.15 160.25 205.23 152.79 C 204.25 150.91 203.90 148.79 203.23 146.81 C 201.83 143.64 200.14 140.64 198.27 137.74 C 196.93 136.05 195.23 134.63 194.28 132.67 L 193.49 132.64 L 193.35 131.81 C 191.34 130.67 189.64 129.09 188.11 127.39 L 186.90 127.82 L 187.63 126.27 C 187.14 126.45 186.16 126.81 185.68 126.99 L 185.64 125.80 C 184.43 125.41 183.25 124.96 182.08 124.46 C 180.33 123.16 178.04 123.07 176.28 121.83 C 168.25 119.89 159.81 119.76 151.79 121.84 Z" />
</g>
</svg>
