<?xml version="1.0" encoding="UTF-8" ?>
<!DOCTYPE svg PUBLIC "-//W3C//DTD SVG 1.1//EN" "http://www.w3.org/Graphics/SVG/1.1/DTD/svg11.dtd">
<svg width="220pt" height="219pt" viewBox="0 0 220 219" version="1.1" xmlns="http://www.w3.org/2000/svg">
<g>
<path fill="#777" opacity="1.00" d=" M 14.67 0.00 L 204.92 0.00 C 213.20 0.55 219.97 8.00 220.00 16.27 L 220.00 201.74 C 220.46 210.29 213.69 218.28 205.14 219.00 L 14.88 219.00 C 7.23 218.52 0.46 212.06 0.00 204.34 L 0.00 14.71 C 0.41 7.03 7.09 0.62 14.67 0.00 M 44.41 30.57 C 35.02 32.61 28.30 42.62 30.16 52.08 C 31.48 61.40 40.62 68.73 50.03 67.82 C 60.73 67.63 69.47 56.82 67.65 46.31 C 66.43 35.54 54.86 27.78 44.41 30.57 M 116.85 96.72 C 116.91 91.82 116.95 86.92 116.87 82.03 C 106.45 82.04 96.02 82.20 85.61 81.94 C 85.55 116.88 85.53 151.81 85.61 186.74 C 96.48 186.57 107.36 186.64 118.23 186.71 C 118.22 169.81 118.20 152.90 118.25 136.00 C 118.33 128.54 118.48 120.33 123.20 114.12 C 127.28 108.85 134.54 107.58 140.82 108.33 C 145.23 108.80 149.44 111.41 151.47 115.42 C 154.61 121.39 154.57 128.38 154.61 134.95 C 154.61 152.22 154.57 169.48 154.63 186.74 C 165.52 186.58 176.41 186.63 187.30 186.72 C 187.31 166.50 187.32 146.28 187.29 126.07 C 187.05 116.72 186.30 107.12 182.58 98.43 C 179.88 92.00 174.94 86.46 168.61 83.44 C 161.01 79.79 152.34 79.05 144.03 79.63 C 132.90 80.54 122.40 86.97 116.85 96.72 M 32.50 81.94 C 32.44 116.88 32.42 151.82 32.51 186.76 C 43.45 186.55 54.38 186.72 65.32 186.67 C 65.26 151.76 65.34 116.84 65.28 81.93 C 54.35 81.94 43.43 81.91 32.50 81.94 Z" />
</g>
</svg>
