<?xml version="1.0" encoding="UTF-8" ?>
<!DOCTYPE svg PUBLIC "-//W3C//DTD SVG 1.1//EN" "http://www.w3.org/Graphics/SVG/1.1/DTD/svg11.dtd">
<svg width="300pt" height="300pt" viewBox="0 0 300 300" version="1.1" xmlns="http://www.w3.org/2000/svg">
<g>
<path fill="#777" opacity="1.00" d=" M 0.00 30.40 C 37.49 30.35 74.98 30.40 112.47 30.37 C 124.52 75.58 136.74 120.74 148.84 165.93 C 149.15 166.79 149.76 168.51 150.06 169.37 C 151.76 165.04 152.70 160.47 153.94 156.00 C 165.35 114.13 176.58 72.21 188.07 30.36 C 225.38 30.42 262.69 30.35 300.00 30.39 L 300.00 65.92 C 294.17 66.45 287.25 64.29 282.42 68.58 C 279.60 70.89 277.19 74.20 277.48 78.03 C 277.54 126.37 277.48 174.71 277.51 223.06 C 277.55 227.86 281.80 231.56 286.01 233.12 C 290.61 233.98 295.34 233.32 300.00 233.50 L 300.00 268.58 C 264.16 268.58 228.31 268.66 192.47 268.54 C 192.60 256.87 192.55 245.19 192.50 233.52 C 200.04 233.45 207.59 233.60 215.13 233.44 C 214.96 181.62 215.26 129.80 214.98 77.98 C 214.61 78.48 213.87 79.49 213.50 79.99 C 196.22 142.87 178.71 205.70 161.43 268.59 C 147.85 268.58 134.27 268.65 120.69 268.55 C 103.83 206.32 86.70 144.16 69.84 81.93 C 69.33 80.51 69.21 78.57 67.49 78.03 C 67.49 129.85 67.55 181.67 67.46 233.49 C 74.95 233.52 82.44 233.53 89.94 233.48 C 90.17 245.20 89.89 256.92 89.95 268.64 C 59.97 268.53 29.98 268.64 0.00 268.59 L 0.00 233.51 C 6.60 233.15 14.60 235.24 19.57 229.57 C 23.38 226.48 22.47 221.31 22.51 217.00 C 22.48 170.35 22.51 123.70 22.50 77.06 C 22.61 73.28 19.80 70.25 16.99 68.10 C 12.09 64.49 5.63 66.35 0.00 66.08 L 0.00 30.40 Z" />
</g>
</svg>
