<?xml version="1.0" encoding="UTF-8" ?>
<!DOCTYPE svg PUBLIC "-//W3C//DTD SVG 1.1//EN" "http://www.w3.org/Graphics/SVG/1.1/DTD/svg11.dtd">
<svg width="300pt" height="300pt" viewBox="0 0 300 300" version="1.1" xmlns="http://www.w3.org/2000/svg">
<g>
<path fill="#777" opacity="1.00" d=" M 239.52 58.33 C 244.37 57.96 249.26 58.21 254.13 58.19 C 264.35 59.60 273.84 64.61 281.38 71.57 C 289.16 79.84 294.54 90.55 295.21 101.99 C 296.52 106.00 294.74 110.00 294.79 114.05 C 292.61 125.95 286.07 137.20 276.20 144.32 C 261.33 155.31 240.28 156.76 224.05 147.91 C 212.15 141.12 202.81 129.35 200.22 115.75 C 196.98 100.77 201.34 84.17 212.08 73.12 C 219.14 65.21 229.21 60.36 239.52 58.33 Z" />
<path fill="#777" opacity="1.00" d=" M 134.58 76.43 C 154.21 73.76 174.74 86.19 180.90 105.10 C 183.75 113.96 184.26 123.58 181.16 132.44 C 175.67 152.08 154.24 165.39 134.20 162.12 C 118.62 160.49 104.61 149.24 99.26 134.59 C 93.19 119.04 97.18 99.93 109.58 88.57 C 116.06 81.64 125.31 77.79 134.58 76.43 Z" />
<path fill="#777" opacity="1.00" d=" M 36.03 93.15 C 44.47 91.93 53.33 93.07 60.87 97.19 C 73.05 103.71 81.86 116.97 81.33 131.02 C 81.93 141.90 77.01 152.72 69.10 160.07 C 62.67 166.31 53.84 169.72 45.00 170.48 C 33.54 171.05 21.57 166.77 13.85 158.10 C 4.46 148.45 1.27 133.69 4.89 120.86 C 8.64 106.61 21.53 95.40 36.03 93.15 Z" />
<path fill="#777" opacity="1.00" d=" M 197.24 201.37 C 203.19 182.15 220.59 166.40 240.84 164.15 C 247.46 164.02 254.22 163.56 260.65 165.49 C 281.74 170.98 297.24 190.61 300.00 211.91 L 300.00 238.10 C 299.45 239.35 298.89 240.61 298.33 241.86 C 264.44 241.83 230.55 241.80 196.67 241.88 C 195.55 239.72 194.18 237.51 194.24 234.99 C 194.28 223.74 193.54 212.19 197.24 201.37 Z" />
<path fill="#777" opacity="1.00" d=" M 114.82 178.84 C 121.97 174.06 130.48 171.88 138.98 171.24 C 150.71 171.44 162.75 175.41 171.21 183.80 C 178.25 190.24 183.63 198.75 185.77 208.07 C 188.23 216.82 187.71 226.02 187.78 235.04 C 187.99 237.58 186.31 239.63 185.36 241.85 C 154.87 241.82 124.37 241.85 93.88 241.83 C 93.51 240.31 92.89 238.87 92.14 237.51 C 92.35 230.01 91.50 222.43 92.77 214.99 C 93.99 200.37 102.78 186.98 114.82 178.84 Z" />
<path fill="#777" opacity="1.00" d=" M 31.81 179.81 C 43.41 176.40 56.37 179.03 66.24 185.83 C 74.53 192.11 81.09 200.85 83.84 210.96 C 85.72 219.43 85.88 228.14 85.55 236.77 C 85.31 238.53 84.64 240.18 84.10 241.87 C 56.31 241.82 28.53 241.81 0.75 241.87 C 0.56 241.17 0.19 239.78 0.00 239.08 L 0.00 215.43 C 3.09 199.05 15.30 183.90 31.81 179.81 Z" />
</g>
</svg>
