<?xml version="1.0" encoding="UTF-8" ?>
<!DOCTYPE svg PUBLIC "-//W3C//DTD SVG 1.1//EN" "http://www.w3.org/Graphics/SVG/1.1/DTD/svg11.dtd">
<svg width="300pt" height="300pt" viewBox="0 0 300 300" version="1.1" xmlns="http://www.w3.org/2000/svg">
<g>
<path fill="#777" opacity="1.00" d=" M 118.92 26.40 C 125.67 25.27 132.64 25.25 139.39 26.38 C 148.16 26.96 156.85 28.54 165.32 30.87 C 165.29 54.87 165.22 78.88 165.36 102.88 C 149.75 95.21 131.07 94.73 114.75 100.46 C 96.99 106.52 81.70 119.67 73.28 136.47 C 68.58 145.84 66.29 156.72 68.47 167.09 C 70.64 178.37 78.16 188.20 87.98 193.99 C 101.37 201.86 117.71 204.26 132.90 201.36 C 156.52 196.98 177.66 180.24 186.61 157.85 C 190.13 149.39 190.25 140.06 190.17 131.04 C 190.22 100.70 190.08 70.35 190.23 40.01 C 199.69 44.89 208.37 51.06 217.61 56.32 C 231.06 64.13 245.03 71.21 259.81 76.15 C 269.86 79.38 280.32 81.94 290.96 81.71 C 294.54 81.38 298.52 83.37 299.44 87.06 C 300.68 92.33 298.81 97.68 296.44 102.35 C 288.27 117.72 272.86 128.50 256.21 132.90 C 258.83 153.75 256.40 175.31 248.60 194.86 C 238.83 219.69 220.48 240.92 197.57 254.52 C 176.14 267.49 150.89 273.34 125.99 273.39 C 108.51 272.55 90.94 269.43 74.81 262.41 C 50.38 252.13 29.36 233.75 16.30 210.64 C 2.26 186.16 -2.39 156.74 2.29 129.01 C 6.69 101.90 20.79 76.51 41.40 58.38 C 62.65 39.35 90.56 28.31 118.92 26.40 Z" />
</g>
</svg>
