<?xml version="1.0" encoding="UTF-8" ?>
<!DOCTYPE svg PUBLIC "-//W3C//DTD SVG 1.1//EN" "http://www.w3.org/Graphics/SVG/1.1/DTD/svg11.dtd">
<svg width="300pt" height="300pt" viewBox="0 0 300 300" version="1.1" xmlns="http://www.w3.org/2000/svg">
<g>
<path fill="#777" opacity="1.00" d=" M 166.81 29.78 C 167.45 26.95 170.01 24.44 172.98 24.42 C 193.48 29.64 214.17 34.10 234.70 39.16 C 237.41 34.28 241.48 30.03 246.73 27.92 C 254.73 24.43 264.64 26.06 271.10 31.92 C 277.81 37.71 280.66 47.53 277.98 55.99 C 275.28 65.55 265.88 72.53 255.98 72.58 C 244.03 72.89 233.20 62.82 232.52 50.90 C 213.96 46.50 195.38 42.22 176.84 37.75 C 170.10 59.01 163.50 80.32 156.60 101.52 C 188.55 102.67 221.03 110.95 247.48 129.41 C 254.47 120.86 266.26 116.57 277.07 119.19 C 290.11 121.97 300.36 134.58 299.88 148.00 C 300.22 159.92 292.16 171.02 281.27 175.44 C 285.28 191.44 281.31 208.74 272.29 222.35 C 260.73 239.94 242.75 252.33 223.72 260.70 C 207.41 267.85 189.93 272.18 172.25 274.17 C 157.26 276.13 141.98 276.17 126.98 274.21 C 106.73 271.97 86.70 266.65 68.43 257.56 C 51.41 249.03 35.56 236.98 25.47 220.60 C 17.10 207.16 13.74 190.37 17.74 174.92 C 11.93 172.19 6.86 167.78 3.82 162.08 C -1.77 152.19 -0.81 139.04 6.19 130.09 C 12.67 121.36 24.26 116.86 34.94 118.94 C 41.61 120.11 47.73 123.74 52.11 128.89 C 78.99 110.45 111.86 102.36 144.14 101.44 C 151.70 77.55 159.28 53.67 166.81 29.78 M 97.37 150.56 C 88.37 152.92 81.46 161.67 81.53 171.02 C 81.24 178.63 85.48 186.13 92.02 189.97 C 98.61 194.02 107.43 194.04 114.07 190.08 C 120.38 186.43 124.61 179.39 124.76 172.09 C 124.98 166.29 122.69 160.46 118.61 156.34 C 113.29 150.75 104.79 148.34 97.37 150.56 M 191.34 150.56 C 180.96 153.20 173.70 164.42 175.75 174.98 C 177.24 185.07 186.77 193.32 197.04 192.97 C 206.04 193.30 214.62 187.06 217.51 178.60 C 220.25 171.06 218.29 162.09 212.63 156.40 C 207.32 150.77 198.79 148.32 191.34 150.56 M 101.30 223.02 C 97.56 224.76 96.80 230.37 99.99 232.99 C 111.26 244.13 127.71 247.41 142.98 248.26 C 160.14 248.82 178.51 247.78 193.44 238.39 C 196.49 236.24 199.83 234.08 201.75 230.79 C 203.80 226.65 199.47 221.41 195.05 222.50 C 192.74 222.99 191.24 224.94 189.46 226.31 C 182.97 231.62 174.62 233.96 166.48 235.22 C 155.38 236.71 144.06 236.71 132.97 235.11 C 124.13 233.72 115.10 230.81 108.52 224.46 C 106.69 222.52 103.72 221.68 101.30 223.02 Z" />
</g>
</svg>
