<?xml version="1.0" encoding="UTF-8" ?>
<!DOCTYPE svg PUBLIC "-//W3C//DTD SVG 1.1//EN" "http://www.w3.org/Graphics/SVG/1.1/DTD/svg11.dtd">
<svg width="220pt" height="220pt" viewBox="0 0 220 220" version="1.1" xmlns="http://www.w3.org/2000/svg">
<g>
<path fill="#777" opacity="1.00" d=" M 34.16 6.40 C 49.25 -1.18 67.54 -1.91 83.32 3.95 C 87.05 4.91 90.15 8.31 94.17 7.73 C 104.42 6.22 114.91 6.12 125.16 7.65 C 158.30 12.20 188.21 34.27 202.82 64.29 C 212.49 83.80 215.68 106.44 211.84 127.86 C 219.04 140.18 221.21 154.96 219.05 168.96 C 216.08 186.30 205.32 202.20 190.11 211.11 C 171.57 222.56 146.72 222.76 127.92 211.77 C 95.36 217.81 60.06 206.83 36.96 183.02 C 13.15 159.95 2.16 124.68 8.16 92.14 C 0.62 79.24 -1.51 63.60 1.29 49.02 C 4.96 30.77 17.42 14.57 34.16 6.40 M 93.68 44.91 C 87.29 46.12 80.97 48.01 75.32 51.29 C 66.83 55.97 60.20 64.27 58.46 73.91 C 56.73 83.10 57.50 93.27 62.77 101.25 C 67.75 108.59 75.95 112.96 84.23 115.58 C 95.40 118.65 106.67 121.36 117.91 124.17 C 122.31 125.27 127.00 126.38 130.45 129.53 C 133.59 132.72 135.24 137.72 133.46 142.00 C 131.55 148.03 125.99 152.10 120.18 153.96 C 111.64 156.41 102.10 155.87 94.11 151.87 C 87.65 148.48 83.93 141.99 79.40 136.59 C 74.47 130.35 63.52 130.46 58.90 137.02 C 55.51 141.34 56.48 147.43 58.54 152.13 C 63.05 161.85 72.54 168.23 82.33 171.84 C 97.26 177.03 113.63 177.54 129.06 174.40 C 139.22 172.08 149.32 167.17 155.74 158.71 C 163.39 149.04 165.15 135.42 161.42 123.81 C 158.99 115.80 152.81 109.39 145.58 105.42 C 136.57 100.22 126.08 98.97 116.13 96.57 C 108.11 94.57 99.69 93.51 92.24 89.73 C 87.77 87.55 84.53 82.27 86.20 77.28 C 87.63 70.84 93.95 66.86 100.16 66.08 C 110.23 64.46 121.86 66.13 129.19 73.82 C 133.03 77.32 135.95 82.29 141.17 83.89 C 146.66 85.27 153.31 83.40 156.40 78.43 C 158.18 75.73 157.78 72.28 157.34 69.25 C 155.42 62.25 149.79 56.92 143.68 53.36 C 128.81 44.43 110.63 41.86 93.68 44.91 Z" />
</g>
</svg>
