<?xml version="1.0" encoding="UTF-8" ?>
<!DOCTYPE svg PUBLIC "-//W3C//DTD SVG 1.1//EN" "http://www.w3.org/Graphics/SVG/1.1/DTD/svg11.dtd">
<svg width="300pt" height="300pt" viewBox="0 0 300 300" version="1.1" xmlns="http://www.w3.org/2000/svg">
<g>
<path fill="#777" opacity="1.00" d=" M 21.29 10.28 C 25.81 5.44 32.44 2.84 38.99 2.65 C 112.99 2.67 186.99 2.66 260.98 2.65 C 267.56 2.83 274.20 5.46 278.72 10.33 C 284.44 16.32 286.84 24.85 286.64 33.00 C 286.54 65.20 286.79 97.41 286.51 129.62 C 288.47 128.30 290.42 126.40 292.98 126.59 C 296.60 126.07 299.82 129.52 299.67 133.04 C 299.29 137.44 297.23 141.45 295.28 145.33 C 284.33 166.17 265.79 182.24 245.10 193.01 C 248.78 204.31 250.65 216.16 251.26 228.01 C 252.09 244.32 248.03 261.18 238.31 274.48 C 229.53 286.69 215.54 295.17 200.49 296.59 L 200.44 297.36 C 196.64 297.43 192.81 297.71 189.02 297.21 C 184.83 295.57 180.14 295.25 176.24 292.80 C 166.52 287.72 160.98 276.84 160.62 266.12 C 160.27 254.94 160.66 243.74 160.40 232.55 C 176.48 228.73 191.14 219.08 200.73 205.60 C 202.33 204.07 200.66 202.15 199.03 201.68 C 195.23 203.49 192.06 206.46 188.07 207.93 C 172.73 214.16 155.10 214.47 139.50 208.93 C 139.49 226.95 139.51 244.98 139.50 263.01 C 139.47 270.48 137.75 278.19 133.32 284.33 C 129.18 290.14 122.78 294.26 115.82 295.78 C 114.18 296.14 112.49 296.40 111.02 297.26 C 107.21 297.66 103.37 297.45 99.55 297.37 L 99.48 296.60 C 85.36 295.28 72.07 287.84 63.29 276.75 C 52.33 263.17 47.85 245.23 48.68 228.00 C 49.36 216.18 51.16 204.36 54.83 193.09 C 32.71 181.34 12.77 163.75 2.40 140.57 C 0.78 136.79 -1.20 131.63 2.26 128.25 C 5.47 125.04 10.40 126.93 13.40 129.45 C 13.24 97.31 13.39 65.17 13.32 33.04 C 13.20 24.86 15.53 16.29 21.29 10.28 M 33.72 23.75 C 30.62 27.38 30.44 32.47 30.41 37.02 C 30.51 72.78 30.26 108.56 30.54 144.31 C 45.81 155.79 64.13 163.00 82.96 165.94 C 94.55 167.78 106.33 167.64 118.01 166.98 C 125.18 166.21 133.22 167.08 138.69 172.26 C 145.96 179.11 153.79 185.68 163.17 189.43 C 162.98 183.77 162.98 177.46 166.84 172.88 C 171.12 167.54 178.50 166.41 184.94 166.78 C 200.33 167.97 216.03 167.82 231.06 163.95 C 244.88 160.59 257.86 154.27 269.52 146.19 C 269.54 109.44 269.52 72.69 269.53 35.93 C 269.49 31.27 269.13 25.93 265.44 22.59 C 261.48 19.17 255.92 19.54 251.03 19.56 C 182.37 19.58 113.70 19.56 45.04 19.57 C 40.98 19.65 36.53 20.59 33.72 23.75 Z" />
<path fill="#777" opacity="1.00" d=" M 94.41 82.57 C 110.81 78.89 128.73 88.16 135.61 103.40 C 140.67 114.03 140.22 127.13 134.37 137.36 C 129.13 146.89 119.49 153.83 108.81 155.84 C 100.95 157.26 92.60 156.34 85.44 152.71 C 74.99 147.67 67.19 137.51 65.09 126.09 C 62.23 112.19 68.43 97.08 79.97 88.91 C 84.26 85.81 89.22 83.62 94.41 82.57 Z" />
<path fill="#777" opacity="1.00" d=" M 190.37 82.60 C 206.25 78.98 223.71 87.47 231.03 101.94 C 236.23 111.73 236.73 123.90 232.16 134.02 C 227.56 144.81 217.55 153.07 206.12 155.62 C 196.87 157.63 186.87 156.13 178.76 151.19 C 165.79 143.60 158.37 127.71 161.12 112.89 C 163.48 98.07 175.66 85.52 190.37 82.60 Z" />
</g>
</svg>
