<?xml version="1.0" encoding="UTF-8" ?>
<!DOCTYPE svg PUBLIC "-//W3C//DTD SVG 1.1//EN" "http://www.w3.org/Graphics/SVG/1.1/DTD/svg11.dtd">
<svg width="300pt" height="300pt" viewBox="0 0 300 300" version="1.1" xmlns="http://www.w3.org/2000/svg">
<g>
<path fill="#777" opacity="1.00" d=" M 133.98 10.18 C 136.39 9.83 138.83 9.53 141.16 8.77 C 147.70 8.39 154.47 7.65 160.89 9.25 C 172.26 10.81 183.57 13.76 193.61 19.44 C 209.26 27.98 221.39 42.31 228.12 58.74 C 231.09 66.49 231.85 74.85 232.28 83.08 C 232.71 96.92 231.82 110.76 230.73 124.55 C 239.93 128.24 247.86 118.66 257.02 120.95 C 262.42 122.06 268.13 125.43 269.51 131.14 C 270.68 136.11 267.30 140.72 263.44 143.45 C 255.87 149.24 245.88 149.86 237.88 154.78 C 234.63 156.64 232.25 160.28 233.16 164.13 C 234.42 170.25 237.93 175.61 241.04 180.94 C 252.66 199.62 270.84 215.57 293.05 219.41 C 296.38 219.73 299.14 222.09 300.00 225.33 L 300.00 227.40 C 299.09 232.32 294.95 235.70 290.70 237.82 C 280.96 242.70 270.08 244.41 259.49 246.43 C 258.11 251.16 257.48 256.09 255.81 260.73 C 254.68 263.86 251.31 265.78 248.04 265.50 C 241.96 265.16 236.07 263.29 229.96 263.11 C 221.54 262.75 212.60 263.05 205.03 267.19 C 197.84 271.05 191.55 276.33 184.65 280.65 C 177.79 285.03 170.26 288.56 162.20 290.00 C 155.38 291.84 148.01 292.50 141.12 290.74 C 136.10 289.69 131.04 288.64 126.35 286.53 C 115.75 282.15 107.09 274.47 97.40 268.55 C 85.19 260.98 69.90 262.37 56.45 265.19 C 52.45 266.07 47.16 266.24 44.82 262.17 C 42.47 257.21 42.13 251.61 40.47 246.42 C 30.11 244.52 19.53 242.76 9.95 238.18 C 5.49 236.05 1.08 232.66 0.00 227.56 L 0.00 225.55 C 0.70 222.86 2.58 220.32 5.45 219.79 C 11.56 218.54 17.63 216.96 23.27 214.22 C 42.01 205.26 56.14 188.52 64.93 169.98 C 66.99 165.88 68.39 160.00 64.41 156.58 C 57.79 150.75 48.44 150.28 40.93 146.10 C 35.60 143.41 29.60 138.65 30.35 131.98 C 31.77 124.01 41.35 119.51 48.78 121.19 C 55.27 123.56 62.28 127.17 69.28 124.52 C 68.00 107.09 66.53 89.48 68.67 72.05 C 70.04 59.15 76.60 47.45 84.63 37.51 C 96.85 22.57 114.97 12.96 133.98 10.18 Z" />
</g>
</svg>
