<?xml version="1.0" encoding="UTF-8" ?>
<!DOCTYPE svg PUBLIC "-//W3C//DTD SVG 1.1//EN" "http://www.w3.org/Graphics/SVG/1.1/DTD/svg11.dtd">
<svg width="96pt" height="96pt" viewBox="0 0 96 96" version="1.1" xmlns="http://www.w3.org/2000/svg">
<g>
<path fill="#777" opacity="1.00" d=" M 48.97 27.67 C 57.30 24.43 67.70 26.44 73.52 33.43 C 75.96 36.17 77.11 39.72 77.93 43.22 C 82.04 42.65 86.59 43.37 89.52 46.56 C 94.53 51.32 93.98 60.29 88.44 64.41 C 85.27 67.15 80.89 67.10 76.95 67.02 C 68.26 66.91 59.57 67.12 50.89 66.95 C 49.29 67.18 48.88 65.25 49.00 64.06 C 48.96 51.93 49.05 39.80 48.97 27.67 Z" />
<path fill="#777" opacity="1.00" d=" M 44.45 29.09 C 46.35 30.42 46.05 32.98 46.39 35.01 C 46.98 43.36 47.15 51.74 46.88 60.11 C 46.67 62.42 46.82 64.87 45.91 67.06 C 43.89 68.91 43.31 65.51 43.34 64.13 C 42.86 52.47 42.56 40.64 44.45 29.09 Z" />
<path fill="#777" opacity="1.00" d=" M 31.53 39.93 C 31.58 37.68 31.99 35.43 32.98 33.39 C 34.61 37.38 34.41 41.74 34.73 45.95 C 35.04 52.73 35.31 59.58 34.23 66.30 C 34.38 68.14 31.04 67.75 31.57 65.92 C 30.54 57.29 31.12 48.58 31.53 39.93 Z" />
<path fill="#777" opacity="1.00" d=" M 25.67 39.00 C 25.73 37.42 26.32 35.93 26.91 34.48 C 28.69 37.71 28.16 41.47 28.48 45.00 C 28.96 51.36 29.12 57.75 28.50 64.11 C 28.56 65.67 27.74 67.00 26.98 68.29 C 26.64 67.70 25.97 66.51 25.63 65.92 C 24.60 56.97 25.30 47.96 25.67 39.00 Z" />
<path fill="#777" opacity="1.00" d=" M 38.28 35.69 C 40.41 36.44 39.87 39.02 40.27 40.78 C 40.91 49.51 41.66 58.43 39.99 67.07 C 38.48 68.65 37.22 66.37 37.41 65.03 C 36.68 55.27 36.82 45.38 38.28 35.69 Z" />
<path fill="#777" opacity="1.00" d=" M 19.31 47.99 C 19.58 44.79 19.17 41.35 21.02 38.51 C 21.59 39.90 21.97 41.34 22.14 42.82 C 22.81 50.89 23.38 59.08 22.00 67.11 C 21.48 67.15 20.44 67.24 19.92 67.29 C 18.70 60.96 19.00 54.40 19.31 47.99 Z" />
<path fill="#777" opacity="1.00" d=" M 7.90 66.14 C 7.35 58.66 6.24 50.64 8.87 43.45 C 11.70 50.58 10.68 58.67 9.98 66.15 C 9.46 66.15 8.42 66.14 7.90 66.14 Z" />
<path fill="#777" opacity="1.00" d=" M 13.36 55.92 C 13.49 52.06 13.11 47.98 14.92 44.41 C 17.62 51.61 16.59 59.65 16.07 67.16 C 15.52 67.17 14.41 67.17 13.85 67.17 C 13.19 63.47 13.46 59.67 13.36 55.92 Z" />
<path fill="#777" opacity="1.00" d=" M 2.25 50.94 C 2.18 49.62 3.11 48.69 3.83 47.71 C 4.83 53.06 6.02 59.31 3.13 64.25 C 1.67 59.98 1.91 55.37 2.25 50.94 Z" />
</g>
</svg>
