<?xml version="1.0" encoding="UTF-8" ?>
<!DOCTYPE svg PUBLIC "-//W3C//DTD SVG 1.1//EN" "http://www.w3.org/Graphics/SVG/1.1/DTD/svg11.dtd">
<svg width="300pt" height="300pt" viewBox="0 0 300 300" version="1.1" xmlns="http://www.w3.org/2000/svg">
<g>
<path fill="#777" opacity="1.00" d=" M 146.52 0.00 L 154.83 0.00 C 181.04 1.11 207.04 8.66 229.30 22.65 C 259.84 41.55 283.19 71.75 293.61 106.13 C 297.10 117.21 298.90 128.72 300.00 140.26 L 300.00 159.21 C 298.02 189.73 286.76 219.62 267.58 243.50 C 246.30 270.34 215.63 289.58 182.12 296.74 C 174.78 298.43 167.28 299.19 159.81 300.00 L 140.99 300.00 C 110.88 298.02 81.37 287.05 57.67 268.30 C 32.22 248.45 13.44 220.21 5.17 188.99 C 1.99 177.45 0.57 165.52 0.00 153.58 L 0.00 144.79 C 0.75 135.11 1.68 125.40 4.00 115.94 C 11.99 81.20 32.97 49.70 61.83 28.80 C 86.26 10.81 116.26 0.93 146.52 0.00 M 139.90 85.27 C 123.50 88.78 110.55 104.21 110.23 121.03 C 110.16 139.68 110.25 158.34 110.19 176.99 C 110.16 181.79 105.75 186.02 100.95 185.81 C 96.35 185.81 92.08 181.72 92.14 177.07 C 92.10 169.14 92.14 161.22 92.14 153.29 C 82.27 153.31 72.41 153.19 62.55 153.35 C 62.76 162.22 62.43 171.10 62.72 179.97 C 63.70 196.41 76.49 211.18 92.59 214.58 C 104.26 217.26 117.12 214.12 126.11 206.17 C 134.26 199.23 139.24 188.74 139.43 178.04 C 139.47 159.68 139.42 141.31 139.46 122.95 C 139.34 118.67 142.74 114.65 146.97 113.99 C 151.96 112.93 157.20 117.05 157.51 122.10 C 157.65 125.85 157.55 129.60 157.46 133.35 C 161.31 135.35 165.30 137.05 169.19 138.96 C 175.09 137.36 180.90 135.44 186.78 133.77 C 186.85 129.84 186.78 125.90 186.81 121.97 C 186.80 110.90 181.44 100.10 172.94 93.09 C 163.93 85.52 151.34 82.60 139.90 85.27 M 204.86 153.27 C 204.84 161.55 204.88 169.83 204.85 178.11 C 204.92 183.12 199.97 187.49 195.00 186.82 C 190.58 186.49 186.89 182.47 186.85 178.05 C 186.78 169.94 186.77 161.82 186.88 153.70 C 180.97 155.27 175.17 157.20 169.30 158.89 C 165.38 157.02 161.44 155.23 157.55 153.31 C 157.54 162.18 157.42 171.05 157.60 179.91 C 158.55 197.28 172.78 212.69 190.00 215.07 C 201.25 216.89 213.23 213.39 221.65 205.69 C 229.49 198.73 234.24 188.45 234.41 177.96 C 234.46 169.72 234.42 161.49 234.43 153.25 C 224.57 153.30 214.71 153.26 204.86 153.27 Z" />
</g>
</svg>
