<svg xmlns="http://www.w3.org/2000/svg" version="1.1">

	<symbol id="twitter-gray" viewBox="0 0 300 300">
		<path fill="#888888" opacity="1.00" d=" M 165.6 44.6 C 176.9 34 192.4 27.8 208 28 C 224.8 27.8 241.3 35.3 252.8 47.5 C 266.6 44.6 279.9 39.5 292.1 32.3 C 287.3 46.4 277.7 58.7 265 66.5 C 277 64.9 289 62 300 56.7 L 300 57 C 291.8 69.4 281.2 80.1 269.3 88.9 C 272.2 151 239.9 214 186.8 246.8 C 158.3 264.5 124.4 272.7 91 271.9 C 69.1 271.6 47.2 266.9 26.9 258.5 C 17.6 254.7 8.8 249.6 0 244.6 L 0 244.4 C 2.8 244.5 5.6 244.7 8.4 244.9 C 38 246.7 67.8 236.9 91.2 218.8 C 79.8 218.6 68.6 215.2 59 209.1 C 47 201.4 38 189.4 33.5 175.9 C 42.6 177.6 52.2 177.6 61.1 174.9 C 46.8 171.9 33.6 163.8 24.8 152.1 C 16.3 141.3 11.8 127.5 12 113.8 C 20.5 118.4 30.1 121.1 39.8 121.6 C 27.3 112.9 17.8 99.9 14.3 85 C 10.4 69.6 13 52.8 20.9 39 C 51.4 77.3 98.8 101.3 147.7 103.6 C 142.7 82.6 149.7 59.2 165.6 44.6 Z" />
	</symbol>

	<symbol id="twitter-white" viewBox="0 0 300 300">
		<path fill="#ffffff" opacity="1.00" d=" M 165.56 44.63 C 176.90 33.97 192.38 27.74 207.98 28.03 C 224.80 27.82 241.32 35.28 252.81 47.47 C 266.53 44.55 279.85 39.59 291.90 32.36 C 287.33 46.37 277.79 58.91 264.96 66.30 C 277.05 65.42 288.79 61.48 300.00 56.96 L 300.00 57.27 C 291.52 69.35 281.26 80.22 269.28 88.89 C 272.34 153.19 237.54 218.45 181.14 250.07 C 148.60 268.56 109.94 274.96 72.95 270.66 C 47.04 267.65 22.12 258.22 0.00 244.55 L 0.00 244.29 C 32.09 248.07 65.68 238.99 90.95 218.74 C 79.17 218.65 67.49 214.84 57.75 208.24 C 46.31 200.57 37.74 188.92 33.46 175.86 C 42.58 177.80 52.15 177.35 61.15 175.05 C 56.80 173.68 52.28 172.79 48.18 170.70 C 26.29 161.06 11.33 137.71 12.05 113.76 C 20.51 118.22 30.11 121.52 39.72 121.20 C 26.73 112.89 17.53 99.09 14.08 84.11 C 10.55 68.96 13.00 52.49 20.94 39.10 C 51.46 77.35 98.90 101.39 147.78 103.58 C 142.60 82.60 149.71 59.27 165.56 44.63 Z" />
	</symbol>

</svg>