<?xml version="1.0" encoding="UTF-8" ?>
<!DOCTYPE svg PUBLIC "-//W3C//DTD SVG 1.1//EN" "http://www.w3.org/Graphics/SVG/1.1/DTD/svg11.dtd">
<svg width="322pt" height="322pt" viewBox="0 0 322 322" version="1.1" xmlns="http://www.w3.org/2000/svg">
<g>
<path fill="#777" opacity="1.00" d=" M 132.33 0.00 L 181.00 0.00 C 181.00 27.00 180.99 54.00 181.00 81.00 C 200.57 81.02 220.14 80.97 239.71 81.02 C 239.70 99.34 239.70 117.66 239.71 135.98 C 219.81 136.03 199.91 135.98 180.00 136.00 C 180.00 167.02 180.00 198.04 180.00 229.05 C 179.97 237.86 181.81 247.32 188.06 253.92 C 193.82 260.20 202.75 262.28 211.00 262.00 C 219.96 261.66 228.92 259.92 237.24 256.53 C 242.46 271.77 247.51 287.05 252.77 302.27 C 248.81 307.13 243.01 309.93 237.40 312.42 C 223.69 318.11 208.84 321.11 194.00 321.07 C 176.07 321.01 157.70 317.27 142.41 307.59 C 118.49 292.81 105.41 264.53 105.02 236.95 C 104.97 203.30 105.02 169.65 104.99 136.00 C 92.66 135.99 80.34 136.01 68.01 136.00 C 68.00 120.32 67.99 104.65 68.01 88.97 C 82.59 83.71 96.08 75.09 106.26 63.33 C 119.96 47.68 127.57 27.50 130.46 7.10 C 130.88 4.69 130.70 2.00 132.33 0.00 Z" />
</g>
</svg>
