<?xml version="1.0" encoding="UTF-8" ?>
<!DOCTYPE svg PUBLIC "-//W3C//DTD SVG 1.1//EN" "http://www.w3.org/Graphics/SVG/1.1/DTD/svg11.dtd">
<svg width="322pt" height="322pt" viewBox="0 0 322 322" version="1.1" xmlns="http://www.w3.org/2000/svg">
<g id="#787878ff">
<path fill="#777" opacity="1.00" d=" M 225.68 0.00 L 236.24 0.00 C 251.63 0.96 267.41 5.43 279.11 15.90 C 292.69 27.74 299.31 45.63 301.22 63.16 C 303.64 86.79 300.23 111.17 290.83 133.03 C 282.64 134.58 274.07 134.91 265.94 132.79 C 257.23 130.58 249.14 125.44 244.02 117.98 C 248.37 103.19 251.44 87.60 249.45 72.15 C 248.46 65.18 246.36 57.87 241.14 52.85 C 235.00 46.95 224.59 46.82 217.99 52.03 C 210.95 57.63 208.31 66.89 207.23 75.46 C 205.73 90.41 207.45 105.84 213.05 119.84 C 219.29 135.56 231.57 148.90 247.09 155.78 C 264.21 163.65 283.89 163.64 301.99 159.55 C 302.01 172.31 302.00 185.07 301.99 197.84 C 289.38 200.65 276.47 202.06 263.55 202.26 C 257.80 214.52 250.99 226.28 243.60 237.63 C 227.83 261.58 209.51 283.96 188.53 303.55 C 180.97 310.22 173.27 317.65 163.21 320.22 C 155.58 322.29 147.45 320.20 140.84 316.16 C 131.29 310.37 122.96 302.77 115.24 294.75 C 90.96 269.01 73.44 237.67 59.71 205.26 C 38.85 155.20 27.01 101.83 19.97 48.19 C 38.24 48.19 56.50 48.18 74.77 48.19 C 80.44 95.34 90.04 142.45 108.56 186.36 C 121.11 216.32 138.33 244.26 159.17 269.16 C 181.80 246.40 200.14 219.60 214.57 190.99 C 192.87 180.02 176.02 160.69 166.54 138.46 C 157.24 116.77 153.95 92.57 156.69 69.16 C 159.21 49.02 167.97 28.96 183.88 15.86 C 195.53 6.02 210.60 1.05 225.68 0.00 Z" />
</g>
</svg>
