<?xml version="1.0" encoding="UTF-8" ?>
<!DOCTYPE svg PUBLIC "-//W3C//DTD SVG 1.1//EN" "http://www.w3.org/Graphics/SVG/1.1/DTD/svg11.dtd">
<svg width="248pt" height="248pt" viewBox="0 0 248 248" version="1.1" xmlns="http://www.w3.org/2000/svg">
<g id="#787878ff">
<path fill="#777" opacity="1.00" d=" M 57.84 20.63 C 83.05 4.06 114.54 -2.81 144.29 2.58 C 160.68 5.16 176.12 11.90 190.11 20.66 C 178.94 17.40 167.07 20.21 156.56 24.45 C 144.86 29.26 134.00 35.92 123.94 43.55 C 112.25 34.78 99.55 27.11 85.66 22.37 C 76.76 19.49 66.99 17.94 57.84 20.63 Z" />
<path fill="#777" opacity="1.00" d=" M 39.67 36.70 C 42.12 34.29 45.98 35.22 48.84 36.29 C 59.71 40.96 68.94 48.55 78.10 55.87 C 83.70 60.43 89.22 65.09 94.51 70.00 C 75.05 89.27 58.11 111.21 45.34 135.49 C 37.15 151.17 30.21 167.74 27.04 185.22 C 26.20 189.60 26.22 194.08 26.00 198.52 C 9.01 177.77 0.33 150.71 0.50 124.00 C 0.71 91.13 15.22 58.68 39.67 36.70 Z" />
<path fill="#777" opacity="1.00" d=" M 193.09 39.17 C 197.30 37.04 202.38 33.72 207.14 35.93 C 219.44 46.58 229.26 60.04 236.15 74.76 C 247.65 99.26 250.32 127.73 243.77 153.97 C 239.68 170.07 232.44 185.51 221.96 198.44 C 221.77 181.97 216.38 166.11 210.03 151.09 C 196.66 120.67 176.98 93.13 153.18 69.99 C 165.87 58.99 178.52 47.66 193.09 39.17 Z" />
<path fill="#777" opacity="1.00" d=" M 76.25 143.25 C 91.93 127.35 107.83 111.67 123.96 96.23 C 139.66 111.46 155.30 126.77 170.66 142.35 C 178.33 149.75 184.55 158.48 191.06 166.89 C 197.14 175.34 203.17 183.99 207.27 193.62 C 209.23 198.37 210.79 203.67 209.47 208.81 C 208.55 212.58 205.45 215.20 202.70 217.69 C 180.25 237.63 150.01 248.37 120.03 247.37 C 91.45 246.53 63.46 234.88 42.54 215.45 C 39.39 212.55 37.50 208.29 37.82 203.99 C 38.39 197.60 41.16 191.67 44.19 186.11 C 51.37 173.40 60.36 161.85 69.56 150.56 C 71.67 148.02 73.92 145.60 76.25 143.25 Z" />
</g>
</svg>
