<?xml version="1.0" encoding="UTF-8" ?>
<!DOCTYPE svg PUBLIC "-//W3C//DTD SVG 1.1//EN" "http://www.w3.org/Graphics/SVG/1.1/DTD/svg11.dtd">
<svg width="416pt" height="416pt" viewBox="0 0 416 416" version="1.1" xmlns="http://www.w3.org/2000/svg">
<g id="#999999ff">
<path fill="#999999" opacity="1.00" d=" M 192.00 0.00 L 224.00 0.00 C 224.02 64.00 223.97 127.99 224.02 191.99 C 288.01 192.03 352.00 191.98 416.00 192.00 L 416.00 224.00 C 352.00 224.02 288.01 223.97 224.01 224.02 C 223.97 288.01 224.02 352.00 224.00 416.00 L 192.00 416.00 C 191.98 352.00 192.03 288.01 191.98 224.01 C 127.99 223.97 64.00 224.02 0.00 224.00 L 0.00 192.00 C 64.00 191.98 127.99 192.03 191.98 191.99 C 192.03 127.99 191.98 64.00 192.00 0.00 Z" />
</g>
</svg>
