<?xml version="1.0" encoding="UTF-8" ?>
<!DOCTYPE svg PUBLIC "-//W3C//DTD SVG 1.1//EN" "http://www.w3.org/Graphics/SVG/1.1/DTD/svg11.dtd">
<svg width="480pt" height="480pt" viewBox="0 0 480 480" version="1.1" xmlns="http://www.w3.org/2000/svg">
<g id="#999999ff">
<path fill="#999999" opacity="1.00" d=" M 238.39 0.00 L 241.48 0.00 C 267.10 0.72 292.74 4.57 317.00 12.98 C 375.43 32.57 425.35 75.81 453.32 130.69 C 466.68 156.64 475.18 185.07 478.31 214.08 C 479.42 222.16 479.42 230.34 480.00 238.47 L 480.00 241.54 C 479.33 259.15 477.68 276.78 473.56 293.95 C 464.98 331.47 447.03 366.76 421.95 395.94 C 395.86 426.44 361.98 450.24 324.40 464.36 C 297.99 474.47 269.77 479.23 241.56 480.00 L 238.51 480.00 C 216.87 479.32 195.21 476.64 174.39 470.56 C 115.01 453.92 62.99 413.15 32.34 359.69 C 15.76 331.10 5.24 299.00 1.72 266.14 C 0.60 258.00 0.54 249.76 0.00 241.57 L 0.00 238.45 C 0.62 221.17 2.26 203.89 6.19 187.03 C 15.41 145.91 35.88 107.42 64.65 76.64 C 91.84 47.39 126.45 25.06 164.38 12.51 C 188.20 4.43 213.30 0.72 238.39 0.00 M 220.57 32.76 C 177.13 36.45 135.16 54.71 102.51 83.56 C 74.68 107.92 53.56 139.86 42.09 175.02 C 36.24 192.76 32.98 211.32 32.01 229.95 C 32.21 239.65 31.42 249.41 32.72 259.06 C 35.56 292.60 46.96 325.36 65.38 353.52 C 92.54 395.52 135.34 427.15 183.57 440.48 C 218.10 450.15 255.11 450.64 289.94 442.19 C 331.65 432.03 369.93 408.45 397.84 375.85 C 426.00 343.30 443.73 301.77 447.28 258.85 C 448.57 249.27 447.79 239.58 447.99 229.95 C 446.84 207.94 442.45 186.04 434.49 165.45 C 423.88 137.59 407.07 112.14 385.80 91.27 C 347.23 53.24 293.28 30.97 239.03 32.00 C 232.87 32.01 226.68 31.80 220.57 32.76 Z" />
<path fill="#999999" opacity="1.00" d=" M 224.00 96.00 C 234.67 96.00 245.33 96.00 256.00 96.00 C 256.00 138.67 256.00 181.33 256.00 224.00 C 298.67 224.00 341.33 224.00 384.00 224.00 C 384.00 234.67 384.00 245.33 384.00 256.00 C 341.33 256.00 298.67 256.00 256.00 256.00 C 256.00 298.67 256.00 341.33 256.00 384.00 C 245.33 384.00 234.67 384.00 224.00 384.00 C 224.00 341.33 224.00 298.67 224.00 256.00 C 181.33 256.00 138.67 256.00 96.00 256.00 C 96.00 245.33 96.00 234.67 96.00 224.00 C 138.67 224.00 181.33 224.00 224.00 224.00 C 224.00 181.33 224.00 138.67 224.00 96.00 Z" />
</g>
</svg>
