<svg id="Camada_1" data-name="Camada 1" xmlns="http://www.w3.org/2000/svg" xmlns:xlink="http://www.w3.org/1999/xlink" viewBox="0 0 2076.33 156"><defs><style>.cls-1,.cls-4{fill:none;}.cls-2{clip-path:url(#clip-path);}.cls-3{fill:#3b0024;}.cls-4{stroke:#f5e7b4;stroke-miterlimit:10;fill-rule:evenodd;}</style><clipPath id="clip-path"><rect class="cls-1" width="2076.33" height="824.54"/></clipPath></defs><title>bg-acai</title><g class="cls-2"><rect class="cls-3" width="2076.33" height="826"/><path class="cls-4" d="M804.17,133.58c42.64-1.07,84.22-2.11,126.87-3.2l-56.39-59.5c-6.85,10.92-13.53,21.55-20.44,32.52l44.63,9.48c-.06.36-.12.73-.19,1.09H833.95c13.39-19.28,26.59-38.25,40-57.52,26.78,28.33,53.36,56.39,80.47,85H786L869.64,22.17C905.69,53.87,941.5,85.35,977.51,117c27.32-36.12,54.47-72,82-108.49H894.3l74.9,62c10.55-13.18,21-26.2,32-39.88-5,0-9.19-.06-13.42,0-10.65.17-21.3.43-32,.51a22.17,22.17,0,0,1-4.84-1c0-.36,0-.72,0-1.07,1.1-.48,2.15-1.31,3.26-1.37q33.29-1.73,66.54-3.32a7,7,0,0,1,1.46.45L968.38,85c-32.87-29.31-65.52-58.4-98.74-88h213c-35.21,44.4-70,88.31-105,132.41C942,98.63,906.65,68.1,871,37.33,848.82,69.29,826.8,101,804.17,133.58Z"/><path class="cls-4" d="M530.26,70.55c10.59-13.25,21-26.23,32-39.94-1.86,0-3,0-4.18,0q-20.73.32-41.5.61a7.87,7.87,0,0,1-3-.1c-.72-.32-1.18-1.33-1.75-2,.65-.45,1.26-1.26,1.93-1.31,4.3-.33,8.61-.48,12.91-.69l54-2.68c.61,0,1.25.07,2.81.15L529.47,85C496.7,55.78,464.05,26.71,430.79-2.94H643.61C608.56,41.32,573.8,85.24,538.79,129.39c-35.69-30.76-71.08-61.32-106.72-92.06l-66.79,96.24c42.49-1.06,84.16-2.1,126.84-3.19-19.06-20.08-37.55-39.6-56.41-59.5-6.82,10.88-13.48,21.54-20.37,32.55,15.18,3.21,29.84,6.3,44.52,9.42,0,.29-.08.55-.1.84H395.24c13.37-19.21,26.44-38,39.77-57.23,26.83,28.37,53.49,56.5,80.57,85.11H347C375,101.71,402.71,62.11,430.7,22.14,466.77,53.87,502.58,85.35,538.6,117,566,80.69,593.33,44.59,621,8H454.77Z"/><path class="cls-4" d="M1279.25,8.08h-166c25.49,21.13,50.24,41.65,75.33,62.46,10.56-13.17,21-26.19,31.86-39.7-1.76-.1-2.95-.25-4.13-.24-13.57.19-27.15.44-40.72.59a26.8,26.8,0,0,1-5-.88c-.06-.4-.11-.77-.15-1.15,1.26-.52,2.49-1.44,3.79-1.5q32.49-1.74,65-3.24a17.88,17.88,0,0,1,2.49.26l-54,60.31c-32.92-29.39-65.63-58.56-99-88.34h213.48C1267,41.15,1232.2,85.11,1197.12,129.39c-35.56-30.7-70.87-61.21-106.62-92.06l-66.82,96.25c42.58-1.07,84.22-2.14,126.82-3.2-19.1-20.16-37.62-39.71-56.35-59.5-6.85,10.95-13.52,21.54-20.41,32.55l44.56,9.46c0,.36-.12.71-.16,1.05h-64.64c13.33-19.2,26.46-38.1,39.89-57.49,26.84,28.37,53.5,56.54,80.65,85.19H1005.34c28-40,55.71-79.52,83.71-119.47,36,31.62,71.79,63.08,108,94.83C1224.36,80.76,1251.6,44.69,1279.25,8.08Z"/><path class="cls-4" d="M584.76,133.58c42.6-1.07,84.25-2.14,126.84-3.2-19.12-20.17-37.64-39.71-56.37-59.5-6.86,10.93-13.51,21.54-20.4,32.52l44.58,9.5c-.06.36-.12.7-.17,1.07H614.54l39.9-57.52c26.79,28.32,53.35,56.39,80.44,85H566.59c28-39.95,55.66-79.45,83.59-119.31C686.24,53.85,722,85.31,758.1,117,785.53,80.71,812.8,44.6,840.42,8H674.27c25.44,21.08,50.35,41.71,75.48,62.51l31.77-39.73c-9.51,0-18.34,0-27.18,0-6.08,0-12.17.32-18.26.32a19.74,19.74,0,0,1-4.48-1V29.07c1.23-.5,2.46-1.34,3.71-1.41q32.5-1.74,65-3.24a14.35,14.35,0,0,1,2.45.29C784.65,45,767,64.77,748.91,85,716,55.66,683.29,26.46,649.84-3.35H863.42L758.17,129.39C722.5,98.6,687.07,68,651.5,37.33,629.32,69.33,607.35,101,584.76,133.58Z"/><path class="cls-4" d="M1670.55,133.58c42.64-1.07,84.21-2.11,126.88-3.2-19-20.08-37.54-39.6-56.4-59.5-6.83,10.92-13.52,21.55-20.43,32.52l44.63,9.48c-.06.36-.13.73-.18,1.09h-64.72c13.4-19.28,26.59-38.25,40-57.52,26.8,28.33,53.38,56.39,80.48,85h-168.4c28-39.95,55.72-79.45,83.65-119.29,36.07,31.71,71.86,63.18,107.88,94.83,27.33-36.12,54.47-72,82-108.49H1760.67c25.26,20.9,49.9,41.33,74.91,62,10.53-13.18,21-26.2,31.94-39.88-5,0-9.19-.06-13.4,0-10.65.17-21.32.43-32,.51a22.39,22.39,0,0,1-4.86-1c0-.36,0-.72,0-1.07,1.1-.48,2.15-1.31,3.26-1.37q33.27-1.73,66.53-3.32a7.1,7.1,0,0,1,1.46.45c-18,20.13-35.8,40-53.76,60.12-32.87-29.31-65.5-58.4-98.73-88h213c-35.2,44.4-70,88.31-105,132.41-35.62-30.76-71-61.29-106.58-92.06C1715.19,69.29,1693.18,101,1670.55,133.58Z"/><path class="cls-4" d="M1396.65,70.55c10.58-13.25,21-26.23,32-39.94-1.88,0-3,0-4.19,0q-20.75.32-41.5.61a7.84,7.84,0,0,1-3-.1c-.73-.32-1.17-1.33-1.74-2,.63-.45,1.25-1.26,1.92-1.31,4.32-.33,8.62-.48,12.94-.69l54-2.68c.63,0,1.26.07,2.84.15-18.19,20.36-35.94,40.23-54,60.46-32.77-29.22-65.41-58.29-98.67-87.93H1510c-35.06,44.26-69.82,88.17-104.8,132.32-35.69-30.76-71.1-61.32-106.71-92.06-22.26,32-44.28,63.77-66.83,96.24,42.52-1.06,84.18-2.1,126.85-3.19-19-20.08-37.54-39.6-56.4-59.5-6.81,10.88-13.46,21.54-20.36,32.55,15.17,3.21,29.84,6.3,44.52,9.42,0,.29-.06.55-.11.84h-64.53c13.37-19.21,26.46-38,39.79-57.23,26.83,28.37,53.48,56.5,80.57,85.11H1213.43c27.9-39.85,55.67-79.45,83.65-119.42C1333.15,53.87,1369,85.35,1405,117c27.45-36.3,54.72-72.41,82.36-109h-166.2C1346.6,29.11,1371.53,49.75,1396.65,70.55Z"/><path class="cls-4" d="M2145.61,8.08h-166c25.47,21.13,50.25,41.65,75.35,62.46,10.54-13.17,21-26.19,31.85-39.7-1.76-.1-3-.25-4.13-.24-13.59.19-27.16.44-40.75.59a26.77,26.77,0,0,1-5-.88c-.06-.4-.12-.77-.18-1.15,1.26-.52,2.52-1.44,3.79-1.5q32.52-1.74,65-3.24a17.89,17.89,0,0,1,2.48.26l-54,60.31c-32.92-29.39-65.64-58.56-99-88.34h213.5c-35.24,44.49-70.07,88.45-105.17,132.73L1956.88,37.33c-22.16,31.91-44.23,63.71-66.81,96.25,42.57-1.07,84.2-2.14,126.8-3.2-19.11-20.16-37.62-39.71-56.36-59.5l-20.39,32.55,44.55,9.46c-.06.36-.09.71-.15,1.05h-64.65c13.34-19.2,26.45-38.1,39.9-57.49,26.84,28.37,53.49,56.54,80.64,85.19H1871.71c28-40,55.71-79.52,83.72-119.47,36,31.62,71.78,63.08,107.95,94.83C2090.75,80.76,2118,44.69,2145.61,8.08Z"/><path class="cls-4" d="M1451.13,133.58c42.61-1.07,84.25-2.14,126.85-3.2-19.12-20.17-37.65-39.71-56.37-59.5-6.87,10.93-13.52,21.54-20.4,32.52l44.57,9.5c-.06.36-.12.7-.18,1.07h-64.67c13.34-19.27,26.54-38.25,39.89-57.52,26.77,28.32,53.36,56.39,80.45,85H1433c28-39.95,55.67-79.45,83.59-119.31L1624.47,117c27.44-36.29,54.7-72.39,82.33-109H1540.63l75.5,62.51,31.77-39.73c-9.52,0-18.34,0-27.18,0-6.08,0-12.18.32-18.27.32a20,20,0,0,1-4.47-1V29.07c1.25-.5,2.45-1.34,3.72-1.41q32.48-1.74,65-3.24a14.64,14.64,0,0,1,2.45.29C1651,45,1633.34,64.77,1615.3,85c-32.89-29.33-65.63-58.54-99.07-88.34h213.56c-35.23,44.46-70.16,88.49-105.23,132.74L1517.89,37.33C1495.7,69.33,1473.73,101,1451.13,133.58Z"/><path class="cls-4" d="M-74.15,133.48c42.65-1.08,84.23-2.12,126.89-3.19C33.67,110.18,15.2,90.67-3.66,70.79c-6.85,10.9-13.53,21.52-20.43,32.52,15.2,3.24,29.91,6.34,44.61,9.46,0,.36-.12.73-.18,1.1H-44.37C-31,94.58-17.79,75.61-4.41,56.35c26.79,28.32,53.37,56.37,80.46,85H-92.33c28-39.92,55.7-79.46,83.63-119.29C27.38,53.77,63.18,85.24,99.19,116.91c27.34-36.14,54.48-72.05,82-108.52H16c25.24,20.92,49.9,41.33,74.89,62.06l32-39.9c-5,0-9.19-.07-13.42,0-10.66.16-21.32.44-32,.52a22.16,22.16,0,0,1-4.84-1c0-.36,0-.71,0-1.06,1.09-.49,2.16-1.3,3.27-1.36,22.18-1.18,44.35-2.24,66.52-3.31a5.9,5.9,0,0,1,1.47.44L90.06,84.88l-98.73-88h213c-35.2,44.4-70,88.31-105,132.41C63.66,98.52,28.34,68-7.3,37.23Z"/><path class="cls-4" d="M400.92,8h-166c25.48,21.13,50.24,41.67,75.34,62.46l31.85-39.7c-1.76-.11-2.95-.25-4.12-.24-13.58.2-27.15.46-40.73.6a27.82,27.82,0,0,1-5-.89c-.06-.38-.13-.75-.18-1.15,1.27-.53,2.5-1.44,3.79-1.5,21.67-1.16,43.35-2.2,65-3.27.61,0,1.19.13,2.47.29-18.19,20.34-36,40.21-53.94,60.31-32.92-29.37-65.63-58.55-99-88.31H424C388.72,41,353.9,85,318.8,129.29,283.25,98.6,247.93,68.08,212.2,37.23,190,69.15,168,100.92,145.38,133.48l126.8-3.19c-19.11-20.18-37.62-39.75-56.36-59.51-6.85,10.92-13.49,21.52-20.39,32.52L240,112.77c-.06.36-.12.71-.18,1.06H175.17c13.32-19.21,26.45-38.1,39.9-57.49l80.63,85.21H127c28-40,55.72-79.55,83.73-119.49l107.94,94.85Z"/></g></svg>