<svg id="Camada_1" data-name="Camada 1" xmlns="http://www.w3.org/2000/svg" viewBox="0 0 237.44 52.48"><defs><style>.cls-1{fill:#3D0626;fill-rule:evenodd;}</style></defs><title>borda-marajoara</title><path class="cls-1" d="M274.19,26.79l11.57-14.46h-1.52l-15,.23a2.91,2.91,0,0,1-1.09,0c-.26-.11-.42-.48-.63-.74.23-.16.45-.46.7-.48,1.56-.12,3.12-.17,4.68-.25l19.54-1c.22,0,.45,0,1,0L273.9,32,238.18.19h77l-37.94,47.9L238.65,14.76,214.47,49.6l45.91-1.15L240,26.91l-7.38,11.78,16.12,3.41c0,.1,0,.2,0,.3H225.32l14.4-20.71,29.17,30.8h-61L238.15,9.27l39.06,34.34L307,4.15H246.87Z"/><path class="cls-1" d="M55.41,49.56l45.92-1.16L80.92,26.87l-7.4,11.77,16.15,3.43c0,.13,0,.26-.07.4H66.18L80.65,21.65l29.13,30.77h-61L79.1,9.23l39.05,34.34L147.84,4.29H88l27.11,22.46L126.7,12.31c-1.79,0-3.32,0-4.85,0-3.86.06-7.72.15-11.58.19a8.27,8.27,0,0,1-1.75-.36v-.39a3.93,3.93,0,0,1,1.18-.49q12-.63,24.08-1.2a2.26,2.26,0,0,1,.53.16L114.85,32,79.11.12H156.2l-38,47.94L79.6,14.72Z"/><path class="cls-1" d="M227.37,4.14H167.29l27.28,22.61L206.1,12.37c-.64,0-1.07-.08-1.5-.08-4.92.07-9.83.16-14.75.21a9.86,9.86,0,0,1-1.8-.32l-.06-.42a4.72,4.72,0,0,1,1.37-.54c7.84-.42,15.69-.79,23.53-1.18a7,7,0,0,1,.89.1L194.26,32,158.43,0h77.28l-38.07,48L159.06,14.72,134.87,49.56l45.9-1.16-20.4-21.54L153,38.64l16.13,3.43-.06.39h-23.4L160.1,21.65l29.19,30.83H128.22l30.3-43.25L197.6,43.57Z"/><path class="cls-1" d="M-24,49.56,21.9,48.41,1.49,26.87-5.89,38.64l16.13,3.44c0,.12,0,.25-.06.38H-13.24L1.21,21.65,30.33,52.41H-30.6L-.34,9.23,38.73,43.57,68.53,4.12H8.38L35.71,26.75l11.5-14.38c-3.45,0-6.64,0-9.83,0-2.2,0-4.41.12-6.61.12a7.27,7.27,0,0,1-1.62-.38c0-.13,0-.26,0-.38a4.65,4.65,0,0,1,1.34-.51Q42.25,10.6,54,10a6.46,6.46,0,0,1,.89.11L35.4,32-.45,0h77.3L38.76,48.05.14,14.72Z"/></svg>