<?xml version="1.0" encoding="UTF-8" ?>
<!DOCTYPE svg PUBLIC "-//W3C//DTD SVG 1.1//EN" "http://www.w3.org/Graphics/SVG/1.1/DTD/svg11.dtd">
<svg width="480pt" height="480pt" viewBox="0 0 480 480" version="1.1" xmlns="http://www.w3.org/2000/svg">
<g id="#010101ff">
<path fill="#888888" opacity="1.00" d=" M 0.33 240.01 C 62.11 181.34 124.06 122.84 185.98 64.30 C 193.30 71.78 200.52 79.35 207.69 86.97 C 154.00 138.09 100.02 188.91 46.31 239.99 C 100.05 291.08 153.99 341.95 207.73 393.02 C 200.53 400.64 193.30 408.23 185.98 415.73 C 124.08 357.17 62.13 298.66 0.33 240.01 Z" />
<path fill="#888888" opacity="1.00" d=" M 272.26 86.98 C 279.47 79.36 286.70 71.77 294.03 64.27 C 355.91 122.84 417.87 181.34 479.67 239.99 C 417.88 298.66 355.93 357.16 294.02 415.69 C 286.69 408.22 279.48 400.64 272.31 393.02 C 325.99 341.91 379.97 291.09 433.67 239.99 C 379.93 188.92 326.01 138.05 272.26 86.98 Z" />
</g>
</svg>
