<?xml version="1.0" encoding="UTF-8" ?>
<!DOCTYPE svg PUBLIC "-//W3C//DTD SVG 1.1//EN" "http://www.w3.org/Graphics/SVG/1.1/DTD/svg11.dtd">
<svg width="480pt" height="480pt" viewBox="0 0 480 480" version="1.1" xmlns="http://www.w3.org/2000/svg">
<g id="#010101ff">
<path fill="#888888" opacity="1.00" d=" M 237.40 0.00 L 242.52 0.00 C 268.68 0.96 294.76 7.51 317.62 20.42 C 349.86 38.34 375.57 67.71 388.87 102.14 C 398.48 126.99 402.11 154.33 398.23 180.74 C 423.25 195.14 444.59 216.00 458.85 241.15 C 472.19 264.26 479.03 290.75 480.00 317.33 L 480.00 321.66 C 479.23 342.62 475.24 363.58 466.81 382.86 C 449.02 424.79 412.41 458.20 369.00 472.03 C 353.72 477.07 337.68 479.31 321.64 480.00 L 315.56 480.00 C 302.61 479.08 289.64 477.61 277.14 473.94 C 264.16 470.32 251.69 464.95 239.99 458.26 C 220.42 469.52 198.53 476.79 176.04 479.02 C 171.90 479.30 167.77 479.65 163.64 480.00 L 157.50 480.00 C 138.10 479.18 118.69 475.81 100.66 468.41 C 70.00 456.22 43.38 434.19 25.57 406.43 C 11.75 385.04 3.17 360.29 0.90 334.92 C 0.63 330.82 0.28 326.72 0.00 322.62 L 0.00 317.34 C 0.93 292.46 6.88 267.65 18.67 245.65 C 32.88 218.52 55.25 195.98 81.74 180.73 C 77.56 151.77 82.21 121.71 94.09 95.02 C 107.80 64.11 131.69 37.88 161.06 21.15 C 184.22 7.80 210.76 0.97 237.40 0.00 M 189.99 41.97 C 159.67 54.73 134.73 79.68 121.97 110.00 C 114.30 128.00 110.95 147.75 112.14 167.27 C 118.77 165.56 125.37 163.69 132.14 162.57 C 168.87 155.92 207.76 162.97 240.00 181.74 C 260.69 169.81 284.04 162.28 307.90 160.69 C 328.08 158.71 348.47 161.73 367.87 167.29 C 369.80 136.75 360.19 105.70 341.35 81.59 C 323.72 58.69 298.11 42.06 269.98 35.38 C 243.52 29.09 215.04 31.28 189.99 41.97 M 117.95 199.11 C 126.78 226.64 145.19 250.96 169.35 266.86 C 177.98 242.51 192.58 220.38 211.52 202.83 C 182.41 189.57 148.04 188.32 117.95 199.11 M 268.46 202.82 C 287.37 220.37 302.01 242.48 310.59 266.82 C 334.80 251.00 353.17 226.63 362.04 199.13 C 331.97 188.30 297.57 189.56 268.46 202.82 M 63.72 235.54 C 43.55 258.32 31.83 288.56 32.00 319.02 C 31.11 357.29 49.23 395.21 78.92 419.22 C 101.77 438.01 131.37 448.62 160.99 448.00 C 178.34 448.17 195.72 444.30 211.53 437.19 C 181.75 409.66 162.70 370.60 160.53 330.01 C 159.32 319.71 160.56 309.38 161.59 299.13 C 128.12 280.46 102.18 249.19 89.28 213.16 C 79.89 219.53 71.17 226.96 63.72 235.54 M 381.66 233.66 C 367.48 261.08 345.07 284.05 318.28 299.31 C 319.64 309.77 320.59 320.39 319.38 330.92 C 317.02 371.20 297.98 409.87 268.44 437.20 C 293.16 448.44 321.54 450.87 347.98 445.07 C 380.67 437.93 409.99 417.22 427.96 389.03 C 448.44 357.49 453.64 316.70 442.07 280.96 C 433.35 253.36 414.80 229.12 390.71 213.13 C 387.97 220.09 385.18 227.05 381.66 233.66 M 197.96 280.87 C 224.85 290.56 255.14 290.53 282.04 280.88 C 274.38 257.03 259.55 235.60 240.00 219.94 C 220.49 235.63 205.56 256.99 197.96 280.87 M 192.11 312.69 C 191.73 323.19 191.95 333.77 194.12 344.09 C 199.66 373.83 216.40 401.17 240.00 420.04 C 256.44 406.72 269.77 389.48 278.01 369.96 C 285.68 351.98 289.07 332.25 287.86 312.74 C 271.68 317.39 254.92 320.01 238.08 319.97 C 222.51 319.53 207.05 317.09 192.11 312.69 Z" />
</g>
</svg>
