<svg id="Camada_1" data-name="Camada 1" xmlns="http://www.w3.org/2000/svg" viewBox="0 0 1237.21 776.25"><defs><style>.cls-1{opacity:0.1;}.cls-2{fill:none;stroke:#3D0626;stroke-linecap:round;stroke-linejoin:round;stroke-width:2px;}</style></defs><title>cuia-inline</title><g class="cls-1"><path class="cls-2" d="M759.57,7.14H537.26c35,27.74,68.87,54.56,103.32,81.83q27.41-28.66,54-56.49c-6,.3-13,.69-20.1,1-15.75.65-31.49,1.21-47.21,2-1.65.08-3.24,1.4-4.87,2.14,1.76.71,3.49,1.48,5.28,2.08.49.18,1.18-.2,1.77-.2,14.41,0,28.79,0,43.93,0l-32.05,35.5c-25.64-18.86-50.85-37.37-77.07-56.66H734.59C706,51.9,678.09,84.67,650,117.65,612.57,88.41,575.56,59.53,538.33,30.5c-29.28,37.07-58,73.46-87.16,110.44H626.89c-28.55-26.81-56.13-52.7-84.1-78.94l-41.94,53.57c17.77,0,34.9.05,52-.08,1.68,0,3.34-1.08,5-1.65-1.64-1-3.15-2.61-4.92-3-9.71-2-19.44-3.65-30-5.6,7.14-10.09,13.82-19.55,20.72-29.29,19.17,18,37.66,35.35,57.5,54-44.17,1-86.35,1.9-129.87,2.86,23.46-30,45.86-58.7,68.5-87.66l110.39,84.59C686.71,88.78,722.86,48.3,759.57,7.14Z"/><path class="cls-2" d="M986.65,7.17H764.39c35.09,27.8,69,54.63,102.85,81.44,18.54-18.68,36.81-37.13,55.08-55.56,0,0-.35-.4-.63-.38Q887.33,34,852.94,35.44c-1.37.05-2.72,1.18-4.1,1.8.16.57.3,1.16.44,1.73h51.66c-11.31,12.56-21.81,24.17-32.45,36C842.82,56.07,817.61,37.51,791.2,18.1H961.82l-84.73,99.56c-37.41-29.23-74.33-58-111.65-87.17-29.1,36.85-57.91,73.34-87.4,110.71H854.29L769.87,62c-14.3,18.29-28.18,36-41.89,53.57,17.41,0,34.13.07,50.87-.08,2,0,4.1-1.19,6.17-1.83-1.93-1-3.84-2.07-5.79-3a6.84,6.84,0,0,0-1.79-.24L750,105.19c7.1-10.09,13.63-19.32,20.59-29.18,19,17.77,37.66,35.23,57.65,53.94l-130,2.89c23.38-29.87,45.78-58.53,68.58-87.68l110.37,84.59C913.85,88.73,950,48.24,986.65,7.17Z"/><path class="cls-2" d="M532.46,7.14H310.06q52.69,41.7,102.45,81C431.37,69.35,449.7,51,468.25,32.49c-23.35,1-46.82,2-70.26,3.06-1,0-2,1.4-3,2.15,1,.67,1.88,1.68,3,1.93,1.3.29,2.75-.17,4.14-.17,14.43,0,28.88,0,44.11,0-10.93,12.12-21.39,23.72-32,35.5L337.13,18.21H507.51c-28.57,33.59-56.45,66.33-84.6,99.43L311.21,30.5,224.07,141H399.91L315.68,62c-14.39,18.41-28.15,36-42.53,54.38,7.11,0,12.87.09,18.6,0,11.76-.2,23.51-.45,35.28-.87,1.21,0,2.39-1.27,3.54-1.95a13.91,13.91,0,0,0-3-2.19,21.39,21.39,0,0,0-4.08-.89l-27.68-5.26C303,95,309.61,85.65,316.43,76L374,130c-44,1-86.22,1.9-129.92,2.86l68.56-87.66c37,28.36,73.61,56.38,110.44,84.59C459.51,88.92,495.67,48.37,532.46,7.14Z"/><path class="cls-2" d="M1236.21,1H1.4C0,6.08,2.53,6.66,6.39,6.65c22.54-.1,45.12-.05,67.66-.05h7.38c-2.64,3.08-4.15,4.91-5.71,6.67Q47,45.39,18.36,77.57c-1.61,1.82-3.84,4.49-3.55,6.39,1.36,8.74,3.55,17.35,5.65,27.1C42.12,83.67,63.08,57.2,84.18,30.5L195.8,117.66c28.18-33.15,56.11-66,84.71-99.59H109.83c26.53,19.5,51.83,38.07,77.41,56.88C198,63,208.4,51.45,219,39.7c-15.74,0-30.63.07-45.53-.1-1.75,0-3.46-1.39-5.21-2.13,1.65-.72,3.29-2,5-2Q201,34,228.76,32.92c4.25-.17,8.53,0,11.71,0Q213.62,60.31,185.92,88.6L82.81,7H305.55c-37.09,41.54-73.36,82.15-109.6,122.8L85.6,45.18c-13.33,17-26.12,33.35-38.89,49.69-7,8.94-14.28,17.72-20.82,27-1.55,2.2-.82,6.17-.62,9.31.05.61,2.54,1.5,3.88,1.48q44.23-.88,88.51-1.95c9.18-.22,18.39-.61,29.1-1C127,111.19,108.4,93.82,89.38,76c-7.06,10-13.66,19.3-20.69,29.23,10.94,2,20.9,3.82,30.8,5.8,1.5.3,2.83,1.51,4.2,2.32-1.53.74-3,2-4.63,2.1-9.94.46-19.91.71-29.87.88-7.41.13-14.8,0-23.22,0C60.66,97.67,74.52,80,88.63,62c28.15,26.41,55.77,52.35,83.38,78.27-.24.49-.5,1-.72,1.44H27.51c22.28,91,51.52,178.64,91.91,263.72,10-15.84,19.53-30.32,28.47-45.15,6.76-11.23,14-22.43,19-34.46,11.65-27.91,22.11-56.33,33.08-84.54.66-1.73,1.54-3.38,2.6-5.66,8.76,20.61,6.64,40.09-2.18,58.79-8.41,17.8-17.75,35.2-27.18,52.51q-20.34,37.24-41.48,74c-2,3.5-2.09,5.87-.21,9.1,18,30.78,35.88,61.63,53.9,92.42,1.72,3,3.92,5.68,6.77,9.8,16.18-22.41,33-42.87,46.67-65.24,23.94-39.28,46.19-79.61,68.68-119.75,16.41-29.25,30.34-59.68,38.8-92.3,2.45-9.33,4.22-18.79,6.45-28.88,3,1.9,5.52,3.41,8,5.06,15,10.1,26.44,23.5,35.62,39,3.67,6.15,7.11,12.49,11.3,18.29,7.78,10.76,17.24,14.07,29.89,10.15a98.56,98.56,0,0,0,19-8.5c20.31-11.53,37-27.6,53.69-43.67,5.93-5.7,12-11.26,18.88-17.72a26.78,26.78,0,0,1,0,3.88c-.57,3.13-1.08,6.27-1.88,9.35-5.28,20.76-18.9,35.39-36,46.77-12.91,8.59-26.84,15.66-40.07,23.79-12.92,7.9-14.23,14.71-5,26.79,7.63,10,15.58,19.78,24.16,28.93,17,18.17,25.66,19.42,47,6.44a485.1,485.1,0,0,0,73-54.09C612.8,300,631.72,276.77,640.76,247c3-9.8,11.56-12.62,18.47-19.19,1.92,19.9-2.87,36.86-13.74,51.54-11.48,15.51-23.85,30.42-36.7,44.88C582,354.43,551,379,512.14,392.4a44.22,44.22,0,0,0-9,4.57c-8.36,5.25-9.5,10.83-3.85,19,3.19,4.58,6.84,8.78,10.15,13.26,9.35,12.68,18.32,25.64,28,38,5.86,7.48,13.69,12.6,23.88,10.72a42.41,42.41,0,0,0,14.49-5.25c22.3-14,45-27.47,66.33-42.75C707.83,383,762.54,326.72,791.6,249.27c4.92-13.15,14.38-21.58,29.5-22.63-.43,1.33-.82,2.79-1.34,4.2-22.16,58.42-55.29,109.84-98.86,154.57-45.15,46.33-97.76,82.4-154.48,112.85-2.19,1.18-4.36,2.4-6.74,3.73,11.87,19.77,23.14,39,35,57.91,6.12,9.75,15.45,13.82,26.85,10.59a122.07,122.07,0,0,0,21.78-8c71.73-36.26,137.06-81.39,192.57-140C886.23,369.32,925.24,308.91,952,240.66c3.49-8.88,15.52-15.23,25.37-13.13-65.29,170.72-181,292.21-352,359.73,3.36,7.58,6.21,14.14,9.18,20.66,10.73,23.5,25.21,43.84,48.09,57.18,3.38,2,6.22,2.62,9.93.84C725,650.3,758.38,636.31,789.94,619c101.67-55.77,186-131,248.23-229.4,29.35-46.45,57.31-93.9,68.7-148.87,1.94-9.42,7-17.63,14.38-24.68,5,10.52,7.61,21.18,4.67,31.8-3.69,13.37-9.21,26.22-13.64,39.39-14.42,42.82-35.07,82.44-60.73,119.52-30.9,44.68-67.42,84.44-107,121.52-27,25.42-54.71,50.11-85.77,70.72C811,630.8,759.13,654.86,706.19,676.71c-19.9,8.22-21,9-9,27.57,13,20,28.17,38.46,42.5,57.76,9.08-2.46,18-4.71,26.74-7.31,8.2-2.4,16.37-5,24.44-7.9,79.17-28,145.67-74.9,202.46-136.16,54.17-58.45,95.73-125.28,129.8-197,34.53-72.77,60.09-148.72,79.91-226.68,3.77-14.81,7-29.75,10.79-45.64h-81.7c29.68-37.55,58.44-74,87.49-110.76l12.2,9.31c.84-5.48,1.44-10.17,2.33-14.83.67-3.51-.21-6-3.23-8.17-4-2.76-7.61-6-12.05-9.5C1236.23,4.77,1236.23,4.77,1236.21,1Z"/><path class="cls-2" d="M1213.84,7.05H991.34l103.27,81.78c18.47-19.2,36.45-37.89,54.27-56.38-6.23.3-13.35.69-20.48,1-15.94.67-31.89,1.23-47.81,2-1.42.07-2.77,1.46-4.14,2.26,1.39.67,2.79,1.91,4.17,1.91,8.17-.05,16.34-.49,24.5-.62,7.25-.12,14.5,0,22.88,0-11.38,12.59-21.85,24.21-32.47,35.94-25.68-18.89-50.8-37.38-77.07-56.75h170.33l-84.57,99.47c-37.44-29.22-74.44-58.06-111.72-87.15-29.26,37.1-58,73.49-87.2,110.53h176C1052.65,114.22,1025,88.24,997,62,982.72,80.29,968.88,98,954.54,116.28c2,.18,2.88.35,3.81.34,16.36-.34,32.71-.64,49.07-1.13,1.49,0,3-1,4.44-1.61a36.06,36.06,0,0,0-4.29-3,11,11,0,0,0-2.92-.49l-27.44-5.26C984.5,94.9,991.09,85.56,997.82,76l57.55,54c-44,1-86.19,1.9-129.86,2.86,23.39-30,45.83-58.62,68.52-87.68,37,28.34,73.5,56.34,110.34,84.6Z"/><path class="cls-2" d="M602.21,771.25c2.17,2.93,4.13,4.17,7.72,4,25.85-1.4,51.74-2.31,77.57-4.09,11-.76,21.91-3.26,33.5-5l-2.86-4.34c-13.91-20.88-27.86-41.74-41.67-62.7-4.25-6.45-7.74-13.4-12.16-19.7-10.69-15.16-21.52-30.22-32.67-45-10.29-13.68-21.55-26.66-31.49-40.56-8.91-12.44-16.3-26-24.92-38.61q-32.3-47.48-65.16-94.55-56-79.81-112.58-159.19c-9.47-13.23-20.42-25.38-31.37-38.9-1.61,3.4-2.52,5.38-3.45,7.37-13,28.42-25.08,57.3-39.29,85.11-6.83,13.35-5.59,24.09,2,35.54,1.09,1.66,2.14,3.36,3.31,5,30.86,44.11,61,88.76,92.79,132.16C481.25,609.21,542,690,602.21,771.25Z"/><path class="cls-2" d="M390.59,715.39a24.63,24.63,0,0,0,8.1,7.5C444.38,747,493,762.29,544,770c10.49,1.6,21.08,2.5,32.86,3.88-1.87-3.09-2.89-5-4.12-6.74-28-40.21-55.54-80.8-84.28-120.54-47.43-65.58-95.78-130.5-143.34-196-10.52-14.48-19.64-30-28.68-45.44-2.46-4.23-4.47-7.76-9.8-8.81-10.25,15.43-20.37,30.66-30.52,45.89-13.68,20.59-26.93,41.4-33.5,65.68-1.13,4.17-.32,6.93,2.32,10.22,17.06,21.57,34.47,42.92,50.71,65.11C327.64,627.09,358.89,671.41,390.59,715.39Z"/><path class="cls-2" d="M201.86,546.18C244.81,605.54,294.69,657.4,356.6,697q-64.76-88.93-129.78-178.25c-6.91,7.48-13.51,14.62-20.1,21.79C205.13,542.33,203.62,544.14,201.86,546.18Z"/><path class="cls-2" d="M1218.57,117.76a6,6,0,0,0-.32-1.51h-36.63c13.88-17.73,27.11-34.71,40.53-51.49,1-1.21,3.7-1,6.09-1.51,2.71-12.25,2.51-12.78-7.68-17.42-22.33,28.59-44.7,57.22-67.7,86.64,2.57.18,3.9.38,5.23.37,14.94-.3,29.9-.47,44.82-1C1216.47,131.31,1216.47,131.14,1218.57,117.76Z"/><path class="cls-2" d="M3.15,18c.69,5,1.33,9.63,2.07,14.92H18.74c-3.53,3.35-6.08,5.55-8.36,8-1.25,1.38-3.05,3.33-2.88,4.77,1.13,7.82,2.77,15.55,4.41,24.44C27,52.47,41.29,35.64,56.34,18Z"/><path class="cls-2" d="M1220.52,108.21c1.93-10.67,3.75-20.76,5.56-30.85-.59-.18-1.19-.4-1.77-.59-6.59,9.33-13.16,18.67-20.1,28.49Z"/></g></svg>