<?xml version="1.0" encoding="UTF-8" ?>
<!DOCTYPE svg PUBLIC "-//W3C//DTD SVG 1.1//EN" "http://www.w3.org/Graphics/SVG/1.1/DTD/svg11.dtd">
<svg width="416pt" height="416pt" viewBox="0 0 416 416" version="1.1" xmlns="http://www.w3.org/2000/svg">
<g id="#999999ff">
<path fill="#888888" opacity="1.00" d=" M 0.00 0.00 L 3.55 0.00 C 15.02 0.76 26.53 0.74 37.96 1.96 C 85.57 6.27 132.44 18.89 175.74 39.18 C 248.06 72.86 310.21 127.91 352.47 195.58 C 383.52 244.99 403.90 301.06 411.84 358.88 C 414.52 376.62 415.14 394.54 416.00 412.43 L 416.00 416.00 L 384.00 416.00 C 384.45 386.38 380.72 356.77 374.10 327.91 C 359.33 264.47 327.87 205.08 283.93 157.03 C 257.16 127.64 225.77 102.48 191.33 82.66 C 140.74 53.50 83.35 36.18 25.08 32.63 C 16.76 31.63 8.36 32.13 0.00 32.00 L 0.00 0.00 Z" />
<path fill="#888888" opacity="1.00" d=" M 0.00 127.99 C 6.67 127.98 13.30 128.84 19.97 128.94 C 85.96 133.24 150.03 161.52 197.84 207.18 C 247.33 253.75 279.44 318.40 286.16 386.06 C 287.31 395.99 287.52 406.01 288.00 416.00 L 256.31 416.00 C 255.58 408.65 256.45 401.22 255.20 393.90 C 249.98 326.02 215.58 261.22 162.94 218.17 C 117.62 180.64 58.91 159.22 0.00 160.00 L 0.00 127.99 Z" />
<path fill="#888888" opacity="1.00" d=" M 0.00 255.99 C 10.68 256.63 21.40 257.21 31.89 259.47 C 64.48 266.06 94.84 283.19 117.31 307.72 C 140.95 333.09 155.84 366.44 159.03 400.96 C 159.20 405.98 159.78 410.98 160.01 416.00 L 128.00 416.00 C 128.46 397.32 124.06 378.63 116.24 361.70 C 102.40 331.87 76.63 307.83 45.86 296.18 C 31.26 290.69 15.63 287.55 0.00 288.00 L 0.00 255.99 Z" />
</g>
</svg>
