<?xml version="1.0" encoding="UTF-8" ?>
<!DOCTYPE svg PUBLIC "-//W3C//DTD SVG 1.1//EN" "http://www.w3.org/Graphics/SVG/1.1/DTD/svg11.dtd">
<svg width="448pt" height="448pt" viewBox="0 0 448 448" version="1.1" xmlns="http://www.w3.org/2000/svg">
<g id="#999999ff">
<path fill="#999999" opacity="1.00" d=" M 60.75 0.00 L 386.32 0.00 C 397.40 1.08 408.44 3.98 417.85 10.12 C 432.92 19.56 443.76 35.54 446.75 53.10 C 447.16 55.96 447.54 58.82 448.00 61.68 L 448.00 291.20 C 446.67 301.95 443.88 312.70 437.86 321.84 C 427.71 338.01 410.03 349.36 390.97 351.29 C 384.36 352.30 377.66 351.96 371.00 352.00 C 349.64 351.98 328.28 352.02 306.92 351.97 C 305.32 352.04 303.34 351.82 302.40 353.45 C 279.36 381.07 256.35 408.72 233.32 436.35 C 230.25 440.02 227.30 443.79 223.99 447.24 C 197.41 416.04 171.50 384.26 145.10 352.91 C 144.15 351.70 142.40 352.15 141.08 351.97 C 115.70 352.01 90.31 352.01 64.93 351.98 C 49.85 351.69 34.74 346.67 23.20 336.80 C 13.63 328.85 6.53 318.01 2.93 306.11 C 1.28 301.00 0.84 295.62 0.00 290.33 L 0.00 60.78 C 0.72 57.16 1.06 53.47 1.87 49.87 C 5.51 33.81 15.72 19.43 29.54 10.50 C 38.82 4.28 49.76 1.31 60.75 0.00 M 32.00 60.93 C 31.99 137.65 31.99 214.36 32.00 291.08 C 32.84 306.02 46.01 319.12 60.93 320.00 C 93.53 320.05 126.12 319.92 158.72 320.06 C 180.43 346.14 201.97 372.39 224.00 398.20 C 226.67 395.44 229.06 392.43 231.50 389.48 C 250.30 366.96 269.05 344.40 287.83 321.87 C 288.77 320.48 290.28 319.85 291.93 320.02 C 323.65 319.98 355.36 320.03 387.07 320.00 C 402.01 319.12 415.12 306.01 416.00 291.07 C 416.01 214.36 416.01 137.64 416.00 60.93 C 415.13 46.00 402.01 32.85 387.07 32.00 C 278.36 31.99 169.64 31.99 60.93 32.00 C 45.98 32.87 32.87 45.98 32.00 60.93 Z" />
</g>
</svg>
