<svg id="Camada_1" data-name="Camada 1" xmlns="http://www.w3.org/2000/svg" viewBox="0 0 504.21 138.86"><defs><style>.cls-1{fill:#f5e7b4;}</style></defs><title>kuyera</title><path class="cls-1" d="M62,12.6a57.46,57.46,0,0,1-1.78,14.86q-1.78,6.64-3.7,12.8-2.05,4.25-4.18,8.35t-4.18,8.22q0,2.19.34,2.53a4.54,4.54,0,0,0,2.4.34,34.15,34.15,0,0,0,5.54,4.11A34.35,34.35,0,0,1,62,67.92a31.44,31.44,0,0,1,4.86,9.24,81.17,81.17,0,0,1,2.74,10.55q1,5.41,1.71,11t1.78,10.82a20.93,20.93,0,0,1-.41,4.11q-.41,2.05-.62,3.83a20.5,20.5,0,0,0-.14,3.29,3.8,3.8,0,0,0,1.16,2.6,2.88,2.88,0,0,0,1,2.05,23.41,23.41,0,0,0,2.19,1.92,18.59,18.59,0,0,1,2.19,2,3.11,3.11,0,0,1,1,2.12,6.12,6.12,0,0,1-.34,2.05q-.34,1-.62,1.64a15.2,15.2,0,0,0-1,1.64q-3.15,0-6.71.07l-7.05.14-6.57.14q-3.08.07-5.14.07a5.65,5.65,0,0,1-1.44-2.12,3.42,3.42,0,0,1-.21-1.71,2.93,2.93,0,0,1,.55-1.64l5.61-5.62a11.49,11.49,0,0,0,1.1-4.11,20.79,20.79,0,0,0-.14-4.11q-.28-2.06-.62-4.18a26,26,0,0,1-.34-4.18V90.11A42.39,42.39,0,0,0,56,83.6,42.89,42.89,0,0,0,54.41,77a23.08,23.08,0,0,0-2.6-5.55,10.16,10.16,0,0,0-3.63-3.49,18,18,0,0,0-16.71,0,10.84,10.84,0,0,0-2.74,6,49.62,49.62,0,0,0-.68,8.56q0,4.66.34,9.59t.34,9a14,14,0,0,1-.48,3.77q-.48,1.71-1,3.29t-1,3.29a13.91,13.91,0,0,0-.48,3.77v11a16.17,16.17,0,0,1,3.56,2.53,7.87,7.87,0,0,1,2.05,2.95,4,4,0,0,1-.07,3,5.48,5.48,0,0,1-2.67,2.6,13.48,13.48,0,0,0-5.82-.82q-2.67.27-5.2.75t-5.27.82a12.3,12.3,0,0,1-5.75-.75c-.73-.73-1.28-1.3-1.64-1.71a6.74,6.74,0,0,1-.82-1.1,2.78,2.78,0,0,1-.34-1.1,13.89,13.89,0,0,1-.07-1.57A12.57,12.57,0,0,1,5.87,130q1-.62,1.71-1.16a7.86,7.86,0,0,0,1.23-1.1,2.45,2.45,0,0,0,.48-1.64v-36l.14-.41a8.79,8.79,0,0,1,.07-.89,16.61,16.61,0,0,0,.07-1.71l-.27-2.6A8.51,8.51,0,0,1,9.77,82q.48-1.51,1-3.36t1-3.9a18.09,18.09,0,0,0,.48-4.11q0-6.16-.07-12.8t-.34-13.08q-.28-6.44-.82-12.6A97.08,97.08,0,0,0,9.29,20.81V12.6a19.5,19.5,0,0,1-3.7-.34q-1.78-.34-1.78-2.53a1.5,1.5,0,0,1-1.51-1A5.7,5.7,0,0,1,1.9,6.5a8,8,0,0,1,.48-2.67A5.44,5.44,0,0,1,3.54,1.78,2.9,2.9,0,0,1,5.25,1,10.06,10.06,0,0,1,7.58,1l3,.34a31.8,31.8,0,0,0,3.77.21q2.05,0,5.48-.27a46.44,46.44,0,0,1,6.64-.07A12.94,12.94,0,0,1,32,2.67,4.56,4.56,0,0,1,34.35,7a2.43,2.43,0,0,1-.48,1.64,6.48,6.48,0,0,1-1.3,1.1q-.82.55-1.85,1.16a8.46,8.46,0,0,0-2,1.71,70.87,70.87,0,0,0,.41,7.81q.41,3.7,1,7.39t1,7.39a70.84,70.84,0,0,1,.41,7.8,10.12,10.12,0,0,1-.41,2.6,23.54,23.54,0,0,0-.62,3,16.42,16.42,0,0,0-.14,3,3.34,3.34,0,0,0,1.16,2.46,19,19,0,0,0,7.33-3.42,25.31,25.31,0,0,0,5.54-5.89,37.4,37.4,0,0,0,3.9-7.46,77.83,77.83,0,0,0,2.67-8.15,24.53,24.53,0,0,1,1.44-8.29A24.51,24.51,0,0,0,53.8,12.6H48.18a2.73,2.73,0,0,0-.48-1.71c-.32-.41-.64-.8-1-1.16l-1-1.1A2.43,2.43,0,0,1,45.31,7a5.75,5.75,0,0,1,3.08-2.81,16.24,16.24,0,0,1,4.31-1l4.79-.41A11.5,11.5,0,0,0,62,1.51a8,8,0,0,1,4.31,2.94,5.23,5.23,0,0,1,.89,3.63,5.43,5.43,0,0,1-1.71,3.15A4.87,4.87,0,0,1,62,12.6Z" transform="translate(-1.9)"/><path class="cls-1" d="M113.36,118a16,16,0,0,0,2.67,2.33,17.56,17.56,0,0,0,3.77,2.05,10.06,10.06,0,0,0,4.38.69,9,9,0,0,0,4.66-1.78,16.88,16.88,0,0,0,5.82-7.74A49.9,49.9,0,0,0,137.53,103a78.16,78.16,0,0,0,1-11.3q.07-5.68.07-9.93V40a83.48,83.48,0,0,1,.41-8.35q.41-4.11.62-7.74a66.07,66.07,0,0,0,.07-6.64,13.43,13.43,0,0,0-1.1-5.07,11.35,11.35,0,0,0-2.12-1.71,12.91,12.91,0,0,0-1.71-.89,4.29,4.29,0,0,0-1.64-.41,5.89,5.89,0,0,0-.62-2.33c-.41-.91-.8-1.73-1.16-2.46a4.4,4.4,0,0,1-.55-1.92c0-.55.36-.82,1.1-.82q4.65,0,10.27-.48A71.57,71.57,0,0,1,152.39,1a16.44,16.44,0,0,1,6.09,1.16,7.73,7.73,0,0,1,3.22,2.4,3.84,3.84,0,0,1,.75,2.81A3.6,3.6,0,0,1,161,9.72a11.42,11.42,0,0,0-3.83,6.71,48.05,48.05,0,0,0-1,9.65q-.07,5.27-.07,11.09a61,61,0,0,1-1,11V79q0,6.3-.34,11.85a95.69,95.69,0,0,1-1.23,10.61,64.59,64.59,0,0,1-6.64,19.31,47.77,47.77,0,0,1-3.49,5.55,34.13,34.13,0,0,1-4.86,5.41,25.41,25.41,0,0,1-6.23,4.11,18,18,0,0,1-7.74,1.64,9.13,9.13,0,0,0-1.44.07,4.31,4.31,0,0,1-.82.07c-.32,0-.78,0-1.37.07s-1.58.07-2.95.07a21.2,21.2,0,0,1-6.16-1.92,23.36,23.36,0,0,1-5-3.35,30,30,0,0,1-4-4.31q-1.78-2.33-3.29-4.66a19.12,19.12,0,0,1-2.46-6,55.65,55.65,0,0,1-1-6.3l-.69-6.44a34.39,34.39,0,0,0-1.3-6.37V28.76q0-4.24.34-8.08a36.45,36.45,0,0,0-.34-8.49,3.22,3.22,0,0,0-1.57-2.4,29.21,29.21,0,0,0-2.87-1.44A12.94,12.94,0,0,1,86.8,6.71a3.58,3.58,0,0,1-1.23-3,7.27,7.27,0,0,1,4.66-2.26q2.6-.21,6.57-.48,2.05-.13,4.45-.34A33,33,0,0,1,106,.55a19.08,19.08,0,0,1,4.38.75,9.14,9.14,0,0,1,3.56,2q1.51,1.51.14,4a26.16,26.16,0,0,1-3.42,4.86V54q0,8.35.07,15t.07,11.43q0,10.55.27,19.86A86.44,86.44,0,0,0,113.36,118Z" transform="translate(-1.9)"/><path class="cls-1" d="M245.51,2.05q0,1-.07,2.33a23.08,23.08,0,0,1-.27,2.6A6,6,0,0,1,244.48,9a1.56,1.56,0,0,1-1.44.82H235Q233,15.2,231.47,21.43t-3.35,12.73q-1.78,6.51-3.9,13a110.89,110.89,0,0,1-4.86,12.39,10.3,10.3,0,0,0-2.6,4,15.58,15.58,0,0,0-.75,4.52,45.74,45.74,0,0,0,.21,5.48q.27,3,.27,6.85a6.6,6.6,0,0,0-.69,3.22q0,2,.21,4.25t.48,4.45a31.63,31.63,0,0,1,.27,3.84q0,3.84-.27,8.49t-.27,9.11a49.84,49.84,0,0,0,.62,8.15,10.07,10.07,0,0,0,2.53,5.62,14.42,14.42,0,0,1,3.56.14,11.94,11.94,0,0,1,2.46.75,1.54,1.54,0,0,1,1.1,1.44q.55,2.06.82,3.7a7.64,7.64,0,0,1,.07,2.67,1.66,1.66,0,0,1-1.3,1.44,34.77,34.77,0,0,1-6.57,1q-3.15.13-6,0t-5.34-.41a39.91,39.91,0,0,0-4.38-.27H190.6q-3.56-3.84,0-7.8A3.77,3.77,0,0,1,193,129q1.44-.14,2.95-.14a19.13,19.13,0,0,0,2.88-.21,4.07,4.07,0,0,0,2.33-1.16q0-5.89.14-12.67t0-13.83q-.14-7.05-.75-14a94.47,94.47,0,0,0-2.05-13.15,51,51,0,0,0-4-11.23,26.39,26.39,0,0,0-6.37-8.35,90.55,90.55,0,0,0-3.9-10.13q-2-4.24-3.9-8.21Q178.41,30,176.7,23.83a52.21,52.21,0,0,1-1.71-14q-1.1,0-2.4-.07a22.52,22.52,0,0,1-2.54-.27A6,6,0,0,1,168,8.83a1.56,1.56,0,0,1-.82-1.44q-.28-4,1.71-5.41A8.83,8.83,0,0,1,173.75.41a28.53,28.53,0,0,1,6.09.41,33,33,0,0,0,5.41.55q3.83,0,7.88.34t8,.34A7.43,7.43,0,0,1,203.4,6a23.12,23.12,0,0,1,.34,3.9,12.1,12.1,0,0,1-2.33-.27,19.28,19.28,0,0,0-2.74-.34,13.69,13.69,0,0,0-2.74.14,4.06,4.06,0,0,0-2.33,1.16,19.55,19.55,0,0,1,.75,5q.07,2.67.34,5.41a37.69,37.69,0,0,0,.75,5.82,17.21,17.21,0,0,1,.48,4,66.2,66.2,0,0,0,2.4,7.81,75.06,75.06,0,0,0,3.15,7.26,57.63,57.63,0,0,0,3.63,6.3A31.22,31.22,0,0,0,208.95,57a8,8,0,0,0,3.29-2.74,20.41,20.41,0,0,0,2.12-4q.89-2.19,1.78-4.79a43.2,43.2,0,0,1,2.26-5.34A58.89,58.89,0,0,0,223.12,26a77.48,77.48,0,0,0,1.71-13.56,2.2,2.2,0,0,0-1.3-2.05,22.88,22.88,0,0,0-3.08-1.3A21.37,21.37,0,0,1,217,7.53a6.51,6.51,0,0,1-2.67-2.87q0-1.92,2.53-2.6a24.31,24.31,0,0,1,6.23-.68q3.7,0,7.74.34t6.92.34a5.34,5.34,0,0,0,2-.41,12.3,12.3,0,0,1,2-.62A5.41,5.41,0,0,1,243.59,1,3.5,3.5,0,0,1,245.51,2.05Z" transform="translate(-1.9)"/><path class="cls-1" d="M309.74,23.28a4.43,4.43,0,0,1-1.3-2.6,22.82,22.82,0,0,1-.21-3.08c0-1,0-2.05-.14-3a3.52,3.52,0,0,0-1.23-2.4,14.12,14.12,0,0,1-1.64-.07,3.31,3.31,0,0,1-1.1-.34A5.47,5.47,0,0,1,303,11q-.62-.54-1.71-1.64-4.25,0-9.72.34a24.29,24.29,0,0,0-9.72,2.53,6.89,6.89,0,0,0-2.33,5.13q-.14,3.22-.14,8,0,5.89-.21,9.59t-.2,7.8a39.79,39.79,0,0,0,.41,5.89q.41,2.74.69,5.07a25.44,25.44,0,0,1,.14,4.52,10.35,10.35,0,0,1-1.23,4.25A7.73,7.73,0,0,0,282,64a24.18,24.18,0,0,0,4.31.75q2.33.21,4.79.28t4.52.07q0-1,.07-2.4a17.12,17.12,0,0,1,.34-2.74,6.8,6.8,0,0,1,.82-2.19,1.8,1.8,0,0,1,1.64-.89,14.92,14.92,0,0,1,1.57.07,4.87,4.87,0,0,1,1.16.27,3.43,3.43,0,0,1,1.16.82c.41.41,1,.94,1.71,1.57a11.22,11.22,0,0,0-.89,5.82q.21,3.77.48,7.46a33,33,0,0,1-.07,6.44Q303.3,82,301.25,82a17.19,17.19,0,0,1-2.87-1.78,11.9,11.9,0,0,1-1.92-1.78,3.1,3.1,0,0,1-.82-2.05V73.54H281.8a26.76,26.76,0,0,0-1.37,6.85,67.33,67.33,0,0,0-.14,7.46q.13,3.77.41,7.39t.28,6.64q0,3.15.14,6.64t.27,6.85q.13,3.35.27,6.3t.14,5a46.33,46.33,0,0,0,5.82,1.64,43.46,43.46,0,0,0,5.27.75q2.6.21,5.34.27t5.89.07a3.87,3.87,0,0,0,2.4-2.87,23.13,23.13,0,0,0,.34-4,18.3,18.3,0,0,1,.41-4,4.43,4.43,0,0,1,2.46-2.94,4,4,0,0,1,3.22,1.37,8.61,8.61,0,0,1,1.71,3.42,19.7,19.7,0,0,1,.62,4.52q.07,2.47.07,4.52a6.47,6.47,0,0,1-1.78,4.25q-1.78,2.05-3.84,4.24h-14.1q-10.41,0-21.23-.34A168.68,168.68,0,0,1,251,135v-5.62h11.23a81.82,81.82,0,0,0,1.23-12.05q.13-5.75-.14-11.5t-.69-11.57q-.41-5.82-.41-12.26V12.19H251V6.57a81.07,81.07,0,0,1,8.42-1.71q4.17-.62,8.35-1.16l8.35-1.1A69.82,69.82,0,0,0,284.54,1h27.94a8.56,8.56,0,0,1,1.37,1.78,17.49,17.49,0,0,1,1,1.78,4.56,4.56,0,0,1,.48,2.05A21.66,21.66,0,0,0,316,11.5a23.75,23.75,0,0,1,.68,5.48,7.28,7.28,0,0,1-1.37,4.45Q314,23.28,309.74,23.28Z" transform="translate(-1.9)"/><path class="cls-1" d="M379.71,61.76a35.86,35.86,0,0,1,6.37,13.76A124.2,124.2,0,0,1,389,92.85q.89,9.18,1.3,18.42t1.51,17a20.85,20.85,0,0,1,4,.34q1.71.34,1.71,2.54,0,3.28-2,4.72a10.48,10.48,0,0,1-5.07,1.78,32.49,32.49,0,0,1-6.64,0q-3.56-.34-6.71-.75-2.33-2.19-2.26-4.31a28.93,28.93,0,0,1,.75-5.21q.68-3.08,1.3-7.46a38.13,38.13,0,0,0-.48-11.09,51.27,51.27,0,0,1-.69-8.49q0-4.38-.27-8.7a53.24,53.24,0,0,0-1.23-8.49,22.31,22.31,0,0,0-3.56-7.87q-1.64-2.33-2.6-3.9a25.77,25.77,0,0,0-3.15-3.9,2.78,2.78,0,0,0-.55-1.78A6.1,6.1,0,0,0,363,64.5q-.82-.54-1.85-1.1A9.09,9.09,0,0,1,359,61.76a21,21,0,0,0-4,.34,2.11,2.11,0,0,0-1.71,2.4A68.14,68.14,0,0,0,352,76q-.14,5.89.14,11.71t.68,11.16q.41,5.34.41,9.72t.34,8.9a26.42,26.42,0,0,0,2.4,8.9,2,2,0,0,0,.89,1.71,14.34,14.34,0,0,0,2.05,1.16,14.37,14.37,0,0,1,2.05,1.16,1.85,1.85,0,0,1,.89,1.57c0,1.55,0,2.81-.14,3.77s-.87,1.44-2.33,1.44-3.27-.09-5.41-.28-4.34-.32-6.57-.41a52,52,0,0,0-6.57.14,13.65,13.65,0,0,0-5.27,1.37q-2.33,0-4-.07a8.13,8.13,0,0,1-3-.68,8.52,8.52,0,0,1-2.53-1.78,12.45,12.45,0,0,1-2.26-3.49,9.15,9.15,0,0,1,4.38-2.4,26.61,26.61,0,0,1,4.38-.34v-50a23.61,23.61,0,0,1,.41-4.38q.41-2.19.68-4.38a23.64,23.64,0,0,0,.14-4.38,11.34,11.34,0,0,0-1.23-4.38,10.53,10.53,0,0,1,.14-1.85c.09-.5.18-1,.28-1.57s.18-1.14.27-1.78.18-1.46.27-2.46q.27-4.66.21-8.83t-.34-8.49q-.28-4.31-.55-8.9t-.27-10.2a26.06,26.06,0,0,1-7.53-1q-3.15-1-3.15-3.29a13.45,13.45,0,0,1,.75-5.07,5.09,5.09,0,0,1,2.26-2.6,9.39,9.39,0,0,1,4-1q2.47-.13,5.75-.14A5.79,5.79,0,0,0,338,3.83,5.49,5.49,0,0,1,341.23,3a115,115,0,0,1,14.31-1.37,58.92,58.92,0,0,1,14.38,1.16,31.85,31.85,0,0,1,11.85,5,16.24,16.24,0,0,1,6.57,9.86q.54,2.06,1,4.86a57.63,57.63,0,0,1,.69,6,37.41,37.41,0,0,1-.14,6.37,22.78,22.78,0,0,1-1.57,6.23,26.6,26.6,0,0,1-3.9,6.37,65.2,65.2,0,0,1-4.72,5.41l-3,3a2.72,2.72,0,0,0,.48,1.71,12.13,12.13,0,0,0,1,1.16,9.52,9.52,0,0,1,1,1.23A3,3,0,0,1,379.71,61.76ZM350.54,12.05q0,4.38.07,8.63t.21,8.56q.13,4.31.34,9t.48,10q0,1.51,2.12,1.44a20.13,20.13,0,0,0,4.93-.89,31.05,31.05,0,0,0,5.48-2.19,15.54,15.54,0,0,0,3.77-2.46A17.06,17.06,0,0,1,369,38.62a41.23,41.23,0,0,0,1.64-6.16,36.31,36.31,0,0,0,.48-3.84,13.55,13.55,0,0,0-.07-2.4q-.14-1-.27-2.19a30.72,30.72,0,0,1-.14-3.36A6.82,6.82,0,0,0,369,15.75q-1.71-1.78-4-4c-.73,0-1.78,0-3.15.07s-2.76.07-4.18.07-2.79,0-4.11.07S351.18,12.05,350.54,12.05Z" transform="translate(-1.9)"/><path class="cls-1" d="M457.77,126.67q0-6.57-.07-13.49t-.34-13.7q-.28-6.78-.89-13.15a119.33,119.33,0,0,0-1.71-11.84A25.92,25.92,0,0,1,450.1,74q-2.6-.48-5.54-1t-6.16-1a43.11,43.11,0,0,0-6.37-.48,9.19,9.19,0,0,0-2.67,6.16q-.34,4-.34,8.63a85.57,85.57,0,0,0-2.74,18.9q-.41,10.27-.41,21.5a5.58,5.58,0,0,0,2.33,1.16,12.25,12.25,0,0,0,2.26.21,16.54,16.54,0,0,1,2.19.14,3.49,3.49,0,0,1,2,1.1q0,1.1-.07,2.12c0,.68-.12,1.3-.21,1.85a12.56,12.56,0,0,0-.14,1.78,13.26,13.26,0,0,1-6.5,2.6,37.28,37.28,0,0,1-6.37,0l-6.23-.55a13.6,13.6,0,0,0-6.23,1L407,136.26a13.55,13.55,0,0,0-1.3-1.16,14.07,14.07,0,0,1-1.23-1.1l-1.57-1.57a25.17,25.17,0,0,1,4.38-4,7.56,7.56,0,0,1,4.24-1.64q2.33,0,2.67-1.78a21.91,21.91,0,0,0,.34-4.11q1-6.57,2.05-14.45t2.12-16.29q1-8.42,2.12-16.84T423,57.24a42.71,42.71,0,0,1,1.85-12.6A59.27,59.27,0,0,1,429,34.23a69,69,0,0,1,6.09-15.61q3.76-6.85,8.15-13.28a14.32,14.32,0,0,1,3.7-2.74,11.65,11.65,0,0,1,3.7-1.1,6.7,6.7,0,0,1,4.11.82,14.35,14.35,0,0,1,4.52,3.56,29.54,29.54,0,0,1,3.83,5.48,38.64,38.64,0,0,1,2.67,6,16.53,16.53,0,0,1,1,5.2,38.65,38.65,0,0,1,3,8,60.72,60.72,0,0,1,1.37,7.46q2.05,17.12,3.42,35.88t3.29,38.21v17.53a3.51,3.51,0,0,0,.82,2.05,19.83,19.83,0,0,1,1.44,2.19,2.67,2.67,0,0,1,.27,2.19q-.34,1.09-2.53,2.19l-3.56-.82a79.32,79.32,0,0,0-8.28.41,79.44,79.44,0,0,1-8.29.41q-1.1.14-2.46.34a17.23,17.23,0,0,1-2.54.21,4.67,4.67,0,0,1-1.92-.34,1.3,1.3,0,0,1-.75-1.3,7.83,7.83,0,0,1,.75-2.88,20.08,20.08,0,0,1,1.92-3.49,16.05,16.05,0,0,1,2.54-2.94A3.91,3.91,0,0,1,457.77,126.67ZM443.25,19.58Q441.19,26,439,33t-4.38,15.61a16.19,16.19,0,0,1-.41,2.95q-.41,2-.89,4.18T432.43,60a17.56,17.56,0,0,0-.41,3.29,54.43,54.43,0,0,0,12.53,2.26q6.09.34,10.2.34V48.61a64.26,64.26,0,0,0-.41-6.92q-.41-3.76-1.16-7.6t-1.78-7.6q-1-3.76-2.12-6.92a2.22,2.22,0,0,0-.41-1.37,3.11,3.11,0,0,0-.89-1,2.74,2.74,0,0,0-1.71-.48Z" transform="translate(-1.9)"/><path class="cls-1" d="M498.85,109.69l-2.74-.14a11.9,11.9,0,0,1-2.74-5.41A47.92,47.92,0,0,1,492.21,97a59.14,59.14,0,0,1-.21-7.53q.13-3.76.27-6.78a29.48,29.48,0,0,0-.14-5.07,39.45,39.45,0,0,0-.75-4q-.48-2-1-4.18a42.85,42.85,0,0,1-.75-5.61q-.82-8.22-1.85-18.08a119.55,119.55,0,0,1-.48-19.31l.14-2.6a4.58,4.58,0,0,1-1.1-1.71,1.31,1.31,0,0,1,.21-1.1c.23-.32.48-.64.75-1a2.16,2.16,0,0,0,.41-1.44q.13-2.05.27-4.79t.55-5.54a42.78,42.78,0,0,1,1-5.07A6.44,6.44,0,0,1,491.32,0q2.05.14,4.38.34a19.38,19.38,0,0,1,4.24.82,9.44,9.44,0,0,1,3.22,1.71A3.56,3.56,0,0,1,504.33,6a22.51,22.51,0,0,1,1.78,9,75.37,75.37,0,0,1-.75,10.34q-.76,5.41-1.85,11.3a86.41,86.41,0,0,0-1.37,11.91,65.75,65.75,0,0,0-.07,7.94q.21,4,.48,7.74t.48,7.19a61.71,61.71,0,0,1,.07,6.44,72.54,72.54,0,0,1-1,8.22q-.69,3.83-1.51,7.6t-1.37,7.6A48.5,48.5,0,0,0,498.85,109.69ZM489,126a15.42,15.42,0,0,0,.89,5.41,10.67,10.67,0,0,0,2.4,3.9,6.81,6.81,0,0,0,3.36,1.92,5.59,5.59,0,0,0,3.9-.69,5.71,5.71,0,0,0,4.52-1.71,7.15,7.15,0,0,0,1.78-3.9,8.25,8.25,0,0,0-.68-4.38,6,6,0,0,0-3-3.15,19.91,19.91,0,0,0-4.31-1.44,13.65,13.65,0,0,0-4.25-.27,6.2,6.2,0,0,0-3.29,1.23A3.68,3.68,0,0,0,489,126Z" transform="translate(-1.9)"/></svg>