<?xml version="1.0" encoding="UTF-8" ?>
<!DOCTYPE svg PUBLIC "-//W3C//DTD SVG 1.1//EN" "http://www.w3.org/Graphics/SVG/1.1/DTD/svg11.dtd">
<svg width="480pt" height="480pt" viewBox="0 0 480 480" version="1.1" xmlns="http://www.w3.org/2000/svg">
<g id="#010101ff">
<path fill="#888888" opacity="1.00" d=" M 16.73 127.94 C 91.05 90.49 165.59 53.47 240.00 16.19 C 314.30 53.32 388.58 90.49 462.88 127.61 C 462.84 127.83 462.76 128.27 462.72 128.48 C 388.46 165.56 314.23 202.69 240.00 239.83 C 167.13 203.36 94.23 166.95 21.35 130.49 C 19.77 129.73 18.16 128.98 16.73 127.94 M 238.39 52.37 C 189.76 76.75 141.07 101.02 92.43 125.39 C 90.77 126.20 89.04 126.90 87.58 128.06 C 108.39 138.80 129.47 149.03 150.38 159.60 C 180.27 174.44 210.02 189.59 239.99 204.26 C 290.72 179.23 341.23 153.68 391.88 128.47 C 391.89 128.24 391.90 127.77 391.90 127.54 C 342.48 102.83 293.05 78.13 243.65 53.39 C 241.99 52.69 240.16 51.00 238.39 52.37 Z" />
<path fill="#888888" opacity="1.00" d=" M 17.22 239.55 C 42.20 227.07 67.21 214.63 92.14 202.04 C 103.98 207.83 115.65 213.95 127.55 219.60 C 114.37 226.76 100.68 232.98 87.41 239.97 C 114.93 254.07 142.72 267.66 170.34 281.58 C 193.60 293.07 216.68 304.99 240.04 316.24 C 288.23 292.48 336.19 268.20 384.29 244.26 C 386.98 242.79 389.90 241.73 392.42 239.96 C 379.81 233.30 366.92 227.15 354.20 220.69 C 353.81 220.40 353.03 219.81 352.64 219.52 C 364.43 213.84 376.07 207.85 387.79 202.04 C 412.76 214.58 437.75 227.09 462.78 239.53 C 462.80 239.75 462.83 240.19 462.84 240.41 C 388.54 277.51 314.29 314.71 239.98 351.80 C 166.68 315.18 93.40 278.48 20.08 241.88 C 19.20 241.09 16.73 241.15 17.22 239.55 Z" />
<path fill="#888888" opacity="1.00" d=" M 17.25 351.53 C 42.26 339.07 67.24 326.57 92.22 314.03 C 103.99 319.87 115.64 325.96 127.53 331.56 C 114.46 338.83 100.64 344.81 87.53 352.04 C 135.03 376.09 182.77 399.70 230.36 423.58 C 233.91 424.80 237.23 428.17 240.94 427.90 C 291.52 402.62 342.13 377.41 392.64 352.01 C 381.49 346.22 370.17 340.74 358.96 335.06 C 356.83 333.92 354.48 333.11 352.62 331.53 C 364.43 325.87 376.06 319.86 387.78 314.02 C 412.96 326.77 438.29 339.22 463.47 351.98 C 389.07 389.42 314.48 426.50 240.01 463.82 C 165.72 426.70 91.46 389.51 17.16 352.42 C 17.18 352.20 17.23 351.75 17.25 351.53 Z" />
</g>
</svg>
