<?xml version="1.0" encoding="UTF-8" ?>
<!DOCTYPE svg PUBLIC "-//W3C//DTD SVG 1.1//EN" "http://www.w3.org/Graphics/SVG/1.1/DTD/svg11.dtd">
<svg width="465pt" height="465pt" viewBox="0 0 465 465" version="1.1" xmlns="http://www.w3.org/2000/svg">
<g id="#010101ff">
<path fill="#888888" opacity="1.00" d=" M 24.00 24.00 C 88.00 24.00 152.00 24.00 216.00 24.00 C 216.00 88.00 216.01 152.00 216.00 216.00 C 152.00 216.01 88.00 216.00 24.00 216.00 C 24.00 152.00 24.00 88.00 24.00 24.00 M 56.00 56.00 C 56.00 98.67 56.00 141.33 56.00 184.00 C 98.67 184.00 141.33 184.00 184.00 184.00 C 184.00 141.33 184.00 98.67 184.00 56.00 C 141.33 56.00 98.67 56.00 56.00 56.00 Z" />
<path fill="#888888" opacity="1.00" d=" M 248.00 24.00 C 312.00 24.00 376.00 24.00 440.00 24.00 C 440.00 162.67 440.00 301.33 440.00 440.00 C 376.00 440.00 312.00 440.00 248.00 440.00 C 248.00 301.33 248.00 162.67 248.00 24.00 M 280.00 56.00 C 280.00 173.33 280.00 290.67 280.00 408.00 C 322.67 408.00 365.33 408.00 408.00 408.00 C 408.00 290.67 408.00 173.34 408.00 56.00 C 365.33 56.00 322.67 56.00 280.00 56.00 Z" />
<path fill="#888888" opacity="1.00" d=" M 24.00 248.00 C 88.00 248.00 152.00 248.00 216.00 248.00 C 216.00 312.00 216.01 376.00 216.00 440.00 C 152.00 440.00 88.00 440.00 24.00 440.00 C 24.00 376.00 24.00 312.00 24.00 248.00 M 56.00 280.00 C 56.00 322.67 56.00 365.33 56.00 407.99 C 98.67 408.00 141.33 408.00 184.00 408.00 C 184.00 365.33 184.00 322.67 183.99 280.00 C 141.33 280.00 98.67 280.00 56.00 280.00 Z" />
</g>
</svg>
