<svg id="Layer_1" data-name="Layer 1" xmlns="http://www.w3.org/2000/svg" viewBox="0 0 770.38 156.67"><defs><style>.cls-1,.cls-2{fill:#3d0626;}.cls-2{fill-rule:evenodd;}</style></defs><title>LOGO PRINCIPAL ESSE!</title><polygon class="cls-1" points="24.08 47.17 53.28 88.95 70 92.33 87.87 96.33 24.29 5.59 0 5.59 0 78.19 24.08 83.05 24.08 47.17"/><polygon class="cls-1" points="95.71 149.67 120 149.67 120 119.28 68.13 110.2 95.71 149.67"/><polygon class="cls-1" points="0 149.67 24.08 149.67 24.08 94.94 0 84.75 0 149.67"/><polygon class="cls-1" points="120 5.59 96.12 5.59 96.12 98.17 120 103.51 120 5.59"/><polygon class="cls-1" points="186 64.25 194.9 89.69 217.1 83.5 186 3.53 147.5 102.9 175.18 95.19 186 64.25"/><polygon class="cls-1" points="217.43 84.34 196.12 93.15 203.5 114.27 168.51 114.27 172.48 102.93 142.72 115.24 128.58 151.73 154.51 151.73 160.69 135.06 211.32 135.06 217.7 151.73 243.64 151.73 217.43 84.34"/><polygon class="cls-1" points="606.11 150.35 631.5 150.35 631.5 88.86 606.11 94.19 606.11 150.35"/><polygon class="cls-1" points="631.5 4.91 606.11 4.91 606.11 79.44 631.5 73.11 631.5 4.91"/><polygon class="cls-1" points="709.62 2.83 685.27 62.99 730.57 54.42 709.62 2.83"/><polygon class="cls-1" points="710.95 67.77 728.07 114.62 691.18 114.62 707.9 68.84 678.76 79.08 649.08 152.43 676.42 152.43 682.93 135.6 736.31 135.6 743.04 152.43 770.38 152.43 732.86 60.07 710.95 67.77"/><path class="cls-1" d="M314.81,48.63c8.31-14.29,23.24-23.17,43.06-23.17a50.84,50.84,0,0,1,35.9,14.8l17.84-17.84A74.91,74.91,0,0,0,357.87,0c-40,0-69.59,26-75.34,64.44Z"/><path class="cls-1" d="M357.87,131.21c-28.07,0-50.48-20.24-50.48-52.87a62.23,62.23,0,0,1,4-22.55L281.49,78.34c0,47.87,34.38,78.34,76.38,78.34a75.62,75.62,0,0,0,53.75-22.2l-17.84-18.06A50.84,50.84,0,0,1,357.87,131.21Z"/><text></text><path class="cls-2" d="M512.37,138.47a.9.9,0,0,1-.43-.86l-8.65-12.87a25,25,0,0,1-4.73-7.21l-4.83-7.8c-8.95-13.21-16.52-27.15-27-40.15-2.4,5.7-4.52,11.14-7,16.45-.87,1.87.07,3.13.69,4.62,12.65,20.5,26.83,40.19,40.44,60.18.39.57,1.1,1.19,1.16,1.82.77,0,1.54,0,2.32,0a74.31,74.31,0,0,0,15.8-1.65c-1-1.3-2.16-3-3.61-5.23C515,143.44,513.75,140.92,512.37,138.47Z"/><path class="cls-2" d="M442.54,67.69c2,6-1.87,10.7-4.17,15.77a2.33,2.33,0,0,1-.2.44,105.4,105.4,0,0,1-6.86,13,147.12,147.12,0,0,0,9.58,17.35,118.49,118.49,0,0,0,12.82-20.31c4.42-8.88,9.79-17.52,11.31-28.08,3.84,2.48,5.47,5.52,7.06,8.47,2,3.81,4.53,3.82,8.19,1.58,4.17-2.55,7.1-6.08,10.46-9.35-.69,5.58-5.21,8.68-9.88,11.29-3.4,1.9-4.44,3-1.84,6.4,6,7.86,6.34,8.22,14.79,1.82,6.42-4.86,12.28-10.22,14.3-17.88.15-.56,1-1,2-1.91.29,4.66-2.18,7.91-4.53,10.88-4.46,5.65-9.28,11.23-16.77,14.11-3.78,1.45-3.71,3.2-1.45,5.63a6.32,6.32,0,0,1,.58,1c6.3,9.88,6.34,9.92,16.74,2.54,11.6-8.23,20.89-18,25.41-30.73a14.14,14.14,0,0,1,1.63-2.91c.16-.24.69-.3,2.27-.94-6.85,19.42-20.46,32.9-38.87,43.11l4.55,8c1.89,4.28,4.44,4.23,8.74,1.9,22.11-12,37.2-28.72,45.48-50.27.37-1,.29-2.23,3.36-2.72-9.34,25.33-25,45-52.29,56.61,2,5.08,4,10.19,9.6,13.25C545.47,122.52,565.28,101,576,72.73c1.09-2.41.38-5.3,2.92-8.38,1.75,4.47-.6,7.55-1.58,10.76-5.35,17-16.78,30.69-30.36,43.28-9.23,8.55-20.61,14.17-32.47,19.23.71,5.1,5.26,8.47,7.54,12.88l.05.09c46.72-11.4,64.54-67.13,71-98.89H581.22l12.44-16.8,2,1.66c.21-1.53.37-2.86.49-3.92L594.2,31h2.13c.1-1,.15-1.57.15-1.57H412.24s.06.55.19,1.57h11.52l-9.66,11.54c.32,1.68.68,3.49,1.08,5.41l9.66-13L441.6,48.68l13.21-16.55h-27l12.49,9.78,5.46-6.46-8.34.13,10.43-.5-7.74,8.19L425.57,31h31.67l-15.7,18.75-16.4-13.41-9.49,12.94.37,1.67,19-.46-9.33-9.31-3.54,5.34,5.66,1.12-7.92.12,5.76-7.84,11.79,11.79H416.19a227.51,227.51,0,0,0,14,42.71c2.39-3.84,4.65-7.74,6.88-11.66ZM572.35,35.58l10.43-.5L575,43.27,560.47,31h31.67l-15.7,18.75L560,36.32,549.3,51l20.64-.5-9.33-9.31-3.54,5.34,5.66,1.12-7.93.12,5.76-7.84,11.79,11.79H547.49l12.44-16.8,16.57,13.79,13.21-16.55h-27l12.49,9.78,5.46-6.46Zm-33.73,0,10.43-.5-7.74,8.19L526.75,31h31.67l-15.7,18.75-16.4-13.41L515.58,51l20.64-.5-9.33-9.31-3.54,5.34L529,47.62l-7.93.12,5.77-7.84,11.79,11.79H513.76l12.44-16.8,16.58,13.79L556,32.13H529l12.49,9.78L547,35.45Zm-33.73,0,10.43-.5-7.74,8.19L493,31h31.67L509,49.73,492.6,36.32,481.85,51l20.64-.5-9.33-9.31-3.54,5.34,5.66,1.12-7.93.12,5.76-7.84,11.79,11.79H480l12.44-16.8,16.58,13.79,13.21-16.55h-27l12.49,9.78,5.46-6.46Zm-46.14-.69,16.58,13.79,13.21-16.55h-27l12.48,9.78,5.46-6.46-8.34.13,10.43-.5-7.74,8.19L459.3,31H491l-15.7,18.75-16.4-13.41L448.13,51l20.64-.5-9.33-9.31L455.9,46.5l5.66,1.12-7.93.12,5.76-7.84L471.2,51.69H446.31Z"/><path class="cls-2" d="M459.31,91.81l-1.48-.72c-3.29,6.46-8.47,12.17-9.83,19.4,8.28,10.77,15.44,22.13,22.84,33.35a65.26,65.26,0,0,0,27.87,8.61c-11.66-20.16-26.8-38.5-38.55-58.6A15.42,15.42,0,0,1,459.31,91.81Z"/><path class="cls-2" d="M442.06,115.57c6.73,10.13,14.9,19.18,24.81,25.81L446.19,110.7Z"/><path class="cls-2" d="M414.09,40l7.43-9.43h-8.94c.11.85.26,1.87.44,3.07l1.56-.08L413.24,35C413.47,36.48,413.76,38.16,414.09,40Z"/><path class="cls-2" d="M595.49,36.25l-1.72-1.42L583,49.67l10.25-.25c.21-1.07.4-2.1.59-3.1l-5.32.08,5.76-7.94.75.76Q595.3,37.64,595.49,36.25Z"/><path class="cls-2" d="M594,45.77q.53-2.93.93-5.48l-.55-.56-3.53,5.41Z"/></svg>