<?xml version="1.0" encoding="UTF-8" ?>
<!DOCTYPE svg PUBLIC "-//W3C//DTD SVG 1.1//EN" "http://www.w3.org/Graphics/SVG/1.1/DTD/svg11.dtd">
<svg width="416pt" height="416pt" viewBox="0 0 416 416" version="1.1" xmlns="http://www.w3.org/2000/svg">
<g id="#999999ff">
<path fill="#999999" opacity="1.00" d=" M 0.00 32.37 C 19.99 31.74 40.00 32.02 60.00 32.00 C 178.67 32.00 297.33 32.00 416.00 32.00 L 416.00 63.47 C 394.01 64.29 372.00 64.00 350.00 64.00 C 233.33 64.00 116.67 64.00 0.00 64.00 L 0.00 32.37 Z" />
<path fill="#999999" opacity="1.00" d=" M 0.00 192.37 C 19.99 191.74 40.00 192.02 60.00 192.00 C 178.67 192.00 297.33 192.00 416.00 192.00 L 416.00 223.47 C 394.01 224.29 372.00 224.00 350.00 224.00 C 233.33 224.00 116.67 224.00 0.00 224.00 L 0.00 192.37 Z" />
<path fill="#999999" opacity="1.00" d=" M 0.00 352.37 C 19.99 351.74 40.00 352.02 60.00 352.00 C 178.67 352.00 297.33 352.00 416.00 352.00 L 416.00 383.47 C 394.01 384.29 372.00 384.00 350.00 384.00 C 233.33 384.00 116.67 384.00 0.00 384.00 L 0.00 352.37 Z" />
</g>
</svg>
