<?xml version="1.0" encoding="utf-8"?>
<!-- Generator: Adobe Illustrator 20.1.0, SVG Export Plug-In . SVG Version: 6.00 Build 0)  -->
<svg version="1.1" id="Camada_1" xmlns="http://www.w3.org/2000/svg" xmlns:xlink="http://www.w3.org/1999/xlink" x="0px" y="0px"
	 viewBox="0 0 416 416" style="enable-background:new 0 0 416 416;" xml:space="preserve">
<style type="text/css">
	.st0{fill:#FCEBB6;}
</style>
<path class="st0" d="M0,59.4C20,58.7,40,59,60,59c118.7,0,237.3,0,356,0v31.5c-22,0.8-44,0.5-66,0.5c-116.7,0-233.3,0-350,0V59.4z"
	/>
<path class="st0" d="M0,192.4c20-0.6,40-0.3,60-0.4c118.7,0,237.3,0,356,0v31.5c-22,0.8-44,0.5-66,0.5c-116.7,0-233.3,0-350,0V192.4
	z"/>
<path class="st0" d="M0,325.4c20-0.6,40-0.4,60-0.4c118.7,0,237.3,0,356,0v31.5c-22,0.8-44,0.5-66,0.5c-116.7,0-233.3,0-350,0V325.4
	z"/>
</svg>
