<svg id="Camada_1" data-name="Camada 1" xmlns="http://www.w3.org/2000/svg" viewBox="0 0 350.19 278.95"><defs><style>.cls-1,.cls-2{fill:#3D0626;}.cls-2{fill-rule:evenodd;}</style></defs><title>na-cuia-logo</title><path class="cls-1" d="M52.66,176.32v66H49.5L8.82,185.27v57.09H4.5V176.41H7.86l40.39,56.81V176.32Z"/><polygon class="cls-1" points="56.6 246.3 47.47 246.3 12.75 197.58 12.75 246.3 0.56 246.3 0.56 172.47 9.89 172.47 44.31 220.89 44.31 172.38 56.6 172.38 56.6 246.3"/><path class="cls-1" d="M91.32,176.13l26.58,66.23h-4.7L108,229.45c-3.45,1.32-9.3,2.83-17.94,2.83s-14.68-1.6-18-2.92l-5.08,13h-4.7l26.1-66.23Zm15.06,49.37-16.5-41.27L73.67,225.4c.58.19,1.25.47,2,.66a46.8,46.8,0,0,0,14.39,2C98.14,228,103.51,226.63,106.38,225.5Z"/><path class="cls-1" d="M123.72,246.3H110.53l-4.8-12a59.87,59.87,0,0,1-15.65,1.89,58.63,58.63,0,0,1-15.73-2l-4.71,12H56.47l29.2-74.11H94ZM78.89,222.88a47,47,0,0,0,11.18,1.22A49.6,49.6,0,0,0,101.14,223L89.91,194.91Z"/><path class="cls-1" d="M205.86,228.51a28.29,28.29,0,0,1-4,4.9,33.33,33.33,0,0,1-22.64,10h-1.25a33.55,33.55,0,0,1-22.74-10,34.14,34.14,0,0,1,0-48,33.55,33.55,0,0,1,22.74-10h1.25a33.32,33.32,0,0,1,22.64,10,28.22,28.22,0,0,1,4,4.9l-4,1.79a28.59,28.59,0,0,0-52.09,17.33,28.55,28.55,0,0,0,52.09,17.34Z"/><path class="cls-1" d="M179.25,247.34h-1.44a38,38,0,0,1,0-75.9h1.51a37.19,37.19,0,0,1,25.31,11.16,31.91,31.91,0,0,1,4.54,5.54l2.48,3.86-11.16,5-1.87-2.6a25.29,25.29,0,0,0-20.11-10.7,25.8,25.8,0,1,0,20.11,40.78l1.87-2.6,11.16,5-2.48,3.87a32.07,32.07,0,0,1-4.59,5.58,37.15,37.15,0,0,1-25.27,11.11Z"/><path class="cls-1" d="M239,243.11a21.55,21.55,0,0,1-21.68-21.39V176.41h4.32v45.32a17.37,17.37,0,0,0,34.73,0V176.41h4.31v45.32A21.55,21.55,0,0,1,239,243.11Z"/><path class="cls-1" d="M239,247.05a25.5,25.5,0,0,1-25.62-25.33V172.47h12.2v49.25a13.43,13.43,0,0,0,26.85,0V172.47h12.19v49.25A25.5,25.5,0,0,1,239,247.05Z"/><path class="cls-1" d="M273.2,176.13h4.41v66.23H273.2Z"/><rect class="cls-1" x="269.26" y="172.19" width="12.29" height="74.11"/><path class="cls-1" d="M317.23,176.13l26.58,66.23h-4.7l-5.18-12.91c-3.46,1.32-9.31,2.83-17.94,2.83s-14.68-1.6-18-2.92l-5.09,13h-4.7l26.09-66.23Zm15.07,49.37-16.5-41.27L299.58,225.4c.57.19,1.25.47,2,.66A46.81,46.81,0,0,0,316,228C324,228,329.42,226.63,332.29,225.5Z"/><path class="cls-1" d="M349.63,246.3H336.44l-4.81-12A59.83,59.83,0,0,1,316,236.22a58.63,58.63,0,0,1-15.73-2l-4.71,12H282.38l29.2-74.11h8.32ZM304.8,222.88A47,47,0,0,0,316,224.1,49.49,49.49,0,0,0,327,223l-11.22-28.07Z"/><path class="cls-1" d="M4.8,260.23c3.41,0,4.72,1.6,4.72,4.11V266c0,2.25-1.11,3.48-3.64,3.85,2.56.31,3.64,1.65,3.64,3.67v2.88a3.26,3.26,0,0,0,.62,2.17H9.36a3.47,3.47,0,0,1-.56-2.17v-2.88c0-2.7-2-3.41-5-3.41H1v8.46H.25V260.23Zm-1,9.33c3.18,0,5-.66,5-3.48v-1.68c0-2.23-1.08-3.62-4-3.62H1v8.78Z"/><path class="cls-1" d="M10.71,278.82H9.24l-.07-.09a3.77,3.77,0,0,1-.61-2.33v-2.88c0-2.21-1.42-3.16-4.76-3.16H1.22v8.46H0V260H4.8c3.3,0,5,1.47,5,4.36V266a3.58,3.58,0,0,1-2.69,3.84,3.5,3.5,0,0,1,2.69,3.68v2.88a2.92,2.92,0,0,0,.56,2Zm-1.23-.5h.18a4,4,0,0,1-.39-1.92v-2.88a3,3,0,0,0-2.1-3.12,3.09,3.09,0,0,1,1.88,3.12v2.88A3.51,3.51,0,0,0,9.48,278.32Zm-9,0H.72v-8.46H4l.44-.06H.72v-9.28h4c2.84,0,4.28,1.3,4.28,3.87v1.68A3.23,3.23,0,0,1,7.75,269a3.12,3.12,0,0,0,1.52-3v-1.65c0-2.6-1.46-3.86-4.47-3.86H.5Zm.72-9H3.79c3.52,0,4.76-.85,4.76-3.23v-1.68c0-2.3-1.2-3.37-3.78-3.37H1.22Z"/><path class="cls-1" d="M31.63,269v.52H24.88V278h8v.55H24.16V260.23h8.75v.55h-8V269Z"/><path class="cls-1" d="M33.16,278.82H23.91V260h9.25V261h-8v7.73h6.75v1H25.13v8h8Zm-8.75-.5h8.25v0h-8v-9l6.75,0H24.63v-8.73h8v-.05H24.41Z"/><path class="cls-1" d="M47.59,260.23,53,277.91l5.37-17.68H59l-5.5,18.34H52.43l-5.6-18.34Z"/><path class="cls-1" d="M53.7,278.82H52.25L46.49,260h1.28L53,277.05,58.14,260h1.21Zm-.61-.5h.23l5.35-17.84h-.17Zm-.48,0h.2L47.4,260.48h-.23Z"/><path class="cls-1" d="M73.73,260.23v18.34H73V260.23Z"/><path class="cls-1" d="M74,278.82H72.75V260H74Zm-.72-.5h.22V260.48h-.22Z"/><path class="cls-1" d="M97.31,264.66V265h-.72v-.37c0-2.17-1-4-4-4s-4,1.81-4,4c0,4.69,8.78,4.56,8.78,9.54,0,2.54-1.31,4.56-4.82,4.56s-4.78-2-4.78-4.56v-.89h.69v.92c0,2.23,1.08,4,4.1,4s4.09-1.76,4.09-4c0-4.64-8.78-4.48-8.78-9.54,0-2.67,1.41-4.51,4.72-4.53C96,260.1,97.31,262.14,97.31,264.66Z"/><path class="cls-1" d="M92.53,278.95c-3.2,0-5-1.75-5-4.81V273h1.19v1.17c0,1.7.67,3.73,3.85,3.73s3.84-2,3.84-3.73c0-2.12-2-3.19-4.12-4.31-2.29-1.22-4.66-2.49-4.66-5.22,0-3.06,1.76-4.76,5-4.78s5,1.75,5,4.81v.59H96.34v-.62c0-1.71-.65-3.76-3.75-3.76s-3.78,2-3.78,3.73c0,2.16,2,3.24,4.16,4.39s4.62,2.47,4.62,5.15C97.59,275.94,96.94,278.95,92.53,278.95ZM88,273.5v.64c0,2,.79,4.31,4.53,4.31s4.57-2.34,4.57-4.31c0-2.38-2.12-3.51-4.36-4.71s-4.42-2.37-4.42-4.83c0-2.73,1.52-4.23,4.28-4.23s4.25,1.51,4.25,4.26v.12h.22v-.09c0-2-.78-4.31-4.5-4.31s-4.47,2.34-4.47,4.28c0,2.43,2.14,3.57,4.4,4.78s4.38,2.34,4.38,4.76c0,2.73-1.54,4.23-4.34,4.23s-4.35-1.5-4.35-4.23v-.67Z"/><path class="cls-1" d="M115.79,278.57V260.78h-5v-.55h10.75v.55h-5v17.79Z"/><path class="cls-1" d="M116.76,278.82h-1.22V261h-5V260h11.25V261h-5Zm-.72-.5h.22V260.53h5v-.05H111v.05h5Z"/><path class="cls-1" d="M135.74,274.25l-1.34,4.32h-.66l5.54-18.37h1L146,278.57h-.72l-1.34-4.32Zm.13-.52h7.9l-4-12.84Z"/><path class="cls-1" d="M146.3,278.82h-1.24l-1.34-4.32h-7.79l-1.34,4.32H133.4L139.09,260h1.39l.05.18Zm-.88-.5h.2l-5.51-17.87h-.21L144.1,274h-8.57l4.11-13.52h-.18l-5.39,17.87h.13l1.34-4.32h8.53Zm-9.22-4.85h7.22l-3.65-11.74Z"/><path class="cls-1" d="M186.05,264.74v1.41h-.72v-1.44c0-2.23-1-4.09-4.06-4.09s-4.1,1.86-4.1,4.09v9.38c0,2.23,1,4.06,4.1,4.06s4.06-1.83,4.06-4.06v-2h.72v2c0,2.54-1.31,4.64-4.82,4.64s-4.78-2.1-4.78-4.64v-9.33c0-2.54,1.31-4.64,4.78-4.64S186.05,262.19,186.05,264.74Z"/><path class="cls-1" d="M181.24,278.95c-3.2,0-5-1.78-5-4.89v-9.33c0-3.11,1.83-4.89,5-4.89s5.07,1.78,5.07,4.89v1.66h-1.22v-1.69c0-1.75-.66-3.84-3.81-3.84s-3.85,2.09-3.85,3.84v9.38c0,1.74.67,3.81,3.85,3.81s3.81-2.07,3.81-3.81v-2.27h1.22v2.24C186.3,277.17,184.46,278.95,181.24,278.95Zm0-18.6c-3.94,0-4.53,2.75-4.53,4.39v9.33c0,1.64.59,4.39,4.53,4.39s4.57-2.75,4.57-4.39v-1.74h-.22v1.77c0,2.78-1.53,4.31-4.31,4.31s-4.35-1.53-4.35-4.31v-9.38c0-2.8,1.54-4.34,4.35-4.34s4.31,1.54,4.31,4.34v1.19h.22v-1.16C185.8,263.1,185.21,260.35,181.24,260.35Z"/><path class="cls-1" d="M200.76,274.06c0,2.2,1,4.11,4,4.11s4-1.91,4-4.11V260.23h.69V274c0,2.51-1.24,4.66-4.72,4.66S200,276.55,200,274V260.23h.72Z"/><path class="cls-1" d="M204.79,278.95c-3.18,0-5-1.79-5-4.91V260H201v14.08c0,1.76.66,3.86,3.78,3.86s3.78-2.1,3.78-3.86V260h1.19V274C209.76,277.16,207.95,278.95,204.79,278.95Zm-4.5-18.47V274c0,1.65.59,4.41,4.5,4.41s4.47-2.76,4.47-4.41V260.48h-.19v13.58c0,2.81-1.52,4.36-4.28,4.36s-4.28-1.55-4.28-4.36V260.48Z"/><path class="cls-1" d="M223.56,278.57V260.23h.72V278H232v.55Z"/><path class="cls-1" d="M232.23,278.82h-8.92V260h1.22v17.79h7.7Zm-8.42-.5h7.92v0H224V260.48h-.22Z"/><path class="cls-1" d="M248.72,278.57V260.78h-5v-.55h10.75v.55h-5v17.79Z"/><path class="cls-1" d="M249.69,278.82h-1.22V261h-5V260H254.7V261h-5Zm-.72-.5h.22V260.53h5v-.05H244v.05h5Z"/><path class="cls-1" d="M268.7,274.06c0,2.2,1,4.11,4,4.11s4-1.91,4-4.11V260.23h.69V274c0,2.51-1.24,4.66-4.72,4.66S268,276.55,268,274V260.23h.72Z"/><path class="cls-1" d="M272.73,278.95c-3.18,0-5-1.79-5-4.91V260H269v14.08c0,1.76.66,3.86,3.78,3.86s3.78-2.1,3.78-3.86V260h1.19V274C277.7,277.16,275.89,278.95,272.73,278.95Zm-4.5-18.47V274c0,1.65.59,4.41,4.5,4.41s4.47-2.76,4.47-4.41V260.48H277v13.58c0,2.81-1.52,4.36-4.28,4.36s-4.28-1.55-4.28-4.36V260.48Z"/><path class="cls-1" d="M296.05,260.23c3.41,0,4.72,1.6,4.72,4.11V266c0,2.25-1.11,3.48-3.64,3.85,2.56.31,3.64,1.65,3.64,3.67v2.88a3.26,3.26,0,0,0,.62,2.17h-.79a3.47,3.47,0,0,1-.56-2.17v-2.88c0-2.7-2-3.41-5-3.41h-2.82v8.46h-.72V260.23Zm-1,9.33c3.18,0,5-.66,5-3.48v-1.68c0-2.23-1.08-3.62-4-3.62h-3.8v8.78Z"/><path class="cls-1" d="M302,278.82h-1.47l-.07-.09a3.77,3.77,0,0,1-.61-2.33v-2.88c0-2.21-1.42-3.16-4.76-3.16h-2.57v8.46h-1.22V260h4.8c3.3,0,5,1.47,5,4.36V266a3.58,3.58,0,0,1-2.69,3.84,3.5,3.5,0,0,1,2.69,3.68v2.88a2.92,2.92,0,0,0,.56,2Zm-1.23-.5h.18a4,4,0,0,1-.39-1.92v-2.88a3,3,0,0,0-2.1-3.12,3.09,3.09,0,0,1,1.88,3.12v2.88A3.51,3.51,0,0,0,300.73,278.32Zm-9,0H292v-8.46h3.33l.44-.06H292v-9.28h4c2.84,0,4.28,1.3,4.28,3.87v1.68A3.23,3.23,0,0,1,299,269a3.12,3.12,0,0,0,1.52-3v-1.65c0-2.6-1.46-3.86-4.47-3.86h-4.3Zm.72-9H295c3.52,0,4.76-.85,4.76-3.23v-1.68c0-2.3-1.2-3.37-3.78-3.37h-3.55Z"/><path class="cls-1" d="M317.31,274.25,316,278.57h-.66l5.54-18.37h1l5.67,18.37h-.72l-1.34-4.32Zm.13-.52h7.9l-4-12.84Z"/><path class="cls-1" d="M327.87,278.82h-1.24l-1.34-4.32H317.5l-1.34,4.32H315L320.67,260h1.39l.05.18Zm-.88-.5h.2l-5.51-17.87h-.21L325.68,274h-8.57l4.11-13.52H321l-5.39,17.87h.13l1.34-4.32h8.53Zm-9.22-4.85H325l-3.65-11.74Z"/><path class="cls-1" d="M341.52,278.57V260.23h.72V278h7.7v.55Z"/><path class="cls-1" d="M350.19,278.82h-8.92V260h1.22v17.79h7.7Zm-8.42-.5h7.92v0H342V260.48h-.22Z"/><path class="cls-2" d="M294.62,28.12c-.75,3.18-1.41,6.18-2.16,9.15a247.7,247.7,0,0,1-16,45.43c-6.83,14.38-15.15,27.77-26,39.49-11.38,12.27-24.71,21.68-40.57,27.29q-2.43.86-4.9,1.58c-1.76.52-3.54,1-5.36,1.46-2.87-3.87-5.91-7.58-8.51-11.58-2.41-3.71-2.19-3.87,1.8-5.52,10.61-4.38,21-9.2,30.59-15.57a132.85,132.85,0,0,0,17.19-14.17A152.72,152.72,0,0,0,262.1,81.32a95.66,95.66,0,0,0,12.17-23.95c.89-2.64,2-5.22,2.74-7.9a9.08,9.08,0,0,0-.94-6.37A9.45,9.45,0,0,0,273.18,48c-2.28,11-7.88,20.53-13.77,29.83-12.47,19.73-29.38,34.79-49.75,46-6.32,3.47-13,6.27-19.51,9.41a1.9,1.9,0,0,1-2-.17c-4.58-2.67-7.48-6.75-9.64-11.46-.6-1.31-1.17-2.62-1.84-4.14C211,104,234.15,79.61,247.23,45.4A4.77,4.77,0,0,0,242.15,48a112.12,112.12,0,0,1-23.27,36.44c-11.13,11.75-24.22,20.79-38.6,28.06a24.4,24.4,0,0,1-4.36,1.6,4.5,4.5,0,0,1-5.38-2.12c-2.37-3.79-4.63-7.65-7-11.61l1.35-.75c11.37-6.1,21.91-13.33,31-22.61a89.43,89.43,0,0,0,19.81-31c.11-.28.18-.58.27-.84A6.43,6.43,0,0,0,210,49.76c-5.82,15.52-16.79,26.8-30,36.21-4.28,3.06-8.82,5.77-13.29,8.57a8.49,8.49,0,0,1-2.91,1,4.82,4.82,0,0,1-4.78-2.15c-1.95-2.48-3.74-5.08-5.62-7.62-.66-.9-1.4-1.74-2-2.66-1.14-1.63-.91-2.75.77-3.8a8.92,8.92,0,0,1,1.81-.91c7.78-2.68,14-7.61,19.37-13.67,2.57-2.89,5.05-5.89,7.35-9a14.38,14.38,0,0,0,2.75-10.33c-1.39,1.32-3.11,1.88-3.71,3.85-1.81,6-5.6,10.62-10.13,14.73A97.08,97.08,0,0,1,155,74.87c-4.26,2.6-6,2.35-9.41-1.29-1.72-1.83-3.31-3.8-4.84-5.8-1.86-2.42-1.59-3.79,1-5.37s5.44-3,8-4.77c3.44-2.28,6.16-5.21,7.22-9.37.16-.62.26-1.25.38-1.88a6.08,6.08,0,0,0,0-.77c-1.37,1.29-2.59,2.4-3.78,3.55-3.34,3.22-6.69,6.44-10.76,8.75a19.62,19.62,0,0,1-3.81,1.7,4.88,4.88,0,0,1-6-2c-.84-1.16-1.53-2.43-2.27-3.67a23.74,23.74,0,0,0-7.14-7.81c-.49-.33-1-.63-1.6-1-.45,2-.8,3.92-1.29,5.79A78,78,0,0,1,113,69.39c-4.51,8-9,16.13-13.77,24-2.74,4.49-6.11,8.59-9.35,13.08-.57-.82-1-1.37-1.36-2Q83.1,95.24,77.71,86a1.57,1.57,0,0,1,0-1.82Q82,76.78,86.07,69.32c1.89-3.47,3.76-7,5.45-10.53A13.75,13.75,0,0,0,92,47c-.21.46-.39.79-.52,1.13-2.2,5.65-4.29,11.35-6.63,16.94A54.08,54.08,0,0,1,81,72c-1.79,3-3.7,5.88-5.7,9A274.34,274.34,0,0,1,56.88,28.2H85.69l.14-.29L69.12,12.23,60.58,23.12c1.68,0,3.17,0,4.65,0,2,0,4-.08,6-.17a2.84,2.84,0,0,0,.93-.42,3.2,3.2,0,0,0-.84-.46c-2-.4-4-.75-6.18-1.16L69.27,15,80.78,25.8c-2.15.07-4,.16-5.84.2q-8.87.21-17.74.39c-.27,0-.77-.18-.78-.3,0-.63-.18-1.42.13-1.87,1.31-1.86,2.77-3.62,4.17-5.41l7.8-10L90.63,25.8l22-24.61H68L88.63,17.56,99.55,6.4c-.64,0-1.49,0-2.35,0q-5.57.23-11.14.5a3.32,3.32,0,0,0-1,.41,3.16,3.16,0,0,0,1,.43c3,0,6,0,9.13,0l-6.36,7.07L73.37,3.42h34.2l-17,20L68.23,5.91,55.46,22.06c-.42-2-.86-3.68-1.13-5.43-.06-.38.38-.92.71-1.28q5.73-6.46,11.5-12.89c.32-.35.62-.72,1.15-1.34H66.2c-4.52,0-9,0-13.56,0-.77,0-1.29-.12-1-1.13H299.1c0,.76,0,.76-3.47,1.28.89.71,1.63,1.35,2.42,1.9a1.45,1.45,0,0,1,.65,1.64c-.18.93-.3,1.87-.47,3l-2.45-1.87-17.53,22.2Zm-44-19.27,22.11,17L294.62,1.21H250L270.73,17.6,281.6,6.3l-4.11.2c-3.19.13-6.39.25-9.58.4-.28,0-.55.29-.83.45.28.13.56.39.84.38,1.64,0,3.27-.1,4.91-.12,1.45,0,2.9,0,4.58,0l-6.51,7.21L255.46,3.45H289.6L272.66,23.38,250.27,5.91,232.79,28.06h35.27L251.17,12.23,242.66,23.1c.39,0,.58.07.76.07,3.28-.07,6.55-.13,9.83-.22a3,3,0,0,0,.9-.33,8.5,8.5,0,0,0-.86-.59,2.15,2.15,0,0,0-.59-.1l-5.5-1.05L251.33,15l11.53,10.81-26,.57ZM141.78,28H177L160.14,12.23,151.74,23c3.56,0,7,0,10.42,0a3.49,3.49,0,0,0,1-.33,3.49,3.49,0,0,0-1-.59c-1.94-.4-3.89-.73-6-1.12L160.31,15l11.53,10.82-26,.57L159.53,8.85l22.12,17L203.59,1.23H159l20.71,16.4L190.57,6.31l-4,.19c-3.15.13-6.31.24-9.46.4a3.05,3.05,0,0,0-1,.43c.35.14.7.3,1.06.42.1,0,.24,0,.35,0h8.81l-6.42,7.11L164.45,3.46h34.13L181.63,23.38,159.25,5.91ZM118.92,3.45h34.15l-17,19.93L113.73,5.91,96.26,28h35.24L114.63,12.23l-8.52,10.9c1.42,0,2.58,0,3.73,0,2.36,0,4.71-.09,7.07-.18.24,0,.47-.26.71-.39a3.11,3.11,0,0,0-.6-.44,4.15,4.15,0,0,0-.82-.17l-5.55-1.06L114.78,15l11.54,10.81-26,.57L114,8.85l22.13,17L158.07,1.23H113.5L134,17.47,145.2,6.31c-4.68.2-9.38.39-14.08.61-.2,0-.4.28-.59.43a2,2,0,0,0,.6.39,4,4,0,0,0,.83,0h8.84l-6.41,7.11Zm125.19,0-17,20L204.76,5.91,187.25,28.1h35.32L205.65,12.23,197.25,23c3.49,0,6.84,0,10.19,0a4.63,4.63,0,0,0,1.23-.37c-.39-.2-.77-.41-1.16-.6a1.51,1.51,0,0,0-.35,0l-5.49-1L205.8,15l11.55,10.81-26,.58L205,8.85l22.12,17L249.09,1.24H204.55l20.62,16.32,11-11.13s-.07-.08-.13-.08c-4.59.18-9.18.35-13.77.55a2.55,2.55,0,0,0-.82.36l.09.35h10.35l-6.51,7.21L209.92,3.43Z"/><path class="cls-2" d="M124.74,52.41c2.2,2.71,4.39,5.14,6.29,7.8q11.36,15.89,22.56,31.9,6.61,9.42,13.06,19c1.73,2.54,3.21,5.24,5,7.74,2,2.79,4.25,5.39,6.31,8.13,2.23,3,4.41,6,6.55,9,.89,1.26,1.59,2.66,2.44,3.95,2.77,4.2,5.56,8.38,8.35,12.57l.57.87c-2.32.36-4.5.86-6.71,1-5.18.36-10.36.54-15.54.82a1.6,1.6,0,0,1-1.55-.8c-12.07-16.28-24.24-32.47-36.22-48.81-6.38-8.7-12.41-17.65-18.6-26.49-.23-.33-.44-.67-.66-1a6.39,6.39,0,0,1-.4-7.12c2.85-5.57,5.28-11.36,7.88-17.06Z"/><path class="cls-2" d="M112.81,79.25c1.07.21,1.47.92,2,1.76,1.81,3.1,3.64,6.21,5.75,9.11,9.53,13.12,19.23,26.13,28.73,39.28,5.76,8,11.27,16.1,16.89,24.16.25.35.45.73.83,1.35-2.36-.28-4.48-.46-6.59-.78a91.1,91.1,0,0,1-29.12-9.45,5,5,0,0,1-1.63-1.5c-6.35-8.82-12.61-17.7-19-26.47-3.25-4.45-6.74-8.73-10.17-13a2,2,0,0,1-.46-2c1.32-4.87,4-9,6.72-13.16Z"/><path class="cls-2" d="M122.82,139.49c-12.41-7.94-22.4-18.34-31-30.23.35-.41.65-.77,1-1.12l4-4.36Z"/><path class="cls-2" d="M288.17,23.1h7.34a1.15,1.15,0,0,1,.06.3c-.42,2.68-.42,2.72-3.14,2.82-3,.11-6,.14-9,.2-.27,0-.54,0-1-.07L296,9c2,.93,2.08,1,1.54,3.49-.48.11-1,.06-1.22.3C293.6,16.14,291,19.54,288.17,23.1Z"/><path class="cls-2" d="M53.76,13.86c-.33-1.78-.67-3.33-.88-4.9,0-.29.32-.68.57-1,.46-.5,1-.94,1.67-1.61H52.41L52,3.4H62.65Z"/><path class="cls-2" d="M297.08,15.31,296,21.49l-3.27-.59,4-5.71Z"/></svg>