<svg id="Camada_1" data-name="Camada 1" xmlns="http://www.w3.org/2000/svg" viewBox="0 0 247.54 155.21"><defs><style>.cls-1{fill:#fcebb6;}</style></defs><title>na-cuia-icon</title><path class="cls-1" d="M243.06,28.13c-.75,3.18-1.41,6.18-2.16,9.15a247.7,247.7,0,0,1-16,45.43c-6.83,14.38-15.15,27.77-26,39.49-11.38,12.27-24.71,21.68-40.57,27.29q-2.43.86-4.9,1.58c-1.76.52-3.54,1-5.36,1.46-2.87-3.87-5.91-7.58-8.51-11.58-2.41-3.71-2.19-3.87,1.8-5.52,10.61-4.38,21-9.2,30.59-15.57a132.85,132.85,0,0,0,17.19-14.17,152.72,152.72,0,0,0,21.4-24.36,95.66,95.66,0,0,0,12.17-24c.89-2.64,2-5.22,2.74-7.9a9.08,9.08,0,0,0-.94-6.37,9.45,9.45,0,0,0-2.89,4.9c-2.28,11-7.88,20.53-13.77,29.83-12.47,19.73-29.38,34.79-49.75,46-6.32,3.47-13,6.27-19.51,9.41a1.9,1.9,0,0,1-2-.17c-4.58-2.67-7.48-6.75-9.64-11.46-.6-1.31-1.17-2.62-1.84-4.14,34.33-13.47,57.48-37.86,70.56-72.07a4.77,4.77,0,0,0-5.08,2.6,112.12,112.12,0,0,1-23.27,36.44c-11.13,11.75-24.22,20.79-38.6,28.06a24.4,24.4,0,0,1-4.36,1.6A4.5,4.5,0,0,1,119,112c-2.37-3.79-4.63-7.65-7-11.61l1.35-.75c11.37-6.1,21.91-13.33,31-22.61a89.43,89.43,0,0,0,19.81-31c.11-.28.18-.58.27-.84a6.43,6.43,0,0,0-6,4.59c-5.82,15.52-16.79,26.8-30,36.21-4.28,3.06-8.82,5.77-13.29,8.57a8.49,8.49,0,0,1-2.91,1,4.82,4.82,0,0,1-4.78-2.15c-1.95-2.48-3.74-5.08-5.62-7.62-.66-.9-1.4-1.74-2-2.66-1.14-1.63-.91-2.75.77-3.8a8.92,8.92,0,0,1,1.81-.91c7.78-2.68,14-7.61,19.37-13.67,2.57-2.89,5.05-5.89,7.35-9a14.38,14.38,0,0,0,2.75-10.33c-1.39,1.32-3.11,1.88-3.71,3.85-1.81,6-5.6,10.62-10.13,14.73a97.08,97.08,0,0,1-14.61,10.89c-4.26,2.6-6,2.35-9.41-1.29a74.7,74.7,0,0,1-4.84-5.8c-1.86-2.42-1.59-3.79,1-5.37s5.44-3,8-4.77c3.44-2.28,6.16-5.21,7.22-9.37.16-.62.26-1.25.38-1.88a6.08,6.08,0,0,0,0-.77c-1.37,1.29-2.59,2.4-3.78,3.55-3.34,3.22-6.69,6.44-10.76,8.75a19.62,19.62,0,0,1-3.81,1.7,4.88,4.88,0,0,1-6-2c-.84-1.16-1.53-2.43-2.27-3.67A23.74,23.74,0,0,0,72,46.15c-.49-.33-1-.63-1.6-1-.45,2-.8,3.92-1.29,5.79a78,78,0,0,1-7.7,18.46c-4.51,8-9,16.13-13.77,24-2.74,4.49-6.11,8.59-9.35,13.08-.57-.82-1-1.37-1.36-2Q31.54,95.25,26.15,86a1.57,1.57,0,0,1,0-1.82q4.29-7.4,8.36-14.86c1.89-3.47,3.76-7,5.45-10.53A13.75,13.75,0,0,0,40.44,47c-.21.46-.39.79-.52,1.13-2.2,5.65-4.29,11.35-6.63,16.94A54.08,54.08,0,0,1,29.44,72c-1.79,3-3.7,5.88-5.7,9A274.34,274.34,0,0,1,5.32,28.21H34.13l.14-.29L17.56,12.24,9,23.13h4.65c2,0,4-.08,6-.17a2.84,2.84,0,0,0,.93-.42,3.2,3.2,0,0,0-.84-.46c-2-.4-4-.75-6.18-1.16L17.71,15l11.51,10.8c-2.15.07-4,.16-5.84.2L5.64,26.4c-.27,0-.77-.18-.78-.3,0-.63-.18-1.42.13-1.87,1.31-1.86,2.77-3.62,4.17-5.41l7.8-10,22.11,17,22-24.61H16.44L37.07,17.57,48,6.41H45.64q-5.57.23-11.14.5a3.32,3.32,0,0,0-1,.41,3.16,3.16,0,0,0,1,.43h9.13l-6.36,7.07L21.81,3.43H56l-17,20L16.67,5.92,3.9,22.07c-.42-2-.86-3.68-1.13-5.43-.06-.38.38-.92.71-1.28Q9.21,8.9,15,2.47c.32-.35.62-.72,1.15-1.34h-15C.31,1.13-.21,1,.08,0H247.54c0,.76,0,.76-3.47,1.28.89.71,1.63,1.35,2.42,1.9a1.45,1.45,0,0,1,.65,1.64c-.18.93-.3,1.87-.47,3L244.22,6l-17.53,22.2Zm-44-19.27,22.11,17L243.06,1.22H198.44l20.73,16.39L230,6.31l-4.11.2c-3.19.13-6.39.25-9.58.4-.28,0-.55.29-.83.45.28.13.56.39.84.38,1.64,0,3.27-.1,4.91-.12h4.58l-6.51,7.21L203.9,3.46H238L221.1,23.39,198.71,5.92,181.23,28.07H216.5L199.61,12.24,191.1,23.11c.39,0,.58.07.76.07,3.28-.07,6.55-.13,9.83-.22a3,3,0,0,0,.9-.33,8.5,8.5,0,0,0-.86-.59,2.15,2.15,0,0,0-.59-.1l-5.5-1L199.77,15,211.3,25.82l-26,.57ZM90.22,28h35.22L108.58,12.24,100.18,23H110.6a3.49,3.49,0,0,0,1-.33,3.49,3.49,0,0,0-1-.59c-1.94-.4-3.89-.73-6-1.12l4.15-6,11.53,10.82-26,.57L108,8.86l22.12,17L152,1.24H107.44l20.71,16.4L139,6.32l-4,.19c-3.15.13-6.31.24-9.46.4a3.05,3.05,0,0,0-1,.43c.35.14.7.3,1.06.42h9.16l-6.42,7.11L112.89,3.47H147L130.07,23.39,107.69,5.92ZM67.36,3.46h34.15l-17,19.93L62.17,5.92,44.7,28H79.94L63.07,12.24l-8.52,10.9h3.73c2.36,0,4.71-.09,7.07-.18.24,0,.47-.26.71-.39a3.11,3.11,0,0,0-.6-.44,4.15,4.15,0,0,0-.82-.17L59.09,20.9,63.22,15,74.76,25.82l-26,.57L62.44,8.86l22.13,17L106.51,1.24H61.94l20.5,16.24L93.64,6.32c-4.68.2-9.38.39-14.08.61-.2,0-.4.28-.59.43a2,2,0,0,0,.6.39,4,4,0,0,0,.83,0h8.84l-6.41,7.11Zm125.19,0-17,20L153.2,5.92,135.69,28.11H171L154.09,12.24,145.69,23h10.19a4.63,4.63,0,0,0,1.23-.37c-.39-.2-.77-.41-1.16-.6a1.51,1.51,0,0,0-.35,0l-5.49-1,4.13-6,11.55,10.81-26,.58L153.44,8.86l22.12,17,22-24.61H153l20.62,16.32,11-11.13s-.07-.08-.13-.08c-4.59.18-9.18.35-13.77.55a2.55,2.55,0,0,0-.82.36l.09.35h10.35l-6.51,7.21L158.36,3.44Z"/><path class="cls-1" d="M73.18,52.42c2.2,2.71,4.39,5.14,6.29,7.8Q90.83,76.11,102,92.12q6.61,9.42,13.06,19c1.73,2.54,3.21,5.24,5,7.74,2,2.79,4.25,5.39,6.31,8.13q3.34,4.5,6.55,9c.89,1.26,1.59,2.66,2.44,3.95q4.16,6.3,8.35,12.57l.57.87c-2.32.36-4.5.86-6.71,1-5.18.36-10.36.54-15.54.82a1.6,1.6,0,0,1-1.55-.8c-12.07-16.28-24.24-32.47-36.22-48.81-6.38-8.7-12.41-17.65-18.6-26.49-.23-.33-.44-.67-.66-1a6.39,6.39,0,0,1-.4-7.12c2.85-5.57,5.28-11.36,7.88-17.06Z"/><path class="cls-1" d="M61.25,79.26c1.07.21,1.47.92,2,1.76A107.39,107.39,0,0,0,69,90.13c9.53,13.12,19.23,26.13,28.73,39.28,5.76,8,11.27,16.1,16.89,24.16.25.35.45.73.83,1.35-2.36-.28-4.48-.46-6.59-.78a91.1,91.1,0,0,1-29.12-9.45,5,5,0,0,1-1.63-1.5c-6.35-8.82-12.61-17.7-19-26.47-3.25-4.45-6.74-8.73-10.17-13a2,2,0,0,1-.46-2c1.32-4.87,4-9,6.72-13.16Z"/><path class="cls-1" d="M71.26,139.5c-12.41-7.94-22.4-18.34-31-30.23.35-.41.65-.77,1-1.12l4-4.36Z"/><path class="cls-1" d="M236.61,23.11H244a1.15,1.15,0,0,1,.06.3c-.42,2.68-.42,2.72-3.14,2.82-3,.11-6,.14-9,.2a5.81,5.81,0,0,1-1-.07L244.44,9c2,.93,2.08,1,1.54,3.49-.48.11-1,.06-1.22.3C242,16.15,239.44,19.55,236.61,23.11Z"/><path class="cls-1" d="M2.2,13.87c-.33-1.78-.67-3.33-.88-4.9,0-.29.32-.68.57-1,.46-.5,1-.94,1.67-1.61H.85L.44,3.41H11.09Z"/><path class="cls-1" d="M245.52,15.32l-1.08,6.18-3.27-.59,4-5.71Z"/></svg>