<svg id="Camada_1" data-name="Camada 1" xmlns="http://www.w3.org/2000/svg" viewBox="0 0 672.01 136.87"><defs><style>.cls-1,.cls-2{fill:#f5e7b4;}.cls-1{fill-rule:evenodd;}</style></defs><title>na-cuia-logo-white</title><path class="cls-1" d="M213.91,24.75c-.66,2.8-1.24,5.44-1.9,8.05a218,218,0,0,1-14.1,40c-6,12.65-13.34,24.44-22.89,34.75-10,10.8-21.74,19.08-35.71,24q-2.13.75-4.31,1.4c-1.55.46-3.11.85-4.72,1.29-2.53-3.4-5.21-6.67-7.49-10.19-2.12-3.27-1.93-3.41,1.59-4.86,9.33-3.86,18.47-8.1,26.92-13.7A116.89,116.89,0,0,0,166.43,93a134.44,134.44,0,0,0,18.86-21.43A84.16,84.16,0,0,0,196,50.49c.78-2.32,1.75-4.59,2.41-6.95a8,8,0,0,0-.83-5.61A8.33,8.33,0,0,0,195,42.28c-2,9.7-6.94,18.06-12.11,26.26C172,85.9,157.07,99.16,139.14,109c-5.56,3.05-11.45,5.52-17.17,8.28a1.67,1.67,0,0,1-1.75-.15c-4-2.36-6.59-5.95-8.48-10.09-.53-1.15-1-2.31-1.62-3.64C140.28,91.49,160.69,70.07,172.2,40a4.2,4.2,0,0,0-4.47,2.31,98.65,98.65,0,0,1-20.48,32.07c-9.79,10.34-21.31,18.3-34,24.69a21.54,21.54,0,0,1-3.84,1.41,4,4,0,0,1-4.73-1.87c-2.09-3.33-4.07-6.73-6.17-10.21l1.19-.66C109.73,82.33,119,76,127,67.8A78.69,78.69,0,0,0,144.4,40.54c.09-.25.16-.51.24-.74a5.66,5.66,0,0,0-5.2,4c-5.13,13.66-14.78,23.59-26.37,31.87-3.77,2.7-7.76,5.08-11.69,7.54a7.49,7.49,0,0,1-2.56.92,4.25,4.25,0,0,1-4.21-1.89c-1.71-2.19-3.29-4.47-4.94-6.71-.58-.79-1.23-1.54-1.79-2.34-1-1.44-.8-2.42.68-3.35a7.83,7.83,0,0,1,1.6-.8c6.85-2.36,12.31-6.7,17-12,2.26-2.55,4.44-5.18,6.47-7.92A12.64,12.64,0,0,0,116.09,40c-1.22,1.16-2.74,1.66-3.26,3.39-1.59,5.25-4.93,9.35-8.92,13A85.48,85.48,0,0,1,91,65.89c-3.75,2.29-5.28,2.07-8.28-1.13-1.51-1.61-2.91-3.35-4.26-5.1-1.63-2.13-1.4-3.33.88-4.73s4.79-2.68,7.07-4.19c3-2,5.42-4.59,6.36-8.25.14-.54.23-1.1.33-1.65a5.08,5.08,0,0,0,0-.68c-1.21,1.13-2.28,2.12-3.33,3.12A48.57,48.57,0,0,1,80.34,51,17.29,17.29,0,0,1,77,52.47a4.3,4.3,0,0,1-5.27-1.79c-.74-1-1.35-2.14-2-3.22a20.87,20.87,0,0,0-6.28-6.87C63,40.3,62.57,40,62,39.69c-.39,1.78-.71,3.45-1.13,5.1a68.58,68.58,0,0,1-6.84,16.28c-4,7.08-7.89,14.19-12.12,21.12-2.41,3.95-5.37,7.56-8.23,11.51-.51-.72-.89-1.2-1.2-1.73q-4.76-8.14-9.5-16.3a1.38,1.38,0,0,1,0-1.6Q26.77,67.57,30.37,61C32,58,33.68,54.89,35.16,51.75a12.1,12.1,0,0,0,.38-10.37c-.19.4-.34.69-.46,1-1.93,5-3.78,10-5.83,14.91a47.21,47.21,0,0,1-3.35,6.08c-1.58,2.62-3.25,5.17-5,8A241.46,241.46,0,0,1,4.68,24.82H30l.13-.26L15.46,10.76,7.93,20.35c1.48,0,2.79,0,4.1,0,1.76,0,3.51-.07,5.27-.15a2.58,2.58,0,0,0,.82-.37,2.85,2.85,0,0,0-.74-.41c-1.75-.35-3.51-.66-5.43-1l3.65-5.16,10.12,9.47c-1.89.06-3.51.14-5.14.17q-7.81.19-15.61.35c-.24,0-.68-.16-.68-.26,0-.55-.16-1.26.11-1.64,1.15-1.64,2.44-3.19,3.67-4.77l6.86-8.76L34.38,22.71,53.71,1.05H14.43l18.19,14.4,9.62-9.82c-.56,0-1.31,0-2.07,0q-4.9.2-9.8.44a3,3,0,0,0-.87.36,2.74,2.74,0,0,0,.92.38c2.63,0,5.26,0,8,0L32.85,13,19.2,3H49.3L34.35,20.57,14.67,5.2,3.43,19.41c-.37-1.72-.75-3.24-1-4.78-.05-.34.34-.81.62-1.13q5-5.69,10.12-11.34c.28-.31.54-.63,1-1.18h-1.3c-4,0-8,0-11.93,0C.27,1-.18.89.07,0H217.85c0,.66,0,.66-3.05,1.13.79.62,1.43,1.19,2.13,1.68a1.27,1.27,0,0,1,.57,1.44c-.16.82-.26,1.65-.41,2.61l-2.15-1.64L199.5,24.75Zm-38.77-17L194.6,22.71,213.91,1.07H174.67l18.21,14.42,9.57-9.95-3.61.18c-2.81.12-5.62.21-8.43.36-.25,0-.49.26-.73.4.25.12.49.34.74.34,1.44,0,2.88-.08,4.32-.11,1.28,0,2.55,0,4,0L193,13,179.45,3h30L194.58,20.57,174.87,5.2,159.49,24.7h31L175.67,10.76l-7.49,9.57c.35,0,.51.07.67.06,2.88-.06,5.77-.12,8.65-.2a2.73,2.73,0,0,0,.79-.29,7.93,7.93,0,0,0-.76-.52,2,2,0,0,0-.52-.09l-4.84-.93,3.63-5.15L186,22.75l-22.9.5ZM79.4,24.68h31L95.56,10.76l-7.39,9.45c3.13,0,6.15,0,9.17,0a3.12,3.12,0,0,0,.88-.29,3.1,3.1,0,0,0-.87-.53c-1.71-.35-3.43-.64-5.29-1l3.65-5.17,10.14,9.52-22.91.51L95,7.79l19.47,14.92,19.3-21.62H94.58L112.8,15.52l9.53-10-3.55.17c-2.78.12-5.55.21-8.33.35a2.73,2.73,0,0,0-.86.38c.31.13.62.26.93.37.09,0,.21,0,.31,0h7.75L112.94,13,99.35,3h30L114.47,20.57,94.77,5.2ZM59.28,3H89.33L74.41,20.57,54.71,5.2,39.34,24.69h31L55.5,10.76,48,20.35c1.25,0,2.27,0,3.28,0,2.07,0,4.15-.08,6.22-.15.21,0,.42-.23.63-.35a2.69,2.69,0,0,0-.53-.38,3.51,3.51,0,0,0-.72-.16L52,18.38l3.63-5.15L65.8,22.75l-22.91.5L55,7.79,74.45,22.71,93.73,1.08H54.51L72.58,15.38l9.83-9.82c-4.12.17-8.25.34-12.39.54-.18,0-.35.25-.52.38.17.12.34.3.52.34a3.44,3.44,0,0,0,.73,0h7.78L72.89,13ZM169.46,3,154.52,20.57,134.83,5.2,119.41,24.72h31.08l-14.89-14-7.39,9.45c3.07,0,6,0,9,0a4.08,4.08,0,0,0,1.09-.32c-.34-.18-.68-.36-1-.53a1.32,1.32,0,0,0-.31,0l-4.83-.92,3.63-5.15,10.17,9.51L123,23.25,135.08,7.79l19.46,14.92,19.3-21.62h-39.2l18.14,14.36,9.71-9.8s-.06-.07-.12-.07c-4,.15-8.08.31-12.12.49a2.2,2.2,0,0,0-.72.32l.08.3h9.11L153,13,139.37,3Z"/><path class="cls-1" d="M64.4,46.12c1.93,2.38,3.86,4.53,5.53,6.86q10,14,19.85,28.07c3.88,5.53,7.69,11.1,11.49,16.68,1.52,2.23,2.82,4.62,4.39,6.81,1.76,2.46,3.74,4.74,5.56,7.15,2,2.61,3.88,5.27,5.76,7.94.78,1.11,1.4,2.34,2.15,3.47,2.43,3.7,4.9,7.38,7.35,11.06l.5.76c-2,.32-4,.76-5.91.89-4.55.31-9.12.47-13.68.72a1.41,1.41,0,0,1-1.36-.7c-10.62-14.33-21.34-28.58-31.88-43-5.61-7.66-10.92-15.53-16.37-23.31-.2-.29-.39-.59-.58-.88a5.62,5.62,0,0,1-.35-6.27c2.51-4.9,4.65-10,6.94-15Z"/><path class="cls-1" d="M53.9,69.74c.94.19,1.29.81,1.73,1.55,1.59,2.72,3.2,5.46,5.06,8,8.39,11.55,16.92,23,25.28,34.56,5.07,7,9.92,14.17,14.86,21.26.22.31.39.65.73,1.19-2.08-.24-3.95-.4-5.8-.68a80.22,80.22,0,0,1-25.62-8.31A4.43,4.43,0,0,1,68.71,126c-5.59-7.76-11.1-15.57-16.74-23.29C49.11,98.79,46,95,43,91.22a1.8,1.8,0,0,1-.41-1.8c1.16-4.28,3.49-8,5.91-11.59Z"/><path class="cls-1" d="M62.72,122.76c-10.92-7-19.71-16.14-27.29-26.61.31-.36.57-.68.86-1l3.55-3.84Z"/><path class="cls-1" d="M208.23,20.33h6.46a1,1,0,0,1,.06.27c-.37,2.36-.37,2.39-2.76,2.48-2.63.1-5.27.13-7.91.18-.23,0-.47,0-.92-.06L215.09,7.91c1.8.82,1.83.91,1.35,3.07-.42.1-.9.06-1.07.27C213,14.21,210.68,17.2,208.23,20.33Z"/><path class="cls-1" d="M1.93,12.2c-.29-1.57-.58-2.93-.78-4.31,0-.26.28-.6.5-.84.4-.44.85-.83,1.47-1.42H.74L.38,3H9.76Z"/><path class="cls-1" d="M216.07,13.47l-1,5.44-2.87-.52,3.54-5Z"/><path class="cls-2" d="M299.37,8.33V91h-4l-50.95-71.5V91H239V8.45h4.21L293.84,79.6V8.33Z"/><polygon class="cls-2" points="304.3 95.98 292.86 95.98 249.39 34.96 249.39 95.98 234.12 95.98 234.12 3.52 245.8 3.52 288.91 64.15 288.91 3.4 304.3 3.4 304.3 95.98"/><path class="cls-2" d="M347.79,8.09l33.29,83h-5.89L368.7,74.88c-4.33,1.65-11.65,3.54-22.47,3.54s-18.38-2-22.59-3.66L317.27,91h-5.89l32.68-83Zm18.87,61.83L346,18.24,325.68,69.8c.72.24,1.56.59,2.53.83a58.69,58.69,0,0,0,18,2.48C356.32,73.11,363.05,71.34,366.65,69.92Z"/><path class="cls-2" d="M388.37,96H371.85l-6-15a74.93,74.93,0,0,1-19.6,2.37,73.46,73.46,0,0,1-19.7-2.44L320.64,96h-16.5L340.71,3.16h10.42ZM332.22,66.65a59,59,0,0,0,14,1.53,62.16,62.16,0,0,0,13.85-1.41L346,31.61Z"/><path class="cls-2" d="M491.23,73.7a35.48,35.48,0,0,1-5,6.14,41.75,41.75,0,0,1-28.35,12.51h-1.56a42,42,0,0,1-28.48-12.51,42.76,42.76,0,0,1,0-60.18A42,42,0,0,1,456.27,7.15h1.56a41.75,41.75,0,0,1,28.35,12.51,35.4,35.4,0,0,1,5,6.13l-5,2.25A36.73,36.73,0,0,0,457,12.58c-19.95.35-36.05,16.87-36.05,37.17a35.76,35.76,0,0,0,65.24,21.71Z"/><path class="cls-2" d="M457.91,97.28h-1.81a47.61,47.61,0,0,1-31.82-81.08,47.21,47.21,0,0,1,31.82-14H458a46.59,46.59,0,0,1,31.7,14,39.89,39.89,0,0,1,5.69,6.94L498.49,28l-14,6.21-2.34-3.26A31.68,31.68,0,0,0,457,17.51c-17.17.35-31.11,14.79-31.11,32.23S439.82,81.62,457,82.1a32.15,32.15,0,0,0,25.2-13.52l2.34-3.26,14,6.2-3.11,4.84a40.17,40.17,0,0,1-5.74,7A46.52,46.52,0,0,1,458,97.27Z"/><path class="cls-2" d="M532.8,92a27,27,0,0,1-27.15-26.78V8.45h5.41V65.21a21.75,21.75,0,0,0,43.5,0V8.45H560V65.21A27,27,0,0,1,532.8,92Z"/><path class="cls-2" d="M532.8,96.92a31.94,31.94,0,0,1-32.09-31.72V3.52H516V65.21a16.82,16.82,0,0,0,33.63,0V3.52h15.27V65.21A31.94,31.94,0,0,1,532.8,96.92Z"/><path class="cls-2" d="M575.57,8.09h5.53V91h-5.53Z"/><rect class="cls-2" x="570.64" y="3.16" width="15.4" height="92.82"/><path class="cls-2" d="M630.72,8.09,664,91h-5.89l-6.49-16.17c-4.33,1.65-11.66,3.54-22.47,3.54s-18.39-2-22.59-3.66L600.21,91h-5.89L627,8.09Zm18.87,61.83L628.92,18.24,608.62,69.8c.72.24,1.56.59,2.52.83a58.7,58.7,0,0,0,18,2.48C639.26,73.11,646,71.34,649.59,69.92Z"/><path class="cls-2" d="M671.3,96H654.79l-6-15a74.86,74.86,0,0,1-19.6,2.37,73.45,73.45,0,0,1-19.7-2.44L603.57,96h-16.5L623.64,3.16h10.42ZM615.16,66.65a59,59,0,0,0,14,1.53A62.12,62.12,0,0,0,643,66.77L629,31.61Z"/><path class="cls-2" d="M239.43,113.42c4.27,0,5.91,2,5.91,5.15v2.07c0,2.82-1.39,4.37-4.55,4.83,3.2.39,4.55,2.06,4.55,4.59v3.61a4.07,4.07,0,0,0,.78,2.72h-1a4.35,4.35,0,0,1-.7-2.72v-3.61c0-3.38-2.54-4.27-6.28-4.27h-3.53v10.6h-.9v-23Zm-1.27,11.68c4,0,6.28-.82,6.28-4.36v-2.1c0-2.79-1.35-4.53-5-4.53h-4.76v11Z"/><path class="cls-2" d="M246.83,136.7H245l-.09-.12a4.72,4.72,0,0,1-.77-2.92v-3.61c0-2.77-1.78-4-6-4h-3.22v10.6h-1.53V113.11h6c4.13,0,6.22,1.84,6.22,5.46v2.07c0,2.54-1.08,4.09-3.37,4.81a4.38,4.38,0,0,1,3.37,4.61v3.61a3.65,3.65,0,0,0,.7,2.51Zm-1.54-.63h.22a5,5,0,0,1-.49-2.41v-3.61a3.75,3.75,0,0,0-2.63-3.91,3.88,3.88,0,0,1,2.35,3.91v3.61A4.39,4.39,0,0,0,245.29,136.08Zm-11.25,0h.28v-10.6h4.18l.57-.08-.91,0h-3.84V113.8h5.07c3.56,0,5.36,1.63,5.36,4.84v2.1a4,4,0,0,1-1.63,3.68,3.91,3.91,0,0,0,1.91-3.78v-2.07c0-3.25-1.83-4.84-5.6-4.84H234Zm.9-11.29h3.22c4.4,0,6-1.06,6-4v-2.1c0-2.87-1.5-4.21-4.74-4.21h-4.45Z"/><path class="cls-2" d="M273,124.42v.65h-8.45V135.7h10.05v.69h-11v-23h11v.69H264.58v10.3Z"/><path class="cls-2" d="M274.94,136.7H263.36V113.11h11.58v1.32H264.89v9.68h8.45v1.28h-8.45v10h10.05Zm-11-.63h10.33V136H264.27V124.76l8.45,0h-8.45V113.8h10.05v-.06H264Z"/><path class="cls-2" d="M293,113.42l6.73,22.15,6.73-22.15h.86l-6.89,23h-1.35l-7-23Z"/><path class="cls-2" d="M300.67,136.7h-1.82l-7.21-23.59h1.6l6.5,21.38,6.5-21.38h1.52Zm-.76-.63h.29l6.71-22.34h-.21Zm-.6,0h.25l-6.79-22.34h-.29Z"/><path class="cls-2" d="M325.75,113.42v23h-.9v-23Z"/><path class="cls-2" d="M326.06,136.7h-1.53V113.11h1.53Zm-.9-.63h.28V113.74h-.28Z"/><path class="cls-2" d="M355.29,119v.43h-.9v-.46c0-2.72-1.27-5-5-5s-5,2.26-5,5c0,5.88,11,5.71,11,11.95,0,3.18-1.64,5.71-6,5.71s-6-2.53-6-5.71v-1.12h.86v1.15c0,2.79,1.35,5,5.13,5s5.13-2.2,5.13-5c0-5.81-11-5.61-11-11.95,0-3.35,1.77-5.64,5.91-5.68C353.69,113.26,355.29,115.82,355.29,119Z"/><path class="cls-2" d="M349.3,136.87c-4,0-6.3-2.2-6.3-6v-1.43h1.49v1.46c0,2.13.83,4.67,4.82,4.67s4.82-2.54,4.82-4.67c0-2.66-2.5-4-5.16-5.41-2.87-1.53-5.84-3.12-5.84-6.54,0-3.83,2.21-6,6.22-6s6.26,2.19,6.26,6v.74h-1.53v-.77c0-2.15-.81-4.71-4.69-4.71s-4.73,2.54-4.73,4.67c0,2.71,2.53,4.06,5.21,5.5,2.84,1.52,5.79,3.1,5.79,6.45C355.64,133.1,354.82,136.87,349.3,136.87ZM343.62,130v.8c0,2.46,1,5.4,5.68,5.4s5.72-2.93,5.72-5.4c0-3-2.65-4.39-5.46-5.9s-5.54-3-5.54-6c0-3.42,1.9-5.3,5.36-5.3s5.32,1.89,5.32,5.33v.15H355V119c0-2.46-1-5.39-5.63-5.39s-5.6,2.94-5.6,5.36c0,3,2.68,4.47,5.51,6s5.49,2.93,5.49,6c0,3.42-1.93,5.3-5.44,5.3s-5.44-1.88-5.44-5.3V130Z"/><path class="cls-2" d="M378.43,136.39V114.11h-6.28v-.69h13.46v.69h-6.28v22.28Z"/><path class="cls-2" d="M379.65,136.7h-1.53V114.43h-6.28v-1.32h14.09v1.32h-6.28Zm-.9-.63H379V113.8h6.28v-.06H372.46v.06h6.28Z"/><path class="cls-2" d="M403.41,131l-1.68,5.41h-.82l6.93-23h1.27l7.1,23h-.9L413.63,131Zm.16-.65h9.89l-5-16.08Z"/><path class="cls-2" d="M416.64,136.7h-1.56l-1.68-5.41h-9.76L402,136.7h-1.47l7.12-23.63h1.74l.07.22Zm-1.1-.63h.25l-6.91-22.37h-.27l5.27,16.93H403.16l5.14-16.93h-.22l-6.75,22.38h.17l1.68-5.41h10.68ZM404,130h9l-4.58-14.7Z"/><path class="cls-2" d="M466.43,119.07v1.77h-.9V119c0-2.79-1.31-5.12-5.09-5.12s-5.13,2.33-5.13,5.12v11.75c0,2.79,1.31,5.09,5.13,5.09s5.09-2.3,5.09-5.09v-2.53h.9v2.5c0,3.18-1.64,5.81-6,5.81s-6-2.62-6-5.81V119.07c0-3.19,1.64-5.81,6-5.81S466.43,115.88,466.43,119.07Z"/><path class="cls-2" d="M460.4,136.87c-4,0-6.3-2.23-6.3-6.12V119.07c0-3.89,2.3-6.12,6.3-6.12s6.35,2.23,6.35,6.12v2.09h-1.53V119c0-2.19-.83-4.8-4.77-4.8s-4.82,2.61-4.82,4.8v11.75c0,2.18.83,4.77,4.82,4.77s4.77-2.59,4.77-4.77v-2.84h1.53v2.81C466.75,134.64,464.43,136.87,460.4,136.87Zm0-23.3c-4.94,0-5.68,3.44-5.68,5.5v11.68c0,2.05.74,5.49,5.68,5.49s5.72-3.44,5.72-5.49v-2.18h-.28v2.21c0,3.48-1.92,5.4-5.4,5.4s-5.44-1.92-5.44-5.4V119c0-3.5,1.93-5.43,5.44-5.43s5.4,1.93,5.4,5.43v1.49h.28v-1.46C466.12,117,465.38,113.57,460.4,113.57Z"/><path class="cls-2" d="M484.85,130.75c0,2.76,1.23,5.15,5,5.15s5-2.4,5-5.15V113.42h.86v17.29c0,3.15-1.56,5.84-5.91,5.84s-6-2.69-6-5.84V113.42h.9Z"/><path class="cls-2" d="M489.9,136.87c-4,0-6.26-2.24-6.26-6.16v-17.6h1.53v17.64c0,2.21.82,4.84,4.73,4.84s4.73-2.63,4.73-4.84V113.11h1.49v17.6C496.12,134.63,493.85,136.87,489.9,136.87Zm-5.64-23.13v17c0,2.06.73,5.53,5.64,5.53s5.59-3.46,5.59-5.53v-17h-.23v17c0,3.52-1.9,5.47-5.36,5.47s-5.36-1.94-5.36-5.47v-17Z"/><path class="cls-2" d="M513.41,136.39v-23h.9V135.7H524v.69Z"/><path class="cls-2" d="M524.27,136.7H513.09V113.11h1.53v22.28h9.64Zm-10.54-.63h9.92V136H514V113.74h-.28Z"/><path class="cls-2" d="M544.92,136.39V114.11h-6.28v-.69H552.1v.69h-6.28v22.28Z"/><path class="cls-2" d="M546.13,136.7H544.6V114.43h-6.28v-1.32h14.08v1.32h-6.28Zm-.9-.63h.28V113.8h6.28v-.06H539v.06h6.28Z"/><path class="cls-2" d="M569.94,130.75c0,2.76,1.23,5.15,5,5.15s5-2.4,5-5.15V113.42h.86v17.29c0,3.15-1.56,5.84-5.91,5.84s-6-2.69-6-5.84V113.42h.9Z"/><path class="cls-2" d="M575,136.87c-4,0-6.26-2.24-6.26-6.16v-17.6h1.53v17.64c0,2.21.82,4.84,4.73,4.84s4.73-2.63,4.73-4.84V113.11h1.49v17.6C581.21,134.63,578.94,136.87,575,136.87Zm-5.64-23.13v17c0,2.06.73,5.53,5.64,5.53s5.59-3.46,5.59-5.53v-17h-.23v17c0,3.52-1.9,5.47-5.36,5.47s-5.36-1.94-5.36-5.47v-17Z"/><path class="cls-2" d="M604.2,113.42c4.27,0,5.91,2,5.91,5.15v2.07c0,2.82-1.4,4.37-4.56,4.83,3.2.39,4.56,2.06,4.56,4.59v3.61a4.07,4.07,0,0,0,.78,2.72h-1a4.35,4.35,0,0,1-.7-2.72v-3.61c0-3.38-2.54-4.27-6.28-4.27H599.4v10.6h-.9v-23Zm-1.27,11.68c4,0,6.28-.82,6.28-4.36v-2.1c0-2.79-1.35-4.53-5-4.53H599.4v11Z"/><path class="cls-2" d="M611.6,136.7h-1.84l-.09-.12a4.73,4.73,0,0,1-.77-2.92v-3.61c0-2.77-1.78-4-6-4h-3.22v10.6h-1.53V113.11h6c4.13,0,6.22,1.84,6.22,5.46v2.07c0,2.54-1.08,4.09-3.37,4.81a4.38,4.38,0,0,1,3.37,4.61v3.61a3.64,3.64,0,0,0,.7,2.51Zm-1.54-.63h.23a5,5,0,0,1-.49-2.41v-3.61a3.75,3.75,0,0,0-2.63-3.91,3.88,3.88,0,0,1,2.35,3.91v3.61A4.39,4.39,0,0,0,610.06,136.08Zm-11.25,0h.28v-10.6h4.18l.57-.08-.91,0h-3.84V113.8h5.07c3.56,0,5.36,1.63,5.36,4.84v2.1a4,4,0,0,1-1.64,3.68,3.91,3.91,0,0,0,1.91-3.78v-2.07c0-3.25-1.83-4.84-5.6-4.84h-5.39Zm.9-11.29h3.22c4.4,0,6-1.06,6-4v-2.1c0-2.87-1.5-4.21-4.73-4.21h-4.45Z"/><path class="cls-2" d="M630.83,131l-1.68,5.41h-.82l6.93-23h1.27l7.1,23h-.9L641,131Zm.16-.65h9.89l-5-16.08Z"/><path class="cls-2" d="M644.05,136.7H642.5l-1.68-5.41h-9.75l-1.68,5.41H627.9L635,113.08h1.74l.07.22Zm-1.1-.63h.25L636.3,113.7H636l5.27,16.93H630.57l5.14-16.93h-.22l-6.75,22.38h.17l1.68-5.41h10.68ZM631.41,130h9l-4.58-14.7Z"/><path class="cls-2" d="M661.15,136.39v-23h.9V135.7h9.64v.69Z"/><path class="cls-2" d="M672,136.7H660.83V113.11h1.53v22.28H672Zm-10.54-.63h9.92V136h-9.64V113.74h-.28Z"/></svg>