<?xml version="1.0" encoding="utf-8"?>
<!-- Generator: Adobe Illustrator 20.1.0, SVG Export Plug-In . SVG Version: 6.00 Build 0)  -->
<svg version="1.1" id="Camada_1" xmlns="http://www.w3.org/2000/svg" xmlns:xlink="http://www.w3.org/1999/xlink" x="0px" y="0px"
	 viewBox="0 0 685 136.9" style="enable-background:new 0 0 685 136.9;" xml:space="preserve">
<style type="text/css">
	.st0{fill:#F5E7B4;}
</style>
<title>na-cuia-logo-white</title>
<path class="st0" d="M213.9,24.8c-0.7,2.8-1.2,5.4-1.9,8c-3.4,13.8-8.1,27.2-14.1,40c-6,12.7-13.3,24.4-22.9,34.8
	c-10,10.8-21.7,19.1-35.7,24c-1.4,0.5-2.9,1-4.3,1.4c-1.6,0.5-3.1,0.9-4.7,1.3c-2.5-3.4-5.2-6.7-7.5-10.2c-2.1-3.3-1.9-3.4,1.6-4.9
	c9.3-3.9,18.5-8.1,26.9-13.7c5.4-3.7,10.4-7.9,15.1-12.5c7-6.5,13.4-13.6,18.9-21.4c4.5-6.5,8.1-13.6,10.7-21.1
	c0.8-2.3,1.8-4.6,2.4-7c0.4-1.9,0.1-3.9-0.8-5.6c-1.3,1.1-2.2,2.7-2.6,4.3c-2,9.7-6.9,18.1-12.1,26.3C172,85.9,157.1,99.2,139.1,109
	c-5.6,3.1-11.4,5.5-17.2,8.3c-0.6,0.3-1.2,0.2-1.8-0.2c-4-2.4-6.6-5.9-8.5-10.1c-0.5-1.2-1-2.3-1.6-3.6
	c30.2-11.9,50.6-33.3,62.1-63.4c-1.8-0.3-3.7,0.6-4.5,2.3c-4.7,11.9-11.6,22.8-20.5,32.1c-9.8,10.3-21.3,18.3-34,24.7
	c-1.2,0.6-2.5,1.1-3.8,1.4c-1.8,0.6-3.8-0.2-4.7-1.9c-2.1-3.3-4.1-6.7-6.2-10.2l1.2-0.7c10-5.4,19.3-11.7,27.3-19.9
	c7.6-7.8,13.5-17.1,17.4-27.3c0.1-0.3,0.2-0.5,0.2-0.7c-2.4,0.1-4.5,1.7-5.2,4c-5.1,13.7-14.8,23.6-26.4,31.9
	c-3.8,2.7-7.8,5.1-11.7,7.5c-0.8,0.5-1.7,0.8-2.6,0.9c-1.7,0.3-3.3-0.5-4.2-1.9c-1.7-2.2-3.3-4.5-4.9-6.7c-0.6-0.8-1.2-1.5-1.8-2.3
	c-1-1.4-0.8-2.4,0.7-3.3c0.5-0.3,1-0.6,1.6-0.8c6.8-2.4,12.3-6.7,17-12c2.3-2.5,4.4-5.2,6.5-7.9c2-2.6,2.8-5.9,2.5-9.1
	c-1.2,1.2-2.7,1.7-3.3,3.4c-1.6,5.3-4.9,9.3-8.9,13c-4,3.6-8.3,6.7-12.9,9.5c-3.8,2.3-5.3,2.1-8.3-1.1c-1.5-1.6-2.9-3.3-4.3-5.1
	c-1.6-2.1-1.4-3.3,0.9-4.7s4.8-2.7,7.1-4.2c3-2,5.4-4.6,6.4-8.3c0.1-0.5,0.2-1.1,0.3-1.7c0-0.2,0-0.5,0-0.7
	c-1.2,1.1-2.3,2.1-3.3,3.1c-2.8,3-6,5.6-9.4,7.7c-1.1,0.6-2.2,1.1-3.3,1.5c-2,0.8-4.2,0-5.3-1.8c-0.7-1-1.3-2.1-2-3.2
	c-1.5-2.7-3.7-5.1-6.3-6.9C63,40.3,62.6,40,62,39.7c-0.4,1.8-0.7,3.5-1.1,5.1C59.3,50.5,57,56,54,61.1c-4,7.1-7.9,14.2-12.1,21.1
	c-2.4,3.9-5.4,7.6-8.2,11.5c-0.5-0.7-0.9-1.2-1.2-1.7c-3.2-5.4-6.3-10.9-9.5-16.3c-0.3-0.5-0.3-1.1,0-1.6c2.5-4.3,5-8.7,7.4-13.1
	c1.6-3,3.3-6.1,4.8-9.3c1.7-3.2,1.8-7,0.4-10.4c-0.2,0.4-0.3,0.7-0.5,1c-1.9,5-3.8,10-5.8,14.9c-1,2.1-2.1,4.1-3.4,6.1
	c-1.6,2.6-3.3,5.2-5,8c-7-14.9-12.4-30.5-16.2-46.6H30l0.1-0.3L15.5,10.8l-7.5,9.6c1.5,0,2.8,0,4.1,0c1.8,0,3.5-0.1,5.3-0.1
	c0.3-0.1,0.6-0.2,0.8-0.4c-0.2-0.2-0.5-0.3-0.7-0.4c-1.8-0.4-3.5-0.7-5.4-1l3.6-5.2l10.1,9.5c-1.9,0.1-3.5,0.1-5.1,0.2
	C15.4,23,10.2,23.1,5,23.3c-0.2,0-0.7-0.2-0.7-0.3c0-0.5-0.2-1.3,0.1-1.6c1.2-1.6,2.4-3.2,3.7-4.8l6.9-8.8l19.5,14.9L53.7,1H14.4
	l18.2,14.4l9.6-9.8c-0.6,0-1.3,0-2.1,0c-3.3,0.1-6.5,0.3-9.8,0.4c-0.3,0.1-0.6,0.2-0.9,0.4c0.3,0.2,0.6,0.3,0.9,0.4c2.6,0,5.3,0,8,0
	L32.8,13L19.2,3h30.1l-15,17.6L14.7,5.2L3.4,19.4c-0.4-1.7-0.8-3.2-1-4.8c0-0.3,0.3-0.8,0.6-1.1C6.4,9.7,9.8,5.9,13.2,2.2
	c0.3-0.3,0.5-0.6,1-1.2h-1.3c-4,0-8,0-11.9,0C0.3,1-0.2,0.9,0.1,0h217.8c0,0.7,0,0.7-3.1,1.1c0.8,0.6,1.4,1.2,2.1,1.7
	c0.5,0.3,0.7,0.9,0.6,1.4c-0.2,0.8-0.3,1.7-0.4,2.6l-2.1-1.6l-15.4,19.5H213.9z M175.1,7.8l19.5,15l19.3-21.6h-39.2l18.2,14.4
	l9.6-9.9l-3.6,0.2c-2.8,0.1-5.6,0.2-8.4,0.4c-0.3,0-0.5,0.3-0.7,0.4c0.3,0.1,0.5,0.3,0.7,0.3c1.4,0,2.9-0.1,4.3-0.1c1.3,0,2.6,0,4,0
	L193,13L179.4,3h30l-14.9,17.6L174.9,5.2l-15.4,19.5h31l-14.8-13.9l-7.5,9.6c0.4,0,0.5,0.1,0.7,0.1c2.9-0.1,5.8-0.1,8.6-0.2
	c0.3-0.1,0.5-0.2,0.8-0.3c-0.2-0.2-0.5-0.4-0.8-0.5c-0.2-0.1-0.3-0.1-0.5-0.1l-4.8-0.9l3.6-5.1l10.2,9.5l-22.9,0.5L175.1,7.8z
	 M79.4,24.7h31L95.6,10.8l-7.4,9.4c3.1,0,6.2,0,9.2,0c0.3-0.1,0.6-0.2,0.9-0.3c-0.3-0.2-0.6-0.4-0.9-0.5c-1.7-0.4-3.4-0.6-5.3-1
	l3.7-5.2l10.1,9.5l-22.9,0.5L95,7.8l19.5,14.9l19.3-21.6H94.6l18.2,14.4l9.5-10l-3.6,0.2c-2.8,0.1-5.6,0.2-8.3,0.3
	c-0.3,0.1-0.6,0.2-0.9,0.4c0.3,0.1,0.6,0.3,0.9,0.4c0.1,0,0.2,0,0.3,0h7.8l-5.6,6.2L99.3,3h30l-14.9,17.6L94.8,5.2L79.4,24.7z
	 M59.3,3h30.1L74.4,20.6L54.7,5.2L39.3,24.7h31L55.5,10.8L48,20.4c1.3,0,2.3,0,3.3,0c2.1,0,4.2-0.1,6.2-0.1c0.2,0,0.4-0.2,0.6-0.4
	c-0.2-0.1-0.3-0.3-0.5-0.4c-0.2-0.1-0.5-0.1-0.7-0.2L52,18.4l3.6-5.1l10.2,9.5l-22.9,0.5L55,7.8l19.4,14.9L93.7,1.1H54.5l18.1,14.3
	l9.8-9.8C78.3,5.7,74.2,5.9,70,6.1c-0.2,0-0.3,0.3-0.5,0.4c0.2,0.1,0.3,0.3,0.5,0.3c0.2,0,0.5,0,0.7,0h7.8L72.9,13L59.3,3z M169.5,3
	l-14.9,17.6L134.8,5.2l-15.4,19.5h31.1l-14.9-14l-7.4,9.4c3.1,0,6,0,9,0c0.4-0.1,0.7-0.2,1.1-0.3c-0.3-0.2-0.7-0.4-1-0.5
	c-0.1,0-0.2,0-0.3,0l-4.8-0.9l3.6-5.1l10.2,9.5l-23,0.5l12.1-15.5l19.5,14.9l19.3-21.6h-39.2l18.1,14.4l9.7-9.8c0,0-0.1-0.1-0.1-0.1
	c-4,0.2-8.1,0.3-12.1,0.5c-0.3,0.1-0.5,0.2-0.7,0.3l0.1,0.3h9.1L153,13L139.4,3H169.5z"/>
<path class="st0" d="M64.4,46.1c1.9,2.4,3.9,4.5,5.5,6.9c6.7,9.3,13.3,18.7,19.8,28.1c3.9,5.5,7.7,11.1,11.5,16.7
	c1.5,2.2,2.8,4.6,4.4,6.8c1.8,2.5,3.7,4.7,5.6,7.2c2,2.6,3.9,5.3,5.8,7.9c0.8,1.1,1.4,2.3,2.2,3.5c2.4,3.7,4.9,7.4,7.3,11.1l0.5,0.8
	c-2,0.3-4,0.8-5.9,0.9c-4.6,0.3-9.1,0.5-13.7,0.7c-0.6,0.1-1.1-0.2-1.4-0.7c-10.6-14.3-21.3-28.6-31.9-43
	c-5.6-7.7-10.9-15.5-16.4-23.3c-0.2-0.3-0.4-0.6-0.6-0.9c-1.4-1.8-1.5-4.3-0.3-6.3c2.5-4.9,4.7-10,6.9-15L64.4,46.1z"/>
<path class="st0" d="M53.9,69.7c0.9,0.2,1.3,0.8,1.7,1.6c1.6,2.7,3.2,5.5,5.1,8c8.4,11.6,16.9,23,25.3,34.6
	c5.1,7,9.9,14.2,14.9,21.3c0.2,0.3,0.4,0.6,0.7,1.2c-2.1-0.2-3.9-0.4-5.8-0.7c-8.9-1.3-17.6-4.1-25.6-8.3c-0.6-0.3-1.1-0.8-1.4-1.3
	c-5.6-7.8-11.1-15.6-16.7-23.3c-2.9-3.9-6-7.7-9-11.5c-0.5-0.5-0.6-1.2-0.4-1.8c1.2-4.3,3.5-8,5.9-11.6L53.9,69.7z"/>
<path class="st0" d="M62.7,122.8c-10.9-7-19.7-16.1-27.3-26.6c0.3-0.4,0.6-0.7,0.9-1l3.5-3.8L62.7,122.8z"/>
<path class="st0" d="M208.2,20.3h6.5c0,0.1,0.1,0.2,0.1,0.3c-0.4,2.4-0.4,2.4-2.8,2.5c-2.6,0.1-5.3,0.1-7.9,0.2
	c-0.2,0-0.5,0-0.9-0.1l11.9-15.3c1.8,0.8,1.8,0.9,1.4,3.1c-0.4,0.1-0.9,0.1-1.1,0.3C213,14.2,210.7,17.2,208.2,20.3z"/>
<path class="st0" d="M1.9,12.2c-0.3-1.6-0.6-2.9-0.8-4.3c0-0.3,0.3-0.6,0.5-0.8C2,6.6,2.5,6.2,3.1,5.6H0.7L0.4,3h9.4L1.9,12.2z"/>
<path class="st0" d="M216.1,13.5l-1,5.4l-2.9-0.5l3.5-5L216.1,13.5z"/>
<path class="st0" d="M312.4,8.3V91h-4l-50.9-71.5V91H252V8.4h4.2l50.6,71.2V8.3H312.4z"/>
<polygon class="st0" points="317.3,96 305.9,96 262.4,35 262.4,96 247.1,96 247.1,3.5 258.8,3.5 301.9,64.2 301.9,3.4 317.3,3.4 "/>
<path class="st0" d="M360.8,8.1l33.3,83h-5.9l-6.5-16.2c-4.3,1.7-11.6,3.5-22.5,3.5s-18.4-2-22.6-3.7L330.3,91h-5.9l32.7-83
	L360.8,8.1z M379.7,69.9L359,18.2l-20.3,51.6c0.7,0.2,1.6,0.6,2.5,0.8c5.8,1.8,11.9,2.6,18,2.5C369.3,73.1,376,71.3,379.7,69.9
	L379.7,69.9z"/>
<path class="st0" d="M401.4,96h-16.5l-6-15c-6.4,1.7-13,2.4-19.6,2.4c-6.6,0.1-13.3-0.7-19.7-2.4L333.6,96h-16.5l36.6-92.8h10.4
	L401.4,96z M345.2,66.7c4.6,1.1,9.3,1.6,14,1.5c4.7,0.1,9.3-0.4,13.9-1.4L359,31.6L345.2,66.7z"/>
<path class="st0" d="M504.2,73.7c-1.4,2.2-3.1,4.3-5,6.1c-7.5,7.7-17.6,12.1-28.4,12.5h-1.6c-10.7-0.4-20.9-4.8-28.5-12.5
	c-16.5-16.7-16.5-43.5,0-60.2c7.5-7.6,17.7-12.1,28.4-12.5h1.6c10.7,0.4,20.9,4.9,28.4,12.5c1.9,1.9,3.6,3.9,5,6.1l-5,2.3
	c-6.7-9.5-17.6-15.2-29.2-15.5c-20,0.4-36,16.9-36,37.2c-0.8,19.7,14.5,36.4,34.2,37.2c12.3,0.5,24.1-5.3,31-15.5L504.2,73.7z"/>
<path class="st0" d="M470.9,97.3h-1.8c-26.3-1.1-46.7-23.3-45.6-49.6c0.5-11.9,5.4-23.1,13.8-31.5c8.4-8.5,19.8-13.6,31.8-14h1.9
	c12,0.4,23.3,5.4,31.7,14c2.2,2.1,4.1,4.4,5.7,6.9l3.1,4.9l-14,6.2l-2.3-3.3c-5.8-8.2-15.1-13.2-25.1-13.4
	c-17.2,0.4-31.1,14.8-31.1,32.2s13.9,31.9,31.1,32.4c10.1-0.3,19.4-5.3,25.2-13.5l2.3-3.3l14,6.2l-3.1,4.8c-1.6,2.5-3.6,4.9-5.7,7
	C494.3,91.9,483,96.9,470.9,97.3L470.9,97.3z"/>
<path class="st0" d="M545.8,92c-14.9,0.1-27-11.9-27.2-26.8V8.4h5.4v56.8c0,12,9.7,21.8,21.8,21.8s21.8-9.7,21.8-21.8V8.4h5.4v56.8
	C572.9,80.1,560.7,92.1,545.8,92z"/>
<path class="st0" d="M545.8,96.9c-17.6,0.1-32-14.1-32.1-31.7V3.5H529v61.7c0.2,9.3,7.9,16.6,17.2,16.4c9-0.2,16.2-7.4,16.4-16.4
	V3.5h15.3v61.7C577.8,82.8,563.4,97,545.8,96.9z"/>
<path class="st0" d="M588.6,8.1h5.5V91h-5.5V8.1z"/>
<rect x="583.6" y="3.2" class="st0" width="15.4" height="92.8"/>
<path class="st0" d="M643.7,8.1L677,91h-5.9l-6.5-16.2c-4.3,1.7-11.7,3.5-22.5,3.5s-18.4-2-22.6-3.7L613.2,91h-5.9L640,8.1H643.7z
	 M662.6,69.9l-20.7-51.7l-20.3,51.6c0.7,0.2,1.6,0.6,2.5,0.8c5.8,1.8,11.9,2.6,18,2.5C652.3,73.1,659,71.3,662.6,69.9L662.6,69.9z"
	/>
<path class="st0" d="M684.3,96h-16.5l-6-15c-6.4,1.7-13,2.4-19.6,2.4c-6.6,0.1-13.3-0.7-19.7-2.4L616.6,96h-16.5l36.6-92.8h10.4
	L684.3,96z M628.2,66.7c4.6,1.1,9.3,1.6,14,1.5c4.7,0,9.3-0.4,13.8-1.4l-14-35.2L628.2,66.7z"/>
<path class="st0" d="M252.4,113.4c4.3,0,5.9,2,5.9,5.2v2.1c0,2.8-1.4,4.4-4.5,4.8c3.2,0.4,4.5,2.1,4.5,4.6v3.6
	c-0.1,1,0.2,1.9,0.8,2.7h-1c-0.5-0.8-0.8-1.8-0.7-2.7v-3.6c0-3.4-2.5-4.3-6.3-4.3h-3.5v10.6h-0.9v-23L252.4,113.4z M251.2,125.1
	c4,0,6.3-0.8,6.3-4.4v-2.1c0-2.8-1.4-4.5-5-4.5h-4.8v11L251.2,125.1z"/>
<path class="st0" d="M259.8,136.7H258l-0.1-0.1c-0.6-0.9-0.8-1.9-0.8-2.9v-3.6c0-2.8-1.8-4-6-4h-3.2v10.6h-1.5v-23.5h6
	c4.1,0,6.2,1.8,6.2,5.5v2.1c0,2.5-1.1,4.1-3.4,4.8c2.1,0.5,3.5,2.5,3.4,4.6v3.6c-0.1,0.9,0.2,1.8,0.7,2.5L259.8,136.7z M258.3,136.1
	h0.2c-0.4-0.8-0.5-1.6-0.5-2.4V130c0.2-1.8-0.9-3.4-2.6-3.9c1.5,0.7,2.5,2.2,2.4,3.9v3.6C257.7,134.5,257.9,135.3,258.3,136.1
	L258.3,136.1z M247,136.1h0.3v-10.6h4.2l0.6-0.1h-0.9h-3.8v-11.6h5.1c3.6,0,5.4,1.6,5.4,4.8v2.1c0.2,1.4-0.5,2.8-1.6,3.7
	c1.3-0.8,2.1-2.3,1.9-3.8v-2.1c0-3.3-1.8-4.8-5.6-4.8H247L247,136.1z M247.9,124.8h3.2c4.4,0,6-1.1,6-4v-2.1c0-2.9-1.5-4.2-4.7-4.2
	H248L247.9,124.8z"/>
<path class="st0" d="M286,124.4v0.7h-8.5v10.6h10v0.7h-11v-23h11v0.7h-10v10.3L286,124.4z"/>
<path class="st0" d="M287.9,136.7h-11.6v-23.6h11.6v1.3h-10v9.7h8.5v1.3h-8.5v10h10V136.7z M276.9,136.1h10.3V136h-10v-11.2h8.5
	h-8.5v-11h10v-0.1H277L276.9,136.1z"/>
<path class="st0" d="M306,113.4l6.7,22.1l6.7-22.2h0.9l-6.9,23h-1.4l-7-23L306,113.4z"/>
<path class="st0" d="M313.7,136.7h-1.8l-7.2-23.6h1.6l6.5,21.4l6.5-21.4h1.5L313.7,136.7z M312.9,136.1h0.3l6.7-22.3h-0.2
	L312.9,136.1z M312.3,136.1h0.3l-6.8-22.3h-0.3L312.3,136.1z"/>
<path class="st0" d="M338.7,113.4v23h-0.9v-23H338.7z"/>
<path class="st0" d="M339.1,136.7h-1.5v-23.6h1.5V136.7z M338.2,136.1h0.3v-22.3h-0.3V136.1z"/>
<path class="st0" d="M368.3,119v0.4h-0.9V119c0-2.7-1.3-5-5-5s-5,2.3-5,5c0,5.9,11,5.7,11,11.9c0,3.2-1.6,5.7-6,5.7s-6-2.5-6-5.7
	v-1.1h0.9v1.1c0,2.8,1.4,5,5.1,5s5.1-2.2,5.1-5c0-5.8-11-5.6-11-11.9c0-3.3,1.8-5.6,5.9-5.7C366.7,113.3,368.3,115.8,368.3,119z"/>
<path class="st0" d="M362.3,136.9c-4,0-6.3-2.2-6.3-6v-1.4h1.5v1.5c0,2.1,0.8,4.7,4.8,4.7s4.8-2.5,4.8-4.7c0-2.7-2.5-4-5.2-5.4
	c-2.9-1.5-5.8-3.1-5.8-6.5c0-3.8,2.2-6,6.2-6s6.3,2.2,6.3,6v0.7h-1.5v-0.8c0-2.2-0.8-4.7-4.7-4.7s-4.7,2.5-4.7,4.7
	c0,2.7,2.5,4.1,5.2,5.5c2.8,1.5,5.8,3.1,5.8,6.4C368.6,133.1,367.8,136.9,362.3,136.9z M356.6,130v0.8c0,2.5,1,5.4,5.7,5.4
	s5.7-2.9,5.7-5.4c0-3-2.6-4.4-5.5-5.9s-5.5-3-5.5-6c0-3.4,1.9-5.3,5.4-5.3s5.3,1.9,5.3,5.3v0.2h0.3V119c0-2.5-1-5.4-5.6-5.4
	s-5.6,2.9-5.6,5.4c0,3,2.7,4.5,5.5,6s5.5,2.9,5.5,6c0,3.4-1.9,5.3-5.4,5.3s-5.4-1.9-5.4-5.3v-1H356.6z"/>
<path class="st0" d="M391.4,136.4v-22.3h-6.3v-0.7h13.5v0.7h-6.3v22.3H391.4z"/>
<path class="st0" d="M392.6,136.7h-1.5v-22.3h-6.3v-1.3h14.1v1.3h-6.3V136.7z M391.7,136.1h0.3v-22.3h6.3v-0.1h-12.8v0.1h6.3
	L391.7,136.1z"/>
<path class="st0" d="M416.4,131l-1.7,5.4h-0.8l6.9-23h1.3l7.1,23h-0.9l-1.7-5.4H416.4z M416.6,130.4h9.9l-5-16.1L416.6,130.4z"/>
<path class="st0" d="M429.6,136.7h-1.6l-1.7-5.4h-9.8l-1.6,5.4h-1.5l7.1-23.6h1.7l0.1,0.2L429.6,136.7z M428.5,136.1h0.3l-6.9-22.4
	h-0.3l5.3,16.9h-10.7l5.1-16.9h-0.2l-6.8,22.4h0.2l1.7-5.4h10.7L428.5,136.1z M417,130h9l-4.6-14.7L417,130z"/>
<path class="st0" d="M479.4,119.1v1.8h-0.9V119c0-2.8-1.3-5.1-5.1-5.1s-5.1,2.3-5.1,5.1v11.8c0,2.8,1.3,5.1,5.1,5.1s5.1-2.3,5.1-5.1
	v-2.5h0.9v2.5c0,3.2-1.6,5.8-6,5.8s-6-2.6-6-5.8v-11.7c0-3.2,1.6-5.8,6-5.8S479.4,115.9,479.4,119.1z"/>
<path class="st0" d="M473.4,136.9c-4,0-6.3-2.2-6.3-6.1v-11.7c0-3.9,2.3-6.1,6.3-6.1s6.4,2.2,6.4,6.1v2.1h-1.5V119
	c0-2.2-0.8-4.8-4.8-4.8s-4.8,2.6-4.8,4.8v11.8c0,2.2,0.8,4.8,4.8,4.8s4.8-2.6,4.8-4.8v-2.8h1.5v2.8
	C479.7,134.6,477.4,136.9,473.4,136.9z M473.4,113.6c-4.9,0-5.7,3.4-5.7,5.5v11.7c0,2.1,0.7,5.5,5.7,5.5s5.7-3.4,5.7-5.5v-2.2h-0.3
	v2.2c0,3.5-1.9,5.4-5.4,5.4s-5.4-1.9-5.4-5.4V119C468,115.5,469.9,113.6,473.4,113.6c3.6,0,5.4,1.9,5.4,5.4v1.5h0.3V119
	C479.1,117,478.4,113.6,473.4,113.6z"/>
<path class="st0" d="M497.8,130.8c0,2.8,1.2,5.1,5,5.1s5-2.4,5-5.1v-17.3h0.9v17.3c0,3.1-1.6,5.8-5.9,5.8s-6-2.7-6-5.8v-17.3h0.9
	L497.8,130.8z"/>
<path class="st0" d="M502.9,136.9c-4,0-6.3-2.2-6.3-6.2v-17.6h1.5v17.6c0,2.2,0.8,4.8,4.7,4.8s4.7-2.6,4.7-4.8v-17.6h1.5v17.6
	C509.1,134.6,506.8,136.9,502.9,136.9z M497.3,113.7v17c0,2.1,0.7,5.5,5.6,5.5s5.6-3.5,5.6-5.5v-17h-0.2v17c0,3.5-1.9,5.5-5.4,5.5
	s-5.4-1.9-5.4-5.5v-17L497.3,113.7z"/>
<path class="st0" d="M526.4,136.4v-23h0.9v22.3h9.7v0.7H526.4z"/>
<path class="st0" d="M537.3,136.7h-11.2v-23.6h1.5v22.3h9.6L537.3,136.7z M526.7,136.1h9.9V136H527v-22.3h-0.3L526.7,136.1z"/>
<path class="st0" d="M557.9,136.4v-22.3h-6.3v-0.7h13.5v0.7h-6.3v22.3H557.9z"/>
<path class="st0" d="M559.1,136.7h-1.5v-22.3h-6.3v-1.3h14.1v1.3h-6.3L559.1,136.7z M558.2,136.1h0.3v-22.3h6.3v-0.1H552v0.1h6.3
	L558.2,136.1z"/>
<path class="st0" d="M582.9,130.8c0,2.8,1.2,5.1,5,5.1s5-2.4,5-5.1v-17.3h0.9v17.3c0,3.1-1.6,5.8-5.9,5.8s-6-2.7-6-5.8v-17.3h0.9
	L582.9,130.8z"/>
<path class="st0" d="M588,136.9c-4,0-6.3-2.2-6.3-6.2v-17.6h1.5v17.6c0,2.2,0.8,4.8,4.7,4.8s4.7-2.6,4.7-4.8v-17.6h1.5v17.6
	C594.2,134.6,591.9,136.9,588,136.9z M582.4,113.7v17c0,2.1,0.7,5.5,5.6,5.5s5.6-3.5,5.6-5.5v-17h-0.2v17c0,3.5-1.9,5.5-5.4,5.5
	s-5.4-1.9-5.4-5.5v-17L582.4,113.7z"/>
<path class="st0" d="M617.2,113.4c4.3,0,5.9,2,5.9,5.2v2.1c0,2.8-1.4,4.4-4.6,4.8c3.2,0.4,4.6,2.1,4.6,4.6v3.6
	c-0.1,1,0.2,1.9,0.8,2.7h-1c-0.5-0.8-0.8-1.8-0.7-2.7v-3.6c0-3.4-2.5-4.3-6.3-4.3h-3.5v10.6h-0.9v-23L617.2,113.4z M615.9,125.1
	c4,0,6.3-0.8,6.3-4.4v-2.1c0-2.8-1.3-4.5-5-4.5h-4.8v11L615.9,125.1z"/>
<path class="st0" d="M624.6,136.7h-1.8l-0.1-0.1c-0.6-0.9-0.8-1.9-0.8-2.9v-3.6c0-2.8-1.8-4-6-4h-3.2v10.6h-1.5v-23.5h6
	c4.1,0,6.2,1.8,6.2,5.5v2.1c0,2.5-1.1,4.1-3.4,4.8c2.1,0.5,3.5,2.5,3.4,4.6v3.6c-0.1,0.9,0.2,1.8,0.7,2.5L624.6,136.7z M623.1,136.1
	h0.2c-0.4-0.8-0.5-1.6-0.5-2.4V130c0.2-1.8-0.9-3.4-2.6-3.9c1.5,0.7,2.5,2.2,2.3,3.9v3.6C622.5,134.5,622.7,135.3,623.1,136.1
	L623.1,136.1z M611.8,136.1h0.3v-10.6h4.2l0.6-0.1h-0.9h-3.8v-11.6h5.1c3.6,0,5.4,1.6,5.4,4.8v2.1c0.2,1.4-0.5,2.8-1.6,3.7
	c1.3-0.8,2.1-2.3,1.9-3.8v-2.1c0-3.3-1.8-4.8-5.6-4.8h-5.4L611.8,136.1z M612.7,124.8h3.2c4.4,0,6-1.1,6-4v-2.1
	c0-2.9-1.5-4.2-4.7-4.2h-4.5L612.7,124.8z"/>
<path class="st0" d="M643.8,131l-1.7,5.4h-0.8l6.9-23h1.3l7.1,23h-0.9L654,131H643.8z M644,130.4h9.9l-5-16.1L644,130.4z"/>
<path class="st0" d="M657,136.7h-1.5l-1.7-5.4h-9.8l-1.7,5.4h-1.5l7.1-23.6h1.7l0.1,0.2L657,136.7z M656,136.1h0.3l-6.9-22.4H649
	l5.3,16.9h-10.7l5.1-16.9h-0.2l-6.8,22.4h0.2l1.7-5.4h10.7L656,136.1z M644.4,130h9l-4.6-14.7L644.4,130z"/>
<path class="st0" d="M674.2,136.4v-23h0.9v22.3h9.6v0.7H674.2z"/>
<path class="st0" d="M685,136.7h-11.2v-23.6h1.5v22.3h9.6V136.7z M674.5,136.1h9.9V136h-9.6v-22.3h-0.3L674.5,136.1z"/>
</svg>
