<?xml version="1.0" encoding="utf-8"?>
<!-- Generator: Adobe Illustrator 20.1.0, SVG Export Plug-In . SVG Version: 6.00 Build 0)  -->
<svg version="1.1" id="Camada_1" xmlns="http://www.w3.org/2000/svg" xmlns:xlink="http://www.w3.org/1999/xlink" x="0px" y="0px"
	 viewBox="0 0 350.2 301" style="enable-background:new 0 0 350.2 301;" xml:space="preserve">
<style type="text/css">
	.st0{fill:#3D0626;}
</style>
<title>na-cuia-logo</title>
<path class="st0" d="M52.7,198.3v66h-3.2L8.8,207.3v57.1H4.5v-65.9h3.4l40.4,56.8v-56.9H52.7z"/>
<polygon class="st0" points="56.6,268.3 47.5,268.3 12.8,219.6 12.8,268.3 0.6,268.3 0.6,194.5 9.9,194.5 44.3,242.9 44.3,194.4 
	56.6,194.4 "/>
<path class="st0" d="M91.3,198.1l26.6,66.2h-4.7l-5.2-12.9c-3.4,1.3-9.3,2.8-17.9,2.8s-14.7-1.6-18-2.9l-5.1,13h-4.7l26.1-66.2H91.3
	z M106.4,247.5l-16.5-41.3l-16.2,41.2c0.6,0.2,1.3,0.5,2,0.7c4.7,1.4,9.5,2.1,14.4,2C98.1,250,103.5,248.6,106.4,247.5z"/>
<path class="st0" d="M123.7,268.3h-13.2l-4.8-12c-5.1,1.3-10.4,2-15.7,1.9c-5.3,0-10.6-0.6-15.7-2l-4.7,12H56.5l29.2-74.1H94
	L123.7,268.3z M78.9,244.9c3.7,0.9,7.4,1.3,11.2,1.2c3.7,0,7.4-0.3,11.1-1.1l-11.2-28.1L78.9,244.9z"/>
<path class="st0" d="M205.9,250.5c-1.1,1.8-2.5,3.4-4,4.9c-6,6.1-14.1,9.7-22.6,10H178c-8.6-0.3-16.7-3.9-22.7-10
	c-13.1-13.3-13.1-34.7,0-48c6-6.1,14.2-9.7,22.7-10h1.3c8.6,0.3,16.7,3.9,22.6,10c1.5,1.5,2.9,3.1,4,4.9l-4,1.8
	c-9-13-26.8-16.2-39.8-7.3c-8,5.6-12.7,14.8-12.3,24.6c-0.7,15.8,11.5,29.1,27.3,29.7c9.9,0.4,19.2-4.3,24.8-12.4L205.9,250.5z"/>
<path class="st0" d="M179.3,269.3h-1.4c-21-1.1-37.1-18.9-36-39.9c1-19.5,16.5-35,36-36h1.5c9.6,0.3,18.6,4.3,25.3,11.2
	c1.7,1.7,3.2,3.5,4.5,5.5l2.5,3.9l-11.2,5l-1.9-2.6c-4.6-6.6-12.1-10.5-20.1-10.7c-14.2-0.5-26.2,10.7-26.7,24.9
	c-0.5,14.2,10.7,26.2,24.9,26.7c8.6,0.3,16.9-3.8,21.9-10.8l1.9-2.6l11.2,5l-2.5,3.9c-1.3,2-2.9,3.9-4.6,5.6
	c-6.7,6.8-15.7,10.8-25.3,11.1L179.3,269.3z"/>
<path class="st0" d="M239,265.1c-11.9,0.1-21.6-9.5-21.7-21.4v-45.3h4.3v45.3c0.2,9.6,8.2,17.2,17.8,16.9
	c9.3-0.2,16.7-7.7,16.9-16.9v-45.3h4.3v45.3C260.6,255.6,250.9,265.2,239,265.1z"/>
<path class="st0" d="M239,269c-14.1,0.1-25.5-11.3-25.6-25.3v-49.3h12.2v49.3c0.2,7.4,6.4,13.3,13.8,13.1
	c7.1-0.2,12.9-5.9,13.1-13.1v-49.3h12.2v49.3C264.5,257.8,253.1,269.1,239,269z"/>
<path class="st0" d="M273.2,198.1h4.4v66.2h-4.4V198.1z"/>
<rect x="269.3" y="194.2" class="st0" width="12.3" height="74.1"/>
<path class="st0" d="M317.2,198.1l26.6,66.2h-4.7l-5.2-12.9c-3.5,1.3-9.3,2.8-17.9,2.8s-14.7-1.6-18-2.9l-5.1,13h-4.7l26.1-66.2
	H317.2z M332.3,247.5l-16.5-41.3l-16.2,41.2c0.6,0.2,1.3,0.5,2,0.7c4.7,1.4,9.5,2,14.4,1.9C324,250,329.4,248.6,332.3,247.5
	L332.3,247.5z"/>
<path class="st0" d="M349.6,268.3h-13.2l-4.8-12c-5.1,1.3-10.4,2-15.6,1.9c-5.3,0-10.6-0.6-15.7-2l-4.7,12h-13.2l29.2-74.1h8.3
	L349.6,268.3z M304.8,244.9c3.7,0.9,7.4,1.3,11.2,1.2c3.7,0,7.4-0.3,11-1.1l-11.2-28.1L304.8,244.9z"/>
<path class="st0" d="M4.8,282.2c3.4,0,4.7,1.6,4.7,4.1v1.7c0,2.3-1.1,3.5-3.6,3.9c2.6,0.3,3.6,1.6,3.6,3.7v2.9
	c-0.1,0.8,0.2,1.5,0.6,2.2H9.4c-0.4-0.6-0.6-1.4-0.6-2.2v-2.9c0-2.7-2-3.4-5-3.4H1v8.5H0.3v-18.3H4.8z M3.8,291.6c3.2,0,5-0.7,5-3.5
	v-1.7c0-2.2-1.1-3.6-4-3.6H1v8.8H3.8z"/>
<path class="st0" d="M10.7,300.8H9.2l-0.1-0.1c-0.5-0.7-0.7-1.5-0.6-2.3v-2.9c0-2.2-1.4-3.2-4.8-3.2H1.2v8.5H0V282h4.8
	c3.3,0,5,1.5,5,4.4v1.6c0.2,1.8-1,3.4-2.7,3.8c1.7,0.4,2.8,2,2.7,3.7v2.9c-0.1,0.7,0.1,1.4,0.6,2L10.7,300.8z M9.5,300.3h0.2
	c-0.3-0.6-0.4-1.3-0.4-1.9v-2.9c0.1-1.4-0.8-2.7-2.1-3.1c1.2,0.5,2,1.8,1.9,3.1v2.9C9,299.1,9.2,299.7,9.5,300.3z M0.5,300.3h0.2
	v-8.5H4l0.4-0.1H0.7v-9.3h4c2.8,0,4.3,1.3,4.3,3.9v1.7c0.1,1.1-0.3,2.2-1.3,2.9c1-0.6,1.6-1.8,1.5-3v-1.6c0-2.6-1.5-3.9-4.5-3.9H0.5
	L0.5,300.3z M1.2,291.3h2.6c3.5,0,4.8-0.9,4.8-3.2v-1.7c0-2.3-1.2-3.4-3.8-3.4H1.2L1.2,291.3z"/>
<path class="st0" d="M31.6,291v0.5h-6.8v8.5h8v0.5h-8.7v-18.3h8.8v0.5h-8v8.2H31.6z"/>
<path class="st0" d="M33.2,300.8h-9.3V282h9.3v1h-8v7.7h6.8v1h-6.8v8h8L33.2,300.8z M24.4,300.3h8.3l0,0h-8v-9h6.8h-6.8v-8.7h8v0
	h-8.2V300.3z"/>
<path class="st0" d="M47.6,282.2l5.4,17.7l5.4-17.7H59l-5.5,18.3h-1.1l-5.6-18.3H47.6z"/>
<path class="st0" d="M53.7,300.8h-1.5L46.5,282h1.3l5.2,17l5.1-17h1.2L53.7,300.8z M53.1,300.3h0.2l5.3-17.8h-0.2L53.1,300.3z
	 M52.6,300.3h0.2l-5.4-17.8h-0.2L52.6,300.3z"/>
<path class="st0" d="M73.7,282.2v18.3H73v-18.3H73.7z"/>
<path class="st0" d="M74,300.8h-1.3V282H74V300.8z M73.3,300.3h0.2v-17.8h-0.2V300.3z"/>
<path class="st0" d="M97.3,286.7v0.3h-0.7v-0.4c0-2.2-1-4-4-4s-4,1.8-4,4c0,4.7,8.8,4.6,8.8,9.5c0,2.5-1.3,4.6-4.8,4.6
	s-4.8-2-4.8-4.6v-0.9h0.7v0.9c0,2.2,1.1,4,4.1,4s4.1-1.8,4.1-4c0-4.6-8.8-4.5-8.8-9.5c0-2.7,1.4-4.5,4.7-4.5
	C96,282.1,97.3,284.1,97.3,286.7z"/>
<path class="st0" d="M92.5,301c-3.2,0-5-1.8-5-4.8V295h1.2v1.2c0,1.7,0.7,3.7,3.8,3.7s3.8-2,3.8-3.7c0-2.1-2-3.2-4.1-4.3
	c-2.3-1.2-4.7-2.5-4.7-5.2c0-3.1,1.8-4.8,5-4.8s5,1.8,5,4.8v0.6h-1.3v-0.6c0-1.7-0.7-3.8-3.8-3.8s-3.8,2-3.8,3.7
	c0,2.2,2,3.2,4.2,4.4s4.6,2.5,4.6,5.1C97.6,297.9,96.9,301,92.5,301z M88,295.5v0.6c0,2,0.8,4.3,4.5,4.3s4.6-2.3,4.6-4.3
	c0-2.4-2.1-3.5-4.4-4.7s-4.4-2.4-4.4-4.8c0-2.7,1.5-4.2,4.3-4.2s4.3,1.5,4.3,4.3v0.1h0.2v-0.1c0-2-0.8-4.3-4.5-4.3s-4.5,2.3-4.5,4.3
	c0,2.4,2.1,3.6,4.4,4.8s4.4,2.3,4.4,4.8c0,2.7-1.5,4.2-4.3,4.2s-4.3-1.5-4.3-4.2v-0.7L88,295.5z"/>
<path class="st0" d="M115.8,300.6v-17.8h-5v-0.5h10.8v0.5h-5v17.8H115.8z"/>
<path class="st0" d="M116.8,300.8h-1.2V283h-5v-1h11.3v1h-5L116.8,300.8z M116,300.3h0.2v-17.8h5v0H111v0h5L116,300.3z"/>
<path class="st0" d="M135.7,296.3l-1.3,4.3h-0.7l5.5-18.4h1l5.7,18.4h-0.7l-1.3-4.3H135.7z M135.9,295.7h7.9l-4-12.8L135.9,295.7z"
	/>
<path class="st0" d="M146.3,300.8h-1.2l-1.3-4.3h-7.8l-1.3,4.3h-1.2l5.7-18.8h1.4l0.1,0.2L146.3,300.8z M145.4,300.3h0.2l-5.5-17.9
	h-0.2l4.2,13.5h-8.6l4.1-13.5h-0.2l-5.4,17.9h0.1l1.3-4.3h8.5L145.4,300.3z M136.2,295.5h7.2l-3.6-11.7L136.2,295.5z"/>
<path class="st0" d="M186.1,286.7v1.4h-0.7v-1.4c0-2.2-1-4.1-4.1-4.1s-4.1,1.9-4.1,4.1v9.4c0,2.2,1,4.1,4.1,4.1s4.1-1.8,4.1-4.1v-2
	h0.7v2c0,2.5-1.3,4.6-4.8,4.6s-4.8-2.1-4.8-4.6v-9.3c0-2.5,1.3-4.6,4.8-4.6S186.1,284.2,186.1,286.7z"/>
<path class="st0" d="M181.2,301c-3.2,0-5-1.8-5-4.9v-9.3c0-3.1,1.8-4.9,5-4.9s5.1,1.8,5.1,4.9v1.7h-1.2v-1.7c0-1.8-0.7-3.8-3.8-3.8
	s-3.9,2.1-3.9,3.8v9.4c0,1.7,0.7,3.8,3.9,3.8s3.8-2.1,3.8-3.8v-2.3h1.2v2.2C186.3,299.2,184.5,301,181.2,301z M181.2,282.4
	c-3.9,0-4.5,2.8-4.5,4.4v9.3c0,1.6,0.6,4.4,4.5,4.4s4.6-2.8,4.6-4.4v-1.7h-0.2v1.8c0,2.8-1.5,4.3-4.3,4.3s-4.4-1.5-4.4-4.3v-9.4
	C176.9,283.9,178.5,282.4,181.2,282.4c2.9,0,4.4,1.6,4.4,4.4v1.2h0.2v-1.2C185.8,285.1,185.2,282.4,181.2,282.4z"/>
<path class="st0" d="M200.8,296.1c0,2.2,1,4.1,4,4.1s4-1.9,4-4.1v-13.8h0.7V296c0,2.5-1.2,4.7-4.7,4.7s-4.7-2.1-4.7-4.7v-13.8h0.7
	L200.8,296.1z"/>
<path class="st0" d="M204.8,301c-3.2,0-5-1.8-5-4.9v-14h1.2v14.1c0,1.8,0.7,3.9,3.8,3.9s3.8-2.1,3.8-3.9V282h1.2v14
	C209.8,299.2,207.9,301,204.8,301z M200.3,282.5V296c0,1.6,0.6,4.4,4.5,4.4s4.5-2.8,4.5-4.4v-13.5h-0.2v13.6c0,2.8-1.5,4.4-4.3,4.4
	s-4.3-1.5-4.3-4.4v-13.6H200.3z"/>
<path class="st0" d="M223.6,300.6v-18.3h0.7V300h7.7v0.5L223.6,300.6z"/>
<path class="st0" d="M232.2,300.8h-8.9V282h1.2v17.8h7.7V300.8z M223.8,300.3h7.9l0,0H224v-17.8h-0.2L223.8,300.3z"/>
<path class="st0" d="M248.7,300.6v-17.8h-5v-0.5h10.8v0.5h-5v17.8H248.7z"/>
<path class="st0" d="M249.7,300.8h-1.2V283h-5v-1h11.2v1h-5L249.7,300.8z M249,300.3h0.2v-17.8h5v0H244v0h5L249,300.3z"/>
<path class="st0" d="M268.7,296.1c0,2.2,1,4.1,4,4.1s4-1.9,4-4.1v-13.8h0.7V296c0,2.5-1.2,4.7-4.7,4.7s-4.7-2.1-4.7-4.7v-13.8h0.7
	L268.7,296.1z"/>
<path class="st0" d="M272.7,301c-3.2,0-5-1.8-5-4.9v-14h1.3v14.1c0,1.8,0.7,3.9,3.8,3.9s3.8-2.1,3.8-3.9V282h1.2v14
	C277.7,299.2,275.9,301,272.7,301z M268.2,282.5V296c0,1.6,0.6,4.4,4.5,4.4s4.5-2.8,4.5-4.4v-13.5H277v13.6c0,2.8-1.5,4.4-4.3,4.4
	s-4.3-1.5-4.3-4.4v-13.6H268.2z"/>
<path class="st0" d="M296,282.2c3.4,0,4.7,1.6,4.7,4.1v1.7c0,2.3-1.1,3.5-3.6,3.9c2.6,0.3,3.6,1.6,3.6,3.7v2.9
	c-0.1,0.8,0.2,1.5,0.6,2.2h-0.8c-0.4-0.6-0.6-1.4-0.6-2.2v-2.9c0-2.7-2-3.4-5-3.4h-2.8v8.5h-0.7v-18.3H296z M295,291.6
	c3.2,0,5-0.7,5-3.5v-1.7c0-2.2-1.1-3.6-4-3.6h-3.8v8.8H295z"/>
<path class="st0" d="M302,300.8h-1.5l-0.1-0.1c-0.5-0.7-0.7-1.5-0.6-2.3v-2.9c0-2.2-1.4-3.2-4.8-3.2h-2.6v8.5h-1.2V282h4.8
	c3.3,0,5,1.5,5,4.4v1.6c0.2,1.8-1,3.4-2.7,3.8c1.7,0.4,2.8,2,2.7,3.7v2.9c-0.1,0.7,0.1,1.4,0.6,2L302,300.8z M300.8,300.3h0.2
	c-0.3-0.6-0.4-1.3-0.4-1.9v-2.9c0.1-1.4-0.8-2.7-2.1-3.1c1.2,0.5,2,1.8,1.9,3.1v2.9C300.3,299.1,300.4,299.7,300.8,300.3
	L300.8,300.3z M291.8,300.3h0.2v-8.5h3.3l0.4-0.1H292v-9.3h4c2.8,0,4.3,1.3,4.3,3.9v1.7c0.1,1.1-0.4,2.2-1.3,2.9
	c1-0.6,1.6-1.8,1.5-3v-1.6c0-2.6-1.5-3.9-4.5-3.9h-4.3L291.8,300.3z M292.5,291.3h2.5c3.5,0,4.8-0.9,4.8-3.2v-1.7
	c0-2.3-1.2-3.4-3.8-3.4h-3.5L292.5,291.3z"/>
<path class="st0" d="M317.3,296.3l-1.3,4.3h-0.7l5.5-18.4h1l5.7,18.4h-0.7l-1.3-4.3H317.3z M317.4,295.7h7.9l-4-12.8L317.4,295.7z"
	/>
<path class="st0" d="M327.9,300.8h-1.2l-1.3-4.3h-7.8l-1.3,4.3H315l5.7-18.8h1.4l0,0.2L327.9,300.8z M327,300.3h0.2l-5.5-17.9h-0.2
	l4.2,13.5h-8.6l4.1-13.5H321l-5.4,17.9h0.1l1.3-4.3h8.5L327,300.3z M317.8,295.5h7.2l-3.6-11.7L317.8,295.5z"/>
<path class="st0" d="M341.5,300.6v-18.3h0.7V300h7.7v0.5L341.5,300.6z"/>
<path class="st0" d="M350.2,300.8h-8.9V282h1.2v17.8h7.7V300.8z M341.8,300.3h7.9l0,0H342v-17.8h-0.2L341.8,300.3z"/>
<path class="st0" d="M294.6,32.1c-0.8,3.2-1.4,6.2-2.2,9.1c-3.8,15.6-9.2,30.8-16,45.4c-6.8,14.4-15.1,27.8-26,39.5
	c-11.4,12.3-24.7,21.7-40.6,27.3c-1.6,0.6-3.3,1.1-4.9,1.6c-1.8,0.5-3.5,1-5.4,1.5c-2.9-3.9-5.9-7.6-8.5-11.6
	c-2.4-3.7-2.2-3.9,1.8-5.5c10.6-4.4,21-9.2,30.6-15.6c6.1-4.2,11.9-9,17.2-14.2c8-7.3,15.2-15.5,21.4-24.4c5.2-7.4,9.3-15.4,12.2-24
	c0.9-2.6,2-5.2,2.7-7.9c0.5-2.2,0.1-4.4-0.9-6.4c-1.4,1.3-2.5,3-2.9,4.9c-2.3,11-7.9,20.5-13.8,29.8c-12.5,19.7-29.4,34.8-49.8,46
	c-6.3,3.5-13,6.3-19.5,9.4c-0.6,0.3-1.4,0.3-2-0.2c-4.6-2.7-7.5-6.8-9.6-11.5c-0.6-1.3-1.2-2.6-1.8-4.1
	c34.3-13.5,57.5-37.9,70.6-72.1c-2.1-0.4-4.1,0.7-5.1,2.6c-5.3,13.5-13.2,25.9-23.3,36.4c-11.1,11.8-24.2,20.8-38.6,28.1
	c-1.4,0.7-2.9,1.2-4.4,1.6c-2.1,0.7-4.3-0.2-5.4-2.1c-2.4-3.8-4.6-7.7-7-11.6l1.4-0.8c11.4-6.1,21.9-13.3,31-22.6
	c8.7-8.8,15.4-19.4,19.8-31c0.1-0.3,0.2-0.6,0.3-0.8c-2.8,0.1-5.2,1.9-6,4.6c-5.8,15.5-16.8,26.8-30,36.2c-4.3,3.1-8.8,5.8-13.3,8.6
	c-0.9,0.5-1.9,0.8-2.9,1c-1.9,0.3-3.7-0.6-4.8-2.2c-1.9-2.5-3.7-5.1-5.6-7.6c-0.7-0.9-1.4-1.7-2-2.7c-1.1-1.6-0.9-2.8,0.8-3.8
	c0.6-0.4,1.2-0.7,1.8-0.9c7.8-2.7,14-7.6,19.4-13.7c2.6-2.9,5.1-5.9,7.4-9c2.2-3,3.2-6.7,2.8-10.3c-1.4,1.3-3.1,1.9-3.7,3.8
	c-1.8,6-5.6,10.6-10.1,14.7c-4.5,4.1-9.4,7.7-14.6,10.9c-4.3,2.6-6,2.3-9.4-1.3c-1.7-1.8-3.3-3.8-4.8-5.8c-1.9-2.4-1.6-3.8,1-5.4
	c2.6-1.6,5.4-3,8-4.8c3.4-2.3,6.2-5.2,7.2-9.4c0.2-0.6,0.3-1.3,0.4-1.9c0-0.3,0-0.5,0-0.8c-1.4,1.3-2.6,2.4-3.8,3.5
	c-3.3,3.2-6.7,6.4-10.8,8.8c-1.2,0.7-2.5,1.3-3.8,1.7c-2.2,0.9-4.8,0-6-2c-0.8-1.2-1.5-2.4-2.3-3.7c-1.8-3.1-4.2-5.8-7.1-7.8
	c-0.5-0.3-1-0.6-1.6-1c-0.4,2-0.8,3.9-1.3,5.8c-1.8,6.5-4.4,12.7-7.7,18.5c-4.5,8-9,16.1-13.8,24c-2.7,4.5-6.1,8.6-9.3,13.1
	c-0.6-0.8-1-1.4-1.4-2c-3.6-6.2-7.2-12.3-10.8-18.5c-0.4-0.5-0.4-1.3,0-1.8c2.9-4.9,5.6-9.9,8.4-14.9c1.9-3.5,3.8-7,5.4-10.5
	c1.9-3.7,2.1-8,0.5-11.8c-0.2,0.5-0.4,0.8-0.5,1.1c-2.2,5.7-4.3,11.4-6.6,16.9c-1.1,2.4-2.4,4.7-3.9,6.9c-1.8,3-3.7,5.9-5.7,9
	c-7.9-16.9-14.1-34.6-18.4-52.8h28.8l0.1-0.3L69.1,16.2l-8.5,10.9c1.7,0,3.2,0,4.7,0c2,0,4-0.1,6-0.2c0.3-0.1,0.6-0.2,0.9-0.4
	c-0.3-0.2-0.5-0.3-0.8-0.5c-2-0.4-4-0.8-6.2-1.2l4.1-5.9l11.5,10.8c-2.2,0.1-4,0.2-5.8,0.2c-5.9,0.1-11.8,0.3-17.7,0.4
	c-0.3,0-0.8-0.2-0.8-0.3c0-0.6-0.2-1.4,0.1-1.9c1.3-1.9,2.8-3.6,4.2-5.4l7.8-10l22.1,17l22-24.6H68l20.6,16.4l10.9-11.2
	c-0.6,0-1.5,0-2.3,0c-3.7,0.2-7.4,0.3-11.1,0.5c-0.4,0.1-0.7,0.2-1,0.4c0.3,0.2,0.6,0.3,1,0.4c3,0,6,0,9.1,0l-6.4,7.1L73.4,7.4h34.2
	l-17,20L68.2,9.9L55.5,26.1c-0.4-2-0.9-3.7-1.1-5.4c-0.1-0.4,0.4-0.9,0.7-1.3c3.8-4.3,7.7-8.6,11.5-12.9c0.3-0.3,0.6-0.7,1.2-1.3
	h-1.5c-4.5,0-9,0-13.6,0c-0.8,0-1.3-0.1-1-1.1h247.5c0,0.8,0,0.8-3.5,1.3c0.9,0.7,1.6,1.3,2.4,1.9c0.6,0.3,0.8,1,0.6,1.6
	c-0.2,0.9-0.3,1.9-0.5,3l-2.5-1.9l-17.5,22.2L294.6,32.1z M250.6,12.9l22.1,17l21.9-24.6H250l20.7,16.4l10.9-11.3l-4.1,0.2
	c-3.2,0.1-6.4,0.3-9.6,0.4c-0.3,0-0.5,0.3-0.8,0.5c0.3,0.1,0.6,0.4,0.8,0.4c1.6,0,3.3-0.1,4.9-0.1c1.5,0,2.9,0,4.6,0l-6.5,7.2
	L255.5,7.4h34.1l-16.9,19.9L250.3,9.9l-17.5,22.1h35.3l-16.9-15.8l-8.5,10.9c0.4,0,0.6,0.1,0.8,0.1c3.3-0.1,6.6-0.1,9.8-0.2
	c0.3-0.1,0.6-0.2,0.9-0.3c-0.3-0.2-0.6-0.4-0.9-0.6c-0.2-0.1-0.4-0.1-0.6-0.1l-5.5-1l4.1-5.9l11.5,10.8l-26,0.6L250.6,12.9z
	 M141.8,32H177l-16.9-15.8L151.7,27c3.6,0,7,0,10.4,0c0.3-0.1,0.7-0.2,1-0.3c-0.3-0.3-0.6-0.5-1-0.6c-1.9-0.4-3.9-0.7-6-1.1l4.1-6
	l11.5,10.8l-26,0.6l13.7-17.5l22.1,17l21.9-24.6H159l20.7,16.4l10.9-11.3l-4,0.2c-3.1,0.1-6.3,0.2-9.5,0.4c-0.4,0.1-0.7,0.2-1,0.4
	c0.4,0.1,0.7,0.3,1.1,0.4c0.1,0,0.2,0,0.4,0h8.8l-6.4,7.1L164.4,7.5h34.1l-16.9,19.9L159.3,9.9L141.8,32z M118.9,7.4h34.2l-17,19.9
	L113.7,9.9L96.3,32h35.2l-16.9-15.8l-8.5,10.9c1.4,0,2.6,0,3.7,0c2.4,0,4.7-0.1,7.1-0.2c0.2,0,0.5-0.3,0.7-0.4
	c-0.2-0.2-0.4-0.3-0.6-0.4c-0.3-0.1-0.5-0.1-0.8-0.2l-5.6-1.1l4.1-5.9l11.5,10.8l-26,0.6L114,12.9l22.1,17l21.9-24.6h-44.6L134,21.5
	l11.2-11.2c-4.7,0.2-9.4,0.4-14.1,0.6c-0.2,0-0.4,0.3-0.6,0.4c0.2,0.2,0.4,0.3,0.6,0.4c0.3,0,0.6,0,0.8,0h8.8l-6.4,7.1L118.9,7.4z
	 M244.1,7.4l-17,20L204.8,9.9l-17.5,22.2h35.3l-16.9-15.9L197.3,27c3.5,0,6.8,0,10.2,0c0.4-0.1,0.8-0.2,1.2-0.4
	c-0.4-0.2-0.8-0.4-1.2-0.6c-0.1,0-0.2,0-0.4,0l-5.5-1l4.1-6l11.6,10.8l-26,0.6L205,12.9l22.1,17l22-24.6h-44.5l20.6,16.3l11-11.1
	c0,0-0.1-0.1-0.1-0.1c-4.6,0.2-9.2,0.3-13.8,0.6c-0.3,0.1-0.6,0.2-0.8,0.4l0.1,0.3h10.4l-6.5,7.2L209.9,7.4L244.1,7.4z"/>
<path class="st0" d="M124.7,56.4c2.2,2.7,4.4,5.1,6.3,7.8c7.6,10.6,15.1,21.2,22.6,31.9c4.4,6.3,8.8,12.6,13.1,19
	c1.7,2.5,3.2,5.2,5,7.7c2,2.8,4.3,5.4,6.3,8.1c2.2,3,4.4,6,6.6,9c0.9,1.3,1.6,2.7,2.4,3.9c2.8,4.2,5.6,8.4,8.4,12.6l0.6,0.9
	c-2.3,0.4-4.5,0.9-6.7,1c-5.2,0.4-10.4,0.5-15.5,0.8c-0.6,0.1-1.2-0.3-1.6-0.8c-12.1-16.3-24.2-32.5-36.2-48.8
	c-6.4-8.7-12.4-17.7-18.6-26.5c-0.2-0.3-0.4-0.7-0.7-1c-1.6-2.1-1.7-4.9-0.4-7.1c2.8-5.6,5.3-11.4,7.9-17.1L124.7,56.4z"/>
<path class="st0" d="M112.8,83.3c1.1,0.2,1.5,0.9,2,1.8c1.8,3.1,3.6,6.2,5.8,9.1c9.5,13.1,19.2,26.1,28.7,39.3
	c5.8,8,11.3,16.1,16.9,24.2c0.3,0.4,0.4,0.7,0.8,1.4c-2.4-0.3-4.5-0.5-6.6-0.8c-10.2-1.5-20-4.7-29.1-9.4c-0.6-0.4-1.2-0.9-1.6-1.5
	c-6.3-8.8-12.6-17.7-19-26.5c-3.3-4.4-6.7-8.7-10.2-13c-0.5-0.5-0.7-1.3-0.5-2c1.3-4.9,4-9,6.7-13.2L112.8,83.3z"/>
<path class="st0" d="M122.8,143.5c-12.4-7.9-22.4-18.3-31-30.2c0.3-0.4,0.7-0.8,1-1.1l4-4.4L122.8,143.5z"/>
<path class="st0" d="M288.2,27.1h7.3c0,0.1,0.1,0.2,0.1,0.3c-0.4,2.7-0.4,2.7-3.1,2.8c-3,0.1-6,0.1-9,0.2c-0.3,0-0.5,0-1-0.1L296,13
	c2,0.9,2.1,1,1.5,3.5c-0.5,0.1-1,0.1-1.2,0.3C293.6,20.1,291,23.5,288.2,27.1z"/>
<path class="st0" d="M53.8,17.9c-0.3-1.8-0.7-3.3-0.9-4.9c0-0.3,0.3-0.7,0.6-1c0.5-0.5,1-0.9,1.7-1.6h-2.7L52,7.4h10.7L53.8,17.9z"
	/>
<path class="st0" d="M297.1,19.3l-1.1,6.2l-3.3-0.6l4-5.7L297.1,19.3z"/>
</svg>
