<svg id="Camada_1" data-name="Camada 1" xmlns="http://www.w3.org/2000/svg" viewBox="0 0 616.7 95.12"><defs><style>.cls-1{fill:#f5e7b4;}</style></defs><title>na-cuia-mini-logo</title><path class="cls-1" d="M148.7,17.24c-.49,1.95-.83,3.75-1.32,5.56a150.06,150.06,0,0,1-9.8,27.81,94.71,94.71,0,0,1-15.92,24.19A61.09,61.09,0,0,1,96.84,91.49c-1,.35-2,.7-3,1s-2.16.63-3.27.9C88.84,91,87,88.71,85.37,86.28S84,83.91,86.48,82.87a110.05,110.05,0,0,0,18.7-9.52,78.29,78.29,0,0,0,10.5-8.69,95.43,95.43,0,0,0,13.14-14.88,60.7,60.7,0,0,0,7.44-14.67c.56-1.6,1.25-3.2,1.67-4.87a5.81,5.81,0,0,0-.56-3.89,5.82,5.82,0,0,0-1.81,3c-1.39,6.74-4.8,12.58-8.41,18.28A80.65,80.65,0,0,1,96.7,75.78c-3.89,2.16-7.93,3.82-12,5.77a1.18,1.18,0,0,1-1.25-.14,15,15,0,0,1-5.91-7c-.35-.83-.7-1.6-1.11-2.5,21-8.27,35.18-23.15,43.17-44.08a2.94,2.94,0,0,0-3.13,1.6,68.71,68.71,0,0,1-14.25,22.32A84.85,84.85,0,0,1,78.62,68.9a12.07,12.07,0,0,1-2.64,1,2.73,2.73,0,0,1-3.27-1.32c-1.46-2.29-2.85-4.66-4.31-7.09l.83-.49a77.32,77.32,0,0,0,19-13.83,55.65,55.65,0,0,0,12.1-19,1.77,1.77,0,0,0,.14-.49,4,4,0,0,0-3.62,2.78C93.29,40,86.55,46.86,78.48,52.63c-2.64,1.88-5.42,3.55-8.13,5.21a4.32,4.32,0,0,1-1.81.63,2.87,2.87,0,0,1-2.92-1.32c-1.18-1.53-2.29-3.13-3.41-4.66-.42-.56-.83-1-1.25-1.6a1.37,1.37,0,0,1,.49-2.29A5.54,5.54,0,0,1,62.56,48,28.49,28.49,0,0,0,74.38,39.7C76,38,77.44,36.08,78.9,34.2a9,9,0,0,0,1.74-6.33c-.83.83-1.88,1.18-2.29,2.36-1.11,3.68-3.41,6.47-6.19,9a59.61,59.61,0,0,1-9,6.6c-2.64,1.6-3.68,1.46-5.77-.76-1-1.11-2-2.29-3-3.55-1.11-1.46-1-2.29.63-3.27s3.34-1.88,4.94-2.92a10.05,10.05,0,0,0,4.45-5.77c.07-.35.14-.76.21-1.18v-.49c-.83.76-1.6,1.46-2.29,2.16a31.93,31.93,0,0,1-6.54,5.35,16.74,16.74,0,0,1-2.29,1,3,3,0,0,1-3.68-1.25c-.49-.7-.9-1.46-1.39-2.22a14.44,14.44,0,0,0-4.38-4.8,5.91,5.91,0,0,0-1-.63c-.28,1.25-.49,2.43-.76,3.55a47.87,47.87,0,0,1-4.8,11.33c-2.78,4.94-5.49,9.87-8.41,14.67-1.67,2.71-3.75,5.28-5.7,8-.35-.49-.63-.83-.83-1.18-2.22-3.75-4.38-7.58-6.6-11.33a1.07,1.07,0,0,1,0-1.11c1.74-3,3.48-6,5.14-9.11,1.11-2.09,2.29-4.24,3.34-6.47a8.49,8.49,0,0,0,.28-7.23,6.46,6.46,0,0,1-.35.7c-1.32,3.48-2.64,7-4,10.36A36.41,36.41,0,0,1,18,44c-1.11,1.81-2.29,3.62-3.48,5.56A165.54,165.54,0,0,1,3.26,17.17H20.85l.07-.21L10.77,7.51,5.55,14.18H8.4c1.25,0,2.43-.07,3.68-.07a1.4,1.4,0,0,0,.56-.28,1.74,1.74,0,0,0-.49-.28c-1.25-.28-2.43-.49-3.75-.7l2.5-3.62,7,6.6c-1.32.07-2.43.07-3.55.14-3.68,0-7.3.07-10.91.21C3.33,16.2,3,16.06,3,16c0-.35-.14-.9.07-1.11.83-1.11,1.67-2.22,2.57-3.34l4.8-6.12L24,15.78,37.33.7H10l12.65,10,6.67-6.81H27.87c-2.29.07-4.52.21-6.81.28a2.47,2.47,0,0,0-.63.28,2.47,2.47,0,0,0,.63.28h5.56L22.8,9l-9.45-7H34.27L23.84,14.32,10.21,3.62,2.36,13.49a31.77,31.77,0,0,1-.7-3.34,1.41,1.41,0,0,1,.42-.76C4.44,6.74,6.81,4.1,9.17,1.53c.21-.21.35-.42.7-.83H.69C.2.7-.15.63.06,0H151.48c0,.49,0,.49-2.16.76.56.42,1,.83,1.46,1.18a.93.93,0,0,1,.42,1,14.07,14.07,0,0,0-.28,1.81l-1.46-1.11L138.76,17.17h9.94Zm-27-11.82,13.56,10.43L148.7.83H121.45l12.65,10L140.77,4l-2.5.14c-1.95.07-3.89.14-5.84.28-.21,0-.35.21-.49.28.21.07.35.21.49.21,1,0,2-.07,3-.07h2.78l-4,4.24-9.45-7h20.86L135.21,14.32,121.59,3.62,110.88,17.17h21.55L122.14,7.51l-5.21,6.67a3.92,3.92,0,0,1,.49.07c2-.07,4-.07,6-.14l.56-.21a1.51,1.51,0,0,0-.56-.35.63.63,0,0,0-.35-.07l-3.34-.63,2.5-3.55,7.09,6.6-15.92.35ZM55.19,17.17H76.74L66.46,7.51,61.31,14h6.4l.63-.21a2.82,2.82,0,0,0-.63-.35c-1.18-.28-2.36-.42-3.68-.7l2.57-3.62,7,6.6-15.92.35L66,5.42,79.59,15.78,93,.76H65.76l12.65,10,6.6-7L82.51,4l-5.77.21a2.47,2.47,0,0,0-.63.28c.21.07.42.21.63.28h5.63L78.48,9,69,2.09H89.88L79.53,14.32,65.9,3.62Zm-14-15.09H62.14L51.72,14.32,38,3.62,27.31,17.17H48.87L38.58,7.51l-5.21,6.67h2.29c1.46,0,2.92-.07,4.31-.07.14,0,.28-.14.42-.28-.14-.07-.21-.21-.35-.28s-.35-.07-.49-.14l-3.41-.63,2.5-3.55,7.09,6.6-15.92.35L38.23,5.42,51.72,15.78,65.13.76H37.88l12.58,9.94,6.81-6.81c-2.85.07-5.7.21-8.62.35-.14,0-.21.21-.35.28.14.07.21.21.35.21h5.91L50.67,9Zm76.61,0L107.47,14.32,93.71,3.62,83,17.17h21.62L94.26,7.44,89.12,14h6.26l.76-.21a3.25,3.25,0,0,0-.7-.35h-.21l-3.34-.63,2.5-3.55,7.09,6.6-16,.35L93.92,5.42l13.56,10.36,13.42-15H93.64l12.58,10L113,4l-.07-.07c-2.78.14-5.63.21-8.41.35a3.39,3.39,0,0,0-.49.21l.07.21h6.33l-4,4.38-9.45-7Z"/><path class="cls-1" d="M44.76,32c1.32,1.67,2.71,3.13,3.82,4.8,4.66,6.47,9.25,13,13.77,19.54,2.71,3.82,5.35,7.72,8,11.61,1,1.53,1.95,3.2,3.06,4.73,1.25,1.74,2.57,3.27,3.89,5s2.71,3.68,4,5.49c.56.76,1,1.6,1.53,2.43,1.67,2.57,3.41,5.14,5.08,7.72l.35.56c-1.39.21-2.78.56-4.1.63-3.2.21-6.33.35-9.52.49a.93.93,0,0,1-1-.49c-7.37-9.94-14.81-19.88-22.18-29.89-3.89-5.35-7.58-10.78-11.4-16.2l-.42-.63a3.88,3.88,0,0,1-.21-4.38c1.74-3.41,3.27-7,4.8-10.43Z"/><path class="cls-1" d="M37.46,48.46a1.72,1.72,0,0,1,1.18,1.11,57.91,57.91,0,0,0,3.55,5.56c5.84,8.06,11.75,16,17.59,24.05,3.55,4.87,6.88,9.87,10.36,14.81a6.72,6.72,0,0,1,.49.83c-1.46-.14-2.71-.28-4-.49a55.67,55.67,0,0,1-17.8-5.77,2.46,2.46,0,0,1-1-.9c-3.89-5.42-7.72-10.85-11.61-16.2-2-2.71-4.17-5.35-6.26-8a1.21,1.21,0,0,1-.28-1.25,28.48,28.48,0,0,1,4.1-8.06Z"/><path class="cls-1" d="M43.58,85.37a70.63,70.63,0,0,1-19-18.49,6.27,6.27,0,0,1,.63-.7l2.43-2.64Z"/><path class="cls-1" d="M144.74,14.11h4.52c0,.07.07.14.07.21C149,16,149,16,147.38,16.06s-3.68.07-5.49.14a2.39,2.39,0,0,1-.63-.07l8.27-10.64c1.25.56,1.25.63,1,2.16-.28.07-.63.07-.76.21C148.07,9.87,146.47,12,144.74,14.11Z"/><path class="cls-1" d="M1.31,8.48c-.21-1.11-.42-2-.56-3,0-.21.21-.42.35-.56a14.67,14.67,0,0,1,1-1H.48L.27,2.09H6.81Z"/><path class="cls-1" d="M150.23,9.39l-.7,3.75-2-.35L150,9.32Z"/><path class="cls-1" d="M244.8,6.12v82.7h-4l-50.9-71.5v71.5h-5.5V6.22h4.2l50.6,71.2V6.12Z"/><polygon class="cls-1" points="249.7 93.83 238.3 93.83 194.8 32.83 194.8 93.83 179.5 93.83 179.5 1.32 191.2 1.32 234.3 62.02 234.3 1.23 249.7 1.23 249.7 93.83"/><path class="cls-1" d="M293.2,5.92l33.3,83h-5.9l-6.5-16.2c-4.3,1.7-11.6,3.5-22.5,3.5s-18.4-2-22.6-3.7l-6.3,16.3h-5.9l32.7-83Zm18.9,61.8L291.4,16l-20.3,51.6c.7.2,1.6.6,2.5.8a57.6,57.6,0,0,0,18,2.5c10.1,0,16.8-1.8,20.5-3.2Z"/><path class="cls-1" d="M333.8,93.82H317.3l-6-15a76.25,76.25,0,0,1-19.6,2.4,72.83,72.83,0,0,1-19.7-2.4l-6,15H249.5L286.1,1h10.4Zm-56.2-29.3a55.12,55.12,0,0,0,14,1.5,59.11,59.11,0,0,0,13.9-1.4l-14.1-35.2Z"/><path class="cls-1" d="M436.6,71.52a32.51,32.51,0,0,1-5,6.1,41.56,41.56,0,0,1-28.4,12.5h-1.6a42.2,42.2,0,0,1-28.5-12.5,42.79,42.79,0,0,1,0-60.2,42.21,42.21,0,0,1,28.4-12.5h1.6a42.21,42.21,0,0,1,28.4,12.5,36.05,36.05,0,0,1,5,6.1l-5,2.3a35.76,35.76,0,0,0-65.2,21.7,35.75,35.75,0,0,0,65.2,21.7Z"/><path class="cls-1" d="M403.3,95.12h-1.8A47.59,47.59,0,0,1,369.7,14,47.06,47.06,0,0,1,401.5,0h1.9a46.38,46.38,0,0,1,31.7,14,37.35,37.35,0,0,1,5.7,6.9l3.1,4.9-14,6.2-2.3-3.3a31.56,31.56,0,0,0-25.1-13.4c-17.2.4-31.1,14.8-31.1,32.2s13.9,31.9,31.1,32.4a32,32,0,0,0,25.2-13.5l2.3-3.3,14,6.2-3.1,4.8a42.54,42.54,0,0,1-5.7,7,46.85,46.85,0,0,1-31.9,14Z"/><path class="cls-1" d="M478.2,89.82A27.08,27.08,0,0,1,451,63V6.22h5.4V63A21.8,21.8,0,1,0,500,63V6.22h5.4V63A27,27,0,0,1,478.2,89.82Z"/><path class="cls-1" d="M478.2,94.72A31.92,31.92,0,0,1,446.1,63V1.32h15.3V63A16.8,16.8,0,0,0,495,63V1.32h15.3V63A31.92,31.92,0,0,1,478.2,94.72Z"/><path class="cls-1" d="M521,5.92h5.5v82.9H521Z"/><rect class="cls-1" x="516" y="1.02" width="15.4" height="92.8"/><path class="cls-1" d="M576.1,5.92l33.3,82.9h-5.9L597,72.62c-4.3,1.7-11.7,3.5-22.5,3.5s-18.4-2-22.6-3.7l-6.3,16.4h-5.9l32.7-82.9ZM595,67.72,574.3,16,554,67.62c.7.2,1.6.6,2.5.8a57.6,57.6,0,0,0,18,2.5c10.2,0,16.9-1.8,20.5-3.2Z"/><path class="cls-1" d="M616.7,93.82H600.2l-6-15a76.25,76.25,0,0,1-19.6,2.4,72.83,72.83,0,0,1-19.7-2.4l-5.9,15H532.5L569.1,1h10.4Zm-56.1-29.3a55.12,55.12,0,0,0,14,1.5,63.37,63.37,0,0,0,13.8-1.4l-14-35.2Z"/></svg>