<?xml version="1.0" encoding="UTF-8" ?>
<!DOCTYPE svg PUBLIC "-//W3C//DTD SVG 1.1//EN" "http://www.w3.org/Graphics/SVG/1.1/DTD/svg11.dtd">
<svg width="448pt" height="448pt" viewBox="0 0 448 448" version="1.1" xmlns="http://www.w3.org/2000/svg">
<g>
<path fill="#FCEBB6" opacity="1.00" d=" M 25.34 67.36 C 47.67 45.14 69.82 22.74 92.23 0.60 C 100.03 9.55 107.32 18.92 114.91 28.04 C 142.93 62.22 170.87 96.45 198.93 130.59 C 183.57 146.45 167.91 162.02 152.71 178.02 C 170.40 196.08 188.46 213.80 206.28 231.75 C 227.56 252.88 248.59 274.28 270.00 295.28 C 286.05 280.15 301.42 264.30 317.44 249.14 C 360.73 284.72 404.30 319.97 447.40 355.76 C 425.08 378.33 402.52 400.65 380.14 423.14 C 367.33 436.09 350.18 444.79 332.06 446.99 C 329.06 447.22 326.07 447.50 323.12 448.00 L 318.46 448.00 C 305.16 447.23 291.83 446.26 278.79 443.32 C 249.61 437.24 221.77 425.70 195.82 411.17 C 142.43 380.89 96.23 338.39 60.26 288.75 C 34.71 253.06 14.12 213.08 4.84 169.94 C 1.86 156.99 0.86 143.74 0.00 130.51 L 0.00 125.54 C 0.74 120.74 0.75 115.84 1.77 111.08 C 4.81 94.52 13.32 79.11 25.34 67.36 M 47.02 90.09 C 36.95 99.86 31.20 114.00 32.00 128.04 C 31.60 140.88 33.48 153.65 36.25 166.16 C 45.09 204.62 64.14 240.00 87.21 271.74 C 103.60 294.07 122.25 314.72 142.74 333.35 C 168.12 356.40 196.30 376.56 227.04 391.85 C 251.23 403.70 277.17 412.72 304.09 415.35 C 309.66 416.36 315.34 415.88 320.97 416.00 C 334.41 416.49 348.14 411.23 357.40 401.38 C 371.74 386.89 386.38 372.68 400.53 358.02 C 390.99 349.67 380.96 341.89 371.22 333.77 C 353.90 319.66 336.72 305.39 319.32 291.39 C 315.93 293.94 313.17 297.18 310.08 300.07 C 296.65 313.21 283.28 326.42 269.76 339.47 C 215.90 285.84 162.20 232.05 108.50 178.26 C 123.78 162.31 139.37 146.66 154.80 130.86 C 155.24 130.31 156.13 129.20 156.58 128.65 C 135.41 102.47 113.92 76.55 92.66 50.44 C 91.82 49.36 90.85 48.38 89.88 47.41 C 75.45 61.49 61.33 75.89 47.02 90.09 Z" />
</g>
</svg>
