<?xml version="1.0" encoding="UTF-8" ?>
<!DOCTYPE svg PUBLIC "-//W3C//DTD SVG 1.1//EN" "http://www.w3.org/Graphics/SVG/1.1/DTD/svg11.dtd">
<svg width="480pt" height="480pt" viewBox="0 0 480 480" version="1.1" xmlns="http://www.w3.org/2000/svg">
<g id="#010101ff">
<path fill="#888888" opacity="1.00" d=" M 16.00 32.00 C 151.98 32.01 287.96 32.00 423.94 32.01 C 437.25 32.10 450.58 31.81 463.90 32.15 C 464.13 138.76 463.92 245.38 464.00 352.00 C 424.68 351.99 385.35 352.00 346.03 351.99 C 344.44 351.96 342.43 352.09 341.71 350.32 C 335.16 340.32 328.19 330.57 321.99 320.36 C 326.30 319.76 330.66 320.05 335.00 320.01 C 367.34 320.00 399.67 320.02 432.00 320.00 C 432.01 234.67 432.01 149.33 432.00 64.00 C 304.00 63.99 176.00 63.99 48.00 64.00 C 47.99 149.34 47.99 234.67 48.00 320.00 C 81.01 320.01 114.01 320.00 147.02 320.00 C 150.68 319.97 154.36 319.88 158.01 320.33 C 151.38 331.12 144.13 341.54 137.01 352.01 C 96.67 351.97 56.34 352.00 16.00 352.00 C 16.01 245.33 16.01 138.67 16.00 32.00 Z" />
<path fill="#888888" opacity="1.00" d=" M 239.06 257.99 C 239.61 256.53 241.00 257.60 241.35 258.52 C 282.67 320.55 324.01 382.56 365.37 444.55 C 366.02 445.59 366.57 446.71 367.11 447.83 C 284.39 448.23 201.66 447.84 118.95 448.02 C 116.93 448.02 114.92 447.86 112.91 447.71 C 114.42 444.45 116.67 441.63 118.60 438.62 C 158.76 378.42 198.86 318.17 239.06 257.99 M 171.63 415.99 C 217.20 416.01 262.77 416.00 308.34 416.00 C 285.62 381.78 262.84 347.59 239.99 313.46 C 217.15 347.60 194.37 381.78 171.63 415.99 Z" />
</g>
</svg>
