<?xml version="1.0" encoding="UTF-8" ?>
<!DOCTYPE svg PUBLIC "-//W3C//DTD SVG 1.1//EN" "http://www.w3.org/Graphics/SVG/1.1/DTD/svg11.dtd">
<svg width="448pt" height="448pt" viewBox="0 0 448 448" version="1.1" xmlns="http://www.w3.org/2000/svg">
<g>
<path fill="#888" opacity="1.00" d=" M 223.35 0.00 L 224.56 0.00 C 233.05 0.63 241.59 0.97 249.97 2.63 C 284.49 8.86 316.40 28.36 337.74 56.20 C 355.59 79.23 366.24 107.81 367.52 136.94 C 368.55 144.32 367.41 151.70 366.97 159.08 C 363.88 188.45 351.40 216.75 331.79 238.83 C 329.16 241.85 326.33 244.70 323.63 247.66 C 341.44 257.05 358.45 268.11 373.36 281.70 C 417.37 320.86 445.00 378.05 447.37 437.00 C 447.59 439.90 447.83 442.79 448.00 445.70 L 448.00 448.00 L 2.26 448.00 C 1.73 447.94 0.66 447.81 0.13 447.75 C 0.46 430.71 2.13 413.64 6.12 397.05 C 14.77 359.90 33.23 325.11 59.08 297.07 C 77.58 276.80 99.93 260.21 124.30 247.67 C 121.71 244.92 119.15 242.14 116.64 239.31 C 96.54 216.88 83.79 187.94 80.96 157.94 C 76.74 117.73 90.84 76.03 118.47 46.50 C 139.66 23.40 168.64 7.61 199.55 2.35 C 207.41 0.90 215.40 0.62 223.35 0.00 M 210.39 32.61 C 172.86 36.70 138.64 61.55 122.63 95.67 C 115.70 110.37 111.68 126.63 112.00 142.93 C 111.24 166.79 119.12 190.67 133.12 209.94 C 149.76 232.96 175.41 249.34 203.42 254.33 C 213.49 256.42 223.81 256.15 234.03 255.85 C 259.52 253.52 284.15 242.38 302.37 224.35 C 320.77 206.59 332.67 182.31 335.49 156.90 C 336.99 141.15 335.90 125.03 330.98 109.92 C 322.57 83.08 303.54 59.82 279.00 46.10 C 262.03 36.59 242.51 31.36 223.03 32.00 C 218.82 32.04 214.56 31.81 210.39 32.61 M 80.36 320.39 C 56.56 347.13 40.12 380.59 34.52 416.01 C 160.85 415.99 287.17 415.99 413.50 416.01 C 410.96 399.74 405.97 383.89 399.21 368.90 C 378.88 323.85 340.48 287.25 294.38 269.38 C 276.91 278.78 257.73 285.27 237.91 287.06 C 230.62 287.49 223.29 288.62 216.00 287.47 C 194.14 286.50 172.80 279.76 153.61 269.38 C 125.58 280.19 100.38 298.04 80.36 320.39 Z" />
</g>
</svg>
