<svg id="Camada_1" data-name="Camada 1" xmlns="http://www.w3.org/2000/svg" viewBox="0 0 230.8 230.23"><defs><style>.cls-1{isolation:isolate;}.cls-2{fill:#31b5bb;}</style></defs><title>selo-evento-cultural</title><g class="cls-1"><g class="cls-1"><path class="cls-2" d="M12.64,175.59h5.93V179H12.64v6.94H20.1v3.38H8.32V165.61H20.1V169H12.64Z" transform="translate(-1.59 0.02)"/><path class="cls-2" d="M29.24,184.93h.08l3.26-19.32h4L32.31,189.3H25.87l-4.24-23.69H26Z" transform="translate(-1.59 0.02)"/><path class="cls-2" d="M42.86,175.59h5.93V179H42.86v6.94h7.46v3.38H38.55V165.61H50.32V169H42.86Z" transform="translate(-1.59 0.02)"/><path class="cls-2" d="M56.92,172.14h-.08V189.3H53V165.61h5.42l4.36,14.18h.08V165.61h3.85V189.3H62.22Z" transform="translate(-1.59 0.02)"/><path class="cls-2" d="M68.5,165.61H81.84V169H77.33V189.3H73V169H68.5Z" transform="translate(-1.59 0.02)"/><path class="cls-2" d="M83.37,171.29c0-3.79,2.32-6,6.56-6s6.56,2.17,6.56,6v12.32c0,3.79-2.32,6-6.56,6s-6.56-2.17-6.56-6Zm4.32,12.56c0,1.69.86,2.33,2.24,2.33s2.24-.64,2.24-2.33V171.06c0-1.69-.86-2.34-2.24-2.34s-2.24.64-2.24,2.34Z" transform="translate(-1.59 0.02)"/><path class="cls-2" d="M117.88,180.47v3.15c0,3.79-2.2,6-6.44,6s-6.44-2.17-6.44-6V171.29c0-3.79,2.2-6,6.44-6s6.44,2.17,6.44,6v2.3H113.8v-2.54c0-1.69-.86-2.34-2.24-2.34s-2.24.64-2.24,2.34v12.79c0,1.69.86,2.3,2.24,2.3s2.24-.61,2.24-2.3v-3.38Z" transform="translate(-1.59 0.02)"/><path class="cls-2" d="M124.63,165.61v18.28c0,1.69.86,2.3,2.24,2.3s2.24-.61,2.24-2.3V165.61h4.08v18c0,3.79-2.2,6-6.44,6s-6.44-2.17-6.44-6v-18Z" transform="translate(-1.59 0.02)"/></g><g class="cls-1"><path class="cls-2" d="M134.74,165.61h4.32v20.31h7.11v3.38H134.74Z" transform="translate(-1.59 0.02)"/></g><g class="cls-1"><path class="cls-2" d="M144.74,165.61h13.35V169h-4.52V189.3h-4.32V169h-4.52Z" transform="translate(-1.59 0.02)"/><path class="cls-2" d="M164.1,165.61v18.28c0,1.69.86,2.3,2.24,2.3s2.24-.61,2.24-2.3V165.61h4.08v18c0,3.79-2.2,6-6.44,6s-6.44-2.17-6.44-6v-18Z" transform="translate(-1.59 0.02)"/><path class="cls-2" d="M184.63,189.3a6.35,6.35,0,0,1-.39-2.91v-3.72c0-2.2-.86-3-2.83-3h-1.49v9.65H175.6V165.61h6.52c4.48,0,6.4,1.79,6.4,5.45v1.86c0,2.44-.9,4-2.83,4.77v.07c2.16.78,2.87,2.54,2.87,5v3.66a6.1,6.1,0,0,0,.47,2.88ZM179.92,169v7.28h1.69c1.61,0,2.59-.61,2.59-2.5v-2.34c0-1.69-.67-2.44-2.2-2.44Z" transform="translate(-1.59 0.02)"/><path class="cls-2" d="M205.36,189.3H201l-.75-4.3H195l-.75,4.3h-4l4.4-23.69H201Zm-9.86-7.51h4.16l-2-12h-.08Z" transform="translate(-1.59 0.02)"/><path class="cls-2" d="M207.35,165.61h4.32v20.31h7.11v3.38H207.35Z" transform="translate(-1.59 0.02)"/></g><g class="cls-1"><path class="cls-2" d="M1.59,206.21H8.42c4.32,0,6.44,2.06,6.44,5.86v12c0,3.79-2.12,5.86-6.44,5.86H1.59Zm4.32,3.38v16.92H8.35c1.37,0,2.2-.61,2.2-2.3V211.89c0-1.69-.82-2.3-2.2-2.3Z" transform="translate(-1.59 0.02)"/></g><g class="cls-1"><path class="cls-2" d="M31.07,229.9H26.71L26,225.6h-5.3l-.75,4.3H16l4.4-23.69h6.32Zm-9.85-7.51h4.16l-2-12h-.08Z" transform="translate(-1.59 0.02)"/><path class="cls-2" d="M48.18,229.9a6.36,6.36,0,0,1-.39-2.91v-3.72c0-2.2-.86-3-2.83-3H43.47v9.65H39.15V206.21h6.52c4.48,0,6.4,1.79,6.4,5.45v1.86c0,2.44-.9,4-2.83,4.77v.07c2.16.78,2.87,2.54,2.87,5V227a6.11,6.11,0,0,0,.47,2.88Zm-4.71-20.31v7.28h1.69c1.61,0,2.59-.61,2.59-2.5V212c0-1.69-.67-2.44-2.2-2.44Z" transform="translate(-1.59 0.02)"/><path class="cls-2" d="M59.25,216.19h5.93v3.38H59.25v6.94h7.46v3.38H54.93V206.21H66.71v3.38H59.25Z" transform="translate(-1.59 0.02)"/><path class="cls-2" d="M75.85,225.53h.08l3.26-19.33h4L78.92,229.9H72.48l-4.24-23.69H72.6Z" transform="translate(-1.59 0.02)"/><path class="cls-2" d="M85.16,206.21h4.32V229.9H85.16Z" transform="translate(-1.59 0.02)"/><path class="cls-2" d="M98.42,205.94c4.2,0,6.36,2.17,6.36,6v.75H100.7v-1c0-1.69-.79-2.34-2.16-2.34s-2.16.64-2.16,2.34.86,3,3.69,5.14c3.61,2.74,4.75,4.7,4.75,7.41,0,3.79-2.2,6-6.44,6s-6.44-2.17-6.44-6v-1.46H96v1.69c0,1.69.86,2.3,2.24,2.3s2.24-.61,2.24-2.3-.86-3-3.69-5.14c-3.61-2.74-4.75-4.7-4.75-7.41C92.06,208.1,94.22,205.94,98.42,205.94Z" transform="translate(-1.59 0.02)"/></g><g class="cls-1"><path class="cls-2" d="M105.28,206.21h13.35v3.38h-4.51V229.9H109.8V209.59h-4.52Z" transform="translate(-1.59 0.02)"/></g><g class="cls-1"><path class="cls-2" d="M133.27,229.9h-4.36l-.75-4.3h-5.3l-.75,4.3h-4l4.4-23.69h6.32Zm-9.85-7.51h4.16l-2-12h-.08Z" transform="translate(-1.59 0.02)"/><path class="cls-2" d="M145.29,212.74h-.08V229.9h-3.89V206.21h5.42l4.36,14.18h.08V206.21H155V229.9h-4.44Z" transform="translate(-1.59 0.02)"/><path class="cls-2" d="M172.1,229.9h-4.36l-.75-4.3h-5.3l-.75,4.3h-4l4.4-23.69h6.32Zm-9.85-7.51h4.16l-2-12h-.08Z" transform="translate(-1.59 0.02)"/><path class="cls-2" d="M192.71,221.07v3.15c0,3.79-2.2,6-6.44,6s-6.44-2.17-6.44-6V211.89c0-3.79,2.2-6,6.44-6s6.44,2.17,6.44,6v2.3h-4.08v-2.54c0-1.69-.86-2.34-2.24-2.34s-2.24.64-2.24,2.34v12.79c0,1.69.86,2.3,2.24,2.3s2.24-.61,2.24-2.3v-3.38Z" transform="translate(-1.59 0.02)"/><path class="cls-2" d="M199.45,206.21v18.28c0,1.69.86,2.3,2.24,2.3s2.24-.61,2.24-2.3V206.21H208v18c0,3.79-2.2,6-6.44,6s-6.44-2.17-6.44-6v-18Z" transform="translate(-1.59 0.02)"/><path class="cls-2" d="M211,206.21h4.32V229.9H211Z" transform="translate(-1.59 0.02)"/><path class="cls-2" d="M232.39,229.9H228l-.75-4.3H222l-.75,4.3h-4l4.4-23.69H228Zm-9.85-7.51h4.16l-2-12h-.08Z" transform="translate(-1.59 0.02)"/></g></g><path class="cls-2" d="M221.31,24.74c-.66,2.8-1.24,5.44-1.9,8.05a218,218,0,0,1-14.1,40c-6,12.65-13.34,24.44-22.89,34.75-10,10.8-21.74,19.08-35.71,24q-2.13.75-4.31,1.4c-1.55.46-3.11.85-4.72,1.29-2.53-3.4-5.21-6.67-7.49-10.19-2.12-3.27-1.93-3.41,1.59-4.86,9.33-3.86,18.47-8.1,26.92-13.7A116.89,116.89,0,0,0,173.83,93a134.44,134.44,0,0,0,18.86-21.43A84.16,84.16,0,0,0,203.4,50.47c.78-2.32,1.75-4.59,2.41-7a8,8,0,0,0-.83-5.61,8.33,8.33,0,0,0-2.54,4.35c-2,9.7-6.94,18.06-12.11,26.26-11,17.36-25.85,30.62-43.78,40.46-5.56,3.05-11.45,5.52-17.17,8.28a1.67,1.67,0,0,1-1.75-.15c-4-2.36-6.59-5.95-8.48-10.09-.53-1.15-1-2.31-1.62-3.64C147.68,91.49,168.09,70.06,179.6,40a4.2,4.2,0,0,0-4.47,2.31,98.65,98.65,0,0,1-20.48,32.07c-9.79,10.34-21.31,18.3-34,24.69a21.54,21.54,0,0,1-3.84,1.41,4,4,0,0,1-4.73-1.87c-2.09-3.33-4.07-6.73-6.17-10.21l1.19-.66c10-5.37,19.28-11.73,27.24-19.9a78.69,78.69,0,0,0,17.43-27.28c.09-.25.16-.51.24-.74a5.66,5.66,0,0,0-5.2,4C141.68,57.46,132,67.39,120.44,75.67c-3.77,2.7-7.76,5.08-11.69,7.54a7.49,7.49,0,0,1-2.56.92A4.25,4.25,0,0,1,102,82.24C100.27,80,98.69,77.77,97,75.53c-.58-.79-1.23-1.54-1.79-2.34-1-1.44-.8-2.42.68-3.35a7.83,7.83,0,0,1,1.6-.8c6.85-2.36,12.31-6.7,17-12,2.26-2.55,4.44-5.18,6.47-7.92A12.64,12.64,0,0,0,123.49,40c-1.22,1.16-2.74,1.66-3.26,3.39-1.59,5.25-4.93,9.35-8.92,13a85.48,85.48,0,0,1-12.87,9.54c-3.75,2.29-5.28,2.07-8.28-1.13-1.51-1.61-2.91-3.35-4.26-5.1-1.63-2.13-1.4-3.33.88-4.73s4.79-2.68,7.07-4.19c3-2,5.42-4.59,6.36-8.25.14-.54.23-1.1.33-1.65a5.08,5.08,0,0,0,0-.68c-1.21,1.13-2.28,2.12-3.33,3.12A48.57,48.57,0,0,1,87.77,51a17.29,17.29,0,0,1-3.35,1.5,4.3,4.3,0,0,1-5.27-1.79c-.74-1-1.35-2.14-2-3.22a20.87,20.87,0,0,0-6.28-6.87c-.43-.29-.88-.56-1.41-.89-.39,1.78-.71,3.45-1.13,5.1a68.58,68.58,0,0,1-6.84,16.28c-4,7.08-7.89,14.19-12.12,21.12C47,86.16,44,89.77,41.14,93.72c-.51-.72-.89-1.2-1.2-1.73q-4.76-8.14-9.5-16.3a1.38,1.38,0,0,1,0-1.6Q34.17,67.57,37.77,61c1.66-3,3.31-6.12,4.79-9.26a12.1,12.1,0,0,0,.38-10.37c-.19.4-.34.69-.46,1-1.93,5-3.78,10-5.83,14.91a47.21,47.21,0,0,1-3.35,6.08c-1.58,2.62-3.25,5.17-5,8A241.46,241.46,0,0,1,12.08,24.82H37.44l.13-.26L22.86,10.76l-7.52,9.59h4.1c1.76,0,3.51-.07,5.27-.15a2.58,2.58,0,0,0,.82-.37,2.85,2.85,0,0,0-.74-.41c-1.75-.35-3.51-.66-5.43-1L23,13.26l10.12,9.47c-1.89.06-3.51.14-5.14.17l-15.61.35c-.24,0-.68-.16-.68-.26,0-.55-.16-1.26.11-1.64,1.15-1.64,2.44-3.19,3.67-4.77l6.86-8.76L41.77,22.7,61.11,1.05H21.83L40,15.45l9.62-9.82H47.57q-4.9.2-9.8.44a3,3,0,0,0-.87.36,2.74,2.74,0,0,0,.92.38h8L40.22,13,26.6,3H56.7L41.77,20.57,22.07,5.2,10.83,19.41c-.37-1.72-.75-3.24-1-4.78-.05-.34.34-.81.62-1.13q5-5.69,10.12-11.34c.28-.31.54-.63,1-1.18H8.34c-.68,0-1.13-.1-.88-1H225.25c0,.66,0,.66-3.05,1.12.79.62,1.43,1.19,2.13,1.68a1.27,1.27,0,0,1,.57,1.44c-.16.82-.26,1.65-.41,2.61l-2.15-1.64L206.9,24.74Zm-38.77-17L202,22.66l19.31-21.6H182.07l18.21,14.42,9.57-9.95-3.61.18c-2.81.12-5.62.21-8.43.36-.25,0-.49.26-.73.4.25.12.49.34.74.34,1.44,0,2.88-.08,4.32-.11h4L200.41,13,186.85,3h30L202,20.57,182.27,5.2,166.89,24.69h31L183.07,10.76l-7.49,9.57c.35,0,.51.07.67.06,2.88-.06,5.77-.12,8.65-.2a2.73,2.73,0,0,0,.79-.29,7.93,7.93,0,0,0-.76-.52,2,2,0,0,0-.52-.09l-4.84-.93,3.63-5.15,10.14,9.52-22.9.5ZM86.77,24.68h31L103,10.76l-7.39,9.45h9.17a3.12,3.12,0,0,0,.88-.29,3.1,3.1,0,0,0-.87-.53c-1.71-.35-3.43-.64-5.29-1l3.65-5.17,10.14,9.52-22.91.51L102.42,7.79l19.47,14.92,19.3-21.63H102L120.2,15.51l9.53-10-3.55.17c-2.78.12-5.55.21-8.33.35a2.73,2.73,0,0,0-.86.38c.31.13.62.26.93.37H126L120.33,13,106.77,3h30l-14.9,17.53L102.17,5.2ZM66.68,3H96.77l-15,17.54L62.11,5.2,46.77,24.68h31L62.9,10.76l-7.5,9.59h3.28c2.07,0,4.15-.08,6.22-.15.21,0,.42-.23.63-.35a2.69,2.69,0,0,0-.53-.38,3.51,3.51,0,0,0-.72-.16l-4.88-.93L63,13.23l10.16,9.52-22.91.5L62.37,7.79,81.85,22.71,101.13,1.08H61.91L80,15.37l9.79-9.82c-4.12.17-8.25.34-12.39.54-.18,0-.35.25-.52.38a1.66,1.66,0,0,0,.52.34,3.44,3.44,0,0,0,.73,0h7.78l-5.64,6.26ZM176.86,3,161.92,20.57,142.23,5.2,126.77,24.72h31.08L143,10.72l-7.39,9.45h9a4.08,4.08,0,0,0,1.09-.32l-1-.53a1.32,1.32,0,0,0-.31,0l-4.83-.92,3.63-5.15,10.17,9.51-22.92.51L142.49,7.81l19.46,14.92,19.3-21.62H142l18.14,14.36,9.71-9.8a.2.2,0,0,0-.12-.07c-4,.15-8.08.31-12.12.49a2.2,2.2,0,0,0-.72.32l.08.3h9.11L160.4,13,146.77,3Z" transform="translate(-1.59 0.02)"/><path class="cls-2" d="M71.77,46.12c2,2.38,3.89,4.53,5.56,6.86Q87.33,67,97.18,81c3.88,5.53,7.69,11.1,11.49,16.68,1.52,2.23,2.82,4.62,4.39,6.81,1.76,2.46,3.74,4.74,5.56,7.15,2,2.61,3.88,5.27,5.76,7.94.78,1.11,1.4,2.34,2.15,3.47,2.43,3.7,4.9,7.37,7.35,11.06l.5.76c-2,.32-4,.76-5.91.89-4.55.31-9.12.47-13.68.72a1.41,1.41,0,0,1-1.36-.7c-10.62-14.33-21.34-28.58-31.88-43C76,85.23,70.64,77.36,65.19,69.58c-.2-.29-.39-.59-.58-.88a5.62,5.62,0,0,1-.35-6.27c2.51-4.9,4.65-10,6.94-15Z" transform="translate(-1.59 0.02)"/><path class="cls-2" d="M61.3,69.74c.94.19,1.29.81,1.73,1.55a92.13,92.13,0,0,0,5.06,8c8.39,11.55,16.92,23,25.28,34.56,5.07,7,9.92,14.17,14.86,21.26.22.31.39.65.73,1.19-2.08-.24-3.95-.4-5.8-.68a80.22,80.22,0,0,1-25.62-8.31A4.43,4.43,0,0,1,76.11,126c-5.59-7.76-11.1-15.57-16.74-23.29-2.86-3.92-5.93-7.68-9-11.48a1.8,1.8,0,0,1-.41-1.8c1.16-4.28,3.49-8,5.91-11.59Z" transform="translate(-1.59 0.02)"/><path class="cls-2" d="M70.11,122.76c-10.92-7-19.71-16.14-27.29-26.61.31-.36.57-.68.86-1l3.55-3.84Z" transform="translate(-1.59 0.02)"/><path class="cls-2" d="M215.63,20.32h6.46a1,1,0,0,1,.06.27c-.38,2.39-.38,2.39-2.77,2.48-2.63.1-5.27.13-7.91.18a6,6,0,0,1-.92-.06L222.49,7.91c1.8.82,1.83.91,1.35,3.07-.42.1-.9.06-1.07.27C220.41,14.2,218.08,17.2,215.63,20.32Z" transform="translate(-1.59 0.02)"/><path class="cls-2" d="M9.33,12.19C9,10.62,8.75,9.26,8.55,7.88A1.63,1.63,0,0,1,9.05,7c.4-.44.85-.83,1.47-1.42H8.14L7.77,3h9.38Z" transform="translate(-1.59 0.02)"/><path class="cls-2" d="M223.47,13.47l-1,5.44-2.87-.52,3.54-5Z" transform="translate(-1.59 0.02)"/></svg>