<?xml version="1.0" encoding="UTF-8" ?>
<!DOCTYPE svg PUBLIC "-//W3C//DTD SVG 1.1//EN" "http://www.w3.org/Graphics/SVG/1.1/DTD/svg11.dtd">
<svg width="448pt" height="448pt" viewBox="0 0 448 448" version="1.1" xmlns="http://www.w3.org/2000/svg">
<g>
<path fill="#FCEBB6" opacity="1.00" d=" M 365.77 0.00 L 369.42 0.00 C 381.38 0.81 393.36 3.27 404.03 8.91 C 422.93 18.43 437.72 35.79 444.02 56.00 C 446.54 63.27 447.20 70.95 448.00 78.54 L 448.00 81.91 C 447.06 92.71 445.15 103.56 440.37 113.38 C 431.47 132.78 414.46 148.24 394.30 155.25 C 377.20 161.32 358.07 161.31 341.05 154.93 C 327.06 149.89 314.87 140.57 305.49 129.12 C 303.11 129.10 301.05 130.94 298.89 131.81 C 251.54 155.56 204.09 179.11 156.79 202.94 C 158.31 209.87 159.63 216.86 159.97 223.97 C 159.70 231.09 158.24 238.09 156.78 245.05 C 205.20 269.44 253.77 293.54 302.22 317.88 C 303.12 318.33 304.06 318.73 305.02 319.08 C 306.81 317.87 307.96 315.94 309.45 314.40 C 322.19 300.32 340.08 290.83 359.01 288.81 C 370.33 287.12 381.97 288.85 392.84 292.23 C 414.39 299.22 432.52 315.89 441.34 336.76 C 445.53 346.15 447.20 356.38 448.00 366.56 L 448.00 369.45 C 447.18 380.64 445.07 391.86 440.08 402.00 C 431.35 420.69 415.04 435.63 395.69 442.75 C 387.32 446.02 378.38 447.22 369.49 448.00 L 366.73 448.00 C 351.55 447.17 336.39 442.94 323.76 434.28 C 307.39 423.41 295.29 406.29 290.61 387.20 C 289.02 381.26 288.60 375.11 288.05 369.02 C 288.04 361.55 289.68 354.22 291.21 346.94 C 242.60 322.45 193.85 298.24 145.20 273.83 C 144.13 273.39 142.66 272.27 141.85 273.78 C 133.67 283.80 123.17 291.97 111.31 297.18 C 102.10 301.31 92.09 303.23 82.07 303.90 C 66.24 303.96 50.28 299.76 36.95 291.09 C 21.42 281.11 9.50 265.64 3.97 248.01 C 1.43 240.49 0.63 232.56 0.00 224.70 L 0.00 222.01 C 0.97 206.58 5.51 191.23 14.53 178.55 C 30.90 154.60 61.16 140.77 89.95 144.94 C 108.55 147.17 126.04 156.64 138.59 170.48 C 140.05 171.99 141.15 173.93 142.95 175.07 C 153.80 170.07 164.33 164.38 175.09 159.17 C 213.77 139.77 252.54 120.53 291.20 101.05 C 290.60 97.70 289.72 94.42 289.18 91.07 C 284.24 61.48 298.80 30.10 323.75 13.71 C 336.12 5.22 350.91 1.03 365.77 0.00 M 359.46 32.47 C 340.24 35.66 324.05 51.59 320.61 70.78 C 319.27 79.81 319.61 89.37 323.15 97.92 C 328.95 112.65 342.43 124.10 357.98 127.20 C 362.88 128.41 367.96 127.95 372.95 127.97 C 390.76 126.42 406.96 113.91 413.12 97.15 C 416.32 89.20 416.55 80.46 415.61 72.06 C 413.04 55.67 401.33 41.17 385.89 35.14 C 377.56 31.65 368.29 31.37 359.46 32.47 M 71.42 176.53 C 53.57 179.50 38.18 193.48 33.55 210.98 C 30.33 223.28 31.59 236.97 38.13 248.02 C 45.45 261.00 59.12 270.10 73.92 271.89 C 81.45 272.30 89.18 272.25 96.30 269.43 C 111.48 264.12 123.46 250.71 126.98 235.00 C 128.43 229.77 127.99 224.31 127.94 218.95 C 126.51 203.77 117.29 189.63 104.01 182.14 C 94.28 176.34 82.50 174.84 71.42 176.53 M 359.44 320.48 C 343.00 323.28 328.60 335.32 322.82 350.94 C 319.69 358.61 319.59 367.01 320.23 375.14 C 322.49 390.83 333.00 404.99 347.39 411.66 C 356.58 416.16 367.17 416.95 377.16 415.38 C 395.47 412.09 410.99 397.19 414.98 379.01 C 416.42 373.77 415.97 368.30 415.97 362.94 C 414.50 346.96 404.28 332.21 389.97 325.00 C 380.65 320.02 369.76 319.05 359.44 320.48 Z" />
</g>
</svg>
