<?xml version="1.0" encoding="UTF-8" ?>
<!DOCTYPE svg PUBLIC "-//W3C//DTD SVG 1.1//EN" "http://www.w3.org/Graphics/SVG/1.1/DTD/svg11.dtd">
<svg width="480pt" height="480pt" viewBox="0 0 480 480" version="1.1" xmlns="http://www.w3.org/2000/svg">
<g id="#010101ff">
<path fill="#888888" opacity="1.00" d=" M 285.02 26.89 C 300.74 19.84 317.91 16.69 335.05 16.04 C 357.85 16.30 380.80 22.06 400.37 33.96 C 398.32 36.68 395.76 38.93 393.38 41.35 C 374.27 60.53 355.04 79.60 335.98 98.84 C 336.03 113.89 335.98 128.94 336.00 144.00 C 351.05 144.01 366.10 143.98 381.15 144.02 C 402.85 122.59 424.20 100.80 445.96 79.44 C 459.74 102.52 466.03 130.17 463.07 156.91 C 460.23 185.90 446.94 213.71 426.30 234.25 C 405.78 254.90 377.98 268.19 349.00 271.06 C 344.65 271.23 340.34 271.89 335.99 271.97 C 324.92 271.69 313.98 269.92 303.18 267.57 C 244.39 326.33 185.61 385.10 126.84 443.87 C 114.45 456.69 96.61 463.52 78.95 463.94 C 71.39 463.34 63.79 462.23 56.73 459.31 C 39.97 452.80 26.33 438.86 20.18 421.96 C 17.59 415.28 16.62 408.13 16.05 401.03 C 16.44 383.83 22.71 366.35 35.10 354.13 C 85.26 303.96 135.42 253.79 185.59 203.62 C 194.52 194.56 203.73 185.76 212.48 176.53 C 209.92 166.21 208.52 155.65 208.02 145.05 C 208.43 129.25 210.81 113.37 216.61 98.59 C 228.59 66.81 253.83 40.35 285.02 26.89 M 309.41 51.48 C 282.36 59.05 259.28 79.25 248.00 104.95 C 242.64 117.22 239.52 130.63 240.00 144.06 C 239.50 158.41 244.32 172.16 247.50 185.97 C 184.02 249.67 120.31 313.15 56.79 376.81 C 44.69 389.51 44.70 412.15 58.26 423.84 C 70.60 435.71 91.66 434.25 103.68 422.67 C 167.15 359.30 230.48 295.79 293.99 232.46 C 307.88 235.41 321.59 240.51 335.97 240.00 C 370.71 240.92 404.49 220.22 420.71 189.69 C 429.30 173.99 433.12 155.86 431.95 138.02 C 418.81 150.30 406.42 163.37 393.61 176.00 C 363.74 176.00 333.87 176.01 304.00 176.00 C 304.00 146.12 304.00 116.25 304.00 86.38 C 314.94 75.50 325.81 64.54 336.74 53.65 C 338.59 51.89 340.31 50.01 341.94 48.04 C 330.99 47.57 319.94 48.26 309.41 51.48 Z" />
</g>
</svg>
