<?xml version="1.0" encoding="UTF-8" ?>
<!DOCTYPE svg PUBLIC "-//W3C//DTD SVG 1.1//EN" "http://www.w3.org/Graphics/SVG/1.1/DTD/svg11.dtd">
<svg width="416pt" height="416pt" viewBox="0 0 416 416" version="1.1" xmlns="http://www.w3.org/2000/svg">
<g id="#999999ff">
<path fill="#888888" opacity="1.00" d=" M 0.00 0.00 L 202.69 0.00 C 268.97 66.15 335.13 132.42 401.37 198.61 C 405.99 203.41 410.98 207.86 415.35 212.89 C 377.62 250.94 339.58 288.71 301.73 326.65 C 272.07 356.20 242.62 385.97 212.84 415.39 C 197.56 400.61 182.74 385.36 167.63 370.41 C 111.78 314.46 55.78 258.67 0.00 202.66 L 0.00 0.00 M 32.00 32.01 C 32.00 84.36 32.00 136.71 32.00 189.05 C 31.70 190.99 33.74 191.92 34.77 193.19 C 81.31 239.69 127.82 286.23 174.33 332.75 C 187.22 345.44 199.73 358.52 212.84 370.97 C 220.82 363.25 228.56 355.29 236.45 347.48 C 281.27 302.59 326.23 257.84 370.96 212.86 C 369.11 210.49 366.83 208.52 364.76 206.35 C 307.91 149.50 251.05 92.66 194.20 35.81 C 192.85 34.56 191.72 33.03 190.16 32.04 C 137.44 31.95 84.72 32.02 32.00 32.01 Z" />
<path fill="#888888" opacity="1.00" d=" M 121.49 64.68 C 125.60 63.95 129.80 63.78 133.91 64.60 C 154.86 66.27 174.38 79.39 184.15 97.95 C 189.12 106.84 191.26 116.95 191.95 127.02 C 191.71 140.68 187.71 154.42 179.49 165.46 C 170.32 178.07 156.41 187.19 141.13 190.35 C 122.08 194.65 101.26 189.08 86.51 176.32 C 67.73 160.54 59.54 133.37 66.87 109.92 C 73.83 85.73 96.31 66.75 121.49 64.68 M 120.40 96.67 C 110.12 99.01 101.33 106.83 97.76 116.75 C 95.73 121.61 95.87 126.91 96.03 132.07 C 97.25 142.98 104.62 152.91 114.65 157.37 C 126.97 162.98 142.75 160.01 151.79 149.79 C 159.09 142.07 161.62 130.71 159.35 120.48 C 157.16 110.93 150.29 102.63 141.35 98.63 C 134.86 95.57 127.34 95.30 120.40 96.67 Z" />
</g>
</svg>
